%TF.GenerationSoftware,KiCad,Pcbnew,7.0.6*%
%TF.CreationDate,2023-11-13T16:36:01+01:00*%
%TF.ProjectId,c64sid,63363473-6964-42e6-9b69-6361645f7063,rev?*%
%TF.SameCoordinates,Original*%
%TF.FileFunction,Drillmap*%
%TF.FilePolarity,Positive*%
%FSLAX45Y45*%
G04 Gerber Fmt 4.5, Leading zero omitted, Abs format (unit mm)*
G04 Created by KiCad (PCBNEW 7.0.6) date 2023-11-13 16:36:01*
%MOMM*%
%LPD*%
G01*
G04 APERTURE LIST*
%ADD10C,0.100000*%
%ADD11C,0.200000*%
%ADD12C,0.120000*%
G04 APERTURE END LIST*
D10*
X8580000Y-10350000D02*
X8720000Y-10630000D01*
X8590000Y-5190000D02*
X8580000Y-10350000D01*
X16720000Y-10210000D02*
X16720000Y-5400000D01*
X16170000Y-5010000D02*
X8890000Y-5010000D01*
X16720000Y-5400000D02*
X16170000Y-5010000D01*
X8890000Y-5010000D02*
X8590000Y-5190000D01*
X8720000Y-10630000D02*
X16290000Y-10630000D01*
X16290000Y-10630000D02*
X16720000Y-10210000D01*
D11*
D12*
X8860000Y-10020000D02*
X8980000Y-10140000D01*
X8980000Y-10020000D02*
X8860000Y-10140000D01*
X8860000Y-10270000D02*
X8980000Y-10390000D01*
X8980000Y-10270000D02*
X8860000Y-10390000D01*
X9360000Y-9520000D02*
X9480000Y-9640000D01*
X9480000Y-9520000D02*
X9360000Y-9640000D01*
X9860000Y-10020000D02*
X9980000Y-10140000D01*
X9980000Y-10020000D02*
X9860000Y-10140000D01*
X9860000Y-10270000D02*
X9980000Y-10390000D01*
X9980000Y-10270000D02*
X9860000Y-10390000D01*
D11*
X8835777Y-10946484D02*
X8835777Y-10746484D01*
X8835777Y-10746484D02*
X8883396Y-10746484D01*
X8883396Y-10746484D02*
X8911967Y-10756008D01*
X8911967Y-10756008D02*
X8931015Y-10775055D01*
X8931015Y-10775055D02*
X8940539Y-10794103D01*
X8940539Y-10794103D02*
X8950063Y-10832198D01*
X8950063Y-10832198D02*
X8950063Y-10860770D01*
X8950063Y-10860770D02*
X8940539Y-10898865D01*
X8940539Y-10898865D02*
X8931015Y-10917912D01*
X8931015Y-10917912D02*
X8911967Y-10936960D01*
X8911967Y-10936960D02*
X8883396Y-10946484D01*
X8883396Y-10946484D02*
X8835777Y-10946484D01*
X9035777Y-10946484D02*
X9035777Y-10813150D01*
X9035777Y-10851246D02*
X9045301Y-10832198D01*
X9045301Y-10832198D02*
X9054824Y-10822674D01*
X9054824Y-10822674D02*
X9073872Y-10813150D01*
X9073872Y-10813150D02*
X9092920Y-10813150D01*
X9159586Y-10946484D02*
X9159586Y-10813150D01*
X9159586Y-10746484D02*
X9150063Y-10756008D01*
X9150063Y-10756008D02*
X9159586Y-10765531D01*
X9159586Y-10765531D02*
X9169110Y-10756008D01*
X9169110Y-10756008D02*
X9159586Y-10746484D01*
X9159586Y-10746484D02*
X9159586Y-10765531D01*
X9283396Y-10946484D02*
X9264348Y-10936960D01*
X9264348Y-10936960D02*
X9254824Y-10917912D01*
X9254824Y-10917912D02*
X9254824Y-10746484D01*
X9388158Y-10946484D02*
X9369110Y-10936960D01*
X9369110Y-10936960D02*
X9359586Y-10917912D01*
X9359586Y-10917912D02*
X9359586Y-10746484D01*
X9616729Y-10946484D02*
X9616729Y-10746484D01*
X9616729Y-10746484D02*
X9683396Y-10889341D01*
X9683396Y-10889341D02*
X9750063Y-10746484D01*
X9750063Y-10746484D02*
X9750063Y-10946484D01*
X9931015Y-10946484D02*
X9931015Y-10841722D01*
X9931015Y-10841722D02*
X9921491Y-10822674D01*
X9921491Y-10822674D02*
X9902444Y-10813150D01*
X9902444Y-10813150D02*
X9864348Y-10813150D01*
X9864348Y-10813150D02*
X9845301Y-10822674D01*
X9931015Y-10936960D02*
X9911967Y-10946484D01*
X9911967Y-10946484D02*
X9864348Y-10946484D01*
X9864348Y-10946484D02*
X9845301Y-10936960D01*
X9845301Y-10936960D02*
X9835777Y-10917912D01*
X9835777Y-10917912D02*
X9835777Y-10898865D01*
X9835777Y-10898865D02*
X9845301Y-10879817D01*
X9845301Y-10879817D02*
X9864348Y-10870293D01*
X9864348Y-10870293D02*
X9911967Y-10870293D01*
X9911967Y-10870293D02*
X9931015Y-10860770D01*
X10026253Y-10813150D02*
X10026253Y-11013150D01*
X10026253Y-10822674D02*
X10045301Y-10813150D01*
X10045301Y-10813150D02*
X10083396Y-10813150D01*
X10083396Y-10813150D02*
X10102444Y-10822674D01*
X10102444Y-10822674D02*
X10111967Y-10832198D01*
X10111967Y-10832198D02*
X10121491Y-10851246D01*
X10121491Y-10851246D02*
X10121491Y-10908389D01*
X10121491Y-10908389D02*
X10111967Y-10927436D01*
X10111967Y-10927436D02*
X10102444Y-10936960D01*
X10102444Y-10936960D02*
X10083396Y-10946484D01*
X10083396Y-10946484D02*
X10045301Y-10946484D01*
X10045301Y-10946484D02*
X10026253Y-10936960D01*
X10207205Y-10927436D02*
X10216729Y-10936960D01*
X10216729Y-10936960D02*
X10207205Y-10946484D01*
X10207205Y-10946484D02*
X10197682Y-10936960D01*
X10197682Y-10936960D02*
X10207205Y-10927436D01*
X10207205Y-10927436D02*
X10207205Y-10946484D01*
X10207205Y-10822674D02*
X10216729Y-10832198D01*
X10216729Y-10832198D02*
X10207205Y-10841722D01*
X10207205Y-10841722D02*
X10197682Y-10832198D01*
X10197682Y-10832198D02*
X10207205Y-10822674D01*
X10207205Y-10822674D02*
X10207205Y-10841722D01*
D12*
X8455000Y-11215000D02*
X8575000Y-11335000D01*
X8575000Y-11215000D02*
X8455000Y-11335000D01*
D11*
X8940539Y-11366484D02*
X8826253Y-11366484D01*
X8883396Y-11366484D02*
X8883396Y-11166484D01*
X8883396Y-11166484D02*
X8864348Y-11195055D01*
X8864348Y-11195055D02*
X8845301Y-11214103D01*
X8845301Y-11214103D02*
X8826253Y-11223627D01*
X9026253Y-11347436D02*
X9035777Y-11356960D01*
X9035777Y-11356960D02*
X9026253Y-11366484D01*
X9026253Y-11366484D02*
X9016729Y-11356960D01*
X9016729Y-11356960D02*
X9026253Y-11347436D01*
X9026253Y-11347436D02*
X9026253Y-11366484D01*
X9111967Y-11185531D02*
X9121491Y-11176008D01*
X9121491Y-11176008D02*
X9140539Y-11166484D01*
X9140539Y-11166484D02*
X9188158Y-11166484D01*
X9188158Y-11166484D02*
X9207205Y-11176008D01*
X9207205Y-11176008D02*
X9216729Y-11185531D01*
X9216729Y-11185531D02*
X9226253Y-11204579D01*
X9226253Y-11204579D02*
X9226253Y-11223627D01*
X9226253Y-11223627D02*
X9216729Y-11252198D01*
X9216729Y-11252198D02*
X9102444Y-11366484D01*
X9102444Y-11366484D02*
X9226253Y-11366484D01*
X9350063Y-11166484D02*
X9369110Y-11166484D01*
X9369110Y-11166484D02*
X9388158Y-11176008D01*
X9388158Y-11176008D02*
X9397682Y-11185531D01*
X9397682Y-11185531D02*
X9407205Y-11204579D01*
X9407205Y-11204579D02*
X9416729Y-11242674D01*
X9416729Y-11242674D02*
X9416729Y-11290293D01*
X9416729Y-11290293D02*
X9407205Y-11328388D01*
X9407205Y-11328388D02*
X9397682Y-11347436D01*
X9397682Y-11347436D02*
X9388158Y-11356960D01*
X9388158Y-11356960D02*
X9369110Y-11366484D01*
X9369110Y-11366484D02*
X9350063Y-11366484D01*
X9350063Y-11366484D02*
X9331015Y-11356960D01*
X9331015Y-11356960D02*
X9321491Y-11347436D01*
X9321491Y-11347436D02*
X9311967Y-11328388D01*
X9311967Y-11328388D02*
X9302444Y-11290293D01*
X9302444Y-11290293D02*
X9302444Y-11242674D01*
X9302444Y-11242674D02*
X9311967Y-11204579D01*
X9311967Y-11204579D02*
X9321491Y-11185531D01*
X9321491Y-11185531D02*
X9331015Y-11176008D01*
X9331015Y-11176008D02*
X9350063Y-11166484D01*
X9540539Y-11166484D02*
X9559586Y-11166484D01*
X9559586Y-11166484D02*
X9578634Y-11176008D01*
X9578634Y-11176008D02*
X9588158Y-11185531D01*
X9588158Y-11185531D02*
X9597682Y-11204579D01*
X9597682Y-11204579D02*
X9607205Y-11242674D01*
X9607205Y-11242674D02*
X9607205Y-11290293D01*
X9607205Y-11290293D02*
X9597682Y-11328388D01*
X9597682Y-11328388D02*
X9588158Y-11347436D01*
X9588158Y-11347436D02*
X9578634Y-11356960D01*
X9578634Y-11356960D02*
X9559586Y-11366484D01*
X9559586Y-11366484D02*
X9540539Y-11366484D01*
X9540539Y-11366484D02*
X9521491Y-11356960D01*
X9521491Y-11356960D02*
X9511967Y-11347436D01*
X9511967Y-11347436D02*
X9502444Y-11328388D01*
X9502444Y-11328388D02*
X9492920Y-11290293D01*
X9492920Y-11290293D02*
X9492920Y-11242674D01*
X9492920Y-11242674D02*
X9502444Y-11204579D01*
X9502444Y-11204579D02*
X9511967Y-11185531D01*
X9511967Y-11185531D02*
X9521491Y-11176008D01*
X9521491Y-11176008D02*
X9540539Y-11166484D01*
X9692920Y-11366484D02*
X9692920Y-11233150D01*
X9692920Y-11252198D02*
X9702444Y-11242674D01*
X9702444Y-11242674D02*
X9721491Y-11233150D01*
X9721491Y-11233150D02*
X9750063Y-11233150D01*
X9750063Y-11233150D02*
X9769110Y-11242674D01*
X9769110Y-11242674D02*
X9778634Y-11261722D01*
X9778634Y-11261722D02*
X9778634Y-11366484D01*
X9778634Y-11261722D02*
X9788158Y-11242674D01*
X9788158Y-11242674D02*
X9807205Y-11233150D01*
X9807205Y-11233150D02*
X9835777Y-11233150D01*
X9835777Y-11233150D02*
X9854825Y-11242674D01*
X9854825Y-11242674D02*
X9864348Y-11261722D01*
X9864348Y-11261722D02*
X9864348Y-11366484D01*
X9959586Y-11366484D02*
X9959586Y-11233150D01*
X9959586Y-11252198D02*
X9969110Y-11242674D01*
X9969110Y-11242674D02*
X9988158Y-11233150D01*
X9988158Y-11233150D02*
X10016729Y-11233150D01*
X10016729Y-11233150D02*
X10035777Y-11242674D01*
X10035777Y-11242674D02*
X10045301Y-11261722D01*
X10045301Y-11261722D02*
X10045301Y-11366484D01*
X10045301Y-11261722D02*
X10054825Y-11242674D01*
X10054825Y-11242674D02*
X10073872Y-11233150D01*
X10073872Y-11233150D02*
X10102444Y-11233150D01*
X10102444Y-11233150D02*
X10121491Y-11242674D01*
X10121491Y-11242674D02*
X10131015Y-11261722D01*
X10131015Y-11261722D02*
X10131015Y-11366484D01*
X10521491Y-11156960D02*
X10350063Y-11414103D01*
X10778634Y-11166484D02*
X10797682Y-11166484D01*
X10797682Y-11166484D02*
X10816729Y-11176008D01*
X10816729Y-11176008D02*
X10826253Y-11185531D01*
X10826253Y-11185531D02*
X10835777Y-11204579D01*
X10835777Y-11204579D02*
X10845301Y-11242674D01*
X10845301Y-11242674D02*
X10845301Y-11290293D01*
X10845301Y-11290293D02*
X10835777Y-11328388D01*
X10835777Y-11328388D02*
X10826253Y-11347436D01*
X10826253Y-11347436D02*
X10816729Y-11356960D01*
X10816729Y-11356960D02*
X10797682Y-11366484D01*
X10797682Y-11366484D02*
X10778634Y-11366484D01*
X10778634Y-11366484D02*
X10759587Y-11356960D01*
X10759587Y-11356960D02*
X10750063Y-11347436D01*
X10750063Y-11347436D02*
X10740539Y-11328388D01*
X10740539Y-11328388D02*
X10731015Y-11290293D01*
X10731015Y-11290293D02*
X10731015Y-11242674D01*
X10731015Y-11242674D02*
X10740539Y-11204579D01*
X10740539Y-11204579D02*
X10750063Y-11185531D01*
X10750063Y-11185531D02*
X10759587Y-11176008D01*
X10759587Y-11176008D02*
X10778634Y-11166484D01*
X10931015Y-11347436D02*
X10940539Y-11356960D01*
X10940539Y-11356960D02*
X10931015Y-11366484D01*
X10931015Y-11366484D02*
X10921491Y-11356960D01*
X10921491Y-11356960D02*
X10931015Y-11347436D01*
X10931015Y-11347436D02*
X10931015Y-11366484D01*
X11064348Y-11166484D02*
X11083396Y-11166484D01*
X11083396Y-11166484D02*
X11102444Y-11176008D01*
X11102444Y-11176008D02*
X11111968Y-11185531D01*
X11111968Y-11185531D02*
X11121491Y-11204579D01*
X11121491Y-11204579D02*
X11131015Y-11242674D01*
X11131015Y-11242674D02*
X11131015Y-11290293D01*
X11131015Y-11290293D02*
X11121491Y-11328388D01*
X11121491Y-11328388D02*
X11111968Y-11347436D01*
X11111968Y-11347436D02*
X11102444Y-11356960D01*
X11102444Y-11356960D02*
X11083396Y-11366484D01*
X11083396Y-11366484D02*
X11064348Y-11366484D01*
X11064348Y-11366484D02*
X11045301Y-11356960D01*
X11045301Y-11356960D02*
X11035777Y-11347436D01*
X11035777Y-11347436D02*
X11026253Y-11328388D01*
X11026253Y-11328388D02*
X11016729Y-11290293D01*
X11016729Y-11290293D02*
X11016729Y-11242674D01*
X11016729Y-11242674D02*
X11026253Y-11204579D01*
X11026253Y-11204579D02*
X11035777Y-11185531D01*
X11035777Y-11185531D02*
X11045301Y-11176008D01*
X11045301Y-11176008D02*
X11064348Y-11166484D01*
X11302444Y-11233150D02*
X11302444Y-11366484D01*
X11254825Y-11156960D02*
X11207206Y-11299817D01*
X11207206Y-11299817D02*
X11331015Y-11299817D01*
X11388158Y-11166484D02*
X11521491Y-11166484D01*
X11521491Y-11166484D02*
X11435777Y-11366484D01*
X11588158Y-11185531D02*
X11597682Y-11176008D01*
X11597682Y-11176008D02*
X11616729Y-11166484D01*
X11616729Y-11166484D02*
X11664348Y-11166484D01*
X11664348Y-11166484D02*
X11683396Y-11176008D01*
X11683396Y-11176008D02*
X11692920Y-11185531D01*
X11692920Y-11185531D02*
X11702444Y-11204579D01*
X11702444Y-11204579D02*
X11702444Y-11223627D01*
X11702444Y-11223627D02*
X11692920Y-11252198D01*
X11692920Y-11252198D02*
X11578634Y-11366484D01*
X11578634Y-11366484D02*
X11702444Y-11366484D01*
X11778634Y-11166484D02*
X11778634Y-11204579D01*
X11854825Y-11166484D02*
X11854825Y-11204579D01*
X12150063Y-11442674D02*
X12140539Y-11433150D01*
X12140539Y-11433150D02*
X12121491Y-11404579D01*
X12121491Y-11404579D02*
X12111968Y-11385531D01*
X12111968Y-11385531D02*
X12102444Y-11356960D01*
X12102444Y-11356960D02*
X12092920Y-11309341D01*
X12092920Y-11309341D02*
X12092920Y-11271246D01*
X12092920Y-11271246D02*
X12102444Y-11223627D01*
X12102444Y-11223627D02*
X12111968Y-11195055D01*
X12111968Y-11195055D02*
X12121491Y-11176008D01*
X12121491Y-11176008D02*
X12140539Y-11147436D01*
X12140539Y-11147436D02*
X12150063Y-11137912D01*
X12321491Y-11166484D02*
X12226253Y-11166484D01*
X12226253Y-11166484D02*
X12216729Y-11261722D01*
X12216729Y-11261722D02*
X12226253Y-11252198D01*
X12226253Y-11252198D02*
X12245301Y-11242674D01*
X12245301Y-11242674D02*
X12292920Y-11242674D01*
X12292920Y-11242674D02*
X12311968Y-11252198D01*
X12311968Y-11252198D02*
X12321491Y-11261722D01*
X12321491Y-11261722D02*
X12331015Y-11280769D01*
X12331015Y-11280769D02*
X12331015Y-11328388D01*
X12331015Y-11328388D02*
X12321491Y-11347436D01*
X12321491Y-11347436D02*
X12311968Y-11356960D01*
X12311968Y-11356960D02*
X12292920Y-11366484D01*
X12292920Y-11366484D02*
X12245301Y-11366484D01*
X12245301Y-11366484D02*
X12226253Y-11356960D01*
X12226253Y-11356960D02*
X12216729Y-11347436D01*
X12569110Y-11366484D02*
X12569110Y-11166484D01*
X12654825Y-11366484D02*
X12654825Y-11261722D01*
X12654825Y-11261722D02*
X12645301Y-11242674D01*
X12645301Y-11242674D02*
X12626253Y-11233150D01*
X12626253Y-11233150D02*
X12597682Y-11233150D01*
X12597682Y-11233150D02*
X12578634Y-11242674D01*
X12578634Y-11242674D02*
X12569110Y-11252198D01*
X12778634Y-11366484D02*
X12759587Y-11356960D01*
X12759587Y-11356960D02*
X12750063Y-11347436D01*
X12750063Y-11347436D02*
X12740539Y-11328388D01*
X12740539Y-11328388D02*
X12740539Y-11271246D01*
X12740539Y-11271246D02*
X12750063Y-11252198D01*
X12750063Y-11252198D02*
X12759587Y-11242674D01*
X12759587Y-11242674D02*
X12778634Y-11233150D01*
X12778634Y-11233150D02*
X12807206Y-11233150D01*
X12807206Y-11233150D02*
X12826253Y-11242674D01*
X12826253Y-11242674D02*
X12835777Y-11252198D01*
X12835777Y-11252198D02*
X12845301Y-11271246D01*
X12845301Y-11271246D02*
X12845301Y-11328388D01*
X12845301Y-11328388D02*
X12835777Y-11347436D01*
X12835777Y-11347436D02*
X12826253Y-11356960D01*
X12826253Y-11356960D02*
X12807206Y-11366484D01*
X12807206Y-11366484D02*
X12778634Y-11366484D01*
X12959587Y-11366484D02*
X12940539Y-11356960D01*
X12940539Y-11356960D02*
X12931015Y-11337912D01*
X12931015Y-11337912D02*
X12931015Y-11166484D01*
X13111968Y-11356960D02*
X13092920Y-11366484D01*
X13092920Y-11366484D02*
X13054825Y-11366484D01*
X13054825Y-11366484D02*
X13035777Y-11356960D01*
X13035777Y-11356960D02*
X13026253Y-11337912D01*
X13026253Y-11337912D02*
X13026253Y-11261722D01*
X13026253Y-11261722D02*
X13035777Y-11242674D01*
X13035777Y-11242674D02*
X13054825Y-11233150D01*
X13054825Y-11233150D02*
X13092920Y-11233150D01*
X13092920Y-11233150D02*
X13111968Y-11242674D01*
X13111968Y-11242674D02*
X13121491Y-11261722D01*
X13121491Y-11261722D02*
X13121491Y-11280769D01*
X13121491Y-11280769D02*
X13026253Y-11299817D01*
X13197682Y-11356960D02*
X13216730Y-11366484D01*
X13216730Y-11366484D02*
X13254825Y-11366484D01*
X13254825Y-11366484D02*
X13273872Y-11356960D01*
X13273872Y-11356960D02*
X13283396Y-11337912D01*
X13283396Y-11337912D02*
X13283396Y-11328388D01*
X13283396Y-11328388D02*
X13273872Y-11309341D01*
X13273872Y-11309341D02*
X13254825Y-11299817D01*
X13254825Y-11299817D02*
X13226253Y-11299817D01*
X13226253Y-11299817D02*
X13207206Y-11290293D01*
X13207206Y-11290293D02*
X13197682Y-11271246D01*
X13197682Y-11271246D02*
X13197682Y-11261722D01*
X13197682Y-11261722D02*
X13207206Y-11242674D01*
X13207206Y-11242674D02*
X13226253Y-11233150D01*
X13226253Y-11233150D02*
X13254825Y-11233150D01*
X13254825Y-11233150D02*
X13273872Y-11242674D01*
X13350063Y-11442674D02*
X13359587Y-11433150D01*
X13359587Y-11433150D02*
X13378634Y-11404579D01*
X13378634Y-11404579D02*
X13388158Y-11385531D01*
X13388158Y-11385531D02*
X13397682Y-11356960D01*
X13397682Y-11356960D02*
X13407206Y-11309341D01*
X13407206Y-11309341D02*
X13407206Y-11271246D01*
X13407206Y-11271246D02*
X13397682Y-11223627D01*
X13397682Y-11223627D02*
X13388158Y-11195055D01*
X13388158Y-11195055D02*
X13378634Y-11176008D01*
X13378634Y-11176008D02*
X13359587Y-11147436D01*
X13359587Y-11147436D02*
X13350063Y-11137912D01*
X13711968Y-11442674D02*
X13702444Y-11433150D01*
X13702444Y-11433150D02*
X13683396Y-11404579D01*
X13683396Y-11404579D02*
X13673872Y-11385531D01*
X13673872Y-11385531D02*
X13664349Y-11356960D01*
X13664349Y-11356960D02*
X13654825Y-11309341D01*
X13654825Y-11309341D02*
X13654825Y-11271246D01*
X13654825Y-11271246D02*
X13664349Y-11223627D01*
X13664349Y-11223627D02*
X13673872Y-11195055D01*
X13673872Y-11195055D02*
X13683396Y-11176008D01*
X13683396Y-11176008D02*
X13702444Y-11147436D01*
X13702444Y-11147436D02*
X13711968Y-11137912D01*
X13788158Y-11233150D02*
X13788158Y-11366484D01*
X13788158Y-11252198D02*
X13797682Y-11242674D01*
X13797682Y-11242674D02*
X13816730Y-11233150D01*
X13816730Y-11233150D02*
X13845301Y-11233150D01*
X13845301Y-11233150D02*
X13864349Y-11242674D01*
X13864349Y-11242674D02*
X13873872Y-11261722D01*
X13873872Y-11261722D02*
X13873872Y-11366484D01*
X13997682Y-11366484D02*
X13978634Y-11356960D01*
X13978634Y-11356960D02*
X13969111Y-11347436D01*
X13969111Y-11347436D02*
X13959587Y-11328388D01*
X13959587Y-11328388D02*
X13959587Y-11271246D01*
X13959587Y-11271246D02*
X13969111Y-11252198D01*
X13969111Y-11252198D02*
X13978634Y-11242674D01*
X13978634Y-11242674D02*
X13997682Y-11233150D01*
X13997682Y-11233150D02*
X14026253Y-11233150D01*
X14026253Y-11233150D02*
X14045301Y-11242674D01*
X14045301Y-11242674D02*
X14054825Y-11252198D01*
X14054825Y-11252198D02*
X14064349Y-11271246D01*
X14064349Y-11271246D02*
X14064349Y-11328388D01*
X14064349Y-11328388D02*
X14054825Y-11347436D01*
X14054825Y-11347436D02*
X14045301Y-11356960D01*
X14045301Y-11356960D02*
X14026253Y-11366484D01*
X14026253Y-11366484D02*
X13997682Y-11366484D01*
X14121492Y-11233150D02*
X14197682Y-11233150D01*
X14150063Y-11166484D02*
X14150063Y-11337912D01*
X14150063Y-11337912D02*
X14159587Y-11356960D01*
X14159587Y-11356960D02*
X14178634Y-11366484D01*
X14178634Y-11366484D02*
X14197682Y-11366484D01*
X14416730Y-11233150D02*
X14416730Y-11433150D01*
X14416730Y-11242674D02*
X14435777Y-11233150D01*
X14435777Y-11233150D02*
X14473873Y-11233150D01*
X14473873Y-11233150D02*
X14492920Y-11242674D01*
X14492920Y-11242674D02*
X14502444Y-11252198D01*
X14502444Y-11252198D02*
X14511968Y-11271246D01*
X14511968Y-11271246D02*
X14511968Y-11328388D01*
X14511968Y-11328388D02*
X14502444Y-11347436D01*
X14502444Y-11347436D02*
X14492920Y-11356960D01*
X14492920Y-11356960D02*
X14473873Y-11366484D01*
X14473873Y-11366484D02*
X14435777Y-11366484D01*
X14435777Y-11366484D02*
X14416730Y-11356960D01*
X14626253Y-11366484D02*
X14607206Y-11356960D01*
X14607206Y-11356960D02*
X14597682Y-11337912D01*
X14597682Y-11337912D02*
X14597682Y-11166484D01*
X14788158Y-11366484D02*
X14788158Y-11261722D01*
X14788158Y-11261722D02*
X14778634Y-11242674D01*
X14778634Y-11242674D02*
X14759587Y-11233150D01*
X14759587Y-11233150D02*
X14721492Y-11233150D01*
X14721492Y-11233150D02*
X14702444Y-11242674D01*
X14788158Y-11356960D02*
X14769111Y-11366484D01*
X14769111Y-11366484D02*
X14721492Y-11366484D01*
X14721492Y-11366484D02*
X14702444Y-11356960D01*
X14702444Y-11356960D02*
X14692920Y-11337912D01*
X14692920Y-11337912D02*
X14692920Y-11318865D01*
X14692920Y-11318865D02*
X14702444Y-11299817D01*
X14702444Y-11299817D02*
X14721492Y-11290293D01*
X14721492Y-11290293D02*
X14769111Y-11290293D01*
X14769111Y-11290293D02*
X14788158Y-11280769D01*
X14854825Y-11233150D02*
X14931015Y-11233150D01*
X14883396Y-11166484D02*
X14883396Y-11337912D01*
X14883396Y-11337912D02*
X14892920Y-11356960D01*
X14892920Y-11356960D02*
X14911968Y-11366484D01*
X14911968Y-11366484D02*
X14931015Y-11366484D01*
X15073873Y-11356960D02*
X15054825Y-11366484D01*
X15054825Y-11366484D02*
X15016730Y-11366484D01*
X15016730Y-11366484D02*
X14997682Y-11356960D01*
X14997682Y-11356960D02*
X14988158Y-11337912D01*
X14988158Y-11337912D02*
X14988158Y-11261722D01*
X14988158Y-11261722D02*
X14997682Y-11242674D01*
X14997682Y-11242674D02*
X15016730Y-11233150D01*
X15016730Y-11233150D02*
X15054825Y-11233150D01*
X15054825Y-11233150D02*
X15073873Y-11242674D01*
X15073873Y-11242674D02*
X15083396Y-11261722D01*
X15083396Y-11261722D02*
X15083396Y-11280769D01*
X15083396Y-11280769D02*
X14988158Y-11299817D01*
X15254825Y-11366484D02*
X15254825Y-11166484D01*
X15254825Y-11356960D02*
X15235777Y-11366484D01*
X15235777Y-11366484D02*
X15197682Y-11366484D01*
X15197682Y-11366484D02*
X15178634Y-11356960D01*
X15178634Y-11356960D02*
X15169111Y-11347436D01*
X15169111Y-11347436D02*
X15159587Y-11328388D01*
X15159587Y-11328388D02*
X15159587Y-11271246D01*
X15159587Y-11271246D02*
X15169111Y-11252198D01*
X15169111Y-11252198D02*
X15178634Y-11242674D01*
X15178634Y-11242674D02*
X15197682Y-11233150D01*
X15197682Y-11233150D02*
X15235777Y-11233150D01*
X15235777Y-11233150D02*
X15254825Y-11242674D01*
X15331015Y-11442674D02*
X15340539Y-11433150D01*
X15340539Y-11433150D02*
X15359587Y-11404579D01*
X15359587Y-11404579D02*
X15369111Y-11385531D01*
X15369111Y-11385531D02*
X15378634Y-11356960D01*
X15378634Y-11356960D02*
X15388158Y-11309341D01*
X15388158Y-11309341D02*
X15388158Y-11271246D01*
X15388158Y-11271246D02*
X15378634Y-11223627D01*
X15378634Y-11223627D02*
X15369111Y-11195055D01*
X15369111Y-11195055D02*
X15359587Y-11176008D01*
X15359587Y-11176008D02*
X15340539Y-11147436D01*
X15340539Y-11147436D02*
X15331015Y-11137912D01*
M02*
