%TF.GenerationSoftware,KiCad,Pcbnew,7.0.6*%
%TF.CreationDate,2023-11-13T16:36:01+01:00*%
%TF.ProjectId,c64sid,63363473-6964-42e6-9b69-6361645f7063,rev?*%
%TF.SameCoordinates,Original*%
%TF.FileFunction,Drillmap*%
%TF.FilePolarity,Positive*%
%FSLAX45Y45*%
G04 Gerber Fmt 4.5, Leading zero omitted, Abs format (unit mm)*
G04 Created by KiCad (PCBNEW 7.0.6) date 2023-11-13 16:36:01*
%MOMM*%
%LPD*%
G01*
G04 APERTURE LIST*
%ADD10C,0.100000*%
%ADD11C,0.200000*%
%ADD12C,0.040000*%
%ADD13C,0.060000*%
%ADD14C,0.070000*%
%ADD15C,0.080000*%
G04 APERTURE END LIST*
D10*
X8580000Y-10350000D02*
X8720000Y-10630000D01*
X8590000Y-5190000D02*
X8580000Y-10350000D01*
X16720000Y-10210000D02*
X16720000Y-5400000D01*
X16170000Y-5010000D02*
X8890000Y-5010000D01*
X16720000Y-5400000D02*
X16170000Y-5010000D01*
X8890000Y-5010000D02*
X8590000Y-5190000D01*
X8720000Y-10630000D02*
X16290000Y-10630000D01*
X16290000Y-10630000D02*
X16720000Y-10210000D01*
D11*
D12*
X12892590Y-7218060D02*
X12932590Y-7258060D01*
X12932590Y-7218060D02*
X12892590Y-7258060D01*
X13555990Y-6716750D02*
X13595990Y-6756750D01*
X13595990Y-6716750D02*
X13555990Y-6756750D01*
X8940000Y-9580000D02*
G75*
G03*
X8940000Y-9580000I-20000J0D01*
G01*
D11*
X8900000Y-9530000D02*
X8900000Y-9630000D01*
X8900000Y-9630000D02*
G75*
G03*
X8940000Y-9630000I20000J0D01*
G01*
X8940000Y-9630000D02*
X8940000Y-9530000D01*
X8940000Y-9530000D02*
G75*
G03*
X8900000Y-9530000I-20000J0D01*
G01*
D12*
X9440000Y-10080000D02*
G75*
G03*
X9440000Y-10080000I-20000J0D01*
G01*
D11*
X9370000Y-10100000D02*
X9470000Y-10100000D01*
X9470000Y-10100000D02*
G75*
G03*
X9470000Y-10060000I0J20000D01*
G01*
X9470000Y-10060000D02*
X9370000Y-10060000D01*
X9370000Y-10060000D02*
G75*
G03*
X9370000Y-10100000I0J-20000D01*
G01*
D12*
X9940000Y-9580000D02*
G75*
G03*
X9940000Y-9580000I-20000J0D01*
G01*
D11*
X9940000Y-9630000D02*
X9940000Y-9530000D01*
X9940000Y-9530000D02*
G75*
G03*
X9900000Y-9530000I-20000J0D01*
G01*
X9900000Y-9530000D02*
X9900000Y-9630000D01*
X9900000Y-9630000D02*
G75*
G03*
X9940000Y-9630000I20000J0D01*
G01*
D13*
X14175000Y-8565000D02*
X14175000Y-8625000D01*
X14145000Y-8595000D02*
X14205000Y-8595000D01*
X14175000Y-8765000D02*
X14175000Y-8825000D01*
X14145000Y-8795000D02*
X14205000Y-8795000D01*
D14*
X12745749Y-10359749D02*
X12745749Y-10310251D01*
X12696251Y-10310251D01*
X12696251Y-10359749D01*
X12745749Y-10359749D01*
X12807749Y-9625749D02*
X12807749Y-9576251D01*
X12758251Y-9576251D01*
X12758251Y-9625749D01*
X12807749Y-9625749D01*
X13061749Y-9371749D02*
X13061749Y-9322251D01*
X13012251Y-9322251D01*
X13012251Y-9371749D01*
X13061749Y-9371749D01*
X13061749Y-9879749D02*
X13061749Y-9830251D01*
X13012251Y-9830251D01*
X13012251Y-9879749D01*
X13061749Y-9879749D01*
X13253749Y-10359749D02*
X13253749Y-10310251D01*
X13204251Y-10310251D01*
X13204251Y-10359749D01*
X13253749Y-10359749D01*
X13810749Y-9634749D02*
X13810749Y-9585251D01*
X13761251Y-9585251D01*
X13761251Y-9634749D01*
X13810749Y-9634749D01*
X14000749Y-9634749D02*
X14000749Y-9585251D01*
X13951251Y-9585251D01*
X13951251Y-9634749D01*
X14000749Y-9634749D01*
D15*
X11652000Y-9390000D02*
X11692000Y-9350000D01*
X11652000Y-9310000D01*
X11612000Y-9350000D01*
X11652000Y-9390000D01*
X11652000Y-9644000D02*
X11692000Y-9604000D01*
X11652000Y-9564000D01*
X11612000Y-9604000D01*
X11652000Y-9644000D01*
X11652000Y-9898000D02*
X11692000Y-9858000D01*
X11652000Y-9818000D01*
X11612000Y-9858000D01*
X11652000Y-9898000D01*
X11652000Y-10152000D02*
X11692000Y-10112000D01*
X11652000Y-10072000D01*
X11612000Y-10112000D01*
X11652000Y-10152000D01*
X11697000Y-5665000D02*
X11737000Y-5625000D01*
X11697000Y-5585000D01*
X11657000Y-5625000D01*
X11697000Y-5665000D01*
X11697000Y-5919000D02*
X11737000Y-5879000D01*
X11697000Y-5839000D01*
X11657000Y-5879000D01*
X11697000Y-5919000D01*
X11697000Y-6173000D02*
X11737000Y-6133000D01*
X11697000Y-6093000D01*
X11657000Y-6133000D01*
X11697000Y-6173000D01*
X11697000Y-6427000D02*
X11737000Y-6387000D01*
X11697000Y-6347000D01*
X11657000Y-6387000D01*
X11697000Y-6427000D01*
X11697000Y-6681000D02*
X11737000Y-6641000D01*
X11697000Y-6601000D01*
X11657000Y-6641000D01*
X11697000Y-6681000D01*
X11697000Y-6935000D02*
X11737000Y-6895000D01*
X11697000Y-6855000D01*
X11657000Y-6895000D01*
X11697000Y-6935000D01*
X11697000Y-7189000D02*
X11737000Y-7149000D01*
X11697000Y-7109000D01*
X11657000Y-7149000D01*
X11697000Y-7189000D01*
X11697000Y-7443000D02*
X11737000Y-7403000D01*
X11697000Y-7363000D01*
X11657000Y-7403000D01*
X11697000Y-7443000D01*
X11697000Y-7697000D02*
X11737000Y-7657000D01*
X11697000Y-7617000D01*
X11657000Y-7657000D01*
X11697000Y-7697000D01*
X11697000Y-7951000D02*
X11737000Y-7911000D01*
X11697000Y-7871000D01*
X11657000Y-7911000D01*
X11697000Y-7951000D01*
X11697000Y-8205000D02*
X11737000Y-8165000D01*
X11697000Y-8125000D01*
X11657000Y-8165000D01*
X11697000Y-8205000D01*
X11697000Y-8459000D02*
X11737000Y-8419000D01*
X11697000Y-8379000D01*
X11657000Y-8419000D01*
X11697000Y-8459000D01*
X11697000Y-8713000D02*
X11737000Y-8673000D01*
X11697000Y-8633000D01*
X11657000Y-8673000D01*
X11697000Y-8713000D01*
X11697000Y-8967000D02*
X11737000Y-8927000D01*
X11697000Y-8887000D01*
X11657000Y-8927000D01*
X11697000Y-8967000D01*
X12414000Y-9390000D02*
X12454000Y-9350000D01*
X12414000Y-9310000D01*
X12374000Y-9350000D01*
X12414000Y-9390000D01*
X12414000Y-9644000D02*
X12454000Y-9604000D01*
X12414000Y-9564000D01*
X12374000Y-9604000D01*
X12414000Y-9644000D01*
X12414000Y-9898000D02*
X12454000Y-9858000D01*
X12414000Y-9818000D01*
X12374000Y-9858000D01*
X12414000Y-9898000D01*
X12414000Y-10152000D02*
X12454000Y-10112000D01*
X12414000Y-10072000D01*
X12374000Y-10112000D01*
X12414000Y-10152000D01*
X13221000Y-5665000D02*
X13261000Y-5625000D01*
X13221000Y-5585000D01*
X13181000Y-5625000D01*
X13221000Y-5665000D01*
X13221000Y-5919000D02*
X13261000Y-5879000D01*
X13221000Y-5839000D01*
X13181000Y-5879000D01*
X13221000Y-5919000D01*
X13221000Y-6173000D02*
X13261000Y-6133000D01*
X13221000Y-6093000D01*
X13181000Y-6133000D01*
X13221000Y-6173000D01*
X13221000Y-6427000D02*
X13261000Y-6387000D01*
X13221000Y-6347000D01*
X13181000Y-6387000D01*
X13221000Y-6427000D01*
X13221000Y-6681000D02*
X13261000Y-6641000D01*
X13221000Y-6601000D01*
X13181000Y-6641000D01*
X13221000Y-6681000D01*
X13221000Y-6935000D02*
X13261000Y-6895000D01*
X13221000Y-6855000D01*
X13181000Y-6895000D01*
X13221000Y-6935000D01*
X13221000Y-7189000D02*
X13261000Y-7149000D01*
X13221000Y-7109000D01*
X13181000Y-7149000D01*
X13221000Y-7189000D01*
X13221000Y-7443000D02*
X13261000Y-7403000D01*
X13221000Y-7363000D01*
X13181000Y-7403000D01*
X13221000Y-7443000D01*
X13221000Y-7697000D02*
X13261000Y-7657000D01*
X13221000Y-7617000D01*
X13181000Y-7657000D01*
X13221000Y-7697000D01*
X13221000Y-7951000D02*
X13261000Y-7911000D01*
X13221000Y-7871000D01*
X13181000Y-7911000D01*
X13221000Y-7951000D01*
X13221000Y-8205000D02*
X13261000Y-8165000D01*
X13221000Y-8125000D01*
X13181000Y-8165000D01*
X13221000Y-8205000D01*
X13221000Y-8459000D02*
X13261000Y-8419000D01*
X13221000Y-8379000D01*
X13181000Y-8419000D01*
X13221000Y-8459000D01*
X13221000Y-8713000D02*
X13261000Y-8673000D01*
X13221000Y-8633000D01*
X13181000Y-8673000D01*
X13221000Y-8713000D01*
X13221000Y-8967000D02*
X13261000Y-8927000D01*
X13221000Y-8887000D01*
X13181000Y-8927000D01*
X13221000Y-8967000D01*
X13875000Y-7290000D02*
X13915000Y-7250000D01*
X13875000Y-7210000D01*
X13835000Y-7250000D01*
X13875000Y-7290000D01*
X13875000Y-7605000D02*
X13915000Y-7565000D01*
X13875000Y-7525000D01*
X13835000Y-7565000D01*
X13875000Y-7605000D01*
X13902230Y-6216000D02*
X13942230Y-6176000D01*
X13902230Y-6136000D01*
X13862230Y-6176000D01*
X13902230Y-6216000D01*
X13902230Y-6827000D02*
X13942230Y-6787000D01*
X13902230Y-6747000D01*
X13862230Y-6787000D01*
X13902230Y-6827000D01*
X14125000Y-7290000D02*
X14165000Y-7250000D01*
X14125000Y-7210000D01*
X14085000Y-7250000D01*
X14125000Y-7290000D01*
X14125000Y-7605000D02*
X14165000Y-7565000D01*
X14125000Y-7525000D01*
X14085000Y-7565000D01*
X14125000Y-7605000D01*
X14152230Y-6216000D02*
X14192230Y-6176000D01*
X14152230Y-6136000D01*
X14112230Y-6176000D01*
X14152230Y-6216000D01*
X14152230Y-6827000D02*
X14192230Y-6787000D01*
X14152230Y-6747000D01*
X14112230Y-6787000D01*
X14152230Y-6827000D01*
X15350000Y-8391000D02*
X15390000Y-8351000D01*
X15350000Y-8311000D01*
X15310000Y-8351000D01*
X15350000Y-8391000D01*
X15350000Y-8645000D02*
X15390000Y-8605000D01*
X15350000Y-8565000D01*
X15310000Y-8605000D01*
X15350000Y-8645000D01*
X15350000Y-8899000D02*
X15390000Y-8859000D01*
X15350000Y-8819000D01*
X15310000Y-8859000D01*
X15350000Y-8899000D01*
X15350000Y-9153000D02*
X15390000Y-9113000D01*
X15350000Y-9073000D01*
X15310000Y-9113000D01*
X15350000Y-9153000D01*
X15350000Y-9407000D02*
X15390000Y-9367000D01*
X15350000Y-9327000D01*
X15310000Y-9367000D01*
X15350000Y-9407000D01*
X15350000Y-9661000D02*
X15390000Y-9621000D01*
X15350000Y-9581000D01*
X15310000Y-9621000D01*
X15350000Y-9661000D01*
X15350000Y-9915000D02*
X15390000Y-9875000D01*
X15350000Y-9835000D01*
X15310000Y-9875000D01*
X15350000Y-9915000D01*
X15350000Y-10169000D02*
X15390000Y-10129000D01*
X15350000Y-10089000D01*
X15310000Y-10129000D01*
X15350000Y-10169000D01*
X16366000Y-8391000D02*
X16406000Y-8351000D01*
X16366000Y-8311000D01*
X16326000Y-8351000D01*
X16366000Y-8391000D01*
X16366000Y-8645000D02*
X16406000Y-8605000D01*
X16366000Y-8565000D01*
X16326000Y-8605000D01*
X16366000Y-8645000D01*
X16366000Y-8899000D02*
X16406000Y-8859000D01*
X16366000Y-8819000D01*
X16326000Y-8859000D01*
X16366000Y-8899000D01*
X16366000Y-9153000D02*
X16406000Y-9113000D01*
X16366000Y-9073000D01*
X16326000Y-9113000D01*
X16366000Y-9153000D01*
X16366000Y-9407000D02*
X16406000Y-9367000D01*
X16366000Y-9327000D01*
X16326000Y-9367000D01*
X16366000Y-9407000D01*
X16366000Y-9661000D02*
X16406000Y-9621000D01*
X16366000Y-9581000D01*
X16326000Y-9621000D01*
X16366000Y-9661000D01*
X16366000Y-9915000D02*
X16406000Y-9875000D01*
X16366000Y-9835000D01*
X16326000Y-9875000D01*
X16366000Y-9915000D01*
X16366000Y-10169000D02*
X16406000Y-10129000D01*
X16366000Y-10089000D01*
X16326000Y-10129000D01*
X16366000Y-10169000D01*
D10*
X8939000Y-6261000D02*
X9039000Y-6361000D01*
X9039000Y-6261000D02*
X8939000Y-6361000D01*
X9039000Y-6311000D02*
G75*
G03*
X9039000Y-6311000I-50000J0D01*
G01*
X8939000Y-6515000D02*
X9039000Y-6615000D01*
X9039000Y-6515000D02*
X8939000Y-6615000D01*
X9039000Y-6565000D02*
G75*
G03*
X9039000Y-6565000I-50000J0D01*
G01*
X8939000Y-6769000D02*
X9039000Y-6869000D01*
X9039000Y-6769000D02*
X8939000Y-6869000D01*
X9039000Y-6819000D02*
G75*
G03*
X9039000Y-6819000I-50000J0D01*
G01*
X8939000Y-7023000D02*
X9039000Y-7123000D01*
X9039000Y-7023000D02*
X8939000Y-7123000D01*
X9039000Y-7073000D02*
G75*
G03*
X9039000Y-7073000I-50000J0D01*
G01*
X8939000Y-7277000D02*
X9039000Y-7377000D01*
X9039000Y-7277000D02*
X8939000Y-7377000D01*
X9039000Y-7327000D02*
G75*
G03*
X9039000Y-7327000I-50000J0D01*
G01*
X8939000Y-7531000D02*
X9039000Y-7631000D01*
X9039000Y-7531000D02*
X8939000Y-7631000D01*
X9039000Y-7581000D02*
G75*
G03*
X9039000Y-7581000I-50000J0D01*
G01*
X8939000Y-7785000D02*
X9039000Y-7885000D01*
X9039000Y-7785000D02*
X8939000Y-7885000D01*
X9039000Y-7835000D02*
G75*
G03*
X9039000Y-7835000I-50000J0D01*
G01*
X8939000Y-8039000D02*
X9039000Y-8139000D01*
X9039000Y-8039000D02*
X8939000Y-8139000D01*
X9039000Y-8089000D02*
G75*
G03*
X9039000Y-8089000I-50000J0D01*
G01*
X11225000Y-6261000D02*
X11325000Y-6361000D01*
X11325000Y-6261000D02*
X11225000Y-6361000D01*
X11325000Y-6311000D02*
G75*
G03*
X11325000Y-6311000I-50000J0D01*
G01*
X11225000Y-6515000D02*
X11325000Y-6615000D01*
X11325000Y-6515000D02*
X11225000Y-6615000D01*
X11325000Y-6565000D02*
G75*
G03*
X11325000Y-6565000I-50000J0D01*
G01*
X11225000Y-6769000D02*
X11325000Y-6869000D01*
X11325000Y-6769000D02*
X11225000Y-6869000D01*
X11325000Y-6819000D02*
G75*
G03*
X11325000Y-6819000I-50000J0D01*
G01*
X11225000Y-7023000D02*
X11325000Y-7123000D01*
X11325000Y-7023000D02*
X11225000Y-7123000D01*
X11325000Y-7073000D02*
G75*
G03*
X11325000Y-7073000I-50000J0D01*
G01*
X11225000Y-7277000D02*
X11325000Y-7377000D01*
X11325000Y-7277000D02*
X11225000Y-7377000D01*
X11325000Y-7327000D02*
G75*
G03*
X11325000Y-7327000I-50000J0D01*
G01*
X11225000Y-7531000D02*
X11325000Y-7631000D01*
X11325000Y-7531000D02*
X11225000Y-7631000D01*
X11325000Y-7581000D02*
G75*
G03*
X11325000Y-7581000I-50000J0D01*
G01*
X11225000Y-7785000D02*
X11325000Y-7885000D01*
X11325000Y-7785000D02*
X11225000Y-7885000D01*
X11325000Y-7835000D02*
G75*
G03*
X11325000Y-7835000I-50000J0D01*
G01*
X11225000Y-8039000D02*
X11325000Y-8139000D01*
X11325000Y-8039000D02*
X11225000Y-8139000D01*
X11325000Y-8089000D02*
G75*
G03*
X11325000Y-8089000I-50000J0D01*
G01*
X14200000Y-10180000D02*
X14300000Y-10280000D01*
X14300000Y-10180000D02*
X14200000Y-10280000D01*
X14300000Y-10230000D02*
G75*
G03*
X14300000Y-10230000I-50000J0D01*
G01*
X14454000Y-10180000D02*
X14554000Y-10280000D01*
X14554000Y-10180000D02*
X14454000Y-10280000D01*
X14554000Y-10230000D02*
G75*
G03*
X14554000Y-10230000I-50000J0D01*
G01*
X14708000Y-10180000D02*
X14808000Y-10280000D01*
X14808000Y-10180000D02*
X14708000Y-10280000D01*
X14808000Y-10230000D02*
G75*
G03*
X14808000Y-10230000I-50000J0D01*
G01*
X15517500Y-6920000D02*
X15617500Y-7020000D01*
X15617500Y-6920000D02*
X15517500Y-7020000D01*
X15617500Y-6970000D02*
G75*
G03*
X15617500Y-6970000I-50000J0D01*
G01*
X15517500Y-7174000D02*
X15617500Y-7274000D01*
X15617500Y-7174000D02*
X15517500Y-7274000D01*
X15617500Y-7224000D02*
G75*
G03*
X15617500Y-7224000I-50000J0D01*
G01*
X15517500Y-7428000D02*
X15617500Y-7528000D01*
X15617500Y-7428000D02*
X15517500Y-7528000D01*
X15617500Y-7478000D02*
G75*
G03*
X15617500Y-7478000I-50000J0D01*
G01*
X15517500Y-7682000D02*
X15617500Y-7782000D01*
X15617500Y-7682000D02*
X15517500Y-7782000D01*
X15617500Y-7732000D02*
G75*
G03*
X15617500Y-7732000I-50000J0D01*
G01*
X15552500Y-5475000D02*
X15652500Y-5575000D01*
X15652500Y-5475000D02*
X15552500Y-5575000D01*
X15652500Y-5525000D02*
G75*
G03*
X15652500Y-5525000I-50000J0D01*
G01*
X15552500Y-5729000D02*
X15652500Y-5829000D01*
X15652500Y-5729000D02*
X15552500Y-5829000D01*
X15652500Y-5779000D02*
G75*
G03*
X15652500Y-5779000I-50000J0D01*
G01*
X15552500Y-5983000D02*
X15652500Y-6083000D01*
X15652500Y-5983000D02*
X15552500Y-6083000D01*
X15652500Y-6033000D02*
G75*
G03*
X15652500Y-6033000I-50000J0D01*
G01*
X15552500Y-6237000D02*
X15652500Y-6337000D01*
X15652500Y-6237000D02*
X15552500Y-6337000D01*
X15652500Y-6287000D02*
G75*
G03*
X15652500Y-6287000I-50000J0D01*
G01*
D11*
X8835777Y-10946484D02*
X8835777Y-10746484D01*
X8835777Y-10746484D02*
X8883396Y-10746484D01*
X8883396Y-10746484D02*
X8911967Y-10756008D01*
X8911967Y-10756008D02*
X8931015Y-10775055D01*
X8931015Y-10775055D02*
X8940539Y-10794103D01*
X8940539Y-10794103D02*
X8950063Y-10832198D01*
X8950063Y-10832198D02*
X8950063Y-10860770D01*
X8950063Y-10860770D02*
X8940539Y-10898865D01*
X8940539Y-10898865D02*
X8931015Y-10917912D01*
X8931015Y-10917912D02*
X8911967Y-10936960D01*
X8911967Y-10936960D02*
X8883396Y-10946484D01*
X8883396Y-10946484D02*
X8835777Y-10946484D01*
X9035777Y-10946484D02*
X9035777Y-10813150D01*
X9035777Y-10851246D02*
X9045301Y-10832198D01*
X9045301Y-10832198D02*
X9054824Y-10822674D01*
X9054824Y-10822674D02*
X9073872Y-10813150D01*
X9073872Y-10813150D02*
X9092920Y-10813150D01*
X9159586Y-10946484D02*
X9159586Y-10813150D01*
X9159586Y-10746484D02*
X9150063Y-10756008D01*
X9150063Y-10756008D02*
X9159586Y-10765531D01*
X9159586Y-10765531D02*
X9169110Y-10756008D01*
X9169110Y-10756008D02*
X9159586Y-10746484D01*
X9159586Y-10746484D02*
X9159586Y-10765531D01*
X9283396Y-10946484D02*
X9264348Y-10936960D01*
X9264348Y-10936960D02*
X9254824Y-10917912D01*
X9254824Y-10917912D02*
X9254824Y-10746484D01*
X9388158Y-10946484D02*
X9369110Y-10936960D01*
X9369110Y-10936960D02*
X9359586Y-10917912D01*
X9359586Y-10917912D02*
X9359586Y-10746484D01*
X9616729Y-10946484D02*
X9616729Y-10746484D01*
X9616729Y-10746484D02*
X9683396Y-10889341D01*
X9683396Y-10889341D02*
X9750063Y-10746484D01*
X9750063Y-10746484D02*
X9750063Y-10946484D01*
X9931015Y-10946484D02*
X9931015Y-10841722D01*
X9931015Y-10841722D02*
X9921491Y-10822674D01*
X9921491Y-10822674D02*
X9902444Y-10813150D01*
X9902444Y-10813150D02*
X9864348Y-10813150D01*
X9864348Y-10813150D02*
X9845301Y-10822674D01*
X9931015Y-10936960D02*
X9911967Y-10946484D01*
X9911967Y-10946484D02*
X9864348Y-10946484D01*
X9864348Y-10946484D02*
X9845301Y-10936960D01*
X9845301Y-10936960D02*
X9835777Y-10917912D01*
X9835777Y-10917912D02*
X9835777Y-10898865D01*
X9835777Y-10898865D02*
X9845301Y-10879817D01*
X9845301Y-10879817D02*
X9864348Y-10870293D01*
X9864348Y-10870293D02*
X9911967Y-10870293D01*
X9911967Y-10870293D02*
X9931015Y-10860770D01*
X10026253Y-10813150D02*
X10026253Y-11013150D01*
X10026253Y-10822674D02*
X10045301Y-10813150D01*
X10045301Y-10813150D02*
X10083396Y-10813150D01*
X10083396Y-10813150D02*
X10102444Y-10822674D01*
X10102444Y-10822674D02*
X10111967Y-10832198D01*
X10111967Y-10832198D02*
X10121491Y-10851246D01*
X10121491Y-10851246D02*
X10121491Y-10908389D01*
X10121491Y-10908389D02*
X10111967Y-10927436D01*
X10111967Y-10927436D02*
X10102444Y-10936960D01*
X10102444Y-10936960D02*
X10083396Y-10946484D01*
X10083396Y-10946484D02*
X10045301Y-10946484D01*
X10045301Y-10946484D02*
X10026253Y-10936960D01*
X10207205Y-10927436D02*
X10216729Y-10936960D01*
X10216729Y-10936960D02*
X10207205Y-10946484D01*
X10207205Y-10946484D02*
X10197682Y-10936960D01*
X10197682Y-10936960D02*
X10207205Y-10927436D01*
X10207205Y-10927436D02*
X10207205Y-10946484D01*
X10207205Y-10822674D02*
X10216729Y-10832198D01*
X10216729Y-10832198D02*
X10207205Y-10841722D01*
X10207205Y-10841722D02*
X10197682Y-10832198D01*
X10197682Y-10832198D02*
X10207205Y-10822674D01*
X10207205Y-10822674D02*
X10207205Y-10841722D01*
D12*
X8535000Y-11255000D02*
X8575000Y-11295000D01*
X8575000Y-11255000D02*
X8535000Y-11295000D01*
D11*
X8873872Y-11166484D02*
X8892920Y-11166484D01*
X8892920Y-11166484D02*
X8911967Y-11176008D01*
X8911967Y-11176008D02*
X8921491Y-11185531D01*
X8921491Y-11185531D02*
X8931015Y-11204579D01*
X8931015Y-11204579D02*
X8940539Y-11242674D01*
X8940539Y-11242674D02*
X8940539Y-11290293D01*
X8940539Y-11290293D02*
X8931015Y-11328388D01*
X8931015Y-11328388D02*
X8921491Y-11347436D01*
X8921491Y-11347436D02*
X8911967Y-11356960D01*
X8911967Y-11356960D02*
X8892920Y-11366484D01*
X8892920Y-11366484D02*
X8873872Y-11366484D01*
X8873872Y-11366484D02*
X8854824Y-11356960D01*
X8854824Y-11356960D02*
X8845301Y-11347436D01*
X8845301Y-11347436D02*
X8835777Y-11328388D01*
X8835777Y-11328388D02*
X8826253Y-11290293D01*
X8826253Y-11290293D02*
X8826253Y-11242674D01*
X8826253Y-11242674D02*
X8835777Y-11204579D01*
X8835777Y-11204579D02*
X8845301Y-11185531D01*
X8845301Y-11185531D02*
X8854824Y-11176008D01*
X8854824Y-11176008D02*
X8873872Y-11166484D01*
X9026253Y-11347436D02*
X9035777Y-11356960D01*
X9035777Y-11356960D02*
X9026253Y-11366484D01*
X9026253Y-11366484D02*
X9016729Y-11356960D01*
X9016729Y-11356960D02*
X9026253Y-11347436D01*
X9026253Y-11347436D02*
X9026253Y-11366484D01*
X9207205Y-11233150D02*
X9207205Y-11366484D01*
X9159586Y-11156960D02*
X9111967Y-11299817D01*
X9111967Y-11299817D02*
X9235777Y-11299817D01*
X9350063Y-11166484D02*
X9369110Y-11166484D01*
X9369110Y-11166484D02*
X9388158Y-11176008D01*
X9388158Y-11176008D02*
X9397682Y-11185531D01*
X9397682Y-11185531D02*
X9407205Y-11204579D01*
X9407205Y-11204579D02*
X9416729Y-11242674D01*
X9416729Y-11242674D02*
X9416729Y-11290293D01*
X9416729Y-11290293D02*
X9407205Y-11328388D01*
X9407205Y-11328388D02*
X9397682Y-11347436D01*
X9397682Y-11347436D02*
X9388158Y-11356960D01*
X9388158Y-11356960D02*
X9369110Y-11366484D01*
X9369110Y-11366484D02*
X9350063Y-11366484D01*
X9350063Y-11366484D02*
X9331015Y-11356960D01*
X9331015Y-11356960D02*
X9321491Y-11347436D01*
X9321491Y-11347436D02*
X9311967Y-11328388D01*
X9311967Y-11328388D02*
X9302444Y-11290293D01*
X9302444Y-11290293D02*
X9302444Y-11242674D01*
X9302444Y-11242674D02*
X9311967Y-11204579D01*
X9311967Y-11204579D02*
X9321491Y-11185531D01*
X9321491Y-11185531D02*
X9331015Y-11176008D01*
X9331015Y-11176008D02*
X9350063Y-11166484D01*
X9540539Y-11166484D02*
X9559586Y-11166484D01*
X9559586Y-11166484D02*
X9578634Y-11176008D01*
X9578634Y-11176008D02*
X9588158Y-11185531D01*
X9588158Y-11185531D02*
X9597682Y-11204579D01*
X9597682Y-11204579D02*
X9607205Y-11242674D01*
X9607205Y-11242674D02*
X9607205Y-11290293D01*
X9607205Y-11290293D02*
X9597682Y-11328388D01*
X9597682Y-11328388D02*
X9588158Y-11347436D01*
X9588158Y-11347436D02*
X9578634Y-11356960D01*
X9578634Y-11356960D02*
X9559586Y-11366484D01*
X9559586Y-11366484D02*
X9540539Y-11366484D01*
X9540539Y-11366484D02*
X9521491Y-11356960D01*
X9521491Y-11356960D02*
X9511967Y-11347436D01*
X9511967Y-11347436D02*
X9502444Y-11328388D01*
X9502444Y-11328388D02*
X9492920Y-11290293D01*
X9492920Y-11290293D02*
X9492920Y-11242674D01*
X9492920Y-11242674D02*
X9502444Y-11204579D01*
X9502444Y-11204579D02*
X9511967Y-11185531D01*
X9511967Y-11185531D02*
X9521491Y-11176008D01*
X9521491Y-11176008D02*
X9540539Y-11166484D01*
X9692920Y-11366484D02*
X9692920Y-11233150D01*
X9692920Y-11252198D02*
X9702444Y-11242674D01*
X9702444Y-11242674D02*
X9721491Y-11233150D01*
X9721491Y-11233150D02*
X9750063Y-11233150D01*
X9750063Y-11233150D02*
X9769110Y-11242674D01*
X9769110Y-11242674D02*
X9778634Y-11261722D01*
X9778634Y-11261722D02*
X9778634Y-11366484D01*
X9778634Y-11261722D02*
X9788158Y-11242674D01*
X9788158Y-11242674D02*
X9807205Y-11233150D01*
X9807205Y-11233150D02*
X9835777Y-11233150D01*
X9835777Y-11233150D02*
X9854825Y-11242674D01*
X9854825Y-11242674D02*
X9864348Y-11261722D01*
X9864348Y-11261722D02*
X9864348Y-11366484D01*
X9959586Y-11366484D02*
X9959586Y-11233150D01*
X9959586Y-11252198D02*
X9969110Y-11242674D01*
X9969110Y-11242674D02*
X9988158Y-11233150D01*
X9988158Y-11233150D02*
X10016729Y-11233150D01*
X10016729Y-11233150D02*
X10035777Y-11242674D01*
X10035777Y-11242674D02*
X10045301Y-11261722D01*
X10045301Y-11261722D02*
X10045301Y-11366484D01*
X10045301Y-11261722D02*
X10054825Y-11242674D01*
X10054825Y-11242674D02*
X10073872Y-11233150D01*
X10073872Y-11233150D02*
X10102444Y-11233150D01*
X10102444Y-11233150D02*
X10121491Y-11242674D01*
X10121491Y-11242674D02*
X10131015Y-11261722D01*
X10131015Y-11261722D02*
X10131015Y-11366484D01*
X10521491Y-11156960D02*
X10350063Y-11414103D01*
X10778634Y-11166484D02*
X10797682Y-11166484D01*
X10797682Y-11166484D02*
X10816729Y-11176008D01*
X10816729Y-11176008D02*
X10826253Y-11185531D01*
X10826253Y-11185531D02*
X10835777Y-11204579D01*
X10835777Y-11204579D02*
X10845301Y-11242674D01*
X10845301Y-11242674D02*
X10845301Y-11290293D01*
X10845301Y-11290293D02*
X10835777Y-11328388D01*
X10835777Y-11328388D02*
X10826253Y-11347436D01*
X10826253Y-11347436D02*
X10816729Y-11356960D01*
X10816729Y-11356960D02*
X10797682Y-11366484D01*
X10797682Y-11366484D02*
X10778634Y-11366484D01*
X10778634Y-11366484D02*
X10759587Y-11356960D01*
X10759587Y-11356960D02*
X10750063Y-11347436D01*
X10750063Y-11347436D02*
X10740539Y-11328388D01*
X10740539Y-11328388D02*
X10731015Y-11290293D01*
X10731015Y-11290293D02*
X10731015Y-11242674D01*
X10731015Y-11242674D02*
X10740539Y-11204579D01*
X10740539Y-11204579D02*
X10750063Y-11185531D01*
X10750063Y-11185531D02*
X10759587Y-11176008D01*
X10759587Y-11176008D02*
X10778634Y-11166484D01*
X10931015Y-11347436D02*
X10940539Y-11356960D01*
X10940539Y-11356960D02*
X10931015Y-11366484D01*
X10931015Y-11366484D02*
X10921491Y-11356960D01*
X10921491Y-11356960D02*
X10931015Y-11347436D01*
X10931015Y-11347436D02*
X10931015Y-11366484D01*
X11064348Y-11166484D02*
X11083396Y-11166484D01*
X11083396Y-11166484D02*
X11102444Y-11176008D01*
X11102444Y-11176008D02*
X11111968Y-11185531D01*
X11111968Y-11185531D02*
X11121491Y-11204579D01*
X11121491Y-11204579D02*
X11131015Y-11242674D01*
X11131015Y-11242674D02*
X11131015Y-11290293D01*
X11131015Y-11290293D02*
X11121491Y-11328388D01*
X11121491Y-11328388D02*
X11111968Y-11347436D01*
X11111968Y-11347436D02*
X11102444Y-11356960D01*
X11102444Y-11356960D02*
X11083396Y-11366484D01*
X11083396Y-11366484D02*
X11064348Y-11366484D01*
X11064348Y-11366484D02*
X11045301Y-11356960D01*
X11045301Y-11356960D02*
X11035777Y-11347436D01*
X11035777Y-11347436D02*
X11026253Y-11328388D01*
X11026253Y-11328388D02*
X11016729Y-11290293D01*
X11016729Y-11290293D02*
X11016729Y-11242674D01*
X11016729Y-11242674D02*
X11026253Y-11204579D01*
X11026253Y-11204579D02*
X11035777Y-11185531D01*
X11035777Y-11185531D02*
X11045301Y-11176008D01*
X11045301Y-11176008D02*
X11064348Y-11166484D01*
X11321491Y-11366484D02*
X11207206Y-11366484D01*
X11264348Y-11366484D02*
X11264348Y-11166484D01*
X11264348Y-11166484D02*
X11245301Y-11195055D01*
X11245301Y-11195055D02*
X11226253Y-11214103D01*
X11226253Y-11214103D02*
X11207206Y-11223627D01*
X11502444Y-11166484D02*
X11407206Y-11166484D01*
X11407206Y-11166484D02*
X11397682Y-11261722D01*
X11397682Y-11261722D02*
X11407206Y-11252198D01*
X11407206Y-11252198D02*
X11426253Y-11242674D01*
X11426253Y-11242674D02*
X11473872Y-11242674D01*
X11473872Y-11242674D02*
X11492920Y-11252198D01*
X11492920Y-11252198D02*
X11502444Y-11261722D01*
X11502444Y-11261722D02*
X11511967Y-11280769D01*
X11511967Y-11280769D02*
X11511967Y-11328388D01*
X11511967Y-11328388D02*
X11502444Y-11347436D01*
X11502444Y-11347436D02*
X11492920Y-11356960D01*
X11492920Y-11356960D02*
X11473872Y-11366484D01*
X11473872Y-11366484D02*
X11426253Y-11366484D01*
X11426253Y-11366484D02*
X11407206Y-11356960D01*
X11407206Y-11356960D02*
X11397682Y-11347436D01*
X11578634Y-11166484D02*
X11711967Y-11166484D01*
X11711967Y-11166484D02*
X11626253Y-11366484D01*
X11778634Y-11166484D02*
X11778634Y-11204579D01*
X11854825Y-11166484D02*
X11854825Y-11204579D01*
X12150063Y-11442674D02*
X12140539Y-11433150D01*
X12140539Y-11433150D02*
X12121491Y-11404579D01*
X12121491Y-11404579D02*
X12111968Y-11385531D01*
X12111968Y-11385531D02*
X12102444Y-11356960D01*
X12102444Y-11356960D02*
X12092920Y-11309341D01*
X12092920Y-11309341D02*
X12092920Y-11271246D01*
X12092920Y-11271246D02*
X12102444Y-11223627D01*
X12102444Y-11223627D02*
X12111968Y-11195055D01*
X12111968Y-11195055D02*
X12121491Y-11176008D01*
X12121491Y-11176008D02*
X12140539Y-11147436D01*
X12140539Y-11147436D02*
X12150063Y-11137912D01*
X12216729Y-11185531D02*
X12226253Y-11176008D01*
X12226253Y-11176008D02*
X12245301Y-11166484D01*
X12245301Y-11166484D02*
X12292920Y-11166484D01*
X12292920Y-11166484D02*
X12311968Y-11176008D01*
X12311968Y-11176008D02*
X12321491Y-11185531D01*
X12321491Y-11185531D02*
X12331015Y-11204579D01*
X12331015Y-11204579D02*
X12331015Y-11223627D01*
X12331015Y-11223627D02*
X12321491Y-11252198D01*
X12321491Y-11252198D02*
X12207206Y-11366484D01*
X12207206Y-11366484D02*
X12331015Y-11366484D01*
X12569110Y-11366484D02*
X12569110Y-11166484D01*
X12654825Y-11366484D02*
X12654825Y-11261722D01*
X12654825Y-11261722D02*
X12645301Y-11242674D01*
X12645301Y-11242674D02*
X12626253Y-11233150D01*
X12626253Y-11233150D02*
X12597682Y-11233150D01*
X12597682Y-11233150D02*
X12578634Y-11242674D01*
X12578634Y-11242674D02*
X12569110Y-11252198D01*
X12778634Y-11366484D02*
X12759587Y-11356960D01*
X12759587Y-11356960D02*
X12750063Y-11347436D01*
X12750063Y-11347436D02*
X12740539Y-11328388D01*
X12740539Y-11328388D02*
X12740539Y-11271246D01*
X12740539Y-11271246D02*
X12750063Y-11252198D01*
X12750063Y-11252198D02*
X12759587Y-11242674D01*
X12759587Y-11242674D02*
X12778634Y-11233150D01*
X12778634Y-11233150D02*
X12807206Y-11233150D01*
X12807206Y-11233150D02*
X12826253Y-11242674D01*
X12826253Y-11242674D02*
X12835777Y-11252198D01*
X12835777Y-11252198D02*
X12845301Y-11271246D01*
X12845301Y-11271246D02*
X12845301Y-11328388D01*
X12845301Y-11328388D02*
X12835777Y-11347436D01*
X12835777Y-11347436D02*
X12826253Y-11356960D01*
X12826253Y-11356960D02*
X12807206Y-11366484D01*
X12807206Y-11366484D02*
X12778634Y-11366484D01*
X12959587Y-11366484D02*
X12940539Y-11356960D01*
X12940539Y-11356960D02*
X12931015Y-11337912D01*
X12931015Y-11337912D02*
X12931015Y-11166484D01*
X13111968Y-11356960D02*
X13092920Y-11366484D01*
X13092920Y-11366484D02*
X13054825Y-11366484D01*
X13054825Y-11366484D02*
X13035777Y-11356960D01*
X13035777Y-11356960D02*
X13026253Y-11337912D01*
X13026253Y-11337912D02*
X13026253Y-11261722D01*
X13026253Y-11261722D02*
X13035777Y-11242674D01*
X13035777Y-11242674D02*
X13054825Y-11233150D01*
X13054825Y-11233150D02*
X13092920Y-11233150D01*
X13092920Y-11233150D02*
X13111968Y-11242674D01*
X13111968Y-11242674D02*
X13121491Y-11261722D01*
X13121491Y-11261722D02*
X13121491Y-11280769D01*
X13121491Y-11280769D02*
X13026253Y-11299817D01*
X13197682Y-11356960D02*
X13216730Y-11366484D01*
X13216730Y-11366484D02*
X13254825Y-11366484D01*
X13254825Y-11366484D02*
X13273872Y-11356960D01*
X13273872Y-11356960D02*
X13283396Y-11337912D01*
X13283396Y-11337912D02*
X13283396Y-11328388D01*
X13283396Y-11328388D02*
X13273872Y-11309341D01*
X13273872Y-11309341D02*
X13254825Y-11299817D01*
X13254825Y-11299817D02*
X13226253Y-11299817D01*
X13226253Y-11299817D02*
X13207206Y-11290293D01*
X13207206Y-11290293D02*
X13197682Y-11271246D01*
X13197682Y-11271246D02*
X13197682Y-11261722D01*
X13197682Y-11261722D02*
X13207206Y-11242674D01*
X13207206Y-11242674D02*
X13226253Y-11233150D01*
X13226253Y-11233150D02*
X13254825Y-11233150D01*
X13254825Y-11233150D02*
X13273872Y-11242674D01*
X13350063Y-11442674D02*
X13359587Y-11433150D01*
X13359587Y-11433150D02*
X13378634Y-11404579D01*
X13378634Y-11404579D02*
X13388158Y-11385531D01*
X13388158Y-11385531D02*
X13397682Y-11356960D01*
X13397682Y-11356960D02*
X13407206Y-11309341D01*
X13407206Y-11309341D02*
X13407206Y-11271246D01*
X13407206Y-11271246D02*
X13397682Y-11223627D01*
X13397682Y-11223627D02*
X13388158Y-11195055D01*
X13388158Y-11195055D02*
X13378634Y-11176008D01*
X13378634Y-11176008D02*
X13359587Y-11147436D01*
X13359587Y-11147436D02*
X13350063Y-11137912D01*
D12*
X8575000Y-11539000D02*
G75*
G03*
X8575000Y-11539000I-20000J0D01*
G01*
D11*
X8873872Y-11430484D02*
X8892920Y-11430484D01*
X8892920Y-11430484D02*
X8911967Y-11440008D01*
X8911967Y-11440008D02*
X8921491Y-11449531D01*
X8921491Y-11449531D02*
X8931015Y-11468579D01*
X8931015Y-11468579D02*
X8940539Y-11506674D01*
X8940539Y-11506674D02*
X8940539Y-11554293D01*
X8940539Y-11554293D02*
X8931015Y-11592388D01*
X8931015Y-11592388D02*
X8921491Y-11611436D01*
X8921491Y-11611436D02*
X8911967Y-11620960D01*
X8911967Y-11620960D02*
X8892920Y-11630484D01*
X8892920Y-11630484D02*
X8873872Y-11630484D01*
X8873872Y-11630484D02*
X8854824Y-11620960D01*
X8854824Y-11620960D02*
X8845301Y-11611436D01*
X8845301Y-11611436D02*
X8835777Y-11592388D01*
X8835777Y-11592388D02*
X8826253Y-11554293D01*
X8826253Y-11554293D02*
X8826253Y-11506674D01*
X8826253Y-11506674D02*
X8835777Y-11468579D01*
X8835777Y-11468579D02*
X8845301Y-11449531D01*
X8845301Y-11449531D02*
X8854824Y-11440008D01*
X8854824Y-11440008D02*
X8873872Y-11430484D01*
X9026253Y-11611436D02*
X9035777Y-11620960D01*
X9035777Y-11620960D02*
X9026253Y-11630484D01*
X9026253Y-11630484D02*
X9016729Y-11620960D01*
X9016729Y-11620960D02*
X9026253Y-11611436D01*
X9026253Y-11611436D02*
X9026253Y-11630484D01*
X9207205Y-11497150D02*
X9207205Y-11630484D01*
X9159586Y-11420960D02*
X9111967Y-11563817D01*
X9111967Y-11563817D02*
X9235777Y-11563817D01*
X9350063Y-11430484D02*
X9369110Y-11430484D01*
X9369110Y-11430484D02*
X9388158Y-11440008D01*
X9388158Y-11440008D02*
X9397682Y-11449531D01*
X9397682Y-11449531D02*
X9407205Y-11468579D01*
X9407205Y-11468579D02*
X9416729Y-11506674D01*
X9416729Y-11506674D02*
X9416729Y-11554293D01*
X9416729Y-11554293D02*
X9407205Y-11592388D01*
X9407205Y-11592388D02*
X9397682Y-11611436D01*
X9397682Y-11611436D02*
X9388158Y-11620960D01*
X9388158Y-11620960D02*
X9369110Y-11630484D01*
X9369110Y-11630484D02*
X9350063Y-11630484D01*
X9350063Y-11630484D02*
X9331015Y-11620960D01*
X9331015Y-11620960D02*
X9321491Y-11611436D01*
X9321491Y-11611436D02*
X9311967Y-11592388D01*
X9311967Y-11592388D02*
X9302444Y-11554293D01*
X9302444Y-11554293D02*
X9302444Y-11506674D01*
X9302444Y-11506674D02*
X9311967Y-11468579D01*
X9311967Y-11468579D02*
X9321491Y-11449531D01*
X9321491Y-11449531D02*
X9331015Y-11440008D01*
X9331015Y-11440008D02*
X9350063Y-11430484D01*
X9540539Y-11430484D02*
X9559586Y-11430484D01*
X9559586Y-11430484D02*
X9578634Y-11440008D01*
X9578634Y-11440008D02*
X9588158Y-11449531D01*
X9588158Y-11449531D02*
X9597682Y-11468579D01*
X9597682Y-11468579D02*
X9607205Y-11506674D01*
X9607205Y-11506674D02*
X9607205Y-11554293D01*
X9607205Y-11554293D02*
X9597682Y-11592388D01*
X9597682Y-11592388D02*
X9588158Y-11611436D01*
X9588158Y-11611436D02*
X9578634Y-11620960D01*
X9578634Y-11620960D02*
X9559586Y-11630484D01*
X9559586Y-11630484D02*
X9540539Y-11630484D01*
X9540539Y-11630484D02*
X9521491Y-11620960D01*
X9521491Y-11620960D02*
X9511967Y-11611436D01*
X9511967Y-11611436D02*
X9502444Y-11592388D01*
X9502444Y-11592388D02*
X9492920Y-11554293D01*
X9492920Y-11554293D02*
X9492920Y-11506674D01*
X9492920Y-11506674D02*
X9502444Y-11468579D01*
X9502444Y-11468579D02*
X9511967Y-11449531D01*
X9511967Y-11449531D02*
X9521491Y-11440008D01*
X9521491Y-11440008D02*
X9540539Y-11430484D01*
X9692920Y-11630484D02*
X9692920Y-11497150D01*
X9692920Y-11516198D02*
X9702444Y-11506674D01*
X9702444Y-11506674D02*
X9721491Y-11497150D01*
X9721491Y-11497150D02*
X9750063Y-11497150D01*
X9750063Y-11497150D02*
X9769110Y-11506674D01*
X9769110Y-11506674D02*
X9778634Y-11525722D01*
X9778634Y-11525722D02*
X9778634Y-11630484D01*
X9778634Y-11525722D02*
X9788158Y-11506674D01*
X9788158Y-11506674D02*
X9807205Y-11497150D01*
X9807205Y-11497150D02*
X9835777Y-11497150D01*
X9835777Y-11497150D02*
X9854825Y-11506674D01*
X9854825Y-11506674D02*
X9864348Y-11525722D01*
X9864348Y-11525722D02*
X9864348Y-11630484D01*
X9959586Y-11630484D02*
X9959586Y-11497150D01*
X9959586Y-11516198D02*
X9969110Y-11506674D01*
X9969110Y-11506674D02*
X9988158Y-11497150D01*
X9988158Y-11497150D02*
X10016729Y-11497150D01*
X10016729Y-11497150D02*
X10035777Y-11506674D01*
X10035777Y-11506674D02*
X10045301Y-11525722D01*
X10045301Y-11525722D02*
X10045301Y-11630484D01*
X10045301Y-11525722D02*
X10054825Y-11506674D01*
X10054825Y-11506674D02*
X10073872Y-11497150D01*
X10073872Y-11497150D02*
X10102444Y-11497150D01*
X10102444Y-11497150D02*
X10121491Y-11506674D01*
X10121491Y-11506674D02*
X10131015Y-11525722D01*
X10131015Y-11525722D02*
X10131015Y-11630484D01*
X10521491Y-11420960D02*
X10350063Y-11678103D01*
X10778634Y-11430484D02*
X10797682Y-11430484D01*
X10797682Y-11430484D02*
X10816729Y-11440008D01*
X10816729Y-11440008D02*
X10826253Y-11449531D01*
X10826253Y-11449531D02*
X10835777Y-11468579D01*
X10835777Y-11468579D02*
X10845301Y-11506674D01*
X10845301Y-11506674D02*
X10845301Y-11554293D01*
X10845301Y-11554293D02*
X10835777Y-11592388D01*
X10835777Y-11592388D02*
X10826253Y-11611436D01*
X10826253Y-11611436D02*
X10816729Y-11620960D01*
X10816729Y-11620960D02*
X10797682Y-11630484D01*
X10797682Y-11630484D02*
X10778634Y-11630484D01*
X10778634Y-11630484D02*
X10759587Y-11620960D01*
X10759587Y-11620960D02*
X10750063Y-11611436D01*
X10750063Y-11611436D02*
X10740539Y-11592388D01*
X10740539Y-11592388D02*
X10731015Y-11554293D01*
X10731015Y-11554293D02*
X10731015Y-11506674D01*
X10731015Y-11506674D02*
X10740539Y-11468579D01*
X10740539Y-11468579D02*
X10750063Y-11449531D01*
X10750063Y-11449531D02*
X10759587Y-11440008D01*
X10759587Y-11440008D02*
X10778634Y-11430484D01*
X10931015Y-11611436D02*
X10940539Y-11620960D01*
X10940539Y-11620960D02*
X10931015Y-11630484D01*
X10931015Y-11630484D02*
X10921491Y-11620960D01*
X10921491Y-11620960D02*
X10931015Y-11611436D01*
X10931015Y-11611436D02*
X10931015Y-11630484D01*
X11064348Y-11430484D02*
X11083396Y-11430484D01*
X11083396Y-11430484D02*
X11102444Y-11440008D01*
X11102444Y-11440008D02*
X11111968Y-11449531D01*
X11111968Y-11449531D02*
X11121491Y-11468579D01*
X11121491Y-11468579D02*
X11131015Y-11506674D01*
X11131015Y-11506674D02*
X11131015Y-11554293D01*
X11131015Y-11554293D02*
X11121491Y-11592388D01*
X11121491Y-11592388D02*
X11111968Y-11611436D01*
X11111968Y-11611436D02*
X11102444Y-11620960D01*
X11102444Y-11620960D02*
X11083396Y-11630484D01*
X11083396Y-11630484D02*
X11064348Y-11630484D01*
X11064348Y-11630484D02*
X11045301Y-11620960D01*
X11045301Y-11620960D02*
X11035777Y-11611436D01*
X11035777Y-11611436D02*
X11026253Y-11592388D01*
X11026253Y-11592388D02*
X11016729Y-11554293D01*
X11016729Y-11554293D02*
X11016729Y-11506674D01*
X11016729Y-11506674D02*
X11026253Y-11468579D01*
X11026253Y-11468579D02*
X11035777Y-11449531D01*
X11035777Y-11449531D02*
X11045301Y-11440008D01*
X11045301Y-11440008D02*
X11064348Y-11430484D01*
X11321491Y-11630484D02*
X11207206Y-11630484D01*
X11264348Y-11630484D02*
X11264348Y-11430484D01*
X11264348Y-11430484D02*
X11245301Y-11459055D01*
X11245301Y-11459055D02*
X11226253Y-11478103D01*
X11226253Y-11478103D02*
X11207206Y-11487627D01*
X11502444Y-11430484D02*
X11407206Y-11430484D01*
X11407206Y-11430484D02*
X11397682Y-11525722D01*
X11397682Y-11525722D02*
X11407206Y-11516198D01*
X11407206Y-11516198D02*
X11426253Y-11506674D01*
X11426253Y-11506674D02*
X11473872Y-11506674D01*
X11473872Y-11506674D02*
X11492920Y-11516198D01*
X11492920Y-11516198D02*
X11502444Y-11525722D01*
X11502444Y-11525722D02*
X11511967Y-11544769D01*
X11511967Y-11544769D02*
X11511967Y-11592388D01*
X11511967Y-11592388D02*
X11502444Y-11611436D01*
X11502444Y-11611436D02*
X11492920Y-11620960D01*
X11492920Y-11620960D02*
X11473872Y-11630484D01*
X11473872Y-11630484D02*
X11426253Y-11630484D01*
X11426253Y-11630484D02*
X11407206Y-11620960D01*
X11407206Y-11620960D02*
X11397682Y-11611436D01*
X11578634Y-11430484D02*
X11711967Y-11430484D01*
X11711967Y-11430484D02*
X11626253Y-11630484D01*
X11778634Y-11430484D02*
X11778634Y-11468579D01*
X11854825Y-11430484D02*
X11854825Y-11468579D01*
X12150063Y-11706674D02*
X12140539Y-11697150D01*
X12140539Y-11697150D02*
X12121491Y-11668579D01*
X12121491Y-11668579D02*
X12111968Y-11649531D01*
X12111968Y-11649531D02*
X12102444Y-11620960D01*
X12102444Y-11620960D02*
X12092920Y-11573341D01*
X12092920Y-11573341D02*
X12092920Y-11535246D01*
X12092920Y-11535246D02*
X12102444Y-11487627D01*
X12102444Y-11487627D02*
X12111968Y-11459055D01*
X12111968Y-11459055D02*
X12121491Y-11440008D01*
X12121491Y-11440008D02*
X12140539Y-11411436D01*
X12140539Y-11411436D02*
X12150063Y-11401912D01*
X12264348Y-11430484D02*
X12283396Y-11430484D01*
X12283396Y-11430484D02*
X12302444Y-11440008D01*
X12302444Y-11440008D02*
X12311968Y-11449531D01*
X12311968Y-11449531D02*
X12321491Y-11468579D01*
X12321491Y-11468579D02*
X12331015Y-11506674D01*
X12331015Y-11506674D02*
X12331015Y-11554293D01*
X12331015Y-11554293D02*
X12321491Y-11592388D01*
X12321491Y-11592388D02*
X12311968Y-11611436D01*
X12311968Y-11611436D02*
X12302444Y-11620960D01*
X12302444Y-11620960D02*
X12283396Y-11630484D01*
X12283396Y-11630484D02*
X12264348Y-11630484D01*
X12264348Y-11630484D02*
X12245301Y-11620960D01*
X12245301Y-11620960D02*
X12235777Y-11611436D01*
X12235777Y-11611436D02*
X12226253Y-11592388D01*
X12226253Y-11592388D02*
X12216729Y-11554293D01*
X12216729Y-11554293D02*
X12216729Y-11506674D01*
X12216729Y-11506674D02*
X12226253Y-11468579D01*
X12226253Y-11468579D02*
X12235777Y-11449531D01*
X12235777Y-11449531D02*
X12245301Y-11440008D01*
X12245301Y-11440008D02*
X12264348Y-11430484D01*
X12569110Y-11630484D02*
X12569110Y-11430484D01*
X12654825Y-11630484D02*
X12654825Y-11525722D01*
X12654825Y-11525722D02*
X12645301Y-11506674D01*
X12645301Y-11506674D02*
X12626253Y-11497150D01*
X12626253Y-11497150D02*
X12597682Y-11497150D01*
X12597682Y-11497150D02*
X12578634Y-11506674D01*
X12578634Y-11506674D02*
X12569110Y-11516198D01*
X12778634Y-11630484D02*
X12759587Y-11620960D01*
X12759587Y-11620960D02*
X12750063Y-11611436D01*
X12750063Y-11611436D02*
X12740539Y-11592388D01*
X12740539Y-11592388D02*
X12740539Y-11535246D01*
X12740539Y-11535246D02*
X12750063Y-11516198D01*
X12750063Y-11516198D02*
X12759587Y-11506674D01*
X12759587Y-11506674D02*
X12778634Y-11497150D01*
X12778634Y-11497150D02*
X12807206Y-11497150D01*
X12807206Y-11497150D02*
X12826253Y-11506674D01*
X12826253Y-11506674D02*
X12835777Y-11516198D01*
X12835777Y-11516198D02*
X12845301Y-11535246D01*
X12845301Y-11535246D02*
X12845301Y-11592388D01*
X12845301Y-11592388D02*
X12835777Y-11611436D01*
X12835777Y-11611436D02*
X12826253Y-11620960D01*
X12826253Y-11620960D02*
X12807206Y-11630484D01*
X12807206Y-11630484D02*
X12778634Y-11630484D01*
X12959587Y-11630484D02*
X12940539Y-11620960D01*
X12940539Y-11620960D02*
X12931015Y-11601912D01*
X12931015Y-11601912D02*
X12931015Y-11430484D01*
X13111968Y-11620960D02*
X13092920Y-11630484D01*
X13092920Y-11630484D02*
X13054825Y-11630484D01*
X13054825Y-11630484D02*
X13035777Y-11620960D01*
X13035777Y-11620960D02*
X13026253Y-11601912D01*
X13026253Y-11601912D02*
X13026253Y-11525722D01*
X13026253Y-11525722D02*
X13035777Y-11506674D01*
X13035777Y-11506674D02*
X13054825Y-11497150D01*
X13054825Y-11497150D02*
X13092920Y-11497150D01*
X13092920Y-11497150D02*
X13111968Y-11506674D01*
X13111968Y-11506674D02*
X13121491Y-11525722D01*
X13121491Y-11525722D02*
X13121491Y-11544769D01*
X13121491Y-11544769D02*
X13026253Y-11563817D01*
X13197682Y-11620960D02*
X13216730Y-11630484D01*
X13216730Y-11630484D02*
X13254825Y-11630484D01*
X13254825Y-11630484D02*
X13273872Y-11620960D01*
X13273872Y-11620960D02*
X13283396Y-11601912D01*
X13283396Y-11601912D02*
X13283396Y-11592388D01*
X13283396Y-11592388D02*
X13273872Y-11573341D01*
X13273872Y-11573341D02*
X13254825Y-11563817D01*
X13254825Y-11563817D02*
X13226253Y-11563817D01*
X13226253Y-11563817D02*
X13207206Y-11554293D01*
X13207206Y-11554293D02*
X13197682Y-11535246D01*
X13197682Y-11535246D02*
X13197682Y-11525722D01*
X13197682Y-11525722D02*
X13207206Y-11506674D01*
X13207206Y-11506674D02*
X13226253Y-11497150D01*
X13226253Y-11497150D02*
X13254825Y-11497150D01*
X13254825Y-11497150D02*
X13273872Y-11506674D01*
X13521492Y-11554293D02*
X13673873Y-11554293D01*
X13597682Y-11630484D02*
X13597682Y-11478103D01*
X13902444Y-11430484D02*
X14026253Y-11430484D01*
X14026253Y-11430484D02*
X13959587Y-11506674D01*
X13959587Y-11506674D02*
X13988158Y-11506674D01*
X13988158Y-11506674D02*
X14007206Y-11516198D01*
X14007206Y-11516198D02*
X14016730Y-11525722D01*
X14016730Y-11525722D02*
X14026253Y-11544769D01*
X14026253Y-11544769D02*
X14026253Y-11592388D01*
X14026253Y-11592388D02*
X14016730Y-11611436D01*
X14016730Y-11611436D02*
X14007206Y-11620960D01*
X14007206Y-11620960D02*
X13988158Y-11630484D01*
X13988158Y-11630484D02*
X13931015Y-11630484D01*
X13931015Y-11630484D02*
X13911968Y-11620960D01*
X13911968Y-11620960D02*
X13902444Y-11611436D01*
X14254825Y-11620960D02*
X14273873Y-11630484D01*
X14273873Y-11630484D02*
X14311968Y-11630484D01*
X14311968Y-11630484D02*
X14331015Y-11620960D01*
X14331015Y-11620960D02*
X14340539Y-11601912D01*
X14340539Y-11601912D02*
X14340539Y-11592388D01*
X14340539Y-11592388D02*
X14331015Y-11573341D01*
X14331015Y-11573341D02*
X14311968Y-11563817D01*
X14311968Y-11563817D02*
X14283396Y-11563817D01*
X14283396Y-11563817D02*
X14264349Y-11554293D01*
X14264349Y-11554293D02*
X14254825Y-11535246D01*
X14254825Y-11535246D02*
X14254825Y-11525722D01*
X14254825Y-11525722D02*
X14264349Y-11506674D01*
X14264349Y-11506674D02*
X14283396Y-11497150D01*
X14283396Y-11497150D02*
X14311968Y-11497150D01*
X14311968Y-11497150D02*
X14331015Y-11506674D01*
X14454825Y-11630484D02*
X14435777Y-11620960D01*
X14435777Y-11620960D02*
X14426254Y-11601912D01*
X14426254Y-11601912D02*
X14426254Y-11430484D01*
X14559587Y-11630484D02*
X14540539Y-11620960D01*
X14540539Y-11620960D02*
X14531015Y-11611436D01*
X14531015Y-11611436D02*
X14521492Y-11592388D01*
X14521492Y-11592388D02*
X14521492Y-11535246D01*
X14521492Y-11535246D02*
X14531015Y-11516198D01*
X14531015Y-11516198D02*
X14540539Y-11506674D01*
X14540539Y-11506674D02*
X14559587Y-11497150D01*
X14559587Y-11497150D02*
X14588158Y-11497150D01*
X14588158Y-11497150D02*
X14607206Y-11506674D01*
X14607206Y-11506674D02*
X14616730Y-11516198D01*
X14616730Y-11516198D02*
X14626254Y-11535246D01*
X14626254Y-11535246D02*
X14626254Y-11592388D01*
X14626254Y-11592388D02*
X14616730Y-11611436D01*
X14616730Y-11611436D02*
X14607206Y-11620960D01*
X14607206Y-11620960D02*
X14588158Y-11630484D01*
X14588158Y-11630484D02*
X14559587Y-11630484D01*
X14683396Y-11497150D02*
X14759587Y-11497150D01*
X14711968Y-11430484D02*
X14711968Y-11601912D01*
X14711968Y-11601912D02*
X14721492Y-11620960D01*
X14721492Y-11620960D02*
X14740539Y-11630484D01*
X14740539Y-11630484D02*
X14759587Y-11630484D01*
X14816730Y-11620960D02*
X14835777Y-11630484D01*
X14835777Y-11630484D02*
X14873873Y-11630484D01*
X14873873Y-11630484D02*
X14892920Y-11620960D01*
X14892920Y-11620960D02*
X14902444Y-11601912D01*
X14902444Y-11601912D02*
X14902444Y-11592388D01*
X14902444Y-11592388D02*
X14892920Y-11573341D01*
X14892920Y-11573341D02*
X14873873Y-11563817D01*
X14873873Y-11563817D02*
X14845301Y-11563817D01*
X14845301Y-11563817D02*
X14826254Y-11554293D01*
X14826254Y-11554293D02*
X14816730Y-11535246D01*
X14816730Y-11535246D02*
X14816730Y-11525722D01*
X14816730Y-11525722D02*
X14826254Y-11506674D01*
X14826254Y-11506674D02*
X14845301Y-11497150D01*
X14845301Y-11497150D02*
X14873873Y-11497150D01*
X14873873Y-11497150D02*
X14892920Y-11506674D01*
X14969111Y-11706674D02*
X14978635Y-11697150D01*
X14978635Y-11697150D02*
X14997682Y-11668579D01*
X14997682Y-11668579D02*
X15007206Y-11649531D01*
X15007206Y-11649531D02*
X15016730Y-11620960D01*
X15016730Y-11620960D02*
X15026254Y-11573341D01*
X15026254Y-11573341D02*
X15026254Y-11535246D01*
X15026254Y-11535246D02*
X15016730Y-11487627D01*
X15016730Y-11487627D02*
X15007206Y-11459055D01*
X15007206Y-11459055D02*
X14997682Y-11440008D01*
X14997682Y-11440008D02*
X14978635Y-11411436D01*
X14978635Y-11411436D02*
X14969111Y-11401912D01*
D13*
X8545000Y-11773000D02*
X8545000Y-11833000D01*
X8515000Y-11803000D02*
X8575000Y-11803000D01*
D11*
X8873872Y-11694484D02*
X8892920Y-11694484D01*
X8892920Y-11694484D02*
X8911967Y-11704008D01*
X8911967Y-11704008D02*
X8921491Y-11713531D01*
X8921491Y-11713531D02*
X8931015Y-11732579D01*
X8931015Y-11732579D02*
X8940539Y-11770674D01*
X8940539Y-11770674D02*
X8940539Y-11818293D01*
X8940539Y-11818293D02*
X8931015Y-11856388D01*
X8931015Y-11856388D02*
X8921491Y-11875436D01*
X8921491Y-11875436D02*
X8911967Y-11884960D01*
X8911967Y-11884960D02*
X8892920Y-11894484D01*
X8892920Y-11894484D02*
X8873872Y-11894484D01*
X8873872Y-11894484D02*
X8854824Y-11884960D01*
X8854824Y-11884960D02*
X8845301Y-11875436D01*
X8845301Y-11875436D02*
X8835777Y-11856388D01*
X8835777Y-11856388D02*
X8826253Y-11818293D01*
X8826253Y-11818293D02*
X8826253Y-11770674D01*
X8826253Y-11770674D02*
X8835777Y-11732579D01*
X8835777Y-11732579D02*
X8845301Y-11713531D01*
X8845301Y-11713531D02*
X8854824Y-11704008D01*
X8854824Y-11704008D02*
X8873872Y-11694484D01*
X9026253Y-11875436D02*
X9035777Y-11884960D01*
X9035777Y-11884960D02*
X9026253Y-11894484D01*
X9026253Y-11894484D02*
X9016729Y-11884960D01*
X9016729Y-11884960D02*
X9026253Y-11875436D01*
X9026253Y-11875436D02*
X9026253Y-11894484D01*
X9207205Y-11694484D02*
X9169110Y-11694484D01*
X9169110Y-11694484D02*
X9150063Y-11704008D01*
X9150063Y-11704008D02*
X9140539Y-11713531D01*
X9140539Y-11713531D02*
X9121491Y-11742103D01*
X9121491Y-11742103D02*
X9111967Y-11780198D01*
X9111967Y-11780198D02*
X9111967Y-11856388D01*
X9111967Y-11856388D02*
X9121491Y-11875436D01*
X9121491Y-11875436D02*
X9131015Y-11884960D01*
X9131015Y-11884960D02*
X9150063Y-11894484D01*
X9150063Y-11894484D02*
X9188158Y-11894484D01*
X9188158Y-11894484D02*
X9207205Y-11884960D01*
X9207205Y-11884960D02*
X9216729Y-11875436D01*
X9216729Y-11875436D02*
X9226253Y-11856388D01*
X9226253Y-11856388D02*
X9226253Y-11808769D01*
X9226253Y-11808769D02*
X9216729Y-11789722D01*
X9216729Y-11789722D02*
X9207205Y-11780198D01*
X9207205Y-11780198D02*
X9188158Y-11770674D01*
X9188158Y-11770674D02*
X9150063Y-11770674D01*
X9150063Y-11770674D02*
X9131015Y-11780198D01*
X9131015Y-11780198D02*
X9121491Y-11789722D01*
X9121491Y-11789722D02*
X9111967Y-11808769D01*
X9350063Y-11694484D02*
X9369110Y-11694484D01*
X9369110Y-11694484D02*
X9388158Y-11704008D01*
X9388158Y-11704008D02*
X9397682Y-11713531D01*
X9397682Y-11713531D02*
X9407205Y-11732579D01*
X9407205Y-11732579D02*
X9416729Y-11770674D01*
X9416729Y-11770674D02*
X9416729Y-11818293D01*
X9416729Y-11818293D02*
X9407205Y-11856388D01*
X9407205Y-11856388D02*
X9397682Y-11875436D01*
X9397682Y-11875436D02*
X9388158Y-11884960D01*
X9388158Y-11884960D02*
X9369110Y-11894484D01*
X9369110Y-11894484D02*
X9350063Y-11894484D01*
X9350063Y-11894484D02*
X9331015Y-11884960D01*
X9331015Y-11884960D02*
X9321491Y-11875436D01*
X9321491Y-11875436D02*
X9311967Y-11856388D01*
X9311967Y-11856388D02*
X9302444Y-11818293D01*
X9302444Y-11818293D02*
X9302444Y-11770674D01*
X9302444Y-11770674D02*
X9311967Y-11732579D01*
X9311967Y-11732579D02*
X9321491Y-11713531D01*
X9321491Y-11713531D02*
X9331015Y-11704008D01*
X9331015Y-11704008D02*
X9350063Y-11694484D01*
X9540539Y-11694484D02*
X9559586Y-11694484D01*
X9559586Y-11694484D02*
X9578634Y-11704008D01*
X9578634Y-11704008D02*
X9588158Y-11713531D01*
X9588158Y-11713531D02*
X9597682Y-11732579D01*
X9597682Y-11732579D02*
X9607205Y-11770674D01*
X9607205Y-11770674D02*
X9607205Y-11818293D01*
X9607205Y-11818293D02*
X9597682Y-11856388D01*
X9597682Y-11856388D02*
X9588158Y-11875436D01*
X9588158Y-11875436D02*
X9578634Y-11884960D01*
X9578634Y-11884960D02*
X9559586Y-11894484D01*
X9559586Y-11894484D02*
X9540539Y-11894484D01*
X9540539Y-11894484D02*
X9521491Y-11884960D01*
X9521491Y-11884960D02*
X9511967Y-11875436D01*
X9511967Y-11875436D02*
X9502444Y-11856388D01*
X9502444Y-11856388D02*
X9492920Y-11818293D01*
X9492920Y-11818293D02*
X9492920Y-11770674D01*
X9492920Y-11770674D02*
X9502444Y-11732579D01*
X9502444Y-11732579D02*
X9511967Y-11713531D01*
X9511967Y-11713531D02*
X9521491Y-11704008D01*
X9521491Y-11704008D02*
X9540539Y-11694484D01*
X9692920Y-11894484D02*
X9692920Y-11761150D01*
X9692920Y-11780198D02*
X9702444Y-11770674D01*
X9702444Y-11770674D02*
X9721491Y-11761150D01*
X9721491Y-11761150D02*
X9750063Y-11761150D01*
X9750063Y-11761150D02*
X9769110Y-11770674D01*
X9769110Y-11770674D02*
X9778634Y-11789722D01*
X9778634Y-11789722D02*
X9778634Y-11894484D01*
X9778634Y-11789722D02*
X9788158Y-11770674D01*
X9788158Y-11770674D02*
X9807205Y-11761150D01*
X9807205Y-11761150D02*
X9835777Y-11761150D01*
X9835777Y-11761150D02*
X9854825Y-11770674D01*
X9854825Y-11770674D02*
X9864348Y-11789722D01*
X9864348Y-11789722D02*
X9864348Y-11894484D01*
X9959586Y-11894484D02*
X9959586Y-11761150D01*
X9959586Y-11780198D02*
X9969110Y-11770674D01*
X9969110Y-11770674D02*
X9988158Y-11761150D01*
X9988158Y-11761150D02*
X10016729Y-11761150D01*
X10016729Y-11761150D02*
X10035777Y-11770674D01*
X10035777Y-11770674D02*
X10045301Y-11789722D01*
X10045301Y-11789722D02*
X10045301Y-11894484D01*
X10045301Y-11789722D02*
X10054825Y-11770674D01*
X10054825Y-11770674D02*
X10073872Y-11761150D01*
X10073872Y-11761150D02*
X10102444Y-11761150D01*
X10102444Y-11761150D02*
X10121491Y-11770674D01*
X10121491Y-11770674D02*
X10131015Y-11789722D01*
X10131015Y-11789722D02*
X10131015Y-11894484D01*
X10521491Y-11684960D02*
X10350063Y-11942103D01*
X10778634Y-11694484D02*
X10797682Y-11694484D01*
X10797682Y-11694484D02*
X10816729Y-11704008D01*
X10816729Y-11704008D02*
X10826253Y-11713531D01*
X10826253Y-11713531D02*
X10835777Y-11732579D01*
X10835777Y-11732579D02*
X10845301Y-11770674D01*
X10845301Y-11770674D02*
X10845301Y-11818293D01*
X10845301Y-11818293D02*
X10835777Y-11856388D01*
X10835777Y-11856388D02*
X10826253Y-11875436D01*
X10826253Y-11875436D02*
X10816729Y-11884960D01*
X10816729Y-11884960D02*
X10797682Y-11894484D01*
X10797682Y-11894484D02*
X10778634Y-11894484D01*
X10778634Y-11894484D02*
X10759587Y-11884960D01*
X10759587Y-11884960D02*
X10750063Y-11875436D01*
X10750063Y-11875436D02*
X10740539Y-11856388D01*
X10740539Y-11856388D02*
X10731015Y-11818293D01*
X10731015Y-11818293D02*
X10731015Y-11770674D01*
X10731015Y-11770674D02*
X10740539Y-11732579D01*
X10740539Y-11732579D02*
X10750063Y-11713531D01*
X10750063Y-11713531D02*
X10759587Y-11704008D01*
X10759587Y-11704008D02*
X10778634Y-11694484D01*
X10931015Y-11875436D02*
X10940539Y-11884960D01*
X10940539Y-11884960D02*
X10931015Y-11894484D01*
X10931015Y-11894484D02*
X10921491Y-11884960D01*
X10921491Y-11884960D02*
X10931015Y-11875436D01*
X10931015Y-11875436D02*
X10931015Y-11894484D01*
X11064348Y-11694484D02*
X11083396Y-11694484D01*
X11083396Y-11694484D02*
X11102444Y-11704008D01*
X11102444Y-11704008D02*
X11111968Y-11713531D01*
X11111968Y-11713531D02*
X11121491Y-11732579D01*
X11121491Y-11732579D02*
X11131015Y-11770674D01*
X11131015Y-11770674D02*
X11131015Y-11818293D01*
X11131015Y-11818293D02*
X11121491Y-11856388D01*
X11121491Y-11856388D02*
X11111968Y-11875436D01*
X11111968Y-11875436D02*
X11102444Y-11884960D01*
X11102444Y-11884960D02*
X11083396Y-11894484D01*
X11083396Y-11894484D02*
X11064348Y-11894484D01*
X11064348Y-11894484D02*
X11045301Y-11884960D01*
X11045301Y-11884960D02*
X11035777Y-11875436D01*
X11035777Y-11875436D02*
X11026253Y-11856388D01*
X11026253Y-11856388D02*
X11016729Y-11818293D01*
X11016729Y-11818293D02*
X11016729Y-11770674D01*
X11016729Y-11770674D02*
X11026253Y-11732579D01*
X11026253Y-11732579D02*
X11035777Y-11713531D01*
X11035777Y-11713531D02*
X11045301Y-11704008D01*
X11045301Y-11704008D02*
X11064348Y-11694484D01*
X11207206Y-11713531D02*
X11216729Y-11704008D01*
X11216729Y-11704008D02*
X11235777Y-11694484D01*
X11235777Y-11694484D02*
X11283396Y-11694484D01*
X11283396Y-11694484D02*
X11302444Y-11704008D01*
X11302444Y-11704008D02*
X11311967Y-11713531D01*
X11311967Y-11713531D02*
X11321491Y-11732579D01*
X11321491Y-11732579D02*
X11321491Y-11751627D01*
X11321491Y-11751627D02*
X11311967Y-11780198D01*
X11311967Y-11780198D02*
X11197682Y-11894484D01*
X11197682Y-11894484D02*
X11321491Y-11894484D01*
X11388158Y-11694484D02*
X11511967Y-11694484D01*
X11511967Y-11694484D02*
X11445301Y-11770674D01*
X11445301Y-11770674D02*
X11473872Y-11770674D01*
X11473872Y-11770674D02*
X11492920Y-11780198D01*
X11492920Y-11780198D02*
X11502444Y-11789722D01*
X11502444Y-11789722D02*
X11511967Y-11808769D01*
X11511967Y-11808769D02*
X11511967Y-11856388D01*
X11511967Y-11856388D02*
X11502444Y-11875436D01*
X11502444Y-11875436D02*
X11492920Y-11884960D01*
X11492920Y-11884960D02*
X11473872Y-11894484D01*
X11473872Y-11894484D02*
X11416729Y-11894484D01*
X11416729Y-11894484D02*
X11397682Y-11884960D01*
X11397682Y-11884960D02*
X11388158Y-11875436D01*
X11683396Y-11694484D02*
X11645301Y-11694484D01*
X11645301Y-11694484D02*
X11626253Y-11704008D01*
X11626253Y-11704008D02*
X11616729Y-11713531D01*
X11616729Y-11713531D02*
X11597682Y-11742103D01*
X11597682Y-11742103D02*
X11588158Y-11780198D01*
X11588158Y-11780198D02*
X11588158Y-11856388D01*
X11588158Y-11856388D02*
X11597682Y-11875436D01*
X11597682Y-11875436D02*
X11607206Y-11884960D01*
X11607206Y-11884960D02*
X11626253Y-11894484D01*
X11626253Y-11894484D02*
X11664348Y-11894484D01*
X11664348Y-11894484D02*
X11683396Y-11884960D01*
X11683396Y-11884960D02*
X11692920Y-11875436D01*
X11692920Y-11875436D02*
X11702444Y-11856388D01*
X11702444Y-11856388D02*
X11702444Y-11808769D01*
X11702444Y-11808769D02*
X11692920Y-11789722D01*
X11692920Y-11789722D02*
X11683396Y-11780198D01*
X11683396Y-11780198D02*
X11664348Y-11770674D01*
X11664348Y-11770674D02*
X11626253Y-11770674D01*
X11626253Y-11770674D02*
X11607206Y-11780198D01*
X11607206Y-11780198D02*
X11597682Y-11789722D01*
X11597682Y-11789722D02*
X11588158Y-11808769D01*
X11778634Y-11694484D02*
X11778634Y-11732579D01*
X11854825Y-11694484D02*
X11854825Y-11732579D01*
X12150063Y-11970674D02*
X12140539Y-11961150D01*
X12140539Y-11961150D02*
X12121491Y-11932579D01*
X12121491Y-11932579D02*
X12111968Y-11913531D01*
X12111968Y-11913531D02*
X12102444Y-11884960D01*
X12102444Y-11884960D02*
X12092920Y-11837341D01*
X12092920Y-11837341D02*
X12092920Y-11799246D01*
X12092920Y-11799246D02*
X12102444Y-11751627D01*
X12102444Y-11751627D02*
X12111968Y-11723055D01*
X12111968Y-11723055D02*
X12121491Y-11704008D01*
X12121491Y-11704008D02*
X12140539Y-11675436D01*
X12140539Y-11675436D02*
X12150063Y-11665912D01*
X12216729Y-11713531D02*
X12226253Y-11704008D01*
X12226253Y-11704008D02*
X12245301Y-11694484D01*
X12245301Y-11694484D02*
X12292920Y-11694484D01*
X12292920Y-11694484D02*
X12311968Y-11704008D01*
X12311968Y-11704008D02*
X12321491Y-11713531D01*
X12321491Y-11713531D02*
X12331015Y-11732579D01*
X12331015Y-11732579D02*
X12331015Y-11751627D01*
X12331015Y-11751627D02*
X12321491Y-11780198D01*
X12321491Y-11780198D02*
X12207206Y-11894484D01*
X12207206Y-11894484D02*
X12331015Y-11894484D01*
X12569110Y-11894484D02*
X12569110Y-11694484D01*
X12654825Y-11894484D02*
X12654825Y-11789722D01*
X12654825Y-11789722D02*
X12645301Y-11770674D01*
X12645301Y-11770674D02*
X12626253Y-11761150D01*
X12626253Y-11761150D02*
X12597682Y-11761150D01*
X12597682Y-11761150D02*
X12578634Y-11770674D01*
X12578634Y-11770674D02*
X12569110Y-11780198D01*
X12778634Y-11894484D02*
X12759587Y-11884960D01*
X12759587Y-11884960D02*
X12750063Y-11875436D01*
X12750063Y-11875436D02*
X12740539Y-11856388D01*
X12740539Y-11856388D02*
X12740539Y-11799246D01*
X12740539Y-11799246D02*
X12750063Y-11780198D01*
X12750063Y-11780198D02*
X12759587Y-11770674D01*
X12759587Y-11770674D02*
X12778634Y-11761150D01*
X12778634Y-11761150D02*
X12807206Y-11761150D01*
X12807206Y-11761150D02*
X12826253Y-11770674D01*
X12826253Y-11770674D02*
X12835777Y-11780198D01*
X12835777Y-11780198D02*
X12845301Y-11799246D01*
X12845301Y-11799246D02*
X12845301Y-11856388D01*
X12845301Y-11856388D02*
X12835777Y-11875436D01*
X12835777Y-11875436D02*
X12826253Y-11884960D01*
X12826253Y-11884960D02*
X12807206Y-11894484D01*
X12807206Y-11894484D02*
X12778634Y-11894484D01*
X12959587Y-11894484D02*
X12940539Y-11884960D01*
X12940539Y-11884960D02*
X12931015Y-11865912D01*
X12931015Y-11865912D02*
X12931015Y-11694484D01*
X13111968Y-11884960D02*
X13092920Y-11894484D01*
X13092920Y-11894484D02*
X13054825Y-11894484D01*
X13054825Y-11894484D02*
X13035777Y-11884960D01*
X13035777Y-11884960D02*
X13026253Y-11865912D01*
X13026253Y-11865912D02*
X13026253Y-11789722D01*
X13026253Y-11789722D02*
X13035777Y-11770674D01*
X13035777Y-11770674D02*
X13054825Y-11761150D01*
X13054825Y-11761150D02*
X13092920Y-11761150D01*
X13092920Y-11761150D02*
X13111968Y-11770674D01*
X13111968Y-11770674D02*
X13121491Y-11789722D01*
X13121491Y-11789722D02*
X13121491Y-11808769D01*
X13121491Y-11808769D02*
X13026253Y-11827817D01*
X13197682Y-11884960D02*
X13216730Y-11894484D01*
X13216730Y-11894484D02*
X13254825Y-11894484D01*
X13254825Y-11894484D02*
X13273872Y-11884960D01*
X13273872Y-11884960D02*
X13283396Y-11865912D01*
X13283396Y-11865912D02*
X13283396Y-11856388D01*
X13283396Y-11856388D02*
X13273872Y-11837341D01*
X13273872Y-11837341D02*
X13254825Y-11827817D01*
X13254825Y-11827817D02*
X13226253Y-11827817D01*
X13226253Y-11827817D02*
X13207206Y-11818293D01*
X13207206Y-11818293D02*
X13197682Y-11799246D01*
X13197682Y-11799246D02*
X13197682Y-11789722D01*
X13197682Y-11789722D02*
X13207206Y-11770674D01*
X13207206Y-11770674D02*
X13226253Y-11761150D01*
X13226253Y-11761150D02*
X13254825Y-11761150D01*
X13254825Y-11761150D02*
X13273872Y-11770674D01*
X13350063Y-11970674D02*
X13359587Y-11961150D01*
X13359587Y-11961150D02*
X13378634Y-11932579D01*
X13378634Y-11932579D02*
X13388158Y-11913531D01*
X13388158Y-11913531D02*
X13397682Y-11884960D01*
X13397682Y-11884960D02*
X13407206Y-11837341D01*
X13407206Y-11837341D02*
X13407206Y-11799246D01*
X13407206Y-11799246D02*
X13397682Y-11751627D01*
X13397682Y-11751627D02*
X13388158Y-11723055D01*
X13388158Y-11723055D02*
X13378634Y-11704008D01*
X13378634Y-11704008D02*
X13359587Y-11675436D01*
X13359587Y-11675436D02*
X13350063Y-11665912D01*
D14*
X8564749Y-12091749D02*
X8564749Y-12042251D01*
X8515251Y-12042251D01*
X8515251Y-12091749D01*
X8564749Y-12091749D01*
D11*
X8873872Y-11958484D02*
X8892920Y-11958484D01*
X8892920Y-11958484D02*
X8911967Y-11968008D01*
X8911967Y-11968008D02*
X8921491Y-11977531D01*
X8921491Y-11977531D02*
X8931015Y-11996579D01*
X8931015Y-11996579D02*
X8940539Y-12034674D01*
X8940539Y-12034674D02*
X8940539Y-12082293D01*
X8940539Y-12082293D02*
X8931015Y-12120388D01*
X8931015Y-12120388D02*
X8921491Y-12139436D01*
X8921491Y-12139436D02*
X8911967Y-12148960D01*
X8911967Y-12148960D02*
X8892920Y-12158484D01*
X8892920Y-12158484D02*
X8873872Y-12158484D01*
X8873872Y-12158484D02*
X8854824Y-12148960D01*
X8854824Y-12148960D02*
X8845301Y-12139436D01*
X8845301Y-12139436D02*
X8835777Y-12120388D01*
X8835777Y-12120388D02*
X8826253Y-12082293D01*
X8826253Y-12082293D02*
X8826253Y-12034674D01*
X8826253Y-12034674D02*
X8835777Y-11996579D01*
X8835777Y-11996579D02*
X8845301Y-11977531D01*
X8845301Y-11977531D02*
X8854824Y-11968008D01*
X8854824Y-11968008D02*
X8873872Y-11958484D01*
X9026253Y-12139436D02*
X9035777Y-12148960D01*
X9035777Y-12148960D02*
X9026253Y-12158484D01*
X9026253Y-12158484D02*
X9016729Y-12148960D01*
X9016729Y-12148960D02*
X9026253Y-12139436D01*
X9026253Y-12139436D02*
X9026253Y-12158484D01*
X9102444Y-11958484D02*
X9235777Y-11958484D01*
X9235777Y-11958484D02*
X9150063Y-12158484D01*
X9350063Y-11958484D02*
X9369110Y-11958484D01*
X9369110Y-11958484D02*
X9388158Y-11968008D01*
X9388158Y-11968008D02*
X9397682Y-11977531D01*
X9397682Y-11977531D02*
X9407205Y-11996579D01*
X9407205Y-11996579D02*
X9416729Y-12034674D01*
X9416729Y-12034674D02*
X9416729Y-12082293D01*
X9416729Y-12082293D02*
X9407205Y-12120388D01*
X9407205Y-12120388D02*
X9397682Y-12139436D01*
X9397682Y-12139436D02*
X9388158Y-12148960D01*
X9388158Y-12148960D02*
X9369110Y-12158484D01*
X9369110Y-12158484D02*
X9350063Y-12158484D01*
X9350063Y-12158484D02*
X9331015Y-12148960D01*
X9331015Y-12148960D02*
X9321491Y-12139436D01*
X9321491Y-12139436D02*
X9311967Y-12120388D01*
X9311967Y-12120388D02*
X9302444Y-12082293D01*
X9302444Y-12082293D02*
X9302444Y-12034674D01*
X9302444Y-12034674D02*
X9311967Y-11996579D01*
X9311967Y-11996579D02*
X9321491Y-11977531D01*
X9321491Y-11977531D02*
X9331015Y-11968008D01*
X9331015Y-11968008D02*
X9350063Y-11958484D01*
X9540539Y-11958484D02*
X9559586Y-11958484D01*
X9559586Y-11958484D02*
X9578634Y-11968008D01*
X9578634Y-11968008D02*
X9588158Y-11977531D01*
X9588158Y-11977531D02*
X9597682Y-11996579D01*
X9597682Y-11996579D02*
X9607205Y-12034674D01*
X9607205Y-12034674D02*
X9607205Y-12082293D01*
X9607205Y-12082293D02*
X9597682Y-12120388D01*
X9597682Y-12120388D02*
X9588158Y-12139436D01*
X9588158Y-12139436D02*
X9578634Y-12148960D01*
X9578634Y-12148960D02*
X9559586Y-12158484D01*
X9559586Y-12158484D02*
X9540539Y-12158484D01*
X9540539Y-12158484D02*
X9521491Y-12148960D01*
X9521491Y-12148960D02*
X9511967Y-12139436D01*
X9511967Y-12139436D02*
X9502444Y-12120388D01*
X9502444Y-12120388D02*
X9492920Y-12082293D01*
X9492920Y-12082293D02*
X9492920Y-12034674D01*
X9492920Y-12034674D02*
X9502444Y-11996579D01*
X9502444Y-11996579D02*
X9511967Y-11977531D01*
X9511967Y-11977531D02*
X9521491Y-11968008D01*
X9521491Y-11968008D02*
X9540539Y-11958484D01*
X9692920Y-12158484D02*
X9692920Y-12025150D01*
X9692920Y-12044198D02*
X9702444Y-12034674D01*
X9702444Y-12034674D02*
X9721491Y-12025150D01*
X9721491Y-12025150D02*
X9750063Y-12025150D01*
X9750063Y-12025150D02*
X9769110Y-12034674D01*
X9769110Y-12034674D02*
X9778634Y-12053722D01*
X9778634Y-12053722D02*
X9778634Y-12158484D01*
X9778634Y-12053722D02*
X9788158Y-12034674D01*
X9788158Y-12034674D02*
X9807205Y-12025150D01*
X9807205Y-12025150D02*
X9835777Y-12025150D01*
X9835777Y-12025150D02*
X9854825Y-12034674D01*
X9854825Y-12034674D02*
X9864348Y-12053722D01*
X9864348Y-12053722D02*
X9864348Y-12158484D01*
X9959586Y-12158484D02*
X9959586Y-12025150D01*
X9959586Y-12044198D02*
X9969110Y-12034674D01*
X9969110Y-12034674D02*
X9988158Y-12025150D01*
X9988158Y-12025150D02*
X10016729Y-12025150D01*
X10016729Y-12025150D02*
X10035777Y-12034674D01*
X10035777Y-12034674D02*
X10045301Y-12053722D01*
X10045301Y-12053722D02*
X10045301Y-12158484D01*
X10045301Y-12053722D02*
X10054825Y-12034674D01*
X10054825Y-12034674D02*
X10073872Y-12025150D01*
X10073872Y-12025150D02*
X10102444Y-12025150D01*
X10102444Y-12025150D02*
X10121491Y-12034674D01*
X10121491Y-12034674D02*
X10131015Y-12053722D01*
X10131015Y-12053722D02*
X10131015Y-12158484D01*
X10521491Y-11948960D02*
X10350063Y-12206103D01*
X10778634Y-11958484D02*
X10797682Y-11958484D01*
X10797682Y-11958484D02*
X10816729Y-11968008D01*
X10816729Y-11968008D02*
X10826253Y-11977531D01*
X10826253Y-11977531D02*
X10835777Y-11996579D01*
X10835777Y-11996579D02*
X10845301Y-12034674D01*
X10845301Y-12034674D02*
X10845301Y-12082293D01*
X10845301Y-12082293D02*
X10835777Y-12120388D01*
X10835777Y-12120388D02*
X10826253Y-12139436D01*
X10826253Y-12139436D02*
X10816729Y-12148960D01*
X10816729Y-12148960D02*
X10797682Y-12158484D01*
X10797682Y-12158484D02*
X10778634Y-12158484D01*
X10778634Y-12158484D02*
X10759587Y-12148960D01*
X10759587Y-12148960D02*
X10750063Y-12139436D01*
X10750063Y-12139436D02*
X10740539Y-12120388D01*
X10740539Y-12120388D02*
X10731015Y-12082293D01*
X10731015Y-12082293D02*
X10731015Y-12034674D01*
X10731015Y-12034674D02*
X10740539Y-11996579D01*
X10740539Y-11996579D02*
X10750063Y-11977531D01*
X10750063Y-11977531D02*
X10759587Y-11968008D01*
X10759587Y-11968008D02*
X10778634Y-11958484D01*
X10931015Y-12139436D02*
X10940539Y-12148960D01*
X10940539Y-12148960D02*
X10931015Y-12158484D01*
X10931015Y-12158484D02*
X10921491Y-12148960D01*
X10921491Y-12148960D02*
X10931015Y-12139436D01*
X10931015Y-12139436D02*
X10931015Y-12158484D01*
X11064348Y-11958484D02*
X11083396Y-11958484D01*
X11083396Y-11958484D02*
X11102444Y-11968008D01*
X11102444Y-11968008D02*
X11111968Y-11977531D01*
X11111968Y-11977531D02*
X11121491Y-11996579D01*
X11121491Y-11996579D02*
X11131015Y-12034674D01*
X11131015Y-12034674D02*
X11131015Y-12082293D01*
X11131015Y-12082293D02*
X11121491Y-12120388D01*
X11121491Y-12120388D02*
X11111968Y-12139436D01*
X11111968Y-12139436D02*
X11102444Y-12148960D01*
X11102444Y-12148960D02*
X11083396Y-12158484D01*
X11083396Y-12158484D02*
X11064348Y-12158484D01*
X11064348Y-12158484D02*
X11045301Y-12148960D01*
X11045301Y-12148960D02*
X11035777Y-12139436D01*
X11035777Y-12139436D02*
X11026253Y-12120388D01*
X11026253Y-12120388D02*
X11016729Y-12082293D01*
X11016729Y-12082293D02*
X11016729Y-12034674D01*
X11016729Y-12034674D02*
X11026253Y-11996579D01*
X11026253Y-11996579D02*
X11035777Y-11977531D01*
X11035777Y-11977531D02*
X11045301Y-11968008D01*
X11045301Y-11968008D02*
X11064348Y-11958484D01*
X11207206Y-11977531D02*
X11216729Y-11968008D01*
X11216729Y-11968008D02*
X11235777Y-11958484D01*
X11235777Y-11958484D02*
X11283396Y-11958484D01*
X11283396Y-11958484D02*
X11302444Y-11968008D01*
X11302444Y-11968008D02*
X11311967Y-11977531D01*
X11311967Y-11977531D02*
X11321491Y-11996579D01*
X11321491Y-11996579D02*
X11321491Y-12015627D01*
X11321491Y-12015627D02*
X11311967Y-12044198D01*
X11311967Y-12044198D02*
X11197682Y-12158484D01*
X11197682Y-12158484D02*
X11321491Y-12158484D01*
X11388158Y-11958484D02*
X11521491Y-11958484D01*
X11521491Y-11958484D02*
X11435777Y-12158484D01*
X11683396Y-11958484D02*
X11645301Y-11958484D01*
X11645301Y-11958484D02*
X11626253Y-11968008D01*
X11626253Y-11968008D02*
X11616729Y-11977531D01*
X11616729Y-11977531D02*
X11597682Y-12006103D01*
X11597682Y-12006103D02*
X11588158Y-12044198D01*
X11588158Y-12044198D02*
X11588158Y-12120388D01*
X11588158Y-12120388D02*
X11597682Y-12139436D01*
X11597682Y-12139436D02*
X11607206Y-12148960D01*
X11607206Y-12148960D02*
X11626253Y-12158484D01*
X11626253Y-12158484D02*
X11664348Y-12158484D01*
X11664348Y-12158484D02*
X11683396Y-12148960D01*
X11683396Y-12148960D02*
X11692920Y-12139436D01*
X11692920Y-12139436D02*
X11702444Y-12120388D01*
X11702444Y-12120388D02*
X11702444Y-12072769D01*
X11702444Y-12072769D02*
X11692920Y-12053722D01*
X11692920Y-12053722D02*
X11683396Y-12044198D01*
X11683396Y-12044198D02*
X11664348Y-12034674D01*
X11664348Y-12034674D02*
X11626253Y-12034674D01*
X11626253Y-12034674D02*
X11607206Y-12044198D01*
X11607206Y-12044198D02*
X11597682Y-12053722D01*
X11597682Y-12053722D02*
X11588158Y-12072769D01*
X11778634Y-11958484D02*
X11778634Y-11996579D01*
X11854825Y-11958484D02*
X11854825Y-11996579D01*
X12150063Y-12234674D02*
X12140539Y-12225150D01*
X12140539Y-12225150D02*
X12121491Y-12196579D01*
X12121491Y-12196579D02*
X12111968Y-12177531D01*
X12111968Y-12177531D02*
X12102444Y-12148960D01*
X12102444Y-12148960D02*
X12092920Y-12101341D01*
X12092920Y-12101341D02*
X12092920Y-12063246D01*
X12092920Y-12063246D02*
X12102444Y-12015627D01*
X12102444Y-12015627D02*
X12111968Y-11987055D01*
X12111968Y-11987055D02*
X12121491Y-11968008D01*
X12121491Y-11968008D02*
X12140539Y-11939436D01*
X12140539Y-11939436D02*
X12150063Y-11929912D01*
X12207206Y-11958484D02*
X12340539Y-11958484D01*
X12340539Y-11958484D02*
X12254825Y-12158484D01*
X12569110Y-12158484D02*
X12569110Y-11958484D01*
X12654825Y-12158484D02*
X12654825Y-12053722D01*
X12654825Y-12053722D02*
X12645301Y-12034674D01*
X12645301Y-12034674D02*
X12626253Y-12025150D01*
X12626253Y-12025150D02*
X12597682Y-12025150D01*
X12597682Y-12025150D02*
X12578634Y-12034674D01*
X12578634Y-12034674D02*
X12569110Y-12044198D01*
X12778634Y-12158484D02*
X12759587Y-12148960D01*
X12759587Y-12148960D02*
X12750063Y-12139436D01*
X12750063Y-12139436D02*
X12740539Y-12120388D01*
X12740539Y-12120388D02*
X12740539Y-12063246D01*
X12740539Y-12063246D02*
X12750063Y-12044198D01*
X12750063Y-12044198D02*
X12759587Y-12034674D01*
X12759587Y-12034674D02*
X12778634Y-12025150D01*
X12778634Y-12025150D02*
X12807206Y-12025150D01*
X12807206Y-12025150D02*
X12826253Y-12034674D01*
X12826253Y-12034674D02*
X12835777Y-12044198D01*
X12835777Y-12044198D02*
X12845301Y-12063246D01*
X12845301Y-12063246D02*
X12845301Y-12120388D01*
X12845301Y-12120388D02*
X12835777Y-12139436D01*
X12835777Y-12139436D02*
X12826253Y-12148960D01*
X12826253Y-12148960D02*
X12807206Y-12158484D01*
X12807206Y-12158484D02*
X12778634Y-12158484D01*
X12959587Y-12158484D02*
X12940539Y-12148960D01*
X12940539Y-12148960D02*
X12931015Y-12129912D01*
X12931015Y-12129912D02*
X12931015Y-11958484D01*
X13111968Y-12148960D02*
X13092920Y-12158484D01*
X13092920Y-12158484D02*
X13054825Y-12158484D01*
X13054825Y-12158484D02*
X13035777Y-12148960D01*
X13035777Y-12148960D02*
X13026253Y-12129912D01*
X13026253Y-12129912D02*
X13026253Y-12053722D01*
X13026253Y-12053722D02*
X13035777Y-12034674D01*
X13035777Y-12034674D02*
X13054825Y-12025150D01*
X13054825Y-12025150D02*
X13092920Y-12025150D01*
X13092920Y-12025150D02*
X13111968Y-12034674D01*
X13111968Y-12034674D02*
X13121491Y-12053722D01*
X13121491Y-12053722D02*
X13121491Y-12072769D01*
X13121491Y-12072769D02*
X13026253Y-12091817D01*
X13197682Y-12148960D02*
X13216730Y-12158484D01*
X13216730Y-12158484D02*
X13254825Y-12158484D01*
X13254825Y-12158484D02*
X13273872Y-12148960D01*
X13273872Y-12148960D02*
X13283396Y-12129912D01*
X13283396Y-12129912D02*
X13283396Y-12120388D01*
X13283396Y-12120388D02*
X13273872Y-12101341D01*
X13273872Y-12101341D02*
X13254825Y-12091817D01*
X13254825Y-12091817D02*
X13226253Y-12091817D01*
X13226253Y-12091817D02*
X13207206Y-12082293D01*
X13207206Y-12082293D02*
X13197682Y-12063246D01*
X13197682Y-12063246D02*
X13197682Y-12053722D01*
X13197682Y-12053722D02*
X13207206Y-12034674D01*
X13207206Y-12034674D02*
X13226253Y-12025150D01*
X13226253Y-12025150D02*
X13254825Y-12025150D01*
X13254825Y-12025150D02*
X13273872Y-12034674D01*
X13350063Y-12234674D02*
X13359587Y-12225150D01*
X13359587Y-12225150D02*
X13378634Y-12196579D01*
X13378634Y-12196579D02*
X13388158Y-12177531D01*
X13388158Y-12177531D02*
X13397682Y-12148960D01*
X13397682Y-12148960D02*
X13407206Y-12101341D01*
X13407206Y-12101341D02*
X13407206Y-12063246D01*
X13407206Y-12063246D02*
X13397682Y-12015627D01*
X13397682Y-12015627D02*
X13388158Y-11987055D01*
X13388158Y-11987055D02*
X13378634Y-11968008D01*
X13378634Y-11968008D02*
X13359587Y-11939436D01*
X13359587Y-11939436D02*
X13350063Y-11929912D01*
D15*
X8535000Y-12371000D02*
X8575000Y-12331000D01*
X8535000Y-12291000D01*
X8495000Y-12331000D01*
X8535000Y-12371000D01*
D11*
X8873872Y-12222484D02*
X8892920Y-12222484D01*
X8892920Y-12222484D02*
X8911967Y-12232008D01*
X8911967Y-12232008D02*
X8921491Y-12241531D01*
X8921491Y-12241531D02*
X8931015Y-12260579D01*
X8931015Y-12260579D02*
X8940539Y-12298674D01*
X8940539Y-12298674D02*
X8940539Y-12346293D01*
X8940539Y-12346293D02*
X8931015Y-12384388D01*
X8931015Y-12384388D02*
X8921491Y-12403436D01*
X8921491Y-12403436D02*
X8911967Y-12412960D01*
X8911967Y-12412960D02*
X8892920Y-12422484D01*
X8892920Y-12422484D02*
X8873872Y-12422484D01*
X8873872Y-12422484D02*
X8854824Y-12412960D01*
X8854824Y-12412960D02*
X8845301Y-12403436D01*
X8845301Y-12403436D02*
X8835777Y-12384388D01*
X8835777Y-12384388D02*
X8826253Y-12346293D01*
X8826253Y-12346293D02*
X8826253Y-12298674D01*
X8826253Y-12298674D02*
X8835777Y-12260579D01*
X8835777Y-12260579D02*
X8845301Y-12241531D01*
X8845301Y-12241531D02*
X8854824Y-12232008D01*
X8854824Y-12232008D02*
X8873872Y-12222484D01*
X9026253Y-12403436D02*
X9035777Y-12412960D01*
X9035777Y-12412960D02*
X9026253Y-12422484D01*
X9026253Y-12422484D02*
X9016729Y-12412960D01*
X9016729Y-12412960D02*
X9026253Y-12403436D01*
X9026253Y-12403436D02*
X9026253Y-12422484D01*
X9150063Y-12308198D02*
X9131015Y-12298674D01*
X9131015Y-12298674D02*
X9121491Y-12289150D01*
X9121491Y-12289150D02*
X9111967Y-12270103D01*
X9111967Y-12270103D02*
X9111967Y-12260579D01*
X9111967Y-12260579D02*
X9121491Y-12241531D01*
X9121491Y-12241531D02*
X9131015Y-12232008D01*
X9131015Y-12232008D02*
X9150063Y-12222484D01*
X9150063Y-12222484D02*
X9188158Y-12222484D01*
X9188158Y-12222484D02*
X9207205Y-12232008D01*
X9207205Y-12232008D02*
X9216729Y-12241531D01*
X9216729Y-12241531D02*
X9226253Y-12260579D01*
X9226253Y-12260579D02*
X9226253Y-12270103D01*
X9226253Y-12270103D02*
X9216729Y-12289150D01*
X9216729Y-12289150D02*
X9207205Y-12298674D01*
X9207205Y-12298674D02*
X9188158Y-12308198D01*
X9188158Y-12308198D02*
X9150063Y-12308198D01*
X9150063Y-12308198D02*
X9131015Y-12317722D01*
X9131015Y-12317722D02*
X9121491Y-12327246D01*
X9121491Y-12327246D02*
X9111967Y-12346293D01*
X9111967Y-12346293D02*
X9111967Y-12384388D01*
X9111967Y-12384388D02*
X9121491Y-12403436D01*
X9121491Y-12403436D02*
X9131015Y-12412960D01*
X9131015Y-12412960D02*
X9150063Y-12422484D01*
X9150063Y-12422484D02*
X9188158Y-12422484D01*
X9188158Y-12422484D02*
X9207205Y-12412960D01*
X9207205Y-12412960D02*
X9216729Y-12403436D01*
X9216729Y-12403436D02*
X9226253Y-12384388D01*
X9226253Y-12384388D02*
X9226253Y-12346293D01*
X9226253Y-12346293D02*
X9216729Y-12327246D01*
X9216729Y-12327246D02*
X9207205Y-12317722D01*
X9207205Y-12317722D02*
X9188158Y-12308198D01*
X9350063Y-12222484D02*
X9369110Y-12222484D01*
X9369110Y-12222484D02*
X9388158Y-12232008D01*
X9388158Y-12232008D02*
X9397682Y-12241531D01*
X9397682Y-12241531D02*
X9407205Y-12260579D01*
X9407205Y-12260579D02*
X9416729Y-12298674D01*
X9416729Y-12298674D02*
X9416729Y-12346293D01*
X9416729Y-12346293D02*
X9407205Y-12384388D01*
X9407205Y-12384388D02*
X9397682Y-12403436D01*
X9397682Y-12403436D02*
X9388158Y-12412960D01*
X9388158Y-12412960D02*
X9369110Y-12422484D01*
X9369110Y-12422484D02*
X9350063Y-12422484D01*
X9350063Y-12422484D02*
X9331015Y-12412960D01*
X9331015Y-12412960D02*
X9321491Y-12403436D01*
X9321491Y-12403436D02*
X9311967Y-12384388D01*
X9311967Y-12384388D02*
X9302444Y-12346293D01*
X9302444Y-12346293D02*
X9302444Y-12298674D01*
X9302444Y-12298674D02*
X9311967Y-12260579D01*
X9311967Y-12260579D02*
X9321491Y-12241531D01*
X9321491Y-12241531D02*
X9331015Y-12232008D01*
X9331015Y-12232008D02*
X9350063Y-12222484D01*
X9540539Y-12222484D02*
X9559586Y-12222484D01*
X9559586Y-12222484D02*
X9578634Y-12232008D01*
X9578634Y-12232008D02*
X9588158Y-12241531D01*
X9588158Y-12241531D02*
X9597682Y-12260579D01*
X9597682Y-12260579D02*
X9607205Y-12298674D01*
X9607205Y-12298674D02*
X9607205Y-12346293D01*
X9607205Y-12346293D02*
X9597682Y-12384388D01*
X9597682Y-12384388D02*
X9588158Y-12403436D01*
X9588158Y-12403436D02*
X9578634Y-12412960D01*
X9578634Y-12412960D02*
X9559586Y-12422484D01*
X9559586Y-12422484D02*
X9540539Y-12422484D01*
X9540539Y-12422484D02*
X9521491Y-12412960D01*
X9521491Y-12412960D02*
X9511967Y-12403436D01*
X9511967Y-12403436D02*
X9502444Y-12384388D01*
X9502444Y-12384388D02*
X9492920Y-12346293D01*
X9492920Y-12346293D02*
X9492920Y-12298674D01*
X9492920Y-12298674D02*
X9502444Y-12260579D01*
X9502444Y-12260579D02*
X9511967Y-12241531D01*
X9511967Y-12241531D02*
X9521491Y-12232008D01*
X9521491Y-12232008D02*
X9540539Y-12222484D01*
X9692920Y-12422484D02*
X9692920Y-12289150D01*
X9692920Y-12308198D02*
X9702444Y-12298674D01*
X9702444Y-12298674D02*
X9721491Y-12289150D01*
X9721491Y-12289150D02*
X9750063Y-12289150D01*
X9750063Y-12289150D02*
X9769110Y-12298674D01*
X9769110Y-12298674D02*
X9778634Y-12317722D01*
X9778634Y-12317722D02*
X9778634Y-12422484D01*
X9778634Y-12317722D02*
X9788158Y-12298674D01*
X9788158Y-12298674D02*
X9807205Y-12289150D01*
X9807205Y-12289150D02*
X9835777Y-12289150D01*
X9835777Y-12289150D02*
X9854825Y-12298674D01*
X9854825Y-12298674D02*
X9864348Y-12317722D01*
X9864348Y-12317722D02*
X9864348Y-12422484D01*
X9959586Y-12422484D02*
X9959586Y-12289150D01*
X9959586Y-12308198D02*
X9969110Y-12298674D01*
X9969110Y-12298674D02*
X9988158Y-12289150D01*
X9988158Y-12289150D02*
X10016729Y-12289150D01*
X10016729Y-12289150D02*
X10035777Y-12298674D01*
X10035777Y-12298674D02*
X10045301Y-12317722D01*
X10045301Y-12317722D02*
X10045301Y-12422484D01*
X10045301Y-12317722D02*
X10054825Y-12298674D01*
X10054825Y-12298674D02*
X10073872Y-12289150D01*
X10073872Y-12289150D02*
X10102444Y-12289150D01*
X10102444Y-12289150D02*
X10121491Y-12298674D01*
X10121491Y-12298674D02*
X10131015Y-12317722D01*
X10131015Y-12317722D02*
X10131015Y-12422484D01*
X10521491Y-12212960D02*
X10350063Y-12470103D01*
X10778634Y-12222484D02*
X10797682Y-12222484D01*
X10797682Y-12222484D02*
X10816729Y-12232008D01*
X10816729Y-12232008D02*
X10826253Y-12241531D01*
X10826253Y-12241531D02*
X10835777Y-12260579D01*
X10835777Y-12260579D02*
X10845301Y-12298674D01*
X10845301Y-12298674D02*
X10845301Y-12346293D01*
X10845301Y-12346293D02*
X10835777Y-12384388D01*
X10835777Y-12384388D02*
X10826253Y-12403436D01*
X10826253Y-12403436D02*
X10816729Y-12412960D01*
X10816729Y-12412960D02*
X10797682Y-12422484D01*
X10797682Y-12422484D02*
X10778634Y-12422484D01*
X10778634Y-12422484D02*
X10759587Y-12412960D01*
X10759587Y-12412960D02*
X10750063Y-12403436D01*
X10750063Y-12403436D02*
X10740539Y-12384388D01*
X10740539Y-12384388D02*
X10731015Y-12346293D01*
X10731015Y-12346293D02*
X10731015Y-12298674D01*
X10731015Y-12298674D02*
X10740539Y-12260579D01*
X10740539Y-12260579D02*
X10750063Y-12241531D01*
X10750063Y-12241531D02*
X10759587Y-12232008D01*
X10759587Y-12232008D02*
X10778634Y-12222484D01*
X10931015Y-12403436D02*
X10940539Y-12412960D01*
X10940539Y-12412960D02*
X10931015Y-12422484D01*
X10931015Y-12422484D02*
X10921491Y-12412960D01*
X10921491Y-12412960D02*
X10931015Y-12403436D01*
X10931015Y-12403436D02*
X10931015Y-12422484D01*
X11064348Y-12222484D02*
X11083396Y-12222484D01*
X11083396Y-12222484D02*
X11102444Y-12232008D01*
X11102444Y-12232008D02*
X11111968Y-12241531D01*
X11111968Y-12241531D02*
X11121491Y-12260579D01*
X11121491Y-12260579D02*
X11131015Y-12298674D01*
X11131015Y-12298674D02*
X11131015Y-12346293D01*
X11131015Y-12346293D02*
X11121491Y-12384388D01*
X11121491Y-12384388D02*
X11111968Y-12403436D01*
X11111968Y-12403436D02*
X11102444Y-12412960D01*
X11102444Y-12412960D02*
X11083396Y-12422484D01*
X11083396Y-12422484D02*
X11064348Y-12422484D01*
X11064348Y-12422484D02*
X11045301Y-12412960D01*
X11045301Y-12412960D02*
X11035777Y-12403436D01*
X11035777Y-12403436D02*
X11026253Y-12384388D01*
X11026253Y-12384388D02*
X11016729Y-12346293D01*
X11016729Y-12346293D02*
X11016729Y-12298674D01*
X11016729Y-12298674D02*
X11026253Y-12260579D01*
X11026253Y-12260579D02*
X11035777Y-12241531D01*
X11035777Y-12241531D02*
X11045301Y-12232008D01*
X11045301Y-12232008D02*
X11064348Y-12222484D01*
X11197682Y-12222484D02*
X11321491Y-12222484D01*
X11321491Y-12222484D02*
X11254825Y-12298674D01*
X11254825Y-12298674D02*
X11283396Y-12298674D01*
X11283396Y-12298674D02*
X11302444Y-12308198D01*
X11302444Y-12308198D02*
X11311967Y-12317722D01*
X11311967Y-12317722D02*
X11321491Y-12336769D01*
X11321491Y-12336769D02*
X11321491Y-12384388D01*
X11321491Y-12384388D02*
X11311967Y-12403436D01*
X11311967Y-12403436D02*
X11302444Y-12412960D01*
X11302444Y-12412960D02*
X11283396Y-12422484D01*
X11283396Y-12422484D02*
X11226253Y-12422484D01*
X11226253Y-12422484D02*
X11207206Y-12412960D01*
X11207206Y-12412960D02*
X11197682Y-12403436D01*
X11511967Y-12422484D02*
X11397682Y-12422484D01*
X11454825Y-12422484D02*
X11454825Y-12222484D01*
X11454825Y-12222484D02*
X11435777Y-12251055D01*
X11435777Y-12251055D02*
X11416729Y-12270103D01*
X11416729Y-12270103D02*
X11397682Y-12279627D01*
X11692920Y-12222484D02*
X11597682Y-12222484D01*
X11597682Y-12222484D02*
X11588158Y-12317722D01*
X11588158Y-12317722D02*
X11597682Y-12308198D01*
X11597682Y-12308198D02*
X11616729Y-12298674D01*
X11616729Y-12298674D02*
X11664348Y-12298674D01*
X11664348Y-12298674D02*
X11683396Y-12308198D01*
X11683396Y-12308198D02*
X11692920Y-12317722D01*
X11692920Y-12317722D02*
X11702444Y-12336769D01*
X11702444Y-12336769D02*
X11702444Y-12384388D01*
X11702444Y-12384388D02*
X11692920Y-12403436D01*
X11692920Y-12403436D02*
X11683396Y-12412960D01*
X11683396Y-12412960D02*
X11664348Y-12422484D01*
X11664348Y-12422484D02*
X11616729Y-12422484D01*
X11616729Y-12422484D02*
X11597682Y-12412960D01*
X11597682Y-12412960D02*
X11588158Y-12403436D01*
X11778634Y-12222484D02*
X11778634Y-12260579D01*
X11854825Y-12222484D02*
X11854825Y-12260579D01*
X12150063Y-12498674D02*
X12140539Y-12489150D01*
X12140539Y-12489150D02*
X12121491Y-12460579D01*
X12121491Y-12460579D02*
X12111968Y-12441531D01*
X12111968Y-12441531D02*
X12102444Y-12412960D01*
X12102444Y-12412960D02*
X12092920Y-12365341D01*
X12092920Y-12365341D02*
X12092920Y-12327246D01*
X12092920Y-12327246D02*
X12102444Y-12279627D01*
X12102444Y-12279627D02*
X12111968Y-12251055D01*
X12111968Y-12251055D02*
X12121491Y-12232008D01*
X12121491Y-12232008D02*
X12140539Y-12203436D01*
X12140539Y-12203436D02*
X12150063Y-12193912D01*
X12311968Y-12222484D02*
X12273872Y-12222484D01*
X12273872Y-12222484D02*
X12254825Y-12232008D01*
X12254825Y-12232008D02*
X12245301Y-12241531D01*
X12245301Y-12241531D02*
X12226253Y-12270103D01*
X12226253Y-12270103D02*
X12216729Y-12308198D01*
X12216729Y-12308198D02*
X12216729Y-12384388D01*
X12216729Y-12384388D02*
X12226253Y-12403436D01*
X12226253Y-12403436D02*
X12235777Y-12412960D01*
X12235777Y-12412960D02*
X12254825Y-12422484D01*
X12254825Y-12422484D02*
X12292920Y-12422484D01*
X12292920Y-12422484D02*
X12311968Y-12412960D01*
X12311968Y-12412960D02*
X12321491Y-12403436D01*
X12321491Y-12403436D02*
X12331015Y-12384388D01*
X12331015Y-12384388D02*
X12331015Y-12336769D01*
X12331015Y-12336769D02*
X12321491Y-12317722D01*
X12321491Y-12317722D02*
X12311968Y-12308198D01*
X12311968Y-12308198D02*
X12292920Y-12298674D01*
X12292920Y-12298674D02*
X12254825Y-12298674D01*
X12254825Y-12298674D02*
X12235777Y-12308198D01*
X12235777Y-12308198D02*
X12226253Y-12317722D01*
X12226253Y-12317722D02*
X12216729Y-12336769D01*
X12454825Y-12222484D02*
X12473872Y-12222484D01*
X12473872Y-12222484D02*
X12492920Y-12232008D01*
X12492920Y-12232008D02*
X12502444Y-12241531D01*
X12502444Y-12241531D02*
X12511968Y-12260579D01*
X12511968Y-12260579D02*
X12521491Y-12298674D01*
X12521491Y-12298674D02*
X12521491Y-12346293D01*
X12521491Y-12346293D02*
X12511968Y-12384388D01*
X12511968Y-12384388D02*
X12502444Y-12403436D01*
X12502444Y-12403436D02*
X12492920Y-12412960D01*
X12492920Y-12412960D02*
X12473872Y-12422484D01*
X12473872Y-12422484D02*
X12454825Y-12422484D01*
X12454825Y-12422484D02*
X12435777Y-12412960D01*
X12435777Y-12412960D02*
X12426253Y-12403436D01*
X12426253Y-12403436D02*
X12416729Y-12384388D01*
X12416729Y-12384388D02*
X12407206Y-12346293D01*
X12407206Y-12346293D02*
X12407206Y-12298674D01*
X12407206Y-12298674D02*
X12416729Y-12260579D01*
X12416729Y-12260579D02*
X12426253Y-12241531D01*
X12426253Y-12241531D02*
X12435777Y-12232008D01*
X12435777Y-12232008D02*
X12454825Y-12222484D01*
X12759587Y-12422484D02*
X12759587Y-12222484D01*
X12845301Y-12422484D02*
X12845301Y-12317722D01*
X12845301Y-12317722D02*
X12835777Y-12298674D01*
X12835777Y-12298674D02*
X12816730Y-12289150D01*
X12816730Y-12289150D02*
X12788158Y-12289150D01*
X12788158Y-12289150D02*
X12769110Y-12298674D01*
X12769110Y-12298674D02*
X12759587Y-12308198D01*
X12969110Y-12422484D02*
X12950063Y-12412960D01*
X12950063Y-12412960D02*
X12940539Y-12403436D01*
X12940539Y-12403436D02*
X12931015Y-12384388D01*
X12931015Y-12384388D02*
X12931015Y-12327246D01*
X12931015Y-12327246D02*
X12940539Y-12308198D01*
X12940539Y-12308198D02*
X12950063Y-12298674D01*
X12950063Y-12298674D02*
X12969110Y-12289150D01*
X12969110Y-12289150D02*
X12997682Y-12289150D01*
X12997682Y-12289150D02*
X13016730Y-12298674D01*
X13016730Y-12298674D02*
X13026253Y-12308198D01*
X13026253Y-12308198D02*
X13035777Y-12327246D01*
X13035777Y-12327246D02*
X13035777Y-12384388D01*
X13035777Y-12384388D02*
X13026253Y-12403436D01*
X13026253Y-12403436D02*
X13016730Y-12412960D01*
X13016730Y-12412960D02*
X12997682Y-12422484D01*
X12997682Y-12422484D02*
X12969110Y-12422484D01*
X13150063Y-12422484D02*
X13131015Y-12412960D01*
X13131015Y-12412960D02*
X13121491Y-12393912D01*
X13121491Y-12393912D02*
X13121491Y-12222484D01*
X13302444Y-12412960D02*
X13283396Y-12422484D01*
X13283396Y-12422484D02*
X13245301Y-12422484D01*
X13245301Y-12422484D02*
X13226253Y-12412960D01*
X13226253Y-12412960D02*
X13216730Y-12393912D01*
X13216730Y-12393912D02*
X13216730Y-12317722D01*
X13216730Y-12317722D02*
X13226253Y-12298674D01*
X13226253Y-12298674D02*
X13245301Y-12289150D01*
X13245301Y-12289150D02*
X13283396Y-12289150D01*
X13283396Y-12289150D02*
X13302444Y-12298674D01*
X13302444Y-12298674D02*
X13311968Y-12317722D01*
X13311968Y-12317722D02*
X13311968Y-12336769D01*
X13311968Y-12336769D02*
X13216730Y-12355817D01*
X13388158Y-12412960D02*
X13407206Y-12422484D01*
X13407206Y-12422484D02*
X13445301Y-12422484D01*
X13445301Y-12422484D02*
X13464349Y-12412960D01*
X13464349Y-12412960D02*
X13473872Y-12393912D01*
X13473872Y-12393912D02*
X13473872Y-12384388D01*
X13473872Y-12384388D02*
X13464349Y-12365341D01*
X13464349Y-12365341D02*
X13445301Y-12355817D01*
X13445301Y-12355817D02*
X13416730Y-12355817D01*
X13416730Y-12355817D02*
X13397682Y-12346293D01*
X13397682Y-12346293D02*
X13388158Y-12327246D01*
X13388158Y-12327246D02*
X13388158Y-12317722D01*
X13388158Y-12317722D02*
X13397682Y-12298674D01*
X13397682Y-12298674D02*
X13416730Y-12289150D01*
X13416730Y-12289150D02*
X13445301Y-12289150D01*
X13445301Y-12289150D02*
X13464349Y-12298674D01*
X13540539Y-12498674D02*
X13550063Y-12489150D01*
X13550063Y-12489150D02*
X13569111Y-12460579D01*
X13569111Y-12460579D02*
X13578634Y-12441531D01*
X13578634Y-12441531D02*
X13588158Y-12412960D01*
X13588158Y-12412960D02*
X13597682Y-12365341D01*
X13597682Y-12365341D02*
X13597682Y-12327246D01*
X13597682Y-12327246D02*
X13588158Y-12279627D01*
X13588158Y-12279627D02*
X13578634Y-12251055D01*
X13578634Y-12251055D02*
X13569111Y-12232008D01*
X13569111Y-12232008D02*
X13550063Y-12203436D01*
X13550063Y-12203436D02*
X13540539Y-12193912D01*
D10*
X8475000Y-12545000D02*
X8575000Y-12645000D01*
X8575000Y-12545000D02*
X8475000Y-12645000D01*
X8575000Y-12595000D02*
G75*
G03*
X8575000Y-12595000I-50000J0D01*
G01*
D11*
X8940539Y-12686484D02*
X8826253Y-12686484D01*
X8883396Y-12686484D02*
X8883396Y-12486484D01*
X8883396Y-12486484D02*
X8864348Y-12515055D01*
X8864348Y-12515055D02*
X8845301Y-12534103D01*
X8845301Y-12534103D02*
X8826253Y-12543627D01*
X9026253Y-12667436D02*
X9035777Y-12676960D01*
X9035777Y-12676960D02*
X9026253Y-12686484D01*
X9026253Y-12686484D02*
X9016729Y-12676960D01*
X9016729Y-12676960D02*
X9026253Y-12667436D01*
X9026253Y-12667436D02*
X9026253Y-12686484D01*
X9159586Y-12486484D02*
X9178634Y-12486484D01*
X9178634Y-12486484D02*
X9197682Y-12496008D01*
X9197682Y-12496008D02*
X9207205Y-12505531D01*
X9207205Y-12505531D02*
X9216729Y-12524579D01*
X9216729Y-12524579D02*
X9226253Y-12562674D01*
X9226253Y-12562674D02*
X9226253Y-12610293D01*
X9226253Y-12610293D02*
X9216729Y-12648388D01*
X9216729Y-12648388D02*
X9207205Y-12667436D01*
X9207205Y-12667436D02*
X9197682Y-12676960D01*
X9197682Y-12676960D02*
X9178634Y-12686484D01*
X9178634Y-12686484D02*
X9159586Y-12686484D01*
X9159586Y-12686484D02*
X9140539Y-12676960D01*
X9140539Y-12676960D02*
X9131015Y-12667436D01*
X9131015Y-12667436D02*
X9121491Y-12648388D01*
X9121491Y-12648388D02*
X9111967Y-12610293D01*
X9111967Y-12610293D02*
X9111967Y-12562674D01*
X9111967Y-12562674D02*
X9121491Y-12524579D01*
X9121491Y-12524579D02*
X9131015Y-12505531D01*
X9131015Y-12505531D02*
X9140539Y-12496008D01*
X9140539Y-12496008D02*
X9159586Y-12486484D01*
X9350063Y-12486484D02*
X9369110Y-12486484D01*
X9369110Y-12486484D02*
X9388158Y-12496008D01*
X9388158Y-12496008D02*
X9397682Y-12505531D01*
X9397682Y-12505531D02*
X9407205Y-12524579D01*
X9407205Y-12524579D02*
X9416729Y-12562674D01*
X9416729Y-12562674D02*
X9416729Y-12610293D01*
X9416729Y-12610293D02*
X9407205Y-12648388D01*
X9407205Y-12648388D02*
X9397682Y-12667436D01*
X9397682Y-12667436D02*
X9388158Y-12676960D01*
X9388158Y-12676960D02*
X9369110Y-12686484D01*
X9369110Y-12686484D02*
X9350063Y-12686484D01*
X9350063Y-12686484D02*
X9331015Y-12676960D01*
X9331015Y-12676960D02*
X9321491Y-12667436D01*
X9321491Y-12667436D02*
X9311967Y-12648388D01*
X9311967Y-12648388D02*
X9302444Y-12610293D01*
X9302444Y-12610293D02*
X9302444Y-12562674D01*
X9302444Y-12562674D02*
X9311967Y-12524579D01*
X9311967Y-12524579D02*
X9321491Y-12505531D01*
X9321491Y-12505531D02*
X9331015Y-12496008D01*
X9331015Y-12496008D02*
X9350063Y-12486484D01*
X9540539Y-12486484D02*
X9559586Y-12486484D01*
X9559586Y-12486484D02*
X9578634Y-12496008D01*
X9578634Y-12496008D02*
X9588158Y-12505531D01*
X9588158Y-12505531D02*
X9597682Y-12524579D01*
X9597682Y-12524579D02*
X9607205Y-12562674D01*
X9607205Y-12562674D02*
X9607205Y-12610293D01*
X9607205Y-12610293D02*
X9597682Y-12648388D01*
X9597682Y-12648388D02*
X9588158Y-12667436D01*
X9588158Y-12667436D02*
X9578634Y-12676960D01*
X9578634Y-12676960D02*
X9559586Y-12686484D01*
X9559586Y-12686484D02*
X9540539Y-12686484D01*
X9540539Y-12686484D02*
X9521491Y-12676960D01*
X9521491Y-12676960D02*
X9511967Y-12667436D01*
X9511967Y-12667436D02*
X9502444Y-12648388D01*
X9502444Y-12648388D02*
X9492920Y-12610293D01*
X9492920Y-12610293D02*
X9492920Y-12562674D01*
X9492920Y-12562674D02*
X9502444Y-12524579D01*
X9502444Y-12524579D02*
X9511967Y-12505531D01*
X9511967Y-12505531D02*
X9521491Y-12496008D01*
X9521491Y-12496008D02*
X9540539Y-12486484D01*
X9692920Y-12686484D02*
X9692920Y-12553150D01*
X9692920Y-12572198D02*
X9702444Y-12562674D01*
X9702444Y-12562674D02*
X9721491Y-12553150D01*
X9721491Y-12553150D02*
X9750063Y-12553150D01*
X9750063Y-12553150D02*
X9769110Y-12562674D01*
X9769110Y-12562674D02*
X9778634Y-12581722D01*
X9778634Y-12581722D02*
X9778634Y-12686484D01*
X9778634Y-12581722D02*
X9788158Y-12562674D01*
X9788158Y-12562674D02*
X9807205Y-12553150D01*
X9807205Y-12553150D02*
X9835777Y-12553150D01*
X9835777Y-12553150D02*
X9854825Y-12562674D01*
X9854825Y-12562674D02*
X9864348Y-12581722D01*
X9864348Y-12581722D02*
X9864348Y-12686484D01*
X9959586Y-12686484D02*
X9959586Y-12553150D01*
X9959586Y-12572198D02*
X9969110Y-12562674D01*
X9969110Y-12562674D02*
X9988158Y-12553150D01*
X9988158Y-12553150D02*
X10016729Y-12553150D01*
X10016729Y-12553150D02*
X10035777Y-12562674D01*
X10035777Y-12562674D02*
X10045301Y-12581722D01*
X10045301Y-12581722D02*
X10045301Y-12686484D01*
X10045301Y-12581722D02*
X10054825Y-12562674D01*
X10054825Y-12562674D02*
X10073872Y-12553150D01*
X10073872Y-12553150D02*
X10102444Y-12553150D01*
X10102444Y-12553150D02*
X10121491Y-12562674D01*
X10121491Y-12562674D02*
X10131015Y-12581722D01*
X10131015Y-12581722D02*
X10131015Y-12686484D01*
X10521491Y-12476960D02*
X10350063Y-12734103D01*
X10778634Y-12486484D02*
X10797682Y-12486484D01*
X10797682Y-12486484D02*
X10816729Y-12496008D01*
X10816729Y-12496008D02*
X10826253Y-12505531D01*
X10826253Y-12505531D02*
X10835777Y-12524579D01*
X10835777Y-12524579D02*
X10845301Y-12562674D01*
X10845301Y-12562674D02*
X10845301Y-12610293D01*
X10845301Y-12610293D02*
X10835777Y-12648388D01*
X10835777Y-12648388D02*
X10826253Y-12667436D01*
X10826253Y-12667436D02*
X10816729Y-12676960D01*
X10816729Y-12676960D02*
X10797682Y-12686484D01*
X10797682Y-12686484D02*
X10778634Y-12686484D01*
X10778634Y-12686484D02*
X10759587Y-12676960D01*
X10759587Y-12676960D02*
X10750063Y-12667436D01*
X10750063Y-12667436D02*
X10740539Y-12648388D01*
X10740539Y-12648388D02*
X10731015Y-12610293D01*
X10731015Y-12610293D02*
X10731015Y-12562674D01*
X10731015Y-12562674D02*
X10740539Y-12524579D01*
X10740539Y-12524579D02*
X10750063Y-12505531D01*
X10750063Y-12505531D02*
X10759587Y-12496008D01*
X10759587Y-12496008D02*
X10778634Y-12486484D01*
X10931015Y-12667436D02*
X10940539Y-12676960D01*
X10940539Y-12676960D02*
X10931015Y-12686484D01*
X10931015Y-12686484D02*
X10921491Y-12676960D01*
X10921491Y-12676960D02*
X10931015Y-12667436D01*
X10931015Y-12667436D02*
X10931015Y-12686484D01*
X11064348Y-12486484D02*
X11083396Y-12486484D01*
X11083396Y-12486484D02*
X11102444Y-12496008D01*
X11102444Y-12496008D02*
X11111968Y-12505531D01*
X11111968Y-12505531D02*
X11121491Y-12524579D01*
X11121491Y-12524579D02*
X11131015Y-12562674D01*
X11131015Y-12562674D02*
X11131015Y-12610293D01*
X11131015Y-12610293D02*
X11121491Y-12648388D01*
X11121491Y-12648388D02*
X11111968Y-12667436D01*
X11111968Y-12667436D02*
X11102444Y-12676960D01*
X11102444Y-12676960D02*
X11083396Y-12686484D01*
X11083396Y-12686484D02*
X11064348Y-12686484D01*
X11064348Y-12686484D02*
X11045301Y-12676960D01*
X11045301Y-12676960D02*
X11035777Y-12667436D01*
X11035777Y-12667436D02*
X11026253Y-12648388D01*
X11026253Y-12648388D02*
X11016729Y-12610293D01*
X11016729Y-12610293D02*
X11016729Y-12562674D01*
X11016729Y-12562674D02*
X11026253Y-12524579D01*
X11026253Y-12524579D02*
X11035777Y-12505531D01*
X11035777Y-12505531D02*
X11045301Y-12496008D01*
X11045301Y-12496008D02*
X11064348Y-12486484D01*
X11197682Y-12486484D02*
X11321491Y-12486484D01*
X11321491Y-12486484D02*
X11254825Y-12562674D01*
X11254825Y-12562674D02*
X11283396Y-12562674D01*
X11283396Y-12562674D02*
X11302444Y-12572198D01*
X11302444Y-12572198D02*
X11311967Y-12581722D01*
X11311967Y-12581722D02*
X11321491Y-12600769D01*
X11321491Y-12600769D02*
X11321491Y-12648388D01*
X11321491Y-12648388D02*
X11311967Y-12667436D01*
X11311967Y-12667436D02*
X11302444Y-12676960D01*
X11302444Y-12676960D02*
X11283396Y-12686484D01*
X11283396Y-12686484D02*
X11226253Y-12686484D01*
X11226253Y-12686484D02*
X11207206Y-12676960D01*
X11207206Y-12676960D02*
X11197682Y-12667436D01*
X11416729Y-12686484D02*
X11454825Y-12686484D01*
X11454825Y-12686484D02*
X11473872Y-12676960D01*
X11473872Y-12676960D02*
X11483396Y-12667436D01*
X11483396Y-12667436D02*
X11502444Y-12638865D01*
X11502444Y-12638865D02*
X11511967Y-12600769D01*
X11511967Y-12600769D02*
X11511967Y-12524579D01*
X11511967Y-12524579D02*
X11502444Y-12505531D01*
X11502444Y-12505531D02*
X11492920Y-12496008D01*
X11492920Y-12496008D02*
X11473872Y-12486484D01*
X11473872Y-12486484D02*
X11435777Y-12486484D01*
X11435777Y-12486484D02*
X11416729Y-12496008D01*
X11416729Y-12496008D02*
X11407206Y-12505531D01*
X11407206Y-12505531D02*
X11397682Y-12524579D01*
X11397682Y-12524579D02*
X11397682Y-12572198D01*
X11397682Y-12572198D02*
X11407206Y-12591246D01*
X11407206Y-12591246D02*
X11416729Y-12600769D01*
X11416729Y-12600769D02*
X11435777Y-12610293D01*
X11435777Y-12610293D02*
X11473872Y-12610293D01*
X11473872Y-12610293D02*
X11492920Y-12600769D01*
X11492920Y-12600769D02*
X11502444Y-12591246D01*
X11502444Y-12591246D02*
X11511967Y-12572198D01*
X11683396Y-12553150D02*
X11683396Y-12686484D01*
X11635777Y-12476960D02*
X11588158Y-12619817D01*
X11588158Y-12619817D02*
X11711967Y-12619817D01*
X11778634Y-12486484D02*
X11778634Y-12524579D01*
X11854825Y-12486484D02*
X11854825Y-12524579D01*
X12150063Y-12762674D02*
X12140539Y-12753150D01*
X12140539Y-12753150D02*
X12121491Y-12724579D01*
X12121491Y-12724579D02*
X12111968Y-12705531D01*
X12111968Y-12705531D02*
X12102444Y-12676960D01*
X12102444Y-12676960D02*
X12092920Y-12629341D01*
X12092920Y-12629341D02*
X12092920Y-12591246D01*
X12092920Y-12591246D02*
X12102444Y-12543627D01*
X12102444Y-12543627D02*
X12111968Y-12515055D01*
X12111968Y-12515055D02*
X12121491Y-12496008D01*
X12121491Y-12496008D02*
X12140539Y-12467436D01*
X12140539Y-12467436D02*
X12150063Y-12457912D01*
X12216729Y-12505531D02*
X12226253Y-12496008D01*
X12226253Y-12496008D02*
X12245301Y-12486484D01*
X12245301Y-12486484D02*
X12292920Y-12486484D01*
X12292920Y-12486484D02*
X12311968Y-12496008D01*
X12311968Y-12496008D02*
X12321491Y-12505531D01*
X12321491Y-12505531D02*
X12331015Y-12524579D01*
X12331015Y-12524579D02*
X12331015Y-12543627D01*
X12331015Y-12543627D02*
X12321491Y-12572198D01*
X12321491Y-12572198D02*
X12207206Y-12686484D01*
X12207206Y-12686484D02*
X12331015Y-12686484D01*
X12397682Y-12486484D02*
X12531015Y-12486484D01*
X12531015Y-12486484D02*
X12445301Y-12686484D01*
X12759587Y-12686484D02*
X12759587Y-12486484D01*
X12845301Y-12686484D02*
X12845301Y-12581722D01*
X12845301Y-12581722D02*
X12835777Y-12562674D01*
X12835777Y-12562674D02*
X12816730Y-12553150D01*
X12816730Y-12553150D02*
X12788158Y-12553150D01*
X12788158Y-12553150D02*
X12769110Y-12562674D01*
X12769110Y-12562674D02*
X12759587Y-12572198D01*
X12969110Y-12686484D02*
X12950063Y-12676960D01*
X12950063Y-12676960D02*
X12940539Y-12667436D01*
X12940539Y-12667436D02*
X12931015Y-12648388D01*
X12931015Y-12648388D02*
X12931015Y-12591246D01*
X12931015Y-12591246D02*
X12940539Y-12572198D01*
X12940539Y-12572198D02*
X12950063Y-12562674D01*
X12950063Y-12562674D02*
X12969110Y-12553150D01*
X12969110Y-12553150D02*
X12997682Y-12553150D01*
X12997682Y-12553150D02*
X13016730Y-12562674D01*
X13016730Y-12562674D02*
X13026253Y-12572198D01*
X13026253Y-12572198D02*
X13035777Y-12591246D01*
X13035777Y-12591246D02*
X13035777Y-12648388D01*
X13035777Y-12648388D02*
X13026253Y-12667436D01*
X13026253Y-12667436D02*
X13016730Y-12676960D01*
X13016730Y-12676960D02*
X12997682Y-12686484D01*
X12997682Y-12686484D02*
X12969110Y-12686484D01*
X13150063Y-12686484D02*
X13131015Y-12676960D01*
X13131015Y-12676960D02*
X13121491Y-12657912D01*
X13121491Y-12657912D02*
X13121491Y-12486484D01*
X13302444Y-12676960D02*
X13283396Y-12686484D01*
X13283396Y-12686484D02*
X13245301Y-12686484D01*
X13245301Y-12686484D02*
X13226253Y-12676960D01*
X13226253Y-12676960D02*
X13216730Y-12657912D01*
X13216730Y-12657912D02*
X13216730Y-12581722D01*
X13216730Y-12581722D02*
X13226253Y-12562674D01*
X13226253Y-12562674D02*
X13245301Y-12553150D01*
X13245301Y-12553150D02*
X13283396Y-12553150D01*
X13283396Y-12553150D02*
X13302444Y-12562674D01*
X13302444Y-12562674D02*
X13311968Y-12581722D01*
X13311968Y-12581722D02*
X13311968Y-12600769D01*
X13311968Y-12600769D02*
X13216730Y-12619817D01*
X13388158Y-12676960D02*
X13407206Y-12686484D01*
X13407206Y-12686484D02*
X13445301Y-12686484D01*
X13445301Y-12686484D02*
X13464349Y-12676960D01*
X13464349Y-12676960D02*
X13473872Y-12657912D01*
X13473872Y-12657912D02*
X13473872Y-12648388D01*
X13473872Y-12648388D02*
X13464349Y-12629341D01*
X13464349Y-12629341D02*
X13445301Y-12619817D01*
X13445301Y-12619817D02*
X13416730Y-12619817D01*
X13416730Y-12619817D02*
X13397682Y-12610293D01*
X13397682Y-12610293D02*
X13388158Y-12591246D01*
X13388158Y-12591246D02*
X13388158Y-12581722D01*
X13388158Y-12581722D02*
X13397682Y-12562674D01*
X13397682Y-12562674D02*
X13416730Y-12553150D01*
X13416730Y-12553150D02*
X13445301Y-12553150D01*
X13445301Y-12553150D02*
X13464349Y-12562674D01*
X13540539Y-12762674D02*
X13550063Y-12753150D01*
X13550063Y-12753150D02*
X13569111Y-12724579D01*
X13569111Y-12724579D02*
X13578634Y-12705531D01*
X13578634Y-12705531D02*
X13588158Y-12676960D01*
X13588158Y-12676960D02*
X13597682Y-12629341D01*
X13597682Y-12629341D02*
X13597682Y-12591246D01*
X13597682Y-12591246D02*
X13588158Y-12543627D01*
X13588158Y-12543627D02*
X13578634Y-12515055D01*
X13578634Y-12515055D02*
X13569111Y-12496008D01*
X13569111Y-12496008D02*
X13550063Y-12467436D01*
X13550063Y-12467436D02*
X13540539Y-12457912D01*
M02*
