M48
; DRILL file {KiCad 7.0.6} date Mon Nov 13 16:35:59 2023
; FORMAT={-:-/ absolute / inch / decimal}
; #@! TF.CreationDate,2023-11-13T16:35:59+01:00
; #@! TF.GenerationSoftware,Kicad,Pcbnew,7.0.6
; #@! TF.FileFunction,Plated,1,2,PTH
FMAT,2
INCH
; #@! TA.AperFunction,Plated,PTH,ViaDrill
T1C0.0157
; #@! TA.AperFunction,Plated,PTH,ComponentDrill
T2C0.0157
; #@! TA.AperFunction,Plated,PTH,ComponentDrill
T3C0.0236
; #@! TA.AperFunction,Plated,PTH,ComponentDrill
T4C0.0276
; #@! TA.AperFunction,Plated,PTH,ComponentDrill
T5C0.0315
; #@! TA.AperFunction,Plated,PTH,ComponentDrill
T6C0.0394
%
G90
G05
T1
X5.0837Y-2.8496
X5.3449Y-2.6523
T3
X5.5807Y-3.3839
X5.5807Y-3.4626
T4
X5.0083Y-4.0689
X5.0327Y-3.7799
X5.1327Y-3.6799
X5.1327Y-3.8799
X5.2083Y-4.0689
X5.4276Y-3.7835
X5.5024Y-3.7835
T5
X4.5874Y-3.6811
X4.5874Y-3.7811
X4.5874Y-3.8811
X4.5874Y-3.9811
X4.6051Y-2.2146
X4.6051Y-2.3146
X4.6051Y-2.4146
X4.6051Y-2.5146
X4.6051Y-2.6146
X4.6051Y-2.7146
X4.6051Y-2.8146
X4.6051Y-2.9146
X4.6051Y-3.0146
X4.6051Y-3.1146
X4.6051Y-3.2146
X4.6051Y-3.3146
X4.6051Y-3.4146
X4.6051Y-3.5146
X4.8874Y-3.6811
X4.8874Y-3.7811
X4.8874Y-3.8811
X4.8874Y-3.9811
X5.2051Y-2.2146
X5.2051Y-2.3146
X5.2051Y-2.4146
X5.2051Y-2.5146
X5.2051Y-2.6146
X5.2051Y-2.7146
X5.2051Y-2.8146
X5.2051Y-2.9146
X5.2051Y-3.0146
X5.2051Y-3.1146
X5.2051Y-3.2146
X5.2051Y-3.3146
X5.2051Y-3.4146
X5.2051Y-3.5146
X5.4626Y-2.8543
X5.4626Y-2.9783
X5.4733Y-2.4315
X5.4733Y-2.672
X5.561Y-2.8543
X5.561Y-2.9783
X5.5717Y-2.4315
X5.5717Y-2.672
X6.0433Y-3.2878
X6.0433Y-3.3878
X6.0433Y-3.4878
X6.0433Y-3.5878
X6.0433Y-3.6878
X6.0433Y-3.7878
X6.0433Y-3.8878
X6.0433Y-3.9878
X6.4433Y-3.2878
X6.4433Y-3.3878
X6.4433Y-3.4878
X6.4433Y-3.5878
X6.4433Y-3.6878
X6.4433Y-3.7878
X6.4433Y-3.8878
X6.4433Y-3.9878
T6
X3.539Y-2.4846
X3.539Y-2.5846
X3.539Y-2.6846
X3.539Y-2.7846
X3.539Y-2.8846
X3.539Y-2.9846
X3.539Y-3.0846
X3.539Y-3.1846
X4.439Y-2.4846
X4.439Y-2.5846
X4.439Y-2.6846
X4.439Y-2.7846
X4.439Y-2.8846
X4.439Y-2.9846
X4.439Y-3.0846
X4.439Y-3.1846
X5.6102Y-4.0276
X5.7102Y-4.0276
X5.8102Y-4.0276
X6.1289Y-2.7441
X6.1289Y-2.8441
X6.1289Y-2.9441
X6.1289Y-3.0441
X6.1427Y-2.1752
X6.1427Y-2.2752
X6.1427Y-2.3752
X6.1427Y-2.4752
T2
G00X3.5118Y-3.752
M15
G01X3.5118Y-3.7913
M16
G05
G00X3.689Y-3.9685
M15
G01X3.7283Y-3.9685
M16
G05
G00X3.9055Y-3.7913
M15
G01X3.9055Y-3.752
M16
G05
T0
M30
