%TF.GenerationSoftware,KiCad,Pcbnew,7.0.6*%
%TF.CreationDate,2024-01-05T10:51:49+01:00*%
%TF.ProjectId,c64sid,63363473-6964-42e6-9b69-6361645f7063,rev?*%
%TF.SameCoordinates,Original*%
%TF.FileFunction,Copper,L2,Bot*%
%TF.FilePolarity,Positive*%
%FSLAX46Y46*%
G04 Gerber Fmt 4.6, Leading zero omitted, Abs format (unit mm)*
G04 Created by KiCad (PCBNEW 7.0.6) date 2024-01-05 10:51:49*
%MOMM*%
%LPD*%
G01*
G04 APERTURE LIST*
%TA.AperFunction,ComponentPad*%
%ADD10R,1.600000X1.600000*%
%TD*%
%TA.AperFunction,ComponentPad*%
%ADD11O,1.600000X1.600000*%
%TD*%
%TA.AperFunction,ComponentPad*%
%ADD12C,1.600000*%
%TD*%
%TA.AperFunction,ComponentPad*%
%ADD13R,1.700000X1.700000*%
%TD*%
%TA.AperFunction,ComponentPad*%
%ADD14O,1.700000X1.700000*%
%TD*%
%TA.AperFunction,ComponentPad*%
%ADD15C,1.400000*%
%TD*%
%TA.AperFunction,ComponentPad*%
%ADD16O,1.400000X1.400000*%
%TD*%
%TA.AperFunction,ComponentPad*%
%ADD17O,1.200000X2.200000*%
%TD*%
%TA.AperFunction,ComponentPad*%
%ADD18O,2.200000X1.200000*%
%TD*%
%TA.AperFunction,ComponentPad*%
%ADD19R,1.200000X1.200000*%
%TD*%
%TA.AperFunction,ComponentPad*%
%ADD20C,1.200000*%
%TD*%
%TA.AperFunction,ComponentPad*%
%ADD21C,1.260000*%
%TD*%
%TA.AperFunction,ComponentPad*%
%ADD22R,2.000000X2.000000*%
%TD*%
%TA.AperFunction,ComponentPad*%
%ADD23O,2.000000X1.600000*%
%TD*%
%TA.AperFunction,ViaPad*%
%ADD24C,0.800000*%
%TD*%
%TA.AperFunction,Conductor*%
%ADD25C,0.250000*%
%TD*%
G04 APERTURE END LIST*
D10*
%TO.P,U3,1,CAP1A*%
%TO.N,Net-(U3-CAP1A)*%
X116970000Y-56250000D03*
D11*
%TO.P,U3,2,CAP2A*%
%TO.N,Net-(U3-CAP2A)*%
X116970000Y-58790000D03*
%TO.P,U3,3,CAP1B*%
%TO.N,Net-(U3-CAP1B)*%
X116970000Y-61330000D03*
%TO.P,U3,4,CAP2B*%
%TO.N,Net-(U3-CAP2B)*%
X116970000Y-63870000D03*
%TO.P,U3,5,~{RES}*%
%TO.N,/~{res}*%
X116970000Y-66410000D03*
%TO.P,U3,6,S2*%
%TO.N,/clk*%
X116970000Y-68950000D03*
%TO.P,U3,7,R~{W}*%
%TO.N,/r~{w}*%
X116970000Y-71490000D03*
%TO.P,U3,8,~{CS}*%
%TO.N,/~{cs}*%
X116970000Y-74030000D03*
%TO.P,U3,9,A0*%
%TO.N,/A_{0}*%
X116970000Y-76570000D03*
%TO.P,U3,10,A1*%
%TO.N,/A_{1}*%
X116970000Y-79110000D03*
%TO.P,U3,11,A2*%
%TO.N,/A_{2}*%
X116970000Y-81650000D03*
%TO.P,U3,12,A3*%
%TO.N,/A_{3}*%
X116970000Y-84190000D03*
%TO.P,U3,13,A4*%
%TO.N,/A_{4}*%
X116970000Y-86730000D03*
%TO.P,U3,14,GND*%
%TO.N,unconnected-(U3-GND-Pad14)*%
X116970000Y-89270000D03*
%TO.P,U3,15,D0*%
%TO.N,/D0*%
X132210000Y-89270000D03*
%TO.P,U3,16,D1*%
%TO.N,/D1*%
X132210000Y-86730000D03*
%TO.P,U3,17,D2*%
%TO.N,/D2*%
X132210000Y-84190000D03*
%TO.P,U3,18,D3*%
%TO.N,/D3*%
X132210000Y-81650000D03*
%TO.P,U3,19,D4*%
%TO.N,/D4*%
X132210000Y-79110000D03*
%TO.P,U3,20,D5*%
%TO.N,/D5*%
X132210000Y-76570000D03*
%TO.P,U3,21,D6*%
%TO.N,/D6*%
X132210000Y-74030000D03*
%TO.P,U3,22,D7*%
%TO.N,/D7*%
X132210000Y-71490000D03*
%TO.P,U3,23,POTY*%
%TO.N,unconnected-(U3-POTY-Pad23)*%
X132210000Y-68950000D03*
%TO.P,U3,24,POTX*%
%TO.N,unconnected-(U3-POTX-Pad24)*%
X132210000Y-66410000D03*
%TO.P,U3,25,Vcc*%
%TO.N,VCC*%
X132210000Y-63870000D03*
%TO.P,U3,26,EXT*%
%TO.N,unconnected-(U3-EXT-Pad26)*%
X132210000Y-61330000D03*
%TO.P,U3,27,OUT*%
%TO.N,Net-(U3-OUT)*%
X132210000Y-58790000D03*
%TO.P,U3,28,Vdd*%
%TO.N,+12V*%
X132210000Y-56250000D03*
%TD*%
D12*
%TO.P,C6,1*%
%TO.N,Net-(U3-OUT)*%
X139022300Y-67870000D03*
%TO.P,C6,2*%
%TO.N,GND*%
X141522300Y-67870000D03*
%TD*%
D13*
%TO.P,J1,1,Pin_1*%
%TO.N,GND*%
X142500000Y-102300000D03*
D14*
%TO.P,J1,2,Pin_2*%
%TO.N,Audio*%
X145040000Y-102300000D03*
%TO.P,J1,3,Pin_3*%
X147580000Y-102300000D03*
%TD*%
D15*
%TO.P,R17,1*%
%TO.N,Net-(C5-Pad1)*%
X137860000Y-96100000D03*
D16*
%TO.P,R17,2*%
%TO.N,GND*%
X139760000Y-96100000D03*
%TD*%
D15*
%TO.P,R18,1*%
%TO.N,Net-(U3-OUT)*%
X127210000Y-103350000D03*
D16*
%TO.P,R18,2*%
%TO.N,Net-(C5-Pad1)*%
X132290000Y-103350000D03*
%TD*%
D12*
%TO.P,C1,1*%
%TO.N,Net-(U3-CAP2A)*%
X138750000Y-72500000D03*
%TO.P,C1,2*%
%TO.N,Net-(U3-CAP1A)*%
X141250000Y-72500000D03*
%TD*%
D10*
%TO.P,U5,1,GAIN*%
%TO.N,unconnected-(U5-GAIN-Pad1)*%
X116520000Y-93500000D03*
D11*
%TO.P,U5,2,-*%
%TO.N,GND*%
X116520000Y-96040000D03*
%TO.P,U5,3,+*%
%TO.N,Net-(U5-+)*%
X116520000Y-98580000D03*
%TO.P,U5,4,GND*%
%TO.N,GND*%
X116520000Y-101120000D03*
%TO.P,U5,5*%
%TO.N,Net-(C3-Pad1)*%
X124140000Y-101120000D03*
%TO.P,U5,6,V+*%
%TO.N,VCC*%
X124140000Y-98580000D03*
%TO.P,U5,7,BYPASS*%
%TO.N,unconnected-(U5-BYPASS-Pad7)*%
X124140000Y-96040000D03*
%TO.P,U5,8,GAIN*%
%TO.N,unconnected-(U5-GAIN-Pad8)*%
X124140000Y-93500000D03*
%TD*%
D13*
%TO.P,J3,1,Pin_1*%
%TO.N,GND*%
X156025000Y-55250000D03*
D14*
%TO.P,J3,2,Pin_2*%
%TO.N,VCC*%
X156025000Y-57790000D03*
%TO.P,J3,3,Pin_3*%
%TO.N,/SCL*%
X156025000Y-60330000D03*
%TO.P,J3,4,Pin_4*%
%TO.N,/SDA*%
X156025000Y-62870000D03*
%TD*%
D10*
%TO.P,U1,1,A0*%
%TO.N,unconnected-(U1-A0-Pad1)*%
X153500000Y-83510000D03*
D11*
%TO.P,U1,2,A1*%
%TO.N,GND*%
X153500000Y-86050000D03*
%TO.P,U1,3,A2*%
X153500000Y-88590000D03*
%TO.P,U1,4,P0*%
%TO.N,/D0*%
X153500000Y-91130000D03*
%TO.P,U1,5,P1*%
%TO.N,/D1*%
X153500000Y-93670000D03*
%TO.P,U1,6,P2*%
%TO.N,/D2*%
X153500000Y-96210000D03*
%TO.P,U1,7,P3*%
%TO.N,/D3*%
X153500000Y-98750000D03*
%TO.P,U1,8,VSS*%
%TO.N,GND*%
X153500000Y-101290000D03*
%TO.P,U1,9,P4*%
%TO.N,/D4*%
X163660000Y-101290000D03*
%TO.P,U1,10,P5*%
%TO.N,/D5*%
X163660000Y-98750000D03*
%TO.P,U1,11,P6*%
%TO.N,/D6*%
X163660000Y-96210000D03*
%TO.P,U1,12,P7*%
%TO.N,/D7*%
X163660000Y-93670000D03*
%TO.P,U1,13,~{INT}*%
%TO.N,unconnected-(U1-~{INT}-Pad13)*%
X163660000Y-91130000D03*
%TO.P,U1,14,SCL*%
%TO.N,/SCL*%
X163660000Y-88590000D03*
%TO.P,U1,15,SDA*%
%TO.N,/SDA*%
X163660000Y-86050000D03*
%TO.P,U1,16,VDD*%
%TO.N,VCC*%
X163660000Y-83510000D03*
%TD*%
D17*
%TO.P,P1,R*%
%TO.N,N/C*%
X89200000Y-95800000D03*
D18*
%TO.P,P1,S*%
X94200000Y-100800000D03*
D17*
%TO.P,P1,T*%
X99200000Y-95800000D03*
%TD*%
D19*
%TO.P,C3,1*%
%TO.N,Net-(C3-Pad1)*%
X141750000Y-87950000D03*
D20*
%TO.P,C3,2*%
%TO.N,Net-(P1-R)*%
X141750000Y-85950000D03*
%TD*%
D12*
%TO.P,C2,1*%
%TO.N,Net-(U3-CAP1B)*%
X138750000Y-75650000D03*
%TO.P,C2,2*%
%TO.N,Net-(U3-CAP2B)*%
X141250000Y-75650000D03*
%TD*%
D21*
%TO.P,RV1,1,1*%
%TO.N,Audio*%
X130370000Y-98550000D03*
%TO.P,RV1,2,2*%
%TO.N,Net-(U5-+)*%
X127830000Y-96010000D03*
%TO.P,RV1,3,3*%
%TO.N,GND*%
X130370000Y-93470000D03*
%TD*%
D13*
%TO.P,J2,1,Pin_1*%
%TO.N,/In*%
X155675000Y-69700000D03*
D14*
%TO.P,J2,2,Pin_2*%
%TO.N,/D3*%
X155675000Y-72240000D03*
%TO.P,J2,3,Pin_3*%
%TO.N,GND*%
X155675000Y-74780000D03*
%TO.P,J2,4,Pin_4*%
%TO.N,VCC*%
X155675000Y-77320000D03*
%TD*%
D22*
%TO.P,U2,1,~{RST}*%
%TO.N,/RST*%
X89890000Y-63110000D03*
D23*
%TO.P,U2,2,A0*%
%TO.N,/In*%
X89890000Y-65650000D03*
%TO.P,U2,3,D0*%
%TO.N,/RST*%
X89890000Y-68190000D03*
%TO.P,U2,4,SCK/D5*%
%TO.N,/A_{1}*%
X89890000Y-70730000D03*
%TO.P,U2,5,MISO/D6*%
%TO.N,/A_{2}*%
X89890000Y-73270000D03*
%TO.P,U2,6,MOSI/D7*%
%TO.N,/A_{3}*%
X89890000Y-75810000D03*
%TO.P,U2,7,CS/D8*%
%TO.N,/A_{4}*%
X89890000Y-78350000D03*
%TO.P,U2,8,3V3*%
%TO.N,unconnected-(U2-3V3-Pad8)*%
X89890000Y-80890000D03*
%TO.P,U2,9,5V*%
%TO.N,VCC*%
X112750000Y-80890000D03*
%TO.P,U2,10,GND*%
%TO.N,GND*%
X112750000Y-78350000D03*
%TO.P,U2,11,D4*%
%TO.N,/A_{0}*%
X112750000Y-75810000D03*
%TO.P,U2,12,D3*%
%TO.N,/D3*%
X112750000Y-73270000D03*
%TO.P,U2,13,SDA/D2*%
%TO.N,/SDA*%
X112750000Y-70730000D03*
%TO.P,U2,14,SCL/D1*%
%TO.N,/SCL*%
X112750000Y-68190000D03*
%TO.P,U2,15,RX*%
%TO.N,unconnected-(U2-RX-Pad15)*%
X112750000Y-65650000D03*
%TO.P,U2,16,TX*%
%TO.N,unconnected-(U2-TX-Pad16)*%
X112750000Y-63110000D03*
%TD*%
D12*
%TO.P,C5,1*%
%TO.N,Net-(C5-Pad1)*%
X139022300Y-61760000D03*
%TO.P,C5,2*%
%TO.N,Audio*%
X141522300Y-61760000D03*
%TD*%
D24*
%TO.N,Net-(U3-CAP2A)*%
X129125900Y-72380600D03*
%TO.N,Net-(U3-CAP1B)*%
X135759900Y-67367500D03*
%TD*%
D25*
%TO.N,Net-(U3-OUT)*%
X142705100Y-63127000D02*
X139022300Y-66809800D01*
X132210000Y-58790000D02*
X132210000Y-59916900D01*
X139022300Y-66809800D02*
X139022300Y-67870000D01*
X140158100Y-58790000D02*
X142705100Y-61337000D01*
X126861400Y-103001400D02*
X126861400Y-77997200D01*
X132210000Y-58790000D02*
X133336900Y-58790000D01*
X126861400Y-77997200D02*
X129931200Y-74927400D01*
X131976500Y-59916900D02*
X132210000Y-59916900D01*
X127210000Y-103350000D02*
X126861400Y-103001400D01*
X142705100Y-61337000D02*
X142705100Y-63127000D01*
X129931200Y-74927400D02*
X129931200Y-61962200D01*
X129931200Y-61962200D02*
X131976500Y-59916900D01*
X133336900Y-58790000D02*
X140158100Y-58790000D01*
%TO.N,Net-(C5-Pad1)*%
X128894800Y-77847400D02*
X128894800Y-98927900D01*
X130384600Y-76357600D02*
X128894800Y-77847400D01*
X133102300Y-67680000D02*
X131823900Y-67680000D01*
X137860000Y-96753100D02*
X137860000Y-96100000D01*
X130384600Y-69119300D02*
X130384600Y-76357600D01*
X131823900Y-67680000D02*
X130384600Y-69119300D01*
X128894800Y-98927900D02*
X132290000Y-102323100D01*
X139022300Y-61760000D02*
X133102300Y-67680000D01*
X132290000Y-102323100D02*
X137860000Y-96753100D01*
X132290000Y-103350000D02*
X132290000Y-102323100D01*
%TO.N,GND*%
X142500000Y-102300000D02*
X142500000Y-101711500D01*
X153500000Y-86050000D02*
X153500000Y-84923100D01*
X142500000Y-101077400D02*
X152160500Y-101077400D01*
X154367200Y-57716900D02*
X154367200Y-67870000D01*
X116520000Y-101120000D02*
X115815000Y-101825000D01*
X96775000Y-101825000D02*
X96000000Y-101050000D01*
X112750000Y-78350000D02*
X112750000Y-79476900D01*
X154468600Y-76797500D02*
X155309200Y-75956900D01*
X154367200Y-67870000D02*
X141522300Y-67870000D01*
X155675000Y-74780000D02*
X155675000Y-75368400D01*
X142500000Y-101711500D02*
X142500000Y-101077400D01*
X142500000Y-99866900D02*
X139760000Y-97126900D01*
X116520000Y-96040000D02*
X116520000Y-94913100D01*
X154626900Y-84500600D02*
X154626900Y-82099100D01*
X155675000Y-75368400D02*
X155675000Y-75956900D01*
X142500000Y-101077400D02*
X142500000Y-99866900D01*
X153500000Y-101290000D02*
X152373100Y-101290000D01*
X115119300Y-94226900D02*
X115805500Y-94913100D01*
X92775000Y-100683148D02*
X92775000Y-100050000D01*
X152160500Y-101077400D02*
X152373100Y-101290000D01*
X156025000Y-55250000D02*
X156025000Y-56426900D01*
X155657200Y-56426900D02*
X154367200Y-57716900D01*
X95825000Y-101225000D02*
X93316852Y-101225000D01*
X154626900Y-82099100D02*
X154468600Y-81940800D01*
X115815000Y-101825000D02*
X96775000Y-101825000D01*
X93316852Y-101225000D02*
X92775000Y-100683148D01*
X113172600Y-79476900D02*
X115119300Y-81423600D01*
X153500000Y-84923100D02*
X154204400Y-84923100D01*
X154468600Y-81940800D02*
X154468600Y-76797500D01*
X155675000Y-75368400D02*
X154367200Y-74060600D01*
X96000000Y-101050000D02*
X95825000Y-101225000D01*
X139760000Y-96100000D02*
X139760000Y-97126900D01*
X154204400Y-84923100D02*
X154626900Y-84500600D01*
X154367200Y-74060600D02*
X154367200Y-67870000D01*
X115805500Y-94913100D02*
X116520000Y-94913100D01*
X155309200Y-75956900D02*
X155675000Y-75956900D01*
X115119300Y-81423600D02*
X115119300Y-94226900D01*
X156025000Y-56426900D02*
X155657200Y-56426900D01*
X112750000Y-79476900D02*
X113172600Y-79476900D01*
X153500000Y-88590000D02*
X153500000Y-86050000D01*
%TO.N,Audio*%
X130836600Y-76544700D02*
X129397200Y-77984100D01*
X135458900Y-66640600D02*
X135033000Y-67066500D01*
X135033000Y-67731100D02*
X132596300Y-70167800D01*
X129397200Y-97577200D02*
X130370000Y-98550000D01*
X132596300Y-70167800D02*
X131916500Y-70167800D01*
X131916500Y-70167800D02*
X130836600Y-71247700D01*
X130836600Y-71247700D02*
X130836600Y-76544700D01*
X136641700Y-66640600D02*
X135458900Y-66640600D01*
X135033000Y-67066500D02*
X135033000Y-67731100D01*
X141522300Y-61760000D02*
X136641700Y-66640600D01*
X129397200Y-77984100D02*
X129397200Y-97577200D01*
%TO.N,VCC*%
X156025000Y-57790000D02*
X156025000Y-58966900D01*
X154833600Y-59792500D02*
X155659200Y-58966900D01*
X112750000Y-93883400D02*
X116176600Y-97310000D01*
X156738500Y-77320000D02*
X156850400Y-77320000D01*
X156851900Y-67169800D02*
X154833600Y-65151500D01*
X156850400Y-77320000D02*
X162533100Y-83002700D01*
X156850400Y-77320000D02*
X156851900Y-77318500D01*
X154833600Y-65151500D02*
X154833600Y-59792500D01*
X155675000Y-77320000D02*
X156738500Y-77320000D01*
X156851900Y-77318500D02*
X156851900Y-67169800D01*
X124140000Y-98580000D02*
X123013100Y-98580000D01*
X163660000Y-83510000D02*
X162533100Y-83510000D01*
X155659200Y-58966900D02*
X156025000Y-58966900D01*
X112750000Y-80890000D02*
X112750000Y-93883400D01*
X116176600Y-97310000D02*
X121743100Y-97310000D01*
X162533100Y-83002700D02*
X162533100Y-83510000D01*
X121743100Y-97310000D02*
X123013100Y-98580000D01*
%TO.N,Net-(U3-CAP1A)*%
X140394500Y-66531100D02*
X143172400Y-63753200D01*
X116970000Y-56250000D02*
X118096900Y-56250000D01*
X139404900Y-57376900D02*
X119223800Y-57376900D01*
X141250000Y-72500000D02*
X140394500Y-71644500D01*
X143172400Y-61144400D02*
X139404900Y-57376900D01*
X140394500Y-71644500D02*
X140394500Y-66531100D01*
X119223800Y-57376900D02*
X118096900Y-56250000D01*
X143172400Y-63753200D02*
X143172400Y-61144400D01*
%TO.N,Net-(U3-CAP2A)*%
X129125900Y-71791100D02*
X129125900Y-72380600D01*
X116970000Y-59916900D02*
X117251700Y-59916900D01*
X117251700Y-59916900D02*
X129125900Y-71791100D01*
X116970000Y-58790000D02*
X116970000Y-59916900D01*
%TO.N,Net-(U3-CAP1B)*%
X135759900Y-72659900D02*
X135759900Y-67367500D01*
X138750000Y-75650000D02*
X135759900Y-72659900D01*
%TO.N,/D3*%
X150436900Y-98750000D02*
X133336900Y-81650000D01*
X153500000Y-98750000D02*
X150436900Y-98750000D01*
X132210000Y-81650000D02*
X133336900Y-81650000D01*
%TO.N,/D4*%
X132210000Y-79110000D02*
X132210000Y-80236900D01*
X161406200Y-100163100D02*
X149983300Y-100163100D01*
X131064300Y-82113200D02*
X131064300Y-81149100D01*
X131976500Y-80236900D02*
X132210000Y-80236900D01*
X131064300Y-81149100D02*
X131976500Y-80236900D01*
X132740200Y-82920000D02*
X131871100Y-82920000D01*
X131871100Y-82920000D02*
X131064300Y-82113200D01*
X162533100Y-101290000D02*
X161406200Y-100163100D01*
X149983300Y-100163100D02*
X132740200Y-82920000D01*
X163660000Y-101290000D02*
X162533100Y-101290000D01*
%TO.N,/D5*%
X143128800Y-85989200D02*
X143128800Y-87473600D01*
X153278300Y-97623100D02*
X161406200Y-97623100D01*
X132210000Y-76570000D02*
X133709600Y-76570000D01*
X163660000Y-98750000D02*
X162533100Y-98750000D01*
X133709600Y-76570000D02*
X143128800Y-85989200D01*
X143128800Y-87473600D02*
X153278300Y-97623100D01*
X161406200Y-97623100D02*
X162533100Y-98750000D01*
%TO.N,/D6*%
X162533100Y-96210000D02*
X161406200Y-95083100D01*
X161406200Y-95083100D02*
X153263100Y-95083100D01*
X153263100Y-95083100D02*
X133336900Y-75156900D01*
X132210000Y-74030000D02*
X133336900Y-74030000D01*
X163660000Y-96210000D02*
X162533100Y-96210000D01*
X133336900Y-75156900D02*
X133336900Y-74030000D01*
%TO.N,/D7*%
X161406200Y-92543100D02*
X162533100Y-93670000D01*
X133336900Y-71490000D02*
X133336900Y-72563800D01*
X133336900Y-72563800D02*
X153316200Y-92543100D01*
X153316200Y-92543100D02*
X161406200Y-92543100D01*
X132210000Y-71490000D02*
X133336900Y-71490000D01*
X163660000Y-93670000D02*
X162533100Y-93670000D01*
%TO.N,/RST*%
X89890000Y-63110000D02*
X89890000Y-64436900D01*
X88563100Y-65183200D02*
X89309400Y-64436900D01*
X89890000Y-68190000D02*
X89890000Y-67063100D01*
X89467400Y-67063100D02*
X88563100Y-66158800D01*
X89890000Y-67063100D02*
X89467400Y-67063100D01*
X88563100Y-66158800D02*
X88563100Y-65183200D01*
X89309400Y-64436900D02*
X89890000Y-64436900D01*
%TO.N,/SDA*%
X163660000Y-86050000D02*
X163660000Y-84923100D01*
X156025000Y-64046900D02*
X164798000Y-72819900D01*
X156025000Y-62870000D02*
X156025000Y-64046900D01*
X164798000Y-84018600D02*
X163893500Y-84923100D01*
X163893500Y-84923100D02*
X163660000Y-84923100D01*
X164798000Y-72819900D02*
X164798000Y-84018600D01*
%TO.N,/SCL*%
X163660000Y-88590000D02*
X163660000Y-87463100D01*
X156392800Y-61506900D02*
X165266600Y-70380700D01*
X156025000Y-60330000D02*
X156025000Y-61506900D01*
X165266600Y-70380700D02*
X165266600Y-86090000D01*
X156025000Y-61506900D02*
X156392800Y-61506900D01*
X163893500Y-87463100D02*
X163660000Y-87463100D01*
X165266600Y-86090000D02*
X163893500Y-87463100D01*
%TD*%
M02*
