%TF.GenerationSoftware,KiCad,Pcbnew,7.0.6*%
%TF.CreationDate,2024-01-05T10:51:49+01:00*%
%TF.ProjectId,c64sid,63363473-6964-42e6-9b69-6361645f7063,rev?*%
%TF.SameCoordinates,Original*%
%TF.FileFunction,Soldermask,Top*%
%TF.FilePolarity,Negative*%
%FSLAX46Y46*%
G04 Gerber Fmt 4.6, Leading zero omitted, Abs format (unit mm)*
G04 Created by KiCad (PCBNEW 7.0.6) date 2024-01-05 10:51:49*
%MOMM*%
%LPD*%
G01*
G04 APERTURE LIST*
%ADD10R,1.600000X1.600000*%
%ADD11O,1.600000X1.600000*%
%ADD12C,1.600000*%
%ADD13R,1.700000X1.700000*%
%ADD14O,1.700000X1.700000*%
%ADD15C,1.400000*%
%ADD16O,1.400000X1.400000*%
%ADD17O,1.200000X2.200000*%
%ADD18O,2.200000X1.200000*%
%ADD19R,1.200000X1.200000*%
%ADD20C,1.200000*%
%ADD21C,1.260000*%
%ADD22R,2.000000X2.000000*%
%ADD23O,2.000000X1.600000*%
G04 APERTURE END LIST*
D10*
%TO.C,U3*%
X116970000Y-56250000D03*
D11*
X116970000Y-58790000D03*
X116970000Y-61330000D03*
X116970000Y-63870000D03*
X116970000Y-66410000D03*
X116970000Y-68950000D03*
X116970000Y-71490000D03*
X116970000Y-74030000D03*
X116970000Y-76570000D03*
X116970000Y-79110000D03*
X116970000Y-81650000D03*
X116970000Y-84190000D03*
X116970000Y-86730000D03*
X116970000Y-89270000D03*
X132210000Y-89270000D03*
X132210000Y-86730000D03*
X132210000Y-84190000D03*
X132210000Y-81650000D03*
X132210000Y-79110000D03*
X132210000Y-76570000D03*
X132210000Y-74030000D03*
X132210000Y-71490000D03*
X132210000Y-68950000D03*
X132210000Y-66410000D03*
X132210000Y-63870000D03*
X132210000Y-61330000D03*
X132210000Y-58790000D03*
X132210000Y-56250000D03*
%TD*%
D12*
%TO.C,C6*%
X139022300Y-67870000D03*
X141522300Y-67870000D03*
%TD*%
D13*
%TO.C,J1*%
X142500000Y-102300000D03*
D14*
X145040000Y-102300000D03*
X147580000Y-102300000D03*
%TD*%
D15*
%TO.C,R17*%
X137860000Y-96100000D03*
D16*
X139760000Y-96100000D03*
%TD*%
D15*
%TO.C,R18*%
X127210000Y-103350000D03*
D16*
X132290000Y-103350000D03*
%TD*%
D12*
%TO.C,C1*%
X138750000Y-72500000D03*
X141250000Y-72500000D03*
%TD*%
D10*
%TO.C,U5*%
X116520000Y-93500000D03*
D11*
X116520000Y-96040000D03*
X116520000Y-98580000D03*
X116520000Y-101120000D03*
X124140000Y-101120000D03*
X124140000Y-98580000D03*
X124140000Y-96040000D03*
X124140000Y-93500000D03*
%TD*%
D13*
%TO.C,J3*%
X156025000Y-55250000D03*
D14*
X156025000Y-57790000D03*
X156025000Y-60330000D03*
X156025000Y-62870000D03*
%TD*%
D10*
%TO.C,U1*%
X153500000Y-83510000D03*
D11*
X153500000Y-86050000D03*
X153500000Y-88590000D03*
X153500000Y-91130000D03*
X153500000Y-93670000D03*
X153500000Y-96210000D03*
X153500000Y-98750000D03*
X153500000Y-101290000D03*
X163660000Y-101290000D03*
X163660000Y-98750000D03*
X163660000Y-96210000D03*
X163660000Y-93670000D03*
X163660000Y-91130000D03*
X163660000Y-88590000D03*
X163660000Y-86050000D03*
X163660000Y-83510000D03*
%TD*%
D17*
%TO.C,P1*%
X89200000Y-95800000D03*
D18*
X94200000Y-100800000D03*
D17*
X99200000Y-95800000D03*
%TD*%
D19*
%TO.C,C3*%
X141750000Y-87950000D03*
D20*
X141750000Y-85950000D03*
%TD*%
D12*
%TO.C,C2*%
X138750000Y-75650000D03*
X141250000Y-75650000D03*
%TD*%
D21*
%TO.C,RV1*%
X130370000Y-98550000D03*
X127830000Y-96010000D03*
X130370000Y-93470000D03*
%TD*%
D13*
%TO.C,J2*%
X155675000Y-69700000D03*
D14*
X155675000Y-72240000D03*
X155675000Y-74780000D03*
X155675000Y-77320000D03*
%TD*%
D22*
%TO.C,U2*%
X89890000Y-63110000D03*
D23*
X89890000Y-65650000D03*
X89890000Y-68190000D03*
X89890000Y-70730000D03*
X89890000Y-73270000D03*
X89890000Y-75810000D03*
X89890000Y-78350000D03*
X89890000Y-80890000D03*
X112750000Y-80890000D03*
X112750000Y-78350000D03*
X112750000Y-75810000D03*
X112750000Y-73270000D03*
X112750000Y-70730000D03*
X112750000Y-68190000D03*
X112750000Y-65650000D03*
X112750000Y-63110000D03*
%TD*%
D12*
%TO.C,C5*%
X139022300Y-61760000D03*
X141522300Y-61760000D03*
%TD*%
M02*
