%TF.GenerationSoftware,KiCad,Pcbnew,7.0.6*%
%TF.CreationDate,2024-01-05T10:51:49+01:00*%
%TF.ProjectId,c64sid,63363473-6964-42e6-9b69-6361645f7063,rev?*%
%TF.SameCoordinates,Original*%
%TF.FileFunction,Legend,Top*%
%TF.FilePolarity,Positive*%
%FSLAX46Y46*%
G04 Gerber Fmt 4.6, Leading zero omitted, Abs format (unit mm)*
G04 Created by KiCad (PCBNEW 7.0.6) date 2024-01-05 10:51:49*
%MOMM*%
%LPD*%
G01*
G04 APERTURE LIST*
%ADD10C,0.125000*%
%ADD11C,0.150000*%
%ADD12C,0.120000*%
G04 APERTURE END LIST*
D10*
G36*
X151891448Y-100821971D02*
G01*
X151923856Y-100838176D01*
X151953873Y-100868192D01*
X151969809Y-100916000D01*
X151969809Y-100962406D01*
X151594809Y-100962406D01*
X151594809Y-100916002D01*
X151610746Y-100868190D01*
X151640761Y-100838175D01*
X151673169Y-100821971D01*
X151754289Y-100801692D01*
X151810329Y-100801692D01*
X151891448Y-100821971D01*
G37*
G36*
X152166238Y-102206454D02*
G01*
X151398380Y-102206454D01*
X151398380Y-101905859D01*
X151469809Y-101905859D01*
X151473745Y-101915361D01*
X151473016Y-101925624D01*
X151496826Y-101997052D01*
X151506358Y-102008042D01*
X151511925Y-102021481D01*
X151559544Y-102069100D01*
X151569047Y-102073036D01*
X151575787Y-102080807D01*
X151623406Y-102104618D01*
X151630492Y-102105121D01*
X151636199Y-102109350D01*
X151731437Y-102133159D01*
X151739274Y-102131992D01*
X151746595Y-102135025D01*
X151818023Y-102135025D01*
X151825343Y-102131992D01*
X151833181Y-102133159D01*
X151928419Y-102109350D01*
X151934127Y-102105120D01*
X151941212Y-102104617D01*
X151988831Y-102080807D01*
X151995569Y-102073037D01*
X152005074Y-102069101D01*
X152052694Y-102021482D01*
X152058261Y-102008040D01*
X152067793Y-101997051D01*
X152091602Y-101925623D01*
X152090872Y-101915362D01*
X152094809Y-101905859D01*
X152094809Y-101858240D01*
X152090872Y-101848736D01*
X152091602Y-101838477D01*
X152067793Y-101767047D01*
X152058260Y-101756056D01*
X152052693Y-101742616D01*
X152028883Y-101718807D01*
X152002994Y-101708084D01*
X151984690Y-101700502D01*
X151818023Y-101700502D01*
X151773829Y-101718808D01*
X151755523Y-101763002D01*
X151755523Y-101858240D01*
X151773829Y-101902434D01*
X151818023Y-101920740D01*
X151862217Y-101902434D01*
X151880523Y-101858240D01*
X151880523Y-101825502D01*
X151955516Y-101825502D01*
X151969809Y-101868382D01*
X151969809Y-101895716D01*
X151953873Y-101943524D01*
X151923856Y-101973540D01*
X151891448Y-101989745D01*
X151810329Y-102010025D01*
X151754289Y-102010025D01*
X151673169Y-101989745D01*
X151640761Y-101973541D01*
X151610746Y-101943526D01*
X151594809Y-101895714D01*
X151594809Y-101849183D01*
X151612021Y-101814762D01*
X151615412Y-101767047D01*
X151584070Y-101730909D01*
X151536355Y-101727518D01*
X151500218Y-101758860D01*
X151476408Y-101806479D01*
X151475376Y-101820989D01*
X151469809Y-101834430D01*
X151469809Y-101905859D01*
X151398380Y-101905859D01*
X151398380Y-101548716D01*
X151469809Y-101548716D01*
X151476003Y-101563669D01*
X151478044Y-101579725D01*
X151484830Y-101584980D01*
X151488115Y-101592910D01*
X151503068Y-101599103D01*
X151515864Y-101609013D01*
X151524377Y-101607930D01*
X151532309Y-101611216D01*
X152032309Y-101611216D01*
X152076503Y-101592910D01*
X152094809Y-101548716D01*
X152076503Y-101504522D01*
X152032309Y-101486216D01*
X151767657Y-101486216D01*
X152063317Y-101317267D01*
X152068572Y-101310481D01*
X152076503Y-101307196D01*
X152082697Y-101292241D01*
X152092606Y-101279447D01*
X152091523Y-101270933D01*
X152094809Y-101263002D01*
X152088614Y-101248047D01*
X152086574Y-101231994D01*
X152079788Y-101226738D01*
X152076503Y-101218808D01*
X152061547Y-101212613D01*
X152048753Y-101202705D01*
X152040239Y-101203787D01*
X152032309Y-101200502D01*
X151532309Y-101200502D01*
X151488115Y-101218808D01*
X151469809Y-101263002D01*
X151488115Y-101307196D01*
X151532309Y-101325502D01*
X151796961Y-101325502D01*
X151501300Y-101494451D01*
X151496044Y-101501237D01*
X151488115Y-101504522D01*
X151481921Y-101519475D01*
X151472012Y-101532271D01*
X151473094Y-101540784D01*
X151469809Y-101548716D01*
X151398380Y-101548716D01*
X151398380Y-101024906D01*
X151469809Y-101024906D01*
X151488115Y-101069100D01*
X151532309Y-101087406D01*
X152032309Y-101087406D01*
X152076503Y-101069100D01*
X152094809Y-101024906D01*
X152094809Y-100905858D01*
X152090872Y-100896354D01*
X152091602Y-100886094D01*
X152067793Y-100814666D01*
X152058261Y-100803676D01*
X152052694Y-100790235D01*
X152005074Y-100742616D01*
X151995569Y-100738679D01*
X151988831Y-100730910D01*
X151941212Y-100707100D01*
X151934127Y-100706596D01*
X151928419Y-100702367D01*
X151833181Y-100678558D01*
X151825343Y-100679724D01*
X151818023Y-100676692D01*
X151746595Y-100676692D01*
X151739274Y-100679724D01*
X151731437Y-100678558D01*
X151636199Y-100702367D01*
X151630492Y-100706595D01*
X151623406Y-100707099D01*
X151575787Y-100730910D01*
X151569047Y-100738680D01*
X151559544Y-100742617D01*
X151511925Y-100790236D01*
X151506358Y-100803674D01*
X151496826Y-100814665D01*
X151473016Y-100886093D01*
X151473745Y-100896355D01*
X151469809Y-100905858D01*
X151469809Y-101024905D01*
X151469809Y-101024906D01*
X151398380Y-101024906D01*
X151398380Y-100605263D01*
X152166238Y-100605263D01*
X152166238Y-102206454D01*
G37*
X111208500Y-68772525D02*
X111232309Y-68701097D01*
X111232309Y-68701097D02*
X111232309Y-68582049D01*
X111232309Y-68582049D02*
X111208500Y-68534430D01*
X111208500Y-68534430D02*
X111184690Y-68510621D01*
X111184690Y-68510621D02*
X111137071Y-68486811D01*
X111137071Y-68486811D02*
X111089452Y-68486811D01*
X111089452Y-68486811D02*
X111041833Y-68510621D01*
X111041833Y-68510621D02*
X111018023Y-68534430D01*
X111018023Y-68534430D02*
X110994214Y-68582049D01*
X110994214Y-68582049D02*
X110970404Y-68677287D01*
X110970404Y-68677287D02*
X110946595Y-68724906D01*
X110946595Y-68724906D02*
X110922785Y-68748716D01*
X110922785Y-68748716D02*
X110875166Y-68772525D01*
X110875166Y-68772525D02*
X110827547Y-68772525D01*
X110827547Y-68772525D02*
X110779928Y-68748716D01*
X110779928Y-68748716D02*
X110756119Y-68724906D01*
X110756119Y-68724906D02*
X110732309Y-68677287D01*
X110732309Y-68677287D02*
X110732309Y-68558240D01*
X110732309Y-68558240D02*
X110756119Y-68486811D01*
X111184690Y-67986812D02*
X111208500Y-68010621D01*
X111208500Y-68010621D02*
X111232309Y-68082050D01*
X111232309Y-68082050D02*
X111232309Y-68129669D01*
X111232309Y-68129669D02*
X111208500Y-68201097D01*
X111208500Y-68201097D02*
X111160880Y-68248716D01*
X111160880Y-68248716D02*
X111113261Y-68272526D01*
X111113261Y-68272526D02*
X111018023Y-68296335D01*
X111018023Y-68296335D02*
X110946595Y-68296335D01*
X110946595Y-68296335D02*
X110851357Y-68272526D01*
X110851357Y-68272526D02*
X110803738Y-68248716D01*
X110803738Y-68248716D02*
X110756119Y-68201097D01*
X110756119Y-68201097D02*
X110732309Y-68129669D01*
X110732309Y-68129669D02*
X110732309Y-68082050D01*
X110732309Y-68082050D02*
X110756119Y-68010621D01*
X110756119Y-68010621D02*
X110779928Y-67986812D01*
X111232309Y-67534431D02*
X111232309Y-67772526D01*
X111232309Y-67772526D02*
X110732309Y-67772526D01*
X165508500Y-89172525D02*
X165532309Y-89101097D01*
X165532309Y-89101097D02*
X165532309Y-88982049D01*
X165532309Y-88982049D02*
X165508500Y-88934430D01*
X165508500Y-88934430D02*
X165484690Y-88910621D01*
X165484690Y-88910621D02*
X165437071Y-88886811D01*
X165437071Y-88886811D02*
X165389452Y-88886811D01*
X165389452Y-88886811D02*
X165341833Y-88910621D01*
X165341833Y-88910621D02*
X165318023Y-88934430D01*
X165318023Y-88934430D02*
X165294214Y-88982049D01*
X165294214Y-88982049D02*
X165270404Y-89077287D01*
X165270404Y-89077287D02*
X165246595Y-89124906D01*
X165246595Y-89124906D02*
X165222785Y-89148716D01*
X165222785Y-89148716D02*
X165175166Y-89172525D01*
X165175166Y-89172525D02*
X165127547Y-89172525D01*
X165127547Y-89172525D02*
X165079928Y-89148716D01*
X165079928Y-89148716D02*
X165056119Y-89124906D01*
X165056119Y-89124906D02*
X165032309Y-89077287D01*
X165032309Y-89077287D02*
X165032309Y-88958240D01*
X165032309Y-88958240D02*
X165056119Y-88886811D01*
X165484690Y-88386812D02*
X165508500Y-88410621D01*
X165508500Y-88410621D02*
X165532309Y-88482050D01*
X165532309Y-88482050D02*
X165532309Y-88529669D01*
X165532309Y-88529669D02*
X165508500Y-88601097D01*
X165508500Y-88601097D02*
X165460880Y-88648716D01*
X165460880Y-88648716D02*
X165413261Y-88672526D01*
X165413261Y-88672526D02*
X165318023Y-88696335D01*
X165318023Y-88696335D02*
X165246595Y-88696335D01*
X165246595Y-88696335D02*
X165151357Y-88672526D01*
X165151357Y-88672526D02*
X165103738Y-88648716D01*
X165103738Y-88648716D02*
X165056119Y-88601097D01*
X165056119Y-88601097D02*
X165032309Y-88529669D01*
X165032309Y-88529669D02*
X165032309Y-88482050D01*
X165032309Y-88482050D02*
X165056119Y-88410621D01*
X165056119Y-88410621D02*
X165079928Y-88386812D01*
X165532309Y-87934431D02*
X165532309Y-88172526D01*
X165532309Y-88172526D02*
X165032309Y-88172526D01*
X122332309Y-99070144D02*
X122832309Y-98903478D01*
X122832309Y-98903478D02*
X122332309Y-98736811D01*
X122784690Y-98284431D02*
X122808500Y-98308240D01*
X122808500Y-98308240D02*
X122832309Y-98379669D01*
X122832309Y-98379669D02*
X122832309Y-98427288D01*
X122832309Y-98427288D02*
X122808500Y-98498716D01*
X122808500Y-98498716D02*
X122760880Y-98546335D01*
X122760880Y-98546335D02*
X122713261Y-98570145D01*
X122713261Y-98570145D02*
X122618023Y-98593954D01*
X122618023Y-98593954D02*
X122546595Y-98593954D01*
X122546595Y-98593954D02*
X122451357Y-98570145D01*
X122451357Y-98570145D02*
X122403738Y-98546335D01*
X122403738Y-98546335D02*
X122356119Y-98498716D01*
X122356119Y-98498716D02*
X122332309Y-98427288D01*
X122332309Y-98427288D02*
X122332309Y-98379669D01*
X122332309Y-98379669D02*
X122356119Y-98308240D01*
X122356119Y-98308240D02*
X122379928Y-98284431D01*
X122784690Y-97784431D02*
X122808500Y-97808240D01*
X122808500Y-97808240D02*
X122832309Y-97879669D01*
X122832309Y-97879669D02*
X122832309Y-97927288D01*
X122832309Y-97927288D02*
X122808500Y-97998716D01*
X122808500Y-97998716D02*
X122760880Y-98046335D01*
X122760880Y-98046335D02*
X122713261Y-98070145D01*
X122713261Y-98070145D02*
X122618023Y-98093954D01*
X122618023Y-98093954D02*
X122546595Y-98093954D01*
X122546595Y-98093954D02*
X122451357Y-98070145D01*
X122451357Y-98070145D02*
X122403738Y-98046335D01*
X122403738Y-98046335D02*
X122356119Y-97998716D01*
X122356119Y-97998716D02*
X122332309Y-97927288D01*
X122332309Y-97927288D02*
X122332309Y-97879669D01*
X122332309Y-97879669D02*
X122356119Y-97808240D01*
X122356119Y-97808240D02*
X122379928Y-97784431D01*
D11*
X141787017Y-105176533D02*
X142120350Y-105176533D01*
X141720350Y-105376533D02*
X141953684Y-104676533D01*
X141953684Y-104676533D02*
X142187017Y-105376533D01*
X142720350Y-104909866D02*
X142720350Y-105376533D01*
X142420350Y-104909866D02*
X142420350Y-105276533D01*
X142420350Y-105276533D02*
X142453684Y-105343200D01*
X142453684Y-105343200D02*
X142520350Y-105376533D01*
X142520350Y-105376533D02*
X142620350Y-105376533D01*
X142620350Y-105376533D02*
X142687017Y-105343200D01*
X142687017Y-105343200D02*
X142720350Y-105309866D01*
X143353683Y-105376533D02*
X143353683Y-104676533D01*
X143353683Y-105343200D02*
X143287017Y-105376533D01*
X143287017Y-105376533D02*
X143153683Y-105376533D01*
X143153683Y-105376533D02*
X143087017Y-105343200D01*
X143087017Y-105343200D02*
X143053683Y-105309866D01*
X143053683Y-105309866D02*
X143020350Y-105243200D01*
X143020350Y-105243200D02*
X143020350Y-105043200D01*
X143020350Y-105043200D02*
X143053683Y-104976533D01*
X143053683Y-104976533D02*
X143087017Y-104943200D01*
X143087017Y-104943200D02*
X143153683Y-104909866D01*
X143153683Y-104909866D02*
X143287017Y-104909866D01*
X143287017Y-104909866D02*
X143353683Y-104943200D01*
X143687016Y-105376533D02*
X143687016Y-104909866D01*
X143687016Y-104676533D02*
X143653683Y-104709866D01*
X143653683Y-104709866D02*
X143687016Y-104743200D01*
X143687016Y-104743200D02*
X143720350Y-104709866D01*
X143720350Y-104709866D02*
X143687016Y-104676533D01*
X143687016Y-104676533D02*
X143687016Y-104743200D01*
X144120349Y-105376533D02*
X144053683Y-105343200D01*
X144053683Y-105343200D02*
X144020349Y-105309866D01*
X144020349Y-105309866D02*
X143987016Y-105243200D01*
X143987016Y-105243200D02*
X143987016Y-105043200D01*
X143987016Y-105043200D02*
X144020349Y-104976533D01*
X144020349Y-104976533D02*
X144053683Y-104943200D01*
X144053683Y-104943200D02*
X144120349Y-104909866D01*
X144120349Y-104909866D02*
X144220349Y-104909866D01*
X144220349Y-104909866D02*
X144287016Y-104943200D01*
X144287016Y-104943200D02*
X144320349Y-104976533D01*
X144320349Y-104976533D02*
X144353683Y-105043200D01*
X144353683Y-105043200D02*
X144353683Y-105243200D01*
X144353683Y-105243200D02*
X144320349Y-105309866D01*
X144320349Y-105309866D02*
X144287016Y-105343200D01*
X144287016Y-105343200D02*
X144220349Y-105376533D01*
X144220349Y-105376533D02*
X144120349Y-105376533D01*
X144487016Y-105443200D02*
X145020349Y-105443200D01*
X145487015Y-105376533D02*
X145487015Y-104676533D01*
X145487015Y-105343200D02*
X145420349Y-105376533D01*
X145420349Y-105376533D02*
X145287015Y-105376533D01*
X145287015Y-105376533D02*
X145220349Y-105343200D01*
X145220349Y-105343200D02*
X145187015Y-105309866D01*
X145187015Y-105309866D02*
X145153682Y-105243200D01*
X145153682Y-105243200D02*
X145153682Y-105043200D01*
X145153682Y-105043200D02*
X145187015Y-104976533D01*
X145187015Y-104976533D02*
X145220349Y-104943200D01*
X145220349Y-104943200D02*
X145287015Y-104909866D01*
X145287015Y-104909866D02*
X145420349Y-104909866D01*
X145420349Y-104909866D02*
X145487015Y-104943200D01*
X146087015Y-105343200D02*
X146020348Y-105376533D01*
X146020348Y-105376533D02*
X145887015Y-105376533D01*
X145887015Y-105376533D02*
X145820348Y-105343200D01*
X145820348Y-105343200D02*
X145787015Y-105276533D01*
X145787015Y-105276533D02*
X145787015Y-105009866D01*
X145787015Y-105009866D02*
X145820348Y-104943200D01*
X145820348Y-104943200D02*
X145887015Y-104909866D01*
X145887015Y-104909866D02*
X146020348Y-104909866D01*
X146020348Y-104909866D02*
X146087015Y-104943200D01*
X146087015Y-104943200D02*
X146120348Y-105009866D01*
X146120348Y-105009866D02*
X146120348Y-105076533D01*
X146120348Y-105076533D02*
X145787015Y-105143200D01*
X146420348Y-105376533D02*
X146420348Y-104676533D01*
X146420348Y-104943200D02*
X146487015Y-104909866D01*
X146487015Y-104909866D02*
X146620348Y-104909866D01*
X146620348Y-104909866D02*
X146687015Y-104943200D01*
X146687015Y-104943200D02*
X146720348Y-104976533D01*
X146720348Y-104976533D02*
X146753682Y-105043200D01*
X146753682Y-105043200D02*
X146753682Y-105243200D01*
X146753682Y-105243200D02*
X146720348Y-105309866D01*
X146720348Y-105309866D02*
X146687015Y-105343200D01*
X146687015Y-105343200D02*
X146620348Y-105376533D01*
X146620348Y-105376533D02*
X146487015Y-105376533D01*
X146487015Y-105376533D02*
X146420348Y-105343200D01*
X147353681Y-104909866D02*
X147353681Y-105376533D01*
X147053681Y-104909866D02*
X147053681Y-105276533D01*
X147053681Y-105276533D02*
X147087015Y-105343200D01*
X147087015Y-105343200D02*
X147153681Y-105376533D01*
X147153681Y-105376533D02*
X147253681Y-105376533D01*
X147253681Y-105376533D02*
X147320348Y-105343200D01*
X147320348Y-105343200D02*
X147353681Y-105309866D01*
X147987014Y-104909866D02*
X147987014Y-105476533D01*
X147987014Y-105476533D02*
X147953681Y-105543200D01*
X147953681Y-105543200D02*
X147920348Y-105576533D01*
X147920348Y-105576533D02*
X147853681Y-105609866D01*
X147853681Y-105609866D02*
X147753681Y-105609866D01*
X147753681Y-105609866D02*
X147687014Y-105576533D01*
X147987014Y-105343200D02*
X147920348Y-105376533D01*
X147920348Y-105376533D02*
X147787014Y-105376533D01*
X147787014Y-105376533D02*
X147720348Y-105343200D01*
X147720348Y-105343200D02*
X147687014Y-105309866D01*
X147687014Y-105309866D02*
X147653681Y-105243200D01*
X147653681Y-105243200D02*
X147653681Y-105043200D01*
X147653681Y-105043200D02*
X147687014Y-104976533D01*
X147687014Y-104976533D02*
X147720348Y-104943200D01*
X147720348Y-104943200D02*
X147787014Y-104909866D01*
X147787014Y-104909866D02*
X147920348Y-104909866D01*
X147920348Y-104909866D02*
X147987014Y-104943200D01*
D10*
G36*
X142931808Y-99860746D02*
G01*
X142961823Y-99890761D01*
X142978027Y-99923169D01*
X142998307Y-100004288D01*
X142998307Y-100060329D01*
X142978027Y-100141448D01*
X142961824Y-100173855D01*
X142931806Y-100203873D01*
X142883998Y-100219809D01*
X142837593Y-100219809D01*
X142837593Y-99844809D01*
X142883997Y-99844809D01*
X142931808Y-99860746D01*
G37*
G36*
X143194736Y-100416238D02*
G01*
X141593545Y-100416238D01*
X141593545Y-100068023D01*
X141664974Y-100068023D01*
X141668006Y-100075343D01*
X141666840Y-100083181D01*
X141690649Y-100178419D01*
X141694878Y-100184127D01*
X141695382Y-100191212D01*
X141719192Y-100238831D01*
X141726961Y-100245569D01*
X141730898Y-100255074D01*
X141778517Y-100302694D01*
X141791958Y-100308261D01*
X141802948Y-100317793D01*
X141874376Y-100341602D01*
X141884636Y-100340872D01*
X141894140Y-100344809D01*
X141941759Y-100344809D01*
X141951262Y-100340872D01*
X141961523Y-100341602D01*
X142032952Y-100317793D01*
X142043943Y-100308260D01*
X142057383Y-100302693D01*
X142077766Y-100282309D01*
X142188783Y-100282309D01*
X142207089Y-100326503D01*
X142251283Y-100344809D01*
X142295477Y-100326503D01*
X142313783Y-100282309D01*
X142313783Y-100017656D01*
X142482732Y-100313317D01*
X142489517Y-100318572D01*
X142492803Y-100326503D01*
X142507757Y-100332697D01*
X142520552Y-100342606D01*
X142529065Y-100341523D01*
X142536997Y-100344809D01*
X142551951Y-100338614D01*
X142568005Y-100336574D01*
X142573260Y-100329788D01*
X142581191Y-100326503D01*
X142587385Y-100311547D01*
X142597294Y-100298753D01*
X142596211Y-100290239D01*
X142599497Y-100282309D01*
X142712593Y-100282309D01*
X142730899Y-100326503D01*
X142775093Y-100344809D01*
X142894141Y-100344809D01*
X142903644Y-100340872D01*
X142913905Y-100341602D01*
X142985333Y-100317793D01*
X142996323Y-100308261D01*
X143009764Y-100302694D01*
X143057383Y-100255074D01*
X143061319Y-100245569D01*
X143069089Y-100238831D01*
X143092900Y-100191212D01*
X143093403Y-100184125D01*
X143097632Y-100178419D01*
X143121441Y-100083181D01*
X143120274Y-100075343D01*
X143123307Y-100068023D01*
X143123307Y-99996595D01*
X143120274Y-99989274D01*
X143121441Y-99981437D01*
X143097632Y-99886199D01*
X143093403Y-99880492D01*
X143092900Y-99873406D01*
X143069089Y-99825787D01*
X143061318Y-99819047D01*
X143057382Y-99809544D01*
X143009763Y-99761925D01*
X142996324Y-99756358D01*
X142985334Y-99746826D01*
X142913906Y-99723016D01*
X142903643Y-99723745D01*
X142894141Y-99719809D01*
X142775093Y-99719809D01*
X142730899Y-99738115D01*
X142712593Y-99782309D01*
X142712593Y-100282309D01*
X142599497Y-100282309D01*
X142599497Y-99782309D01*
X142581191Y-99738115D01*
X142536997Y-99719809D01*
X142492803Y-99738115D01*
X142474497Y-99782309D01*
X142474497Y-100046961D01*
X142305548Y-99751300D01*
X142298761Y-99746044D01*
X142295477Y-99738115D01*
X142280523Y-99731921D01*
X142267728Y-99722012D01*
X142259214Y-99723094D01*
X142251283Y-99719809D01*
X142236329Y-99726003D01*
X142220274Y-99728044D01*
X142215018Y-99734830D01*
X142207089Y-99738115D01*
X142200895Y-99753068D01*
X142190986Y-99765864D01*
X142192068Y-99774377D01*
X142188783Y-99782309D01*
X142188783Y-100282309D01*
X142077766Y-100282309D01*
X142081192Y-100278883D01*
X142089634Y-100258501D01*
X142099497Y-100234690D01*
X142099497Y-100068023D01*
X142081191Y-100023829D01*
X142036997Y-100005523D01*
X141941759Y-100005523D01*
X141897565Y-100023829D01*
X141879259Y-100068023D01*
X141897565Y-100112217D01*
X141941759Y-100130523D01*
X141974497Y-100130523D01*
X141974497Y-100205516D01*
X141931616Y-100219809D01*
X141904283Y-100219809D01*
X141856474Y-100203873D01*
X141826458Y-100173856D01*
X141810253Y-100141448D01*
X141789974Y-100060329D01*
X141789974Y-100004288D01*
X141810253Y-99923169D01*
X141826459Y-99890759D01*
X141856472Y-99860746D01*
X141904284Y-99844809D01*
X141950815Y-99844809D01*
X141985237Y-99862021D01*
X142032952Y-99865412D01*
X142069090Y-99834070D01*
X142072481Y-99786355D01*
X142041139Y-99750218D01*
X141993520Y-99726408D01*
X141979009Y-99725376D01*
X141965569Y-99719809D01*
X141894140Y-99719809D01*
X141884637Y-99723745D01*
X141874375Y-99723016D01*
X141802947Y-99746826D01*
X141791955Y-99756359D01*
X141778518Y-99761925D01*
X141730899Y-99809544D01*
X141726962Y-99819047D01*
X141719192Y-99825787D01*
X141695382Y-99873406D01*
X141694878Y-99880490D01*
X141690649Y-99886199D01*
X141666840Y-99981437D01*
X141668006Y-99989274D01*
X141664974Y-99996595D01*
X141664974Y-100068023D01*
X141593545Y-100068023D01*
X141593545Y-99648380D01*
X143194736Y-99648380D01*
X143194736Y-100416238D01*
G37*
G36*
X153641448Y-54521971D02*
G01*
X153673856Y-54538176D01*
X153703873Y-54568192D01*
X153719809Y-54616000D01*
X153719809Y-54662406D01*
X153344809Y-54662406D01*
X153344809Y-54616002D01*
X153360746Y-54568190D01*
X153390761Y-54538175D01*
X153423169Y-54521971D01*
X153504289Y-54501692D01*
X153560329Y-54501692D01*
X153641448Y-54521971D01*
G37*
G36*
X153916238Y-55906454D02*
G01*
X153148380Y-55906454D01*
X153148380Y-55605859D01*
X153219809Y-55605859D01*
X153223745Y-55615361D01*
X153223016Y-55625624D01*
X153246826Y-55697052D01*
X153256358Y-55708042D01*
X153261925Y-55721481D01*
X153309544Y-55769100D01*
X153319047Y-55773036D01*
X153325787Y-55780807D01*
X153373406Y-55804618D01*
X153380492Y-55805121D01*
X153386199Y-55809350D01*
X153481437Y-55833159D01*
X153489274Y-55831992D01*
X153496595Y-55835025D01*
X153568023Y-55835025D01*
X153575343Y-55831992D01*
X153583181Y-55833159D01*
X153678419Y-55809350D01*
X153684127Y-55805120D01*
X153691212Y-55804617D01*
X153738831Y-55780807D01*
X153745569Y-55773037D01*
X153755074Y-55769101D01*
X153802694Y-55721482D01*
X153808261Y-55708040D01*
X153817793Y-55697051D01*
X153841602Y-55625623D01*
X153840872Y-55615362D01*
X153844809Y-55605859D01*
X153844809Y-55558240D01*
X153840872Y-55548736D01*
X153841602Y-55538477D01*
X153817793Y-55467047D01*
X153808260Y-55456056D01*
X153802693Y-55442616D01*
X153778883Y-55418807D01*
X153752995Y-55408084D01*
X153734690Y-55400502D01*
X153568023Y-55400502D01*
X153523829Y-55418808D01*
X153505523Y-55463002D01*
X153505523Y-55558240D01*
X153523829Y-55602434D01*
X153568023Y-55620740D01*
X153612217Y-55602434D01*
X153630523Y-55558240D01*
X153630523Y-55525502D01*
X153705516Y-55525502D01*
X153719809Y-55568382D01*
X153719809Y-55595716D01*
X153703873Y-55643524D01*
X153673856Y-55673540D01*
X153641448Y-55689745D01*
X153560329Y-55710025D01*
X153504289Y-55710025D01*
X153423169Y-55689745D01*
X153390761Y-55673541D01*
X153360746Y-55643526D01*
X153344809Y-55595714D01*
X153344809Y-55549183D01*
X153362021Y-55514762D01*
X153365412Y-55467047D01*
X153334070Y-55430909D01*
X153286355Y-55427518D01*
X153250218Y-55458860D01*
X153226408Y-55506479D01*
X153225376Y-55520989D01*
X153219809Y-55534430D01*
X153219809Y-55605859D01*
X153148380Y-55605859D01*
X153148380Y-55248716D01*
X153219809Y-55248716D01*
X153226003Y-55263669D01*
X153228044Y-55279725D01*
X153234830Y-55284980D01*
X153238115Y-55292910D01*
X153253068Y-55299103D01*
X153265864Y-55309013D01*
X153274377Y-55307930D01*
X153282309Y-55311216D01*
X153782309Y-55311216D01*
X153826503Y-55292910D01*
X153844809Y-55248716D01*
X153826503Y-55204522D01*
X153782309Y-55186216D01*
X153517657Y-55186216D01*
X153813317Y-55017267D01*
X153818572Y-55010481D01*
X153826503Y-55007196D01*
X153832697Y-54992241D01*
X153842606Y-54979447D01*
X153841523Y-54970933D01*
X153844809Y-54963002D01*
X153838614Y-54948047D01*
X153836574Y-54931994D01*
X153829788Y-54926738D01*
X153826503Y-54918808D01*
X153811547Y-54912613D01*
X153798753Y-54902705D01*
X153790239Y-54903787D01*
X153782309Y-54900502D01*
X153282309Y-54900502D01*
X153238115Y-54918808D01*
X153219809Y-54963002D01*
X153238115Y-55007196D01*
X153282309Y-55025502D01*
X153546961Y-55025502D01*
X153251300Y-55194451D01*
X153246044Y-55201237D01*
X153238115Y-55204522D01*
X153231921Y-55219475D01*
X153222012Y-55232271D01*
X153223094Y-55240784D01*
X153219809Y-55248716D01*
X153148380Y-55248716D01*
X153148380Y-54724906D01*
X153219809Y-54724906D01*
X153238115Y-54769100D01*
X153282309Y-54787406D01*
X153782309Y-54787406D01*
X153826503Y-54769100D01*
X153844809Y-54724906D01*
X153844809Y-54605858D01*
X153840872Y-54596354D01*
X153841602Y-54586094D01*
X153817793Y-54514666D01*
X153808261Y-54503676D01*
X153802694Y-54490235D01*
X153755074Y-54442616D01*
X153745569Y-54438679D01*
X153738831Y-54430910D01*
X153691212Y-54407100D01*
X153684127Y-54406596D01*
X153678419Y-54402367D01*
X153583181Y-54378558D01*
X153575343Y-54379724D01*
X153568023Y-54376692D01*
X153496595Y-54376692D01*
X153489274Y-54379724D01*
X153481437Y-54378558D01*
X153386199Y-54402367D01*
X153380492Y-54406595D01*
X153373406Y-54407099D01*
X153325787Y-54430910D01*
X153319047Y-54438680D01*
X153309544Y-54442617D01*
X153261925Y-54490236D01*
X153256358Y-54503674D01*
X153246826Y-54514665D01*
X153223016Y-54586093D01*
X153223745Y-54596355D01*
X153219809Y-54605858D01*
X153219809Y-54724905D01*
X153219809Y-54724906D01*
X153148380Y-54724906D01*
X153148380Y-54305263D01*
X153916238Y-54305263D01*
X153916238Y-55906454D01*
G37*
X153332309Y-72598716D02*
X152832309Y-72598716D01*
X152832309Y-72598716D02*
X152832309Y-72479668D01*
X152832309Y-72479668D02*
X152856119Y-72408240D01*
X152856119Y-72408240D02*
X152903738Y-72360621D01*
X152903738Y-72360621D02*
X152951357Y-72336811D01*
X152951357Y-72336811D02*
X153046595Y-72313002D01*
X153046595Y-72313002D02*
X153118023Y-72313002D01*
X153118023Y-72313002D02*
X153213261Y-72336811D01*
X153213261Y-72336811D02*
X153260880Y-72360621D01*
X153260880Y-72360621D02*
X153308500Y-72408240D01*
X153308500Y-72408240D02*
X153332309Y-72479668D01*
X153332309Y-72479668D02*
X153332309Y-72598716D01*
X152832309Y-72146335D02*
X152832309Y-71836811D01*
X152832309Y-71836811D02*
X153022785Y-72003478D01*
X153022785Y-72003478D02*
X153022785Y-71932049D01*
X153022785Y-71932049D02*
X153046595Y-71884430D01*
X153046595Y-71884430D02*
X153070404Y-71860621D01*
X153070404Y-71860621D02*
X153118023Y-71836811D01*
X153118023Y-71836811D02*
X153237071Y-71836811D01*
X153237071Y-71836811D02*
X153284690Y-71860621D01*
X153284690Y-71860621D02*
X153308500Y-71884430D01*
X153308500Y-71884430D02*
X153332309Y-71932049D01*
X153332309Y-71932049D02*
X153332309Y-72074906D01*
X153332309Y-72074906D02*
X153308500Y-72122525D01*
X153308500Y-72122525D02*
X153284690Y-72146335D01*
D11*
X98436779Y-63146009D02*
X98770112Y-63146009D01*
X98912969Y-63669819D02*
X98436779Y-63669819D01*
X98436779Y-63669819D02*
X98436779Y-62669819D01*
X98436779Y-62669819D02*
X98912969Y-62669819D01*
X99293922Y-63622200D02*
X99436779Y-63669819D01*
X99436779Y-63669819D02*
X99674874Y-63669819D01*
X99674874Y-63669819D02*
X99770112Y-63622200D01*
X99770112Y-63622200D02*
X99817731Y-63574580D01*
X99817731Y-63574580D02*
X99865350Y-63479342D01*
X99865350Y-63479342D02*
X99865350Y-63384104D01*
X99865350Y-63384104D02*
X99817731Y-63288866D01*
X99817731Y-63288866D02*
X99770112Y-63241247D01*
X99770112Y-63241247D02*
X99674874Y-63193628D01*
X99674874Y-63193628D02*
X99484398Y-63146009D01*
X99484398Y-63146009D02*
X99389160Y-63098390D01*
X99389160Y-63098390D02*
X99341541Y-63050771D01*
X99341541Y-63050771D02*
X99293922Y-62955533D01*
X99293922Y-62955533D02*
X99293922Y-62860295D01*
X99293922Y-62860295D02*
X99341541Y-62765057D01*
X99341541Y-62765057D02*
X99389160Y-62717438D01*
X99389160Y-62717438D02*
X99484398Y-62669819D01*
X99484398Y-62669819D02*
X99722493Y-62669819D01*
X99722493Y-62669819D02*
X99865350Y-62717438D01*
X100293922Y-63669819D02*
X100293922Y-62669819D01*
X100293922Y-62669819D02*
X100674874Y-62669819D01*
X100674874Y-62669819D02*
X100770112Y-62717438D01*
X100770112Y-62717438D02*
X100817731Y-62765057D01*
X100817731Y-62765057D02*
X100865350Y-62860295D01*
X100865350Y-62860295D02*
X100865350Y-63003152D01*
X100865350Y-63003152D02*
X100817731Y-63098390D01*
X100817731Y-63098390D02*
X100770112Y-63146009D01*
X100770112Y-63146009D02*
X100674874Y-63193628D01*
X100674874Y-63193628D02*
X100293922Y-63193628D01*
X101198684Y-62669819D02*
X101817731Y-62669819D01*
X101817731Y-62669819D02*
X101484398Y-63050771D01*
X101484398Y-63050771D02*
X101627255Y-63050771D01*
X101627255Y-63050771D02*
X101722493Y-63098390D01*
X101722493Y-63098390D02*
X101770112Y-63146009D01*
X101770112Y-63146009D02*
X101817731Y-63241247D01*
X101817731Y-63241247D02*
X101817731Y-63479342D01*
X101817731Y-63479342D02*
X101770112Y-63574580D01*
X101770112Y-63574580D02*
X101722493Y-63622200D01*
X101722493Y-63622200D02*
X101627255Y-63669819D01*
X101627255Y-63669819D02*
X101341541Y-63669819D01*
X101341541Y-63669819D02*
X101246303Y-63622200D01*
X101246303Y-63622200D02*
X101198684Y-63574580D01*
X102198684Y-62765057D02*
X102246303Y-62717438D01*
X102246303Y-62717438D02*
X102341541Y-62669819D01*
X102341541Y-62669819D02*
X102579636Y-62669819D01*
X102579636Y-62669819D02*
X102674874Y-62717438D01*
X102674874Y-62717438D02*
X102722493Y-62765057D01*
X102722493Y-62765057D02*
X102770112Y-62860295D01*
X102770112Y-62860295D02*
X102770112Y-62955533D01*
X102770112Y-62955533D02*
X102722493Y-63098390D01*
X102722493Y-63098390D02*
X102151065Y-63669819D01*
X102151065Y-63669819D02*
X102770112Y-63669819D01*
X103912970Y-63622200D02*
X104055827Y-63669819D01*
X104055827Y-63669819D02*
X104293922Y-63669819D01*
X104293922Y-63669819D02*
X104389160Y-63622200D01*
X104389160Y-63622200D02*
X104436779Y-63574580D01*
X104436779Y-63574580D02*
X104484398Y-63479342D01*
X104484398Y-63479342D02*
X104484398Y-63384104D01*
X104484398Y-63384104D02*
X104436779Y-63288866D01*
X104436779Y-63288866D02*
X104389160Y-63241247D01*
X104389160Y-63241247D02*
X104293922Y-63193628D01*
X104293922Y-63193628D02*
X104103446Y-63146009D01*
X104103446Y-63146009D02*
X104008208Y-63098390D01*
X104008208Y-63098390D02*
X103960589Y-63050771D01*
X103960589Y-63050771D02*
X103912970Y-62955533D01*
X103912970Y-62955533D02*
X103912970Y-62860295D01*
X103912970Y-62860295D02*
X103960589Y-62765057D01*
X103960589Y-62765057D02*
X104008208Y-62717438D01*
X104008208Y-62717438D02*
X104103446Y-62669819D01*
X104103446Y-62669819D02*
X104341541Y-62669819D01*
X104341541Y-62669819D02*
X104484398Y-62717438D01*
X104865351Y-62765057D02*
X104912970Y-62717438D01*
X104912970Y-62717438D02*
X105008208Y-62669819D01*
X105008208Y-62669819D02*
X105246303Y-62669819D01*
X105246303Y-62669819D02*
X105341541Y-62717438D01*
X105341541Y-62717438D02*
X105389160Y-62765057D01*
X105389160Y-62765057D02*
X105436779Y-62860295D01*
X105436779Y-62860295D02*
X105436779Y-62955533D01*
X105436779Y-62955533D02*
X105389160Y-63098390D01*
X105389160Y-63098390D02*
X104817732Y-63669819D01*
X104817732Y-63669819D02*
X105436779Y-63669819D01*
X92765350Y-95106533D02*
X93165350Y-95106533D01*
X92965350Y-95806533D02*
X92965350Y-95106533D01*
X93798683Y-95806533D02*
X93565350Y-95473200D01*
X93398683Y-95806533D02*
X93398683Y-95106533D01*
X93398683Y-95106533D02*
X93665350Y-95106533D01*
X93665350Y-95106533D02*
X93732017Y-95139866D01*
X93732017Y-95139866D02*
X93765350Y-95173200D01*
X93765350Y-95173200D02*
X93798683Y-95239866D01*
X93798683Y-95239866D02*
X93798683Y-95339866D01*
X93798683Y-95339866D02*
X93765350Y-95406533D01*
X93765350Y-95406533D02*
X93732017Y-95439866D01*
X93732017Y-95439866D02*
X93665350Y-95473200D01*
X93665350Y-95473200D02*
X93398683Y-95473200D01*
X94065350Y-95773200D02*
X94165350Y-95806533D01*
X94165350Y-95806533D02*
X94332017Y-95806533D01*
X94332017Y-95806533D02*
X94398683Y-95773200D01*
X94398683Y-95773200D02*
X94432017Y-95739866D01*
X94432017Y-95739866D02*
X94465350Y-95673200D01*
X94465350Y-95673200D02*
X94465350Y-95606533D01*
X94465350Y-95606533D02*
X94432017Y-95539866D01*
X94432017Y-95539866D02*
X94398683Y-95506533D01*
X94398683Y-95506533D02*
X94332017Y-95473200D01*
X94332017Y-95473200D02*
X94198683Y-95439866D01*
X94198683Y-95439866D02*
X94132017Y-95406533D01*
X94132017Y-95406533D02*
X94098683Y-95373200D01*
X94098683Y-95373200D02*
X94065350Y-95306533D01*
X94065350Y-95306533D02*
X94065350Y-95239866D01*
X94065350Y-95239866D02*
X94098683Y-95173200D01*
X94098683Y-95173200D02*
X94132017Y-95139866D01*
X94132017Y-95139866D02*
X94198683Y-95106533D01*
X94198683Y-95106533D02*
X94365350Y-95106533D01*
X94365350Y-95106533D02*
X94465350Y-95139866D01*
X155777255Y-64569819D02*
X155967731Y-64569819D01*
X155967731Y-64569819D02*
X156062969Y-64617438D01*
X156062969Y-64617438D02*
X156158207Y-64712676D01*
X156158207Y-64712676D02*
X156205826Y-64903152D01*
X156205826Y-64903152D02*
X156205826Y-65236485D01*
X156205826Y-65236485D02*
X156158207Y-65426961D01*
X156158207Y-65426961D02*
X156062969Y-65522200D01*
X156062969Y-65522200D02*
X155967731Y-65569819D01*
X155967731Y-65569819D02*
X155777255Y-65569819D01*
X155777255Y-65569819D02*
X155682017Y-65522200D01*
X155682017Y-65522200D02*
X155586779Y-65426961D01*
X155586779Y-65426961D02*
X155539160Y-65236485D01*
X155539160Y-65236485D02*
X155539160Y-64903152D01*
X155539160Y-64903152D02*
X155586779Y-64712676D01*
X155586779Y-64712676D02*
X155682017Y-64617438D01*
X155682017Y-64617438D02*
X155777255Y-64569819D01*
X157110588Y-65569819D02*
X156634398Y-65569819D01*
X156634398Y-65569819D02*
X156634398Y-64569819D01*
X157443922Y-65046009D02*
X157777255Y-65046009D01*
X157920112Y-65569819D02*
X157443922Y-65569819D01*
X157443922Y-65569819D02*
X157443922Y-64569819D01*
X157443922Y-64569819D02*
X157920112Y-64569819D01*
X158348684Y-65569819D02*
X158348684Y-64569819D01*
X158348684Y-64569819D02*
X158586779Y-64569819D01*
X158586779Y-64569819D02*
X158729636Y-64617438D01*
X158729636Y-64617438D02*
X158824874Y-64712676D01*
X158824874Y-64712676D02*
X158872493Y-64807914D01*
X158872493Y-64807914D02*
X158920112Y-64998390D01*
X158920112Y-64998390D02*
X158920112Y-65141247D01*
X158920112Y-65141247D02*
X158872493Y-65331723D01*
X158872493Y-65331723D02*
X158824874Y-65426961D01*
X158824874Y-65426961D02*
X158729636Y-65522200D01*
X158729636Y-65522200D02*
X158586779Y-65569819D01*
X158586779Y-65569819D02*
X158348684Y-65569819D01*
X159110589Y-65665057D02*
X159872493Y-65665057D01*
X160015351Y-64569819D02*
X160253446Y-65569819D01*
X160253446Y-65569819D02*
X160443922Y-64855533D01*
X160443922Y-64855533D02*
X160634398Y-65569819D01*
X160634398Y-65569819D02*
X160872494Y-64569819D01*
X161253446Y-65569819D02*
X161253446Y-64569819D01*
X161586779Y-64569819D02*
X162158207Y-64569819D01*
X161872493Y-65569819D02*
X161872493Y-64569819D01*
D10*
G36*
X153241448Y-73971971D02*
G01*
X153273856Y-73988176D01*
X153303873Y-74018192D01*
X153319809Y-74066000D01*
X153319809Y-74112406D01*
X152944809Y-74112406D01*
X152944809Y-74066002D01*
X152960746Y-74018190D01*
X152990761Y-73988175D01*
X153023169Y-73971971D01*
X153104289Y-73951692D01*
X153160329Y-73951692D01*
X153241448Y-73971971D01*
G37*
G36*
X153516238Y-75356454D02*
G01*
X152748380Y-75356454D01*
X152748380Y-75055859D01*
X152819809Y-75055859D01*
X152823745Y-75065361D01*
X152823016Y-75075624D01*
X152846826Y-75147052D01*
X152856358Y-75158042D01*
X152861925Y-75171481D01*
X152909544Y-75219100D01*
X152919047Y-75223036D01*
X152925787Y-75230807D01*
X152973406Y-75254618D01*
X152980492Y-75255121D01*
X152986199Y-75259350D01*
X153081437Y-75283159D01*
X153089274Y-75281992D01*
X153096595Y-75285025D01*
X153168023Y-75285025D01*
X153175343Y-75281992D01*
X153183181Y-75283159D01*
X153278419Y-75259350D01*
X153284127Y-75255120D01*
X153291212Y-75254617D01*
X153338831Y-75230807D01*
X153345569Y-75223037D01*
X153355074Y-75219101D01*
X153402694Y-75171482D01*
X153408261Y-75158040D01*
X153417793Y-75147051D01*
X153441602Y-75075623D01*
X153440872Y-75065362D01*
X153444809Y-75055859D01*
X153444809Y-75008240D01*
X153440872Y-74998736D01*
X153441602Y-74988477D01*
X153417793Y-74917047D01*
X153408260Y-74906056D01*
X153402693Y-74892616D01*
X153378883Y-74868807D01*
X153352995Y-74858084D01*
X153334690Y-74850502D01*
X153168023Y-74850502D01*
X153123829Y-74868808D01*
X153105523Y-74913002D01*
X153105523Y-75008240D01*
X153123829Y-75052434D01*
X153168023Y-75070740D01*
X153212217Y-75052434D01*
X153230523Y-75008240D01*
X153230523Y-74975502D01*
X153305516Y-74975502D01*
X153319809Y-75018382D01*
X153319809Y-75045716D01*
X153303873Y-75093524D01*
X153273856Y-75123540D01*
X153241448Y-75139745D01*
X153160329Y-75160025D01*
X153104289Y-75160025D01*
X153023169Y-75139745D01*
X152990761Y-75123541D01*
X152960746Y-75093526D01*
X152944809Y-75045714D01*
X152944809Y-74999183D01*
X152962021Y-74964762D01*
X152965412Y-74917047D01*
X152934070Y-74880909D01*
X152886355Y-74877518D01*
X152850218Y-74908860D01*
X152826408Y-74956479D01*
X152825376Y-74970989D01*
X152819809Y-74984430D01*
X152819809Y-75055859D01*
X152748380Y-75055859D01*
X152748380Y-74698716D01*
X152819809Y-74698716D01*
X152826003Y-74713669D01*
X152828044Y-74729725D01*
X152834830Y-74734980D01*
X152838115Y-74742910D01*
X152853068Y-74749103D01*
X152865864Y-74759013D01*
X152874377Y-74757930D01*
X152882309Y-74761216D01*
X153382309Y-74761216D01*
X153426503Y-74742910D01*
X153444809Y-74698716D01*
X153426503Y-74654522D01*
X153382309Y-74636216D01*
X153117657Y-74636216D01*
X153413317Y-74467267D01*
X153418572Y-74460481D01*
X153426503Y-74457196D01*
X153432697Y-74442241D01*
X153442606Y-74429447D01*
X153441523Y-74420933D01*
X153444809Y-74413002D01*
X153438614Y-74398047D01*
X153436574Y-74381994D01*
X153429788Y-74376738D01*
X153426503Y-74368808D01*
X153411547Y-74362613D01*
X153398753Y-74352705D01*
X153390239Y-74353787D01*
X153382309Y-74350502D01*
X152882309Y-74350502D01*
X152838115Y-74368808D01*
X152819809Y-74413002D01*
X152838115Y-74457196D01*
X152882309Y-74475502D01*
X153146961Y-74475502D01*
X152851300Y-74644451D01*
X152846044Y-74651237D01*
X152838115Y-74654522D01*
X152831921Y-74669475D01*
X152822012Y-74682271D01*
X152823094Y-74690784D01*
X152819809Y-74698716D01*
X152748380Y-74698716D01*
X152748380Y-74174906D01*
X152819809Y-74174906D01*
X152838115Y-74219100D01*
X152882309Y-74237406D01*
X153382309Y-74237406D01*
X153426503Y-74219100D01*
X153444809Y-74174906D01*
X153444809Y-74055858D01*
X153440872Y-74046354D01*
X153441602Y-74036094D01*
X153417793Y-73964666D01*
X153408261Y-73953676D01*
X153402694Y-73940235D01*
X153355074Y-73892616D01*
X153345569Y-73888679D01*
X153338831Y-73880910D01*
X153291212Y-73857100D01*
X153284127Y-73856596D01*
X153278419Y-73852367D01*
X153183181Y-73828558D01*
X153175343Y-73829724D01*
X153168023Y-73826692D01*
X153096595Y-73826692D01*
X153089274Y-73829724D01*
X153081437Y-73828558D01*
X152986199Y-73852367D01*
X152980492Y-73856595D01*
X152973406Y-73857099D01*
X152925787Y-73880910D01*
X152919047Y-73888680D01*
X152909544Y-73892617D01*
X152861925Y-73940236D01*
X152856358Y-73953674D01*
X152846826Y-73964665D01*
X152823016Y-74036093D01*
X152823745Y-74046355D01*
X152819809Y-74055858D01*
X152819809Y-74174905D01*
X152819809Y-74174906D01*
X152748380Y-74174906D01*
X152748380Y-73755263D01*
X153516238Y-73755263D01*
X153516238Y-75356454D01*
G37*
X153758500Y-60772525D02*
X153782309Y-60701097D01*
X153782309Y-60701097D02*
X153782309Y-60582049D01*
X153782309Y-60582049D02*
X153758500Y-60534430D01*
X153758500Y-60534430D02*
X153734690Y-60510621D01*
X153734690Y-60510621D02*
X153687071Y-60486811D01*
X153687071Y-60486811D02*
X153639452Y-60486811D01*
X153639452Y-60486811D02*
X153591833Y-60510621D01*
X153591833Y-60510621D02*
X153568023Y-60534430D01*
X153568023Y-60534430D02*
X153544214Y-60582049D01*
X153544214Y-60582049D02*
X153520404Y-60677287D01*
X153520404Y-60677287D02*
X153496595Y-60724906D01*
X153496595Y-60724906D02*
X153472785Y-60748716D01*
X153472785Y-60748716D02*
X153425166Y-60772525D01*
X153425166Y-60772525D02*
X153377547Y-60772525D01*
X153377547Y-60772525D02*
X153329928Y-60748716D01*
X153329928Y-60748716D02*
X153306119Y-60724906D01*
X153306119Y-60724906D02*
X153282309Y-60677287D01*
X153282309Y-60677287D02*
X153282309Y-60558240D01*
X153282309Y-60558240D02*
X153306119Y-60486811D01*
X153734690Y-59986812D02*
X153758500Y-60010621D01*
X153758500Y-60010621D02*
X153782309Y-60082050D01*
X153782309Y-60082050D02*
X153782309Y-60129669D01*
X153782309Y-60129669D02*
X153758500Y-60201097D01*
X153758500Y-60201097D02*
X153710880Y-60248716D01*
X153710880Y-60248716D02*
X153663261Y-60272526D01*
X153663261Y-60272526D02*
X153568023Y-60296335D01*
X153568023Y-60296335D02*
X153496595Y-60296335D01*
X153496595Y-60296335D02*
X153401357Y-60272526D01*
X153401357Y-60272526D02*
X153353738Y-60248716D01*
X153353738Y-60248716D02*
X153306119Y-60201097D01*
X153306119Y-60201097D02*
X153282309Y-60129669D01*
X153282309Y-60129669D02*
X153282309Y-60082050D01*
X153282309Y-60082050D02*
X153306119Y-60010621D01*
X153306119Y-60010621D02*
X153329928Y-59986812D01*
X153782309Y-59534431D02*
X153782309Y-59772526D01*
X153782309Y-59772526D02*
X153282309Y-59772526D01*
X164982309Y-84120144D02*
X165482309Y-83953478D01*
X165482309Y-83953478D02*
X164982309Y-83786811D01*
X165434690Y-83334431D02*
X165458500Y-83358240D01*
X165458500Y-83358240D02*
X165482309Y-83429669D01*
X165482309Y-83429669D02*
X165482309Y-83477288D01*
X165482309Y-83477288D02*
X165458500Y-83548716D01*
X165458500Y-83548716D02*
X165410880Y-83596335D01*
X165410880Y-83596335D02*
X165363261Y-83620145D01*
X165363261Y-83620145D02*
X165268023Y-83643954D01*
X165268023Y-83643954D02*
X165196595Y-83643954D01*
X165196595Y-83643954D02*
X165101357Y-83620145D01*
X165101357Y-83620145D02*
X165053738Y-83596335D01*
X165053738Y-83596335D02*
X165006119Y-83548716D01*
X165006119Y-83548716D02*
X164982309Y-83477288D01*
X164982309Y-83477288D02*
X164982309Y-83429669D01*
X164982309Y-83429669D02*
X165006119Y-83358240D01*
X165006119Y-83358240D02*
X165029928Y-83334431D01*
X165434690Y-82834431D02*
X165458500Y-82858240D01*
X165458500Y-82858240D02*
X165482309Y-82929669D01*
X165482309Y-82929669D02*
X165482309Y-82977288D01*
X165482309Y-82977288D02*
X165458500Y-83048716D01*
X165458500Y-83048716D02*
X165410880Y-83096335D01*
X165410880Y-83096335D02*
X165363261Y-83120145D01*
X165363261Y-83120145D02*
X165268023Y-83143954D01*
X165268023Y-83143954D02*
X165196595Y-83143954D01*
X165196595Y-83143954D02*
X165101357Y-83120145D01*
X165101357Y-83120145D02*
X165053738Y-83096335D01*
X165053738Y-83096335D02*
X165006119Y-83048716D01*
X165006119Y-83048716D02*
X164982309Y-82977288D01*
X164982309Y-82977288D02*
X164982309Y-82929669D01*
X164982309Y-82929669D02*
X165006119Y-82858240D01*
X165006119Y-82858240D02*
X165029928Y-82834431D01*
D11*
X89836779Y-52009819D02*
X89836779Y-51009819D01*
X89836779Y-51009819D02*
X90170112Y-51724104D01*
X90170112Y-51724104D02*
X90503445Y-51009819D01*
X90503445Y-51009819D02*
X90503445Y-52009819D01*
X91170112Y-51009819D02*
X91360588Y-51009819D01*
X91360588Y-51009819D02*
X91455826Y-51057438D01*
X91455826Y-51057438D02*
X91551064Y-51152676D01*
X91551064Y-51152676D02*
X91598683Y-51343152D01*
X91598683Y-51343152D02*
X91598683Y-51676485D01*
X91598683Y-51676485D02*
X91551064Y-51866961D01*
X91551064Y-51866961D02*
X91455826Y-51962200D01*
X91455826Y-51962200D02*
X91360588Y-52009819D01*
X91360588Y-52009819D02*
X91170112Y-52009819D01*
X91170112Y-52009819D02*
X91074874Y-51962200D01*
X91074874Y-51962200D02*
X90979636Y-51866961D01*
X90979636Y-51866961D02*
X90932017Y-51676485D01*
X90932017Y-51676485D02*
X90932017Y-51343152D01*
X90932017Y-51343152D02*
X90979636Y-51152676D01*
X90979636Y-51152676D02*
X91074874Y-51057438D01*
X91074874Y-51057438D02*
X91170112Y-51009819D01*
X91979636Y-51962200D02*
X92122493Y-52009819D01*
X92122493Y-52009819D02*
X92360588Y-52009819D01*
X92360588Y-52009819D02*
X92455826Y-51962200D01*
X92455826Y-51962200D02*
X92503445Y-51914580D01*
X92503445Y-51914580D02*
X92551064Y-51819342D01*
X92551064Y-51819342D02*
X92551064Y-51724104D01*
X92551064Y-51724104D02*
X92503445Y-51628866D01*
X92503445Y-51628866D02*
X92455826Y-51581247D01*
X92455826Y-51581247D02*
X92360588Y-51533628D01*
X92360588Y-51533628D02*
X92170112Y-51486009D01*
X92170112Y-51486009D02*
X92074874Y-51438390D01*
X92074874Y-51438390D02*
X92027255Y-51390771D01*
X92027255Y-51390771D02*
X91979636Y-51295533D01*
X91979636Y-51295533D02*
X91979636Y-51200295D01*
X91979636Y-51200295D02*
X92027255Y-51105057D01*
X92027255Y-51105057D02*
X92074874Y-51057438D01*
X92074874Y-51057438D02*
X92170112Y-51009819D01*
X92170112Y-51009819D02*
X92408207Y-51009819D01*
X92408207Y-51009819D02*
X92551064Y-51057438D01*
X93408207Y-51009819D02*
X93217731Y-51009819D01*
X93217731Y-51009819D02*
X93122493Y-51057438D01*
X93122493Y-51057438D02*
X93074874Y-51105057D01*
X93074874Y-51105057D02*
X92979636Y-51247914D01*
X92979636Y-51247914D02*
X92932017Y-51438390D01*
X92932017Y-51438390D02*
X92932017Y-51819342D01*
X92932017Y-51819342D02*
X92979636Y-51914580D01*
X92979636Y-51914580D02*
X93027255Y-51962200D01*
X93027255Y-51962200D02*
X93122493Y-52009819D01*
X93122493Y-52009819D02*
X93312969Y-52009819D01*
X93312969Y-52009819D02*
X93408207Y-51962200D01*
X93408207Y-51962200D02*
X93455826Y-51914580D01*
X93455826Y-51914580D02*
X93503445Y-51819342D01*
X93503445Y-51819342D02*
X93503445Y-51581247D01*
X93503445Y-51581247D02*
X93455826Y-51486009D01*
X93455826Y-51486009D02*
X93408207Y-51438390D01*
X93408207Y-51438390D02*
X93312969Y-51390771D01*
X93312969Y-51390771D02*
X93122493Y-51390771D01*
X93122493Y-51390771D02*
X93027255Y-51438390D01*
X93027255Y-51438390D02*
X92979636Y-51486009D01*
X92979636Y-51486009D02*
X92932017Y-51581247D01*
X94408207Y-51009819D02*
X93932017Y-51009819D01*
X93932017Y-51009819D02*
X93884398Y-51486009D01*
X93884398Y-51486009D02*
X93932017Y-51438390D01*
X93932017Y-51438390D02*
X94027255Y-51390771D01*
X94027255Y-51390771D02*
X94265350Y-51390771D01*
X94265350Y-51390771D02*
X94360588Y-51438390D01*
X94360588Y-51438390D02*
X94408207Y-51486009D01*
X94408207Y-51486009D02*
X94455826Y-51581247D01*
X94455826Y-51581247D02*
X94455826Y-51819342D01*
X94455826Y-51819342D02*
X94408207Y-51914580D01*
X94408207Y-51914580D02*
X94360588Y-51962200D01*
X94360588Y-51962200D02*
X94265350Y-52009819D01*
X94265350Y-52009819D02*
X94027255Y-52009819D01*
X94027255Y-52009819D02*
X93932017Y-51962200D01*
X93932017Y-51962200D02*
X93884398Y-51914580D01*
X95027255Y-51438390D02*
X94932017Y-51390771D01*
X94932017Y-51390771D02*
X94884398Y-51343152D01*
X94884398Y-51343152D02*
X94836779Y-51247914D01*
X94836779Y-51247914D02*
X94836779Y-51200295D01*
X94836779Y-51200295D02*
X94884398Y-51105057D01*
X94884398Y-51105057D02*
X94932017Y-51057438D01*
X94932017Y-51057438D02*
X95027255Y-51009819D01*
X95027255Y-51009819D02*
X95217731Y-51009819D01*
X95217731Y-51009819D02*
X95312969Y-51057438D01*
X95312969Y-51057438D02*
X95360588Y-51105057D01*
X95360588Y-51105057D02*
X95408207Y-51200295D01*
X95408207Y-51200295D02*
X95408207Y-51247914D01*
X95408207Y-51247914D02*
X95360588Y-51343152D01*
X95360588Y-51343152D02*
X95312969Y-51390771D01*
X95312969Y-51390771D02*
X95217731Y-51438390D01*
X95217731Y-51438390D02*
X95027255Y-51438390D01*
X95027255Y-51438390D02*
X94932017Y-51486009D01*
X94932017Y-51486009D02*
X94884398Y-51533628D01*
X94884398Y-51533628D02*
X94836779Y-51628866D01*
X94836779Y-51628866D02*
X94836779Y-51819342D01*
X94836779Y-51819342D02*
X94884398Y-51914580D01*
X94884398Y-51914580D02*
X94932017Y-51962200D01*
X94932017Y-51962200D02*
X95027255Y-52009819D01*
X95027255Y-52009819D02*
X95217731Y-52009819D01*
X95217731Y-52009819D02*
X95312969Y-51962200D01*
X95312969Y-51962200D02*
X95360588Y-51914580D01*
X95360588Y-51914580D02*
X95408207Y-51819342D01*
X95408207Y-51819342D02*
X95408207Y-51628866D01*
X95408207Y-51628866D02*
X95360588Y-51533628D01*
X95360588Y-51533628D02*
X95312969Y-51486009D01*
X95312969Y-51486009D02*
X95217731Y-51438390D01*
X96360588Y-52009819D02*
X95789160Y-52009819D01*
X96074874Y-52009819D02*
X96074874Y-51009819D01*
X96074874Y-51009819D02*
X95979636Y-51152676D01*
X95979636Y-51152676D02*
X95884398Y-51247914D01*
X95884398Y-51247914D02*
X95789160Y-51295533D01*
X96789160Y-51628866D02*
X97551065Y-51628866D01*
X97979636Y-51962200D02*
X98122493Y-52009819D01*
X98122493Y-52009819D02*
X98360588Y-52009819D01*
X98360588Y-52009819D02*
X98455826Y-51962200D01*
X98455826Y-51962200D02*
X98503445Y-51914580D01*
X98503445Y-51914580D02*
X98551064Y-51819342D01*
X98551064Y-51819342D02*
X98551064Y-51724104D01*
X98551064Y-51724104D02*
X98503445Y-51628866D01*
X98503445Y-51628866D02*
X98455826Y-51581247D01*
X98455826Y-51581247D02*
X98360588Y-51533628D01*
X98360588Y-51533628D02*
X98170112Y-51486009D01*
X98170112Y-51486009D02*
X98074874Y-51438390D01*
X98074874Y-51438390D02*
X98027255Y-51390771D01*
X98027255Y-51390771D02*
X97979636Y-51295533D01*
X97979636Y-51295533D02*
X97979636Y-51200295D01*
X97979636Y-51200295D02*
X98027255Y-51105057D01*
X98027255Y-51105057D02*
X98074874Y-51057438D01*
X98074874Y-51057438D02*
X98170112Y-51009819D01*
X98170112Y-51009819D02*
X98408207Y-51009819D01*
X98408207Y-51009819D02*
X98551064Y-51057438D01*
X98979636Y-52009819D02*
X98979636Y-51009819D01*
X99455826Y-52009819D02*
X99455826Y-51009819D01*
X99455826Y-51009819D02*
X99693921Y-51009819D01*
X99693921Y-51009819D02*
X99836778Y-51057438D01*
X99836778Y-51057438D02*
X99932016Y-51152676D01*
X99932016Y-51152676D02*
X99979635Y-51247914D01*
X99979635Y-51247914D02*
X100027254Y-51438390D01*
X100027254Y-51438390D02*
X100027254Y-51581247D01*
X100027254Y-51581247D02*
X99979635Y-51771723D01*
X99979635Y-51771723D02*
X99932016Y-51866961D01*
X99932016Y-51866961D02*
X99836778Y-51962200D01*
X99836778Y-51962200D02*
X99693921Y-52009819D01*
X99693921Y-52009819D02*
X99455826Y-52009819D01*
X100455826Y-51628866D02*
X101217731Y-51628866D01*
X101693921Y-52009819D02*
X101693921Y-51009819D01*
X101693921Y-51009819D02*
X102074873Y-51009819D01*
X102074873Y-51009819D02*
X102170111Y-51057438D01*
X102170111Y-51057438D02*
X102217730Y-51105057D01*
X102217730Y-51105057D02*
X102265349Y-51200295D01*
X102265349Y-51200295D02*
X102265349Y-51343152D01*
X102265349Y-51343152D02*
X102217730Y-51438390D01*
X102217730Y-51438390D02*
X102170111Y-51486009D01*
X102170111Y-51486009D02*
X102074873Y-51533628D01*
X102074873Y-51533628D02*
X101693921Y-51533628D01*
X102836778Y-52009819D02*
X102741540Y-51962200D01*
X102741540Y-51962200D02*
X102693921Y-51866961D01*
X102693921Y-51866961D02*
X102693921Y-51009819D01*
X103646302Y-52009819D02*
X103646302Y-51486009D01*
X103646302Y-51486009D02*
X103598683Y-51390771D01*
X103598683Y-51390771D02*
X103503445Y-51343152D01*
X103503445Y-51343152D02*
X103312969Y-51343152D01*
X103312969Y-51343152D02*
X103217731Y-51390771D01*
X103646302Y-51962200D02*
X103551064Y-52009819D01*
X103551064Y-52009819D02*
X103312969Y-52009819D01*
X103312969Y-52009819D02*
X103217731Y-51962200D01*
X103217731Y-51962200D02*
X103170112Y-51866961D01*
X103170112Y-51866961D02*
X103170112Y-51771723D01*
X103170112Y-51771723D02*
X103217731Y-51676485D01*
X103217731Y-51676485D02*
X103312969Y-51628866D01*
X103312969Y-51628866D02*
X103551064Y-51628866D01*
X103551064Y-51628866D02*
X103646302Y-51581247D01*
X104027255Y-51343152D02*
X104265350Y-52009819D01*
X104503445Y-51343152D02*
X104265350Y-52009819D01*
X104265350Y-52009819D02*
X104170112Y-52247914D01*
X104170112Y-52247914D02*
X104122493Y-52295533D01*
X104122493Y-52295533D02*
X104027255Y-52343152D01*
X105265350Y-51962200D02*
X105170112Y-52009819D01*
X105170112Y-52009819D02*
X104979636Y-52009819D01*
X104979636Y-52009819D02*
X104884398Y-51962200D01*
X104884398Y-51962200D02*
X104836779Y-51866961D01*
X104836779Y-51866961D02*
X104836779Y-51486009D01*
X104836779Y-51486009D02*
X104884398Y-51390771D01*
X104884398Y-51390771D02*
X104979636Y-51343152D01*
X104979636Y-51343152D02*
X105170112Y-51343152D01*
X105170112Y-51343152D02*
X105265350Y-51390771D01*
X105265350Y-51390771D02*
X105312969Y-51486009D01*
X105312969Y-51486009D02*
X105312969Y-51581247D01*
X105312969Y-51581247D02*
X104836779Y-51676485D01*
X105741541Y-52009819D02*
X105741541Y-51343152D01*
X105741541Y-51533628D02*
X105789160Y-51438390D01*
X105789160Y-51438390D02*
X105836779Y-51390771D01*
X105836779Y-51390771D02*
X105932017Y-51343152D01*
X105932017Y-51343152D02*
X106027255Y-51343152D01*
X107551065Y-52009819D02*
X107551065Y-51009819D01*
X107551065Y-51962200D02*
X107455827Y-52009819D01*
X107455827Y-52009819D02*
X107265351Y-52009819D01*
X107265351Y-52009819D02*
X107170113Y-51962200D01*
X107170113Y-51962200D02*
X107122494Y-51914580D01*
X107122494Y-51914580D02*
X107074875Y-51819342D01*
X107074875Y-51819342D02*
X107074875Y-51533628D01*
X107074875Y-51533628D02*
X107122494Y-51438390D01*
X107122494Y-51438390D02*
X107170113Y-51390771D01*
X107170113Y-51390771D02*
X107265351Y-51343152D01*
X107265351Y-51343152D02*
X107455827Y-51343152D01*
X107455827Y-51343152D02*
X107551065Y-51390771D01*
X108170113Y-52009819D02*
X108074875Y-51962200D01*
X108074875Y-51962200D02*
X108027256Y-51914580D01*
X108027256Y-51914580D02*
X107979637Y-51819342D01*
X107979637Y-51819342D02*
X107979637Y-51533628D01*
X107979637Y-51533628D02*
X108027256Y-51438390D01*
X108027256Y-51438390D02*
X108074875Y-51390771D01*
X108074875Y-51390771D02*
X108170113Y-51343152D01*
X108170113Y-51343152D02*
X108312970Y-51343152D01*
X108312970Y-51343152D02*
X108408208Y-51390771D01*
X108408208Y-51390771D02*
X108455827Y-51438390D01*
X108455827Y-51438390D02*
X108503446Y-51533628D01*
X108503446Y-51533628D02*
X108503446Y-51819342D01*
X108503446Y-51819342D02*
X108455827Y-51914580D01*
X108455827Y-51914580D02*
X108408208Y-51962200D01*
X108408208Y-51962200D02*
X108312970Y-52009819D01*
X108312970Y-52009819D02*
X108170113Y-52009819D01*
X109074875Y-52009819D02*
X108979637Y-51962200D01*
X108979637Y-51962200D02*
X108932018Y-51914580D01*
X108932018Y-51914580D02*
X108884399Y-51819342D01*
X108884399Y-51819342D02*
X108884399Y-51533628D01*
X108884399Y-51533628D02*
X108932018Y-51438390D01*
X108932018Y-51438390D02*
X108979637Y-51390771D01*
X108979637Y-51390771D02*
X109074875Y-51343152D01*
X109074875Y-51343152D02*
X109217732Y-51343152D01*
X109217732Y-51343152D02*
X109312970Y-51390771D01*
X109312970Y-51390771D02*
X109360589Y-51438390D01*
X109360589Y-51438390D02*
X109408208Y-51533628D01*
X109408208Y-51533628D02*
X109408208Y-51819342D01*
X109408208Y-51819342D02*
X109360589Y-51914580D01*
X109360589Y-51914580D02*
X109312970Y-51962200D01*
X109312970Y-51962200D02*
X109217732Y-52009819D01*
X109217732Y-52009819D02*
X109074875Y-52009819D01*
X109836780Y-52009819D02*
X109836780Y-51343152D01*
X109836780Y-51533628D02*
X109884399Y-51438390D01*
X109884399Y-51438390D02*
X109932018Y-51390771D01*
X109932018Y-51390771D02*
X110027256Y-51343152D01*
X110027256Y-51343152D02*
X110122494Y-51343152D01*
X111217733Y-52009819D02*
X111217733Y-51009819D01*
X111217733Y-51009819D02*
X111551066Y-51724104D01*
X111551066Y-51724104D02*
X111884399Y-51009819D01*
X111884399Y-51009819D02*
X111884399Y-52009819D01*
X112360590Y-52009819D02*
X112360590Y-51343152D01*
X112360590Y-51009819D02*
X112312971Y-51057438D01*
X112312971Y-51057438D02*
X112360590Y-51105057D01*
X112360590Y-51105057D02*
X112408209Y-51057438D01*
X112408209Y-51057438D02*
X112360590Y-51009819D01*
X112360590Y-51009819D02*
X112360590Y-51105057D01*
X113265351Y-51962200D02*
X113170113Y-52009819D01*
X113170113Y-52009819D02*
X112979637Y-52009819D01*
X112979637Y-52009819D02*
X112884399Y-51962200D01*
X112884399Y-51962200D02*
X112836780Y-51914580D01*
X112836780Y-51914580D02*
X112789161Y-51819342D01*
X112789161Y-51819342D02*
X112789161Y-51533628D01*
X112789161Y-51533628D02*
X112836780Y-51438390D01*
X112836780Y-51438390D02*
X112884399Y-51390771D01*
X112884399Y-51390771D02*
X112979637Y-51343152D01*
X112979637Y-51343152D02*
X113170113Y-51343152D01*
X113170113Y-51343152D02*
X113265351Y-51390771D01*
X113693923Y-52009819D02*
X113693923Y-51009819D01*
X114122494Y-52009819D02*
X114122494Y-51486009D01*
X114122494Y-51486009D02*
X114074875Y-51390771D01*
X114074875Y-51390771D02*
X113979637Y-51343152D01*
X113979637Y-51343152D02*
X113836780Y-51343152D01*
X113836780Y-51343152D02*
X113741542Y-51390771D01*
X113741542Y-51390771D02*
X113693923Y-51438390D01*
X114598685Y-52009819D02*
X114598685Y-51343152D01*
X114598685Y-51009819D02*
X114551066Y-51057438D01*
X114551066Y-51057438D02*
X114598685Y-51105057D01*
X114598685Y-51105057D02*
X114646304Y-51057438D01*
X114646304Y-51057438D02*
X114598685Y-51009819D01*
X114598685Y-51009819D02*
X114598685Y-51105057D01*
X115455827Y-51962200D02*
X115360589Y-52009819D01*
X115360589Y-52009819D02*
X115170113Y-52009819D01*
X115170113Y-52009819D02*
X115074875Y-51962200D01*
X115074875Y-51962200D02*
X115027256Y-51866961D01*
X115027256Y-51866961D02*
X115027256Y-51486009D01*
X115027256Y-51486009D02*
X115074875Y-51390771D01*
X115074875Y-51390771D02*
X115170113Y-51343152D01*
X115170113Y-51343152D02*
X115360589Y-51343152D01*
X115360589Y-51343152D02*
X115455827Y-51390771D01*
X115455827Y-51390771D02*
X115503446Y-51486009D01*
X115503446Y-51486009D02*
X115503446Y-51581247D01*
X115503446Y-51581247D02*
X115027256Y-51676485D01*
X116074875Y-52009819D02*
X115979637Y-51962200D01*
X115979637Y-51962200D02*
X115932018Y-51866961D01*
X115932018Y-51866961D02*
X115932018Y-51009819D01*
X117217733Y-51486009D02*
X117551066Y-51486009D01*
X117693923Y-52009819D02*
X117217733Y-52009819D01*
X117217733Y-52009819D02*
X117217733Y-51009819D01*
X117217733Y-51009819D02*
X117693923Y-51009819D01*
X118122495Y-52009819D02*
X118122495Y-51343152D01*
X118122495Y-51533628D02*
X118170114Y-51438390D01*
X118170114Y-51438390D02*
X118217733Y-51390771D01*
X118217733Y-51390771D02*
X118312971Y-51343152D01*
X118312971Y-51343152D02*
X118408209Y-51343152D01*
X119170114Y-52009819D02*
X119170114Y-51486009D01*
X119170114Y-51486009D02*
X119122495Y-51390771D01*
X119122495Y-51390771D02*
X119027257Y-51343152D01*
X119027257Y-51343152D02*
X118836781Y-51343152D01*
X118836781Y-51343152D02*
X118741543Y-51390771D01*
X119170114Y-51962200D02*
X119074876Y-52009819D01*
X119074876Y-52009819D02*
X118836781Y-52009819D01*
X118836781Y-52009819D02*
X118741543Y-51962200D01*
X118741543Y-51962200D02*
X118693924Y-51866961D01*
X118693924Y-51866961D02*
X118693924Y-51771723D01*
X118693924Y-51771723D02*
X118741543Y-51676485D01*
X118741543Y-51676485D02*
X118836781Y-51628866D01*
X118836781Y-51628866D02*
X119074876Y-51628866D01*
X119074876Y-51628866D02*
X119170114Y-51581247D01*
X119598686Y-51962200D02*
X119693924Y-52009819D01*
X119693924Y-52009819D02*
X119884400Y-52009819D01*
X119884400Y-52009819D02*
X119979638Y-51962200D01*
X119979638Y-51962200D02*
X120027257Y-51866961D01*
X120027257Y-51866961D02*
X120027257Y-51819342D01*
X120027257Y-51819342D02*
X119979638Y-51724104D01*
X119979638Y-51724104D02*
X119884400Y-51676485D01*
X119884400Y-51676485D02*
X119741543Y-51676485D01*
X119741543Y-51676485D02*
X119646305Y-51628866D01*
X119646305Y-51628866D02*
X119598686Y-51533628D01*
X119598686Y-51533628D02*
X119598686Y-51486009D01*
X119598686Y-51486009D02*
X119646305Y-51390771D01*
X119646305Y-51390771D02*
X119741543Y-51343152D01*
X119741543Y-51343152D02*
X119884400Y-51343152D01*
X119884400Y-51343152D02*
X119979638Y-51390771D01*
X120455829Y-52009819D02*
X120455829Y-51343152D01*
X120455829Y-51438390D02*
X120503448Y-51390771D01*
X120503448Y-51390771D02*
X120598686Y-51343152D01*
X120598686Y-51343152D02*
X120741543Y-51343152D01*
X120741543Y-51343152D02*
X120836781Y-51390771D01*
X120836781Y-51390771D02*
X120884400Y-51486009D01*
X120884400Y-51486009D02*
X120884400Y-52009819D01*
X120884400Y-51486009D02*
X120932019Y-51390771D01*
X120932019Y-51390771D02*
X121027257Y-51343152D01*
X121027257Y-51343152D02*
X121170114Y-51343152D01*
X121170114Y-51343152D02*
X121265353Y-51390771D01*
X121265353Y-51390771D02*
X121312972Y-51486009D01*
X121312972Y-51486009D02*
X121312972Y-52009819D01*
X122217733Y-51343152D02*
X122217733Y-52009819D01*
X121789162Y-51343152D02*
X121789162Y-51866961D01*
X121789162Y-51866961D02*
X121836781Y-51962200D01*
X121836781Y-51962200D02*
X121932019Y-52009819D01*
X121932019Y-52009819D02*
X122074876Y-52009819D01*
X122074876Y-52009819D02*
X122170114Y-51962200D01*
X122170114Y-51962200D02*
X122217733Y-51914580D01*
X122646305Y-51962200D02*
X122741543Y-52009819D01*
X122741543Y-52009819D02*
X122932019Y-52009819D01*
X122932019Y-52009819D02*
X123027257Y-51962200D01*
X123027257Y-51962200D02*
X123074876Y-51866961D01*
X123074876Y-51866961D02*
X123074876Y-51819342D01*
X123074876Y-51819342D02*
X123027257Y-51724104D01*
X123027257Y-51724104D02*
X122932019Y-51676485D01*
X122932019Y-51676485D02*
X122789162Y-51676485D01*
X122789162Y-51676485D02*
X122693924Y-51628866D01*
X122693924Y-51628866D02*
X122646305Y-51533628D01*
X122646305Y-51533628D02*
X122646305Y-51486009D01*
X122646305Y-51486009D02*
X122693924Y-51390771D01*
X122693924Y-51390771D02*
X122789162Y-51343152D01*
X122789162Y-51343152D02*
X122932019Y-51343152D01*
X122932019Y-51343152D02*
X123027257Y-51390771D01*
X125741544Y-51105057D02*
X125789163Y-51057438D01*
X125789163Y-51057438D02*
X125884401Y-51009819D01*
X125884401Y-51009819D02*
X126122496Y-51009819D01*
X126122496Y-51009819D02*
X126217734Y-51057438D01*
X126217734Y-51057438D02*
X126265353Y-51105057D01*
X126265353Y-51105057D02*
X126312972Y-51200295D01*
X126312972Y-51200295D02*
X126312972Y-51295533D01*
X126312972Y-51295533D02*
X126265353Y-51438390D01*
X126265353Y-51438390D02*
X125693925Y-52009819D01*
X125693925Y-52009819D02*
X126312972Y-52009819D01*
X126932020Y-51009819D02*
X127027258Y-51009819D01*
X127027258Y-51009819D02*
X127122496Y-51057438D01*
X127122496Y-51057438D02*
X127170115Y-51105057D01*
X127170115Y-51105057D02*
X127217734Y-51200295D01*
X127217734Y-51200295D02*
X127265353Y-51390771D01*
X127265353Y-51390771D02*
X127265353Y-51628866D01*
X127265353Y-51628866D02*
X127217734Y-51819342D01*
X127217734Y-51819342D02*
X127170115Y-51914580D01*
X127170115Y-51914580D02*
X127122496Y-51962200D01*
X127122496Y-51962200D02*
X127027258Y-52009819D01*
X127027258Y-52009819D02*
X126932020Y-52009819D01*
X126932020Y-52009819D02*
X126836782Y-51962200D01*
X126836782Y-51962200D02*
X126789163Y-51914580D01*
X126789163Y-51914580D02*
X126741544Y-51819342D01*
X126741544Y-51819342D02*
X126693925Y-51628866D01*
X126693925Y-51628866D02*
X126693925Y-51390771D01*
X126693925Y-51390771D02*
X126741544Y-51200295D01*
X126741544Y-51200295D02*
X126789163Y-51105057D01*
X126789163Y-51105057D02*
X126836782Y-51057438D01*
X126836782Y-51057438D02*
X126932020Y-51009819D01*
X127646306Y-51105057D02*
X127693925Y-51057438D01*
X127693925Y-51057438D02*
X127789163Y-51009819D01*
X127789163Y-51009819D02*
X128027258Y-51009819D01*
X128027258Y-51009819D02*
X128122496Y-51057438D01*
X128122496Y-51057438D02*
X128170115Y-51105057D01*
X128170115Y-51105057D02*
X128217734Y-51200295D01*
X128217734Y-51200295D02*
X128217734Y-51295533D01*
X128217734Y-51295533D02*
X128170115Y-51438390D01*
X128170115Y-51438390D02*
X127598687Y-52009819D01*
X127598687Y-52009819D02*
X128217734Y-52009819D01*
X128551068Y-51009819D02*
X129170115Y-51009819D01*
X129170115Y-51009819D02*
X128836782Y-51390771D01*
X128836782Y-51390771D02*
X128979639Y-51390771D01*
X128979639Y-51390771D02*
X129074877Y-51438390D01*
X129074877Y-51438390D02*
X129122496Y-51486009D01*
X129122496Y-51486009D02*
X129170115Y-51581247D01*
X129170115Y-51581247D02*
X129170115Y-51819342D01*
X129170115Y-51819342D02*
X129122496Y-51914580D01*
X129122496Y-51914580D02*
X129074877Y-51962200D01*
X129074877Y-51962200D02*
X128979639Y-52009819D01*
X128979639Y-52009819D02*
X128693925Y-52009819D01*
X128693925Y-52009819D02*
X128598687Y-51962200D01*
X128598687Y-51962200D02*
X128551068Y-51914580D01*
X129598687Y-51628866D02*
X130360592Y-51628866D01*
X131360591Y-52009819D02*
X130789163Y-52009819D01*
X131074877Y-52009819D02*
X131074877Y-51009819D01*
X131074877Y-51009819D02*
X130979639Y-51152676D01*
X130979639Y-51152676D02*
X130884401Y-51247914D01*
X130884401Y-51247914D02*
X130789163Y-51295533D01*
X132312972Y-52009819D02*
X131741544Y-52009819D01*
X132027258Y-52009819D02*
X132027258Y-51009819D01*
X132027258Y-51009819D02*
X131932020Y-51152676D01*
X131932020Y-51152676D02*
X131836782Y-51247914D01*
X131836782Y-51247914D02*
X131741544Y-51295533D01*
X132741544Y-51628866D02*
X133503449Y-51628866D01*
X134503448Y-52009819D02*
X133932020Y-52009819D01*
X134217734Y-52009819D02*
X134217734Y-51009819D01*
X134217734Y-51009819D02*
X134122496Y-51152676D01*
X134122496Y-51152676D02*
X134027258Y-51247914D01*
X134027258Y-51247914D02*
X133932020Y-51295533D01*
X134836782Y-51009819D02*
X135455829Y-51009819D01*
X135455829Y-51009819D02*
X135122496Y-51390771D01*
X135122496Y-51390771D02*
X135265353Y-51390771D01*
X135265353Y-51390771D02*
X135360591Y-51438390D01*
X135360591Y-51438390D02*
X135408210Y-51486009D01*
X135408210Y-51486009D02*
X135455829Y-51581247D01*
X135455829Y-51581247D02*
X135455829Y-51819342D01*
X135455829Y-51819342D02*
X135408210Y-51914580D01*
X135408210Y-51914580D02*
X135360591Y-51962200D01*
X135360591Y-51962200D02*
X135265353Y-52009819D01*
X135265353Y-52009819D02*
X134979639Y-52009819D01*
X134979639Y-52009819D02*
X134884401Y-51962200D01*
X134884401Y-51962200D02*
X134836782Y-51914580D01*
X89836779Y-53619819D02*
X89836779Y-52619819D01*
X90265350Y-53619819D02*
X90265350Y-53096009D01*
X90265350Y-53096009D02*
X90217731Y-53000771D01*
X90217731Y-53000771D02*
X90122493Y-52953152D01*
X90122493Y-52953152D02*
X89979636Y-52953152D01*
X89979636Y-52953152D02*
X89884398Y-53000771D01*
X89884398Y-53000771D02*
X89836779Y-53048390D01*
X90598684Y-52953152D02*
X90979636Y-52953152D01*
X90741541Y-52619819D02*
X90741541Y-53476961D01*
X90741541Y-53476961D02*
X90789160Y-53572200D01*
X90789160Y-53572200D02*
X90884398Y-53619819D01*
X90884398Y-53619819D02*
X90979636Y-53619819D01*
X91170113Y-52953152D02*
X91551065Y-52953152D01*
X91312970Y-52619819D02*
X91312970Y-53476961D01*
X91312970Y-53476961D02*
X91360589Y-53572200D01*
X91360589Y-53572200D02*
X91455827Y-53619819D01*
X91455827Y-53619819D02*
X91551065Y-53619819D01*
X91884399Y-52953152D02*
X91884399Y-53953152D01*
X91884399Y-53000771D02*
X91979637Y-52953152D01*
X91979637Y-52953152D02*
X92170113Y-52953152D01*
X92170113Y-52953152D02*
X92265351Y-53000771D01*
X92265351Y-53000771D02*
X92312970Y-53048390D01*
X92312970Y-53048390D02*
X92360589Y-53143628D01*
X92360589Y-53143628D02*
X92360589Y-53429342D01*
X92360589Y-53429342D02*
X92312970Y-53524580D01*
X92312970Y-53524580D02*
X92265351Y-53572200D01*
X92265351Y-53572200D02*
X92170113Y-53619819D01*
X92170113Y-53619819D02*
X91979637Y-53619819D01*
X91979637Y-53619819D02*
X91884399Y-53572200D01*
X92741542Y-53572200D02*
X92836780Y-53619819D01*
X92836780Y-53619819D02*
X93027256Y-53619819D01*
X93027256Y-53619819D02*
X93122494Y-53572200D01*
X93122494Y-53572200D02*
X93170113Y-53476961D01*
X93170113Y-53476961D02*
X93170113Y-53429342D01*
X93170113Y-53429342D02*
X93122494Y-53334104D01*
X93122494Y-53334104D02*
X93027256Y-53286485D01*
X93027256Y-53286485D02*
X92884399Y-53286485D01*
X92884399Y-53286485D02*
X92789161Y-53238866D01*
X92789161Y-53238866D02*
X92741542Y-53143628D01*
X92741542Y-53143628D02*
X92741542Y-53096009D01*
X92741542Y-53096009D02*
X92789161Y-53000771D01*
X92789161Y-53000771D02*
X92884399Y-52953152D01*
X92884399Y-52953152D02*
X93027256Y-52953152D01*
X93027256Y-52953152D02*
X93122494Y-53000771D01*
X93598685Y-53524580D02*
X93646304Y-53572200D01*
X93646304Y-53572200D02*
X93598685Y-53619819D01*
X93598685Y-53619819D02*
X93551066Y-53572200D01*
X93551066Y-53572200D02*
X93598685Y-53524580D01*
X93598685Y-53524580D02*
X93598685Y-53619819D01*
X93598685Y-53000771D02*
X93646304Y-53048390D01*
X93646304Y-53048390D02*
X93598685Y-53096009D01*
X93598685Y-53096009D02*
X93551066Y-53048390D01*
X93551066Y-53048390D02*
X93598685Y-53000771D01*
X93598685Y-53000771D02*
X93598685Y-53096009D01*
X94789160Y-52572200D02*
X93932018Y-53857914D01*
X95836779Y-52572200D02*
X94979637Y-53857914D01*
X96598684Y-52953152D02*
X96598684Y-53762676D01*
X96598684Y-53762676D02*
X96551065Y-53857914D01*
X96551065Y-53857914D02*
X96503446Y-53905533D01*
X96503446Y-53905533D02*
X96408208Y-53953152D01*
X96408208Y-53953152D02*
X96265351Y-53953152D01*
X96265351Y-53953152D02*
X96170113Y-53905533D01*
X96598684Y-53572200D02*
X96503446Y-53619819D01*
X96503446Y-53619819D02*
X96312970Y-53619819D01*
X96312970Y-53619819D02*
X96217732Y-53572200D01*
X96217732Y-53572200D02*
X96170113Y-53524580D01*
X96170113Y-53524580D02*
X96122494Y-53429342D01*
X96122494Y-53429342D02*
X96122494Y-53143628D01*
X96122494Y-53143628D02*
X96170113Y-53048390D01*
X96170113Y-53048390D02*
X96217732Y-53000771D01*
X96217732Y-53000771D02*
X96312970Y-52953152D01*
X96312970Y-52953152D02*
X96503446Y-52953152D01*
X96503446Y-52953152D02*
X96598684Y-53000771D01*
X97074875Y-53619819D02*
X97074875Y-52953152D01*
X97074875Y-52619819D02*
X97027256Y-52667438D01*
X97027256Y-52667438D02*
X97074875Y-52715057D01*
X97074875Y-52715057D02*
X97122494Y-52667438D01*
X97122494Y-52667438D02*
X97074875Y-52619819D01*
X97074875Y-52619819D02*
X97074875Y-52715057D01*
X97408208Y-52953152D02*
X97789160Y-52953152D01*
X97551065Y-52619819D02*
X97551065Y-53476961D01*
X97551065Y-53476961D02*
X97598684Y-53572200D01*
X97598684Y-53572200D02*
X97693922Y-53619819D01*
X97693922Y-53619819D02*
X97789160Y-53619819D01*
X98122494Y-53619819D02*
X98122494Y-52619819D01*
X98551065Y-53619819D02*
X98551065Y-53096009D01*
X98551065Y-53096009D02*
X98503446Y-53000771D01*
X98503446Y-53000771D02*
X98408208Y-52953152D01*
X98408208Y-52953152D02*
X98265351Y-52953152D01*
X98265351Y-52953152D02*
X98170113Y-53000771D01*
X98170113Y-53000771D02*
X98122494Y-53048390D01*
X99455827Y-52953152D02*
X99455827Y-53619819D01*
X99027256Y-52953152D02*
X99027256Y-53476961D01*
X99027256Y-53476961D02*
X99074875Y-53572200D01*
X99074875Y-53572200D02*
X99170113Y-53619819D01*
X99170113Y-53619819D02*
X99312970Y-53619819D01*
X99312970Y-53619819D02*
X99408208Y-53572200D01*
X99408208Y-53572200D02*
X99455827Y-53524580D01*
X99932018Y-53619819D02*
X99932018Y-52619819D01*
X99932018Y-53000771D02*
X100027256Y-52953152D01*
X100027256Y-52953152D02*
X100217732Y-52953152D01*
X100217732Y-52953152D02*
X100312970Y-53000771D01*
X100312970Y-53000771D02*
X100360589Y-53048390D01*
X100360589Y-53048390D02*
X100408208Y-53143628D01*
X100408208Y-53143628D02*
X100408208Y-53429342D01*
X100408208Y-53429342D02*
X100360589Y-53524580D01*
X100360589Y-53524580D02*
X100312970Y-53572200D01*
X100312970Y-53572200D02*
X100217732Y-53619819D01*
X100217732Y-53619819D02*
X100027256Y-53619819D01*
X100027256Y-53619819D02*
X99932018Y-53572200D01*
X100836780Y-53524580D02*
X100884399Y-53572200D01*
X100884399Y-53572200D02*
X100836780Y-53619819D01*
X100836780Y-53619819D02*
X100789161Y-53572200D01*
X100789161Y-53572200D02*
X100836780Y-53524580D01*
X100836780Y-53524580D02*
X100836780Y-53619819D01*
X101741541Y-53572200D02*
X101646303Y-53619819D01*
X101646303Y-53619819D02*
X101455827Y-53619819D01*
X101455827Y-53619819D02*
X101360589Y-53572200D01*
X101360589Y-53572200D02*
X101312970Y-53524580D01*
X101312970Y-53524580D02*
X101265351Y-53429342D01*
X101265351Y-53429342D02*
X101265351Y-53143628D01*
X101265351Y-53143628D02*
X101312970Y-53048390D01*
X101312970Y-53048390D02*
X101360589Y-53000771D01*
X101360589Y-53000771D02*
X101455827Y-52953152D01*
X101455827Y-52953152D02*
X101646303Y-52953152D01*
X101646303Y-52953152D02*
X101741541Y-53000771D01*
X102312970Y-53619819D02*
X102217732Y-53572200D01*
X102217732Y-53572200D02*
X102170113Y-53524580D01*
X102170113Y-53524580D02*
X102122494Y-53429342D01*
X102122494Y-53429342D02*
X102122494Y-53143628D01*
X102122494Y-53143628D02*
X102170113Y-53048390D01*
X102170113Y-53048390D02*
X102217732Y-53000771D01*
X102217732Y-53000771D02*
X102312970Y-52953152D01*
X102312970Y-52953152D02*
X102455827Y-52953152D01*
X102455827Y-52953152D02*
X102551065Y-53000771D01*
X102551065Y-53000771D02*
X102598684Y-53048390D01*
X102598684Y-53048390D02*
X102646303Y-53143628D01*
X102646303Y-53143628D02*
X102646303Y-53429342D01*
X102646303Y-53429342D02*
X102598684Y-53524580D01*
X102598684Y-53524580D02*
X102551065Y-53572200D01*
X102551065Y-53572200D02*
X102455827Y-53619819D01*
X102455827Y-53619819D02*
X102312970Y-53619819D01*
X103074875Y-53619819D02*
X103074875Y-52953152D01*
X103074875Y-53048390D02*
X103122494Y-53000771D01*
X103122494Y-53000771D02*
X103217732Y-52953152D01*
X103217732Y-52953152D02*
X103360589Y-52953152D01*
X103360589Y-52953152D02*
X103455827Y-53000771D01*
X103455827Y-53000771D02*
X103503446Y-53096009D01*
X103503446Y-53096009D02*
X103503446Y-53619819D01*
X103503446Y-53096009D02*
X103551065Y-53000771D01*
X103551065Y-53000771D02*
X103646303Y-52953152D01*
X103646303Y-52953152D02*
X103789160Y-52953152D01*
X103789160Y-52953152D02*
X103884399Y-53000771D01*
X103884399Y-53000771D02*
X103932018Y-53096009D01*
X103932018Y-53096009D02*
X103932018Y-53619819D01*
X105122493Y-52572200D02*
X104265351Y-53857914D01*
X105455827Y-52953152D02*
X105455827Y-53953152D01*
X105455827Y-53000771D02*
X105551065Y-52953152D01*
X105551065Y-52953152D02*
X105741541Y-52953152D01*
X105741541Y-52953152D02*
X105836779Y-53000771D01*
X105836779Y-53000771D02*
X105884398Y-53048390D01*
X105884398Y-53048390D02*
X105932017Y-53143628D01*
X105932017Y-53143628D02*
X105932017Y-53429342D01*
X105932017Y-53429342D02*
X105884398Y-53524580D01*
X105884398Y-53524580D02*
X105836779Y-53572200D01*
X105836779Y-53572200D02*
X105741541Y-53619819D01*
X105741541Y-53619819D02*
X105551065Y-53619819D01*
X105551065Y-53619819D02*
X105455827Y-53572200D01*
X106789160Y-53619819D02*
X106789160Y-53096009D01*
X106789160Y-53096009D02*
X106741541Y-53000771D01*
X106741541Y-53000771D02*
X106646303Y-52953152D01*
X106646303Y-52953152D02*
X106455827Y-52953152D01*
X106455827Y-52953152D02*
X106360589Y-53000771D01*
X106789160Y-53572200D02*
X106693922Y-53619819D01*
X106693922Y-53619819D02*
X106455827Y-53619819D01*
X106455827Y-53619819D02*
X106360589Y-53572200D01*
X106360589Y-53572200D02*
X106312970Y-53476961D01*
X106312970Y-53476961D02*
X106312970Y-53381723D01*
X106312970Y-53381723D02*
X106360589Y-53286485D01*
X106360589Y-53286485D02*
X106455827Y-53238866D01*
X106455827Y-53238866D02*
X106693922Y-53238866D01*
X106693922Y-53238866D02*
X106789160Y-53191247D01*
X107265351Y-52953152D02*
X107265351Y-53953152D01*
X107265351Y-53000771D02*
X107360589Y-52953152D01*
X107360589Y-52953152D02*
X107551065Y-52953152D01*
X107551065Y-52953152D02*
X107646303Y-53000771D01*
X107646303Y-53000771D02*
X107693922Y-53048390D01*
X107693922Y-53048390D02*
X107741541Y-53143628D01*
X107741541Y-53143628D02*
X107741541Y-53429342D01*
X107741541Y-53429342D02*
X107693922Y-53524580D01*
X107693922Y-53524580D02*
X107646303Y-53572200D01*
X107646303Y-53572200D02*
X107551065Y-53619819D01*
X107551065Y-53619819D02*
X107360589Y-53619819D01*
X107360589Y-53619819D02*
X107265351Y-53572200D01*
X108170113Y-52953152D02*
X108170113Y-53953152D01*
X108170113Y-53000771D02*
X108265351Y-52953152D01*
X108265351Y-52953152D02*
X108455827Y-52953152D01*
X108455827Y-52953152D02*
X108551065Y-53000771D01*
X108551065Y-53000771D02*
X108598684Y-53048390D01*
X108598684Y-53048390D02*
X108646303Y-53143628D01*
X108646303Y-53143628D02*
X108646303Y-53429342D01*
X108646303Y-53429342D02*
X108598684Y-53524580D01*
X108598684Y-53524580D02*
X108551065Y-53572200D01*
X108551065Y-53572200D02*
X108455827Y-53619819D01*
X108455827Y-53619819D02*
X108265351Y-53619819D01*
X108265351Y-53619819D02*
X108170113Y-53572200D01*
X109503446Y-53619819D02*
X109503446Y-53096009D01*
X109503446Y-53096009D02*
X109455827Y-53000771D01*
X109455827Y-53000771D02*
X109360589Y-52953152D01*
X109360589Y-52953152D02*
X109170113Y-52953152D01*
X109170113Y-52953152D02*
X109074875Y-53000771D01*
X109503446Y-53572200D02*
X109408208Y-53619819D01*
X109408208Y-53619819D02*
X109170113Y-53619819D01*
X109170113Y-53619819D02*
X109074875Y-53572200D01*
X109074875Y-53572200D02*
X109027256Y-53476961D01*
X109027256Y-53476961D02*
X109027256Y-53381723D01*
X109027256Y-53381723D02*
X109074875Y-53286485D01*
X109074875Y-53286485D02*
X109170113Y-53238866D01*
X109170113Y-53238866D02*
X109408208Y-53238866D01*
X109408208Y-53238866D02*
X109503446Y-53191247D01*
X109884399Y-52953152D02*
X110122494Y-53619819D01*
X110122494Y-53619819D02*
X110360589Y-52953152D01*
X110741542Y-53619819D02*
X110741542Y-52953152D01*
X110741542Y-52619819D02*
X110693923Y-52667438D01*
X110693923Y-52667438D02*
X110741542Y-52715057D01*
X110741542Y-52715057D02*
X110789161Y-52667438D01*
X110789161Y-52667438D02*
X110741542Y-52619819D01*
X110741542Y-52619819D02*
X110741542Y-52715057D01*
X111170113Y-53572200D02*
X111265351Y-53619819D01*
X111265351Y-53619819D02*
X111455827Y-53619819D01*
X111455827Y-53619819D02*
X111551065Y-53572200D01*
X111551065Y-53572200D02*
X111598684Y-53476961D01*
X111598684Y-53476961D02*
X111598684Y-53429342D01*
X111598684Y-53429342D02*
X111551065Y-53334104D01*
X111551065Y-53334104D02*
X111455827Y-53286485D01*
X111455827Y-53286485D02*
X111312970Y-53286485D01*
X111312970Y-53286485D02*
X111217732Y-53238866D01*
X111217732Y-53238866D02*
X111170113Y-53143628D01*
X111170113Y-53143628D02*
X111170113Y-53096009D01*
X111170113Y-53096009D02*
X111217732Y-53000771D01*
X111217732Y-53000771D02*
X111312970Y-52953152D01*
X111312970Y-52953152D02*
X111455827Y-52953152D01*
X111455827Y-52953152D02*
X111551065Y-53000771D01*
X112741541Y-52572200D02*
X111884399Y-53857914D01*
X113503446Y-53572200D02*
X113408208Y-53619819D01*
X113408208Y-53619819D02*
X113217732Y-53619819D01*
X113217732Y-53619819D02*
X113122494Y-53572200D01*
X113122494Y-53572200D02*
X113074875Y-53524580D01*
X113074875Y-53524580D02*
X113027256Y-53429342D01*
X113027256Y-53429342D02*
X113027256Y-53143628D01*
X113027256Y-53143628D02*
X113074875Y-53048390D01*
X113074875Y-53048390D02*
X113122494Y-53000771D01*
X113122494Y-53000771D02*
X113217732Y-52953152D01*
X113217732Y-52953152D02*
X113408208Y-52953152D01*
X113408208Y-52953152D02*
X113503446Y-53000771D01*
X114360589Y-52619819D02*
X114170113Y-52619819D01*
X114170113Y-52619819D02*
X114074875Y-52667438D01*
X114074875Y-52667438D02*
X114027256Y-52715057D01*
X114027256Y-52715057D02*
X113932018Y-52857914D01*
X113932018Y-52857914D02*
X113884399Y-53048390D01*
X113884399Y-53048390D02*
X113884399Y-53429342D01*
X113884399Y-53429342D02*
X113932018Y-53524580D01*
X113932018Y-53524580D02*
X113979637Y-53572200D01*
X113979637Y-53572200D02*
X114074875Y-53619819D01*
X114074875Y-53619819D02*
X114265351Y-53619819D01*
X114265351Y-53619819D02*
X114360589Y-53572200D01*
X114360589Y-53572200D02*
X114408208Y-53524580D01*
X114408208Y-53524580D02*
X114455827Y-53429342D01*
X114455827Y-53429342D02*
X114455827Y-53191247D01*
X114455827Y-53191247D02*
X114408208Y-53096009D01*
X114408208Y-53096009D02*
X114360589Y-53048390D01*
X114360589Y-53048390D02*
X114265351Y-53000771D01*
X114265351Y-53000771D02*
X114074875Y-53000771D01*
X114074875Y-53000771D02*
X113979637Y-53048390D01*
X113979637Y-53048390D02*
X113932018Y-53096009D01*
X113932018Y-53096009D02*
X113884399Y-53191247D01*
X115312970Y-52953152D02*
X115312970Y-53619819D01*
X115074875Y-52572200D02*
X114836780Y-53286485D01*
X114836780Y-53286485D02*
X115455827Y-53286485D01*
X115789161Y-53572200D02*
X115884399Y-53619819D01*
X115884399Y-53619819D02*
X116074875Y-53619819D01*
X116074875Y-53619819D02*
X116170113Y-53572200D01*
X116170113Y-53572200D02*
X116217732Y-53476961D01*
X116217732Y-53476961D02*
X116217732Y-53429342D01*
X116217732Y-53429342D02*
X116170113Y-53334104D01*
X116170113Y-53334104D02*
X116074875Y-53286485D01*
X116074875Y-53286485D02*
X115932018Y-53286485D01*
X115932018Y-53286485D02*
X115836780Y-53238866D01*
X115836780Y-53238866D02*
X115789161Y-53143628D01*
X115789161Y-53143628D02*
X115789161Y-53096009D01*
X115789161Y-53096009D02*
X115836780Y-53000771D01*
X115836780Y-53000771D02*
X115932018Y-52953152D01*
X115932018Y-52953152D02*
X116074875Y-52953152D01*
X116074875Y-52953152D02*
X116170113Y-53000771D01*
X116646304Y-53619819D02*
X116646304Y-52953152D01*
X116646304Y-52619819D02*
X116598685Y-52667438D01*
X116598685Y-52667438D02*
X116646304Y-52715057D01*
X116646304Y-52715057D02*
X116693923Y-52667438D01*
X116693923Y-52667438D02*
X116646304Y-52619819D01*
X116646304Y-52619819D02*
X116646304Y-52715057D01*
X117551065Y-53619819D02*
X117551065Y-52619819D01*
X117551065Y-53572200D02*
X117455827Y-53619819D01*
X117455827Y-53619819D02*
X117265351Y-53619819D01*
X117265351Y-53619819D02*
X117170113Y-53572200D01*
X117170113Y-53572200D02*
X117122494Y-53524580D01*
X117122494Y-53524580D02*
X117074875Y-53429342D01*
X117074875Y-53429342D02*
X117074875Y-53143628D01*
X117074875Y-53143628D02*
X117122494Y-53048390D01*
X117122494Y-53048390D02*
X117170113Y-53000771D01*
X117170113Y-53000771D02*
X117265351Y-52953152D01*
X117265351Y-52953152D02*
X117455827Y-52953152D01*
X117455827Y-52953152D02*
X117551065Y-53000771D01*
X117789161Y-53715057D02*
X118551065Y-53715057D01*
X118789161Y-53619819D02*
X118789161Y-52953152D01*
X118789161Y-52619819D02*
X118741542Y-52667438D01*
X118741542Y-52667438D02*
X118789161Y-52715057D01*
X118789161Y-52715057D02*
X118836780Y-52667438D01*
X118836780Y-52667438D02*
X118789161Y-52619819D01*
X118789161Y-52619819D02*
X118789161Y-52715057D01*
X119217732Y-52715057D02*
X119265351Y-52667438D01*
X119265351Y-52667438D02*
X119360589Y-52619819D01*
X119360589Y-52619819D02*
X119598684Y-52619819D01*
X119598684Y-52619819D02*
X119693922Y-52667438D01*
X119693922Y-52667438D02*
X119741541Y-52715057D01*
X119741541Y-52715057D02*
X119789160Y-52810295D01*
X119789160Y-52810295D02*
X119789160Y-52905533D01*
X119789160Y-52905533D02*
X119741541Y-53048390D01*
X119741541Y-53048390D02*
X119170113Y-53619819D01*
X119170113Y-53619819D02*
X119789160Y-53619819D01*
X120646303Y-53572200D02*
X120551065Y-53619819D01*
X120551065Y-53619819D02*
X120360589Y-53619819D01*
X120360589Y-53619819D02*
X120265351Y-53572200D01*
X120265351Y-53572200D02*
X120217732Y-53524580D01*
X120217732Y-53524580D02*
X120170113Y-53429342D01*
X120170113Y-53429342D02*
X120170113Y-53143628D01*
X120170113Y-53143628D02*
X120217732Y-53048390D01*
X120217732Y-53048390D02*
X120265351Y-53000771D01*
X120265351Y-53000771D02*
X120360589Y-52953152D01*
X120360589Y-52953152D02*
X120551065Y-52953152D01*
X120551065Y-52953152D02*
X120646303Y-53000771D01*
X118662969Y-103869819D02*
X118186779Y-103869819D01*
X118186779Y-103869819D02*
X118186779Y-102869819D01*
X118996303Y-103869819D02*
X118996303Y-102869819D01*
X118996303Y-102869819D02*
X119329636Y-103584104D01*
X119329636Y-103584104D02*
X119662969Y-102869819D01*
X119662969Y-102869819D02*
X119662969Y-103869819D01*
X120043922Y-102869819D02*
X120662969Y-102869819D01*
X120662969Y-102869819D02*
X120329636Y-103250771D01*
X120329636Y-103250771D02*
X120472493Y-103250771D01*
X120472493Y-103250771D02*
X120567731Y-103298390D01*
X120567731Y-103298390D02*
X120615350Y-103346009D01*
X120615350Y-103346009D02*
X120662969Y-103441247D01*
X120662969Y-103441247D02*
X120662969Y-103679342D01*
X120662969Y-103679342D02*
X120615350Y-103774580D01*
X120615350Y-103774580D02*
X120567731Y-103822200D01*
X120567731Y-103822200D02*
X120472493Y-103869819D01*
X120472493Y-103869819D02*
X120186779Y-103869819D01*
X120186779Y-103869819D02*
X120091541Y-103822200D01*
X120091541Y-103822200D02*
X120043922Y-103774580D01*
X121234398Y-103298390D02*
X121139160Y-103250771D01*
X121139160Y-103250771D02*
X121091541Y-103203152D01*
X121091541Y-103203152D02*
X121043922Y-103107914D01*
X121043922Y-103107914D02*
X121043922Y-103060295D01*
X121043922Y-103060295D02*
X121091541Y-102965057D01*
X121091541Y-102965057D02*
X121139160Y-102917438D01*
X121139160Y-102917438D02*
X121234398Y-102869819D01*
X121234398Y-102869819D02*
X121424874Y-102869819D01*
X121424874Y-102869819D02*
X121520112Y-102917438D01*
X121520112Y-102917438D02*
X121567731Y-102965057D01*
X121567731Y-102965057D02*
X121615350Y-103060295D01*
X121615350Y-103060295D02*
X121615350Y-103107914D01*
X121615350Y-103107914D02*
X121567731Y-103203152D01*
X121567731Y-103203152D02*
X121520112Y-103250771D01*
X121520112Y-103250771D02*
X121424874Y-103298390D01*
X121424874Y-103298390D02*
X121234398Y-103298390D01*
X121234398Y-103298390D02*
X121139160Y-103346009D01*
X121139160Y-103346009D02*
X121091541Y-103393628D01*
X121091541Y-103393628D02*
X121043922Y-103488866D01*
X121043922Y-103488866D02*
X121043922Y-103679342D01*
X121043922Y-103679342D02*
X121091541Y-103774580D01*
X121091541Y-103774580D02*
X121139160Y-103822200D01*
X121139160Y-103822200D02*
X121234398Y-103869819D01*
X121234398Y-103869819D02*
X121424874Y-103869819D01*
X121424874Y-103869819D02*
X121520112Y-103822200D01*
X121520112Y-103822200D02*
X121567731Y-103774580D01*
X121567731Y-103774580D02*
X121615350Y-103679342D01*
X121615350Y-103679342D02*
X121615350Y-103488866D01*
X121615350Y-103488866D02*
X121567731Y-103393628D01*
X121567731Y-103393628D02*
X121520112Y-103346009D01*
X121520112Y-103346009D02*
X121424874Y-103298390D01*
X122472493Y-102869819D02*
X122282017Y-102869819D01*
X122282017Y-102869819D02*
X122186779Y-102917438D01*
X122186779Y-102917438D02*
X122139160Y-102965057D01*
X122139160Y-102965057D02*
X122043922Y-103107914D01*
X122043922Y-103107914D02*
X121996303Y-103298390D01*
X121996303Y-103298390D02*
X121996303Y-103679342D01*
X121996303Y-103679342D02*
X122043922Y-103774580D01*
X122043922Y-103774580D02*
X122091541Y-103822200D01*
X122091541Y-103822200D02*
X122186779Y-103869819D01*
X122186779Y-103869819D02*
X122377255Y-103869819D01*
X122377255Y-103869819D02*
X122472493Y-103822200D01*
X122472493Y-103822200D02*
X122520112Y-103774580D01*
X122520112Y-103774580D02*
X122567731Y-103679342D01*
X122567731Y-103679342D02*
X122567731Y-103441247D01*
X122567731Y-103441247D02*
X122520112Y-103346009D01*
X122520112Y-103346009D02*
X122472493Y-103298390D01*
X122472493Y-103298390D02*
X122377255Y-103250771D01*
X122377255Y-103250771D02*
X122186779Y-103250771D01*
X122186779Y-103250771D02*
X122091541Y-103298390D01*
X122091541Y-103298390D02*
X122043922Y-103346009D01*
X122043922Y-103346009D02*
X121996303Y-103441247D01*
X98593922Y-90969819D02*
X99165350Y-90969819D01*
X98879636Y-91969819D02*
X98879636Y-90969819D01*
X120736779Y-70969819D02*
X120736779Y-69969819D01*
X120736779Y-69969819D02*
X121070112Y-70684104D01*
X121070112Y-70684104D02*
X121403445Y-69969819D01*
X121403445Y-69969819D02*
X121403445Y-70969819D01*
X122070112Y-69969819D02*
X122260588Y-69969819D01*
X122260588Y-69969819D02*
X122355826Y-70017438D01*
X122355826Y-70017438D02*
X122451064Y-70112676D01*
X122451064Y-70112676D02*
X122498683Y-70303152D01*
X122498683Y-70303152D02*
X122498683Y-70636485D01*
X122498683Y-70636485D02*
X122451064Y-70826961D01*
X122451064Y-70826961D02*
X122355826Y-70922200D01*
X122355826Y-70922200D02*
X122260588Y-70969819D01*
X122260588Y-70969819D02*
X122070112Y-70969819D01*
X122070112Y-70969819D02*
X121974874Y-70922200D01*
X121974874Y-70922200D02*
X121879636Y-70826961D01*
X121879636Y-70826961D02*
X121832017Y-70636485D01*
X121832017Y-70636485D02*
X121832017Y-70303152D01*
X121832017Y-70303152D02*
X121879636Y-70112676D01*
X121879636Y-70112676D02*
X121974874Y-70017438D01*
X121974874Y-70017438D02*
X122070112Y-69969819D01*
X122879636Y-70922200D02*
X123022493Y-70969819D01*
X123022493Y-70969819D02*
X123260588Y-70969819D01*
X123260588Y-70969819D02*
X123355826Y-70922200D01*
X123355826Y-70922200D02*
X123403445Y-70874580D01*
X123403445Y-70874580D02*
X123451064Y-70779342D01*
X123451064Y-70779342D02*
X123451064Y-70684104D01*
X123451064Y-70684104D02*
X123403445Y-70588866D01*
X123403445Y-70588866D02*
X123355826Y-70541247D01*
X123355826Y-70541247D02*
X123260588Y-70493628D01*
X123260588Y-70493628D02*
X123070112Y-70446009D01*
X123070112Y-70446009D02*
X122974874Y-70398390D01*
X122974874Y-70398390D02*
X122927255Y-70350771D01*
X122927255Y-70350771D02*
X122879636Y-70255533D01*
X122879636Y-70255533D02*
X122879636Y-70160295D01*
X122879636Y-70160295D02*
X122927255Y-70065057D01*
X122927255Y-70065057D02*
X122974874Y-70017438D01*
X122974874Y-70017438D02*
X123070112Y-69969819D01*
X123070112Y-69969819D02*
X123308207Y-69969819D01*
X123308207Y-69969819D02*
X123451064Y-70017438D01*
X124308207Y-69969819D02*
X124117731Y-69969819D01*
X124117731Y-69969819D02*
X124022493Y-70017438D01*
X124022493Y-70017438D02*
X123974874Y-70065057D01*
X123974874Y-70065057D02*
X123879636Y-70207914D01*
X123879636Y-70207914D02*
X123832017Y-70398390D01*
X123832017Y-70398390D02*
X123832017Y-70779342D01*
X123832017Y-70779342D02*
X123879636Y-70874580D01*
X123879636Y-70874580D02*
X123927255Y-70922200D01*
X123927255Y-70922200D02*
X124022493Y-70969819D01*
X124022493Y-70969819D02*
X124212969Y-70969819D01*
X124212969Y-70969819D02*
X124308207Y-70922200D01*
X124308207Y-70922200D02*
X124355826Y-70874580D01*
X124355826Y-70874580D02*
X124403445Y-70779342D01*
X124403445Y-70779342D02*
X124403445Y-70541247D01*
X124403445Y-70541247D02*
X124355826Y-70446009D01*
X124355826Y-70446009D02*
X124308207Y-70398390D01*
X124308207Y-70398390D02*
X124212969Y-70350771D01*
X124212969Y-70350771D02*
X124022493Y-70350771D01*
X124022493Y-70350771D02*
X123927255Y-70398390D01*
X123927255Y-70398390D02*
X123879636Y-70446009D01*
X123879636Y-70446009D02*
X123832017Y-70541247D01*
X125308207Y-69969819D02*
X124832017Y-69969819D01*
X124832017Y-69969819D02*
X124784398Y-70446009D01*
X124784398Y-70446009D02*
X124832017Y-70398390D01*
X124832017Y-70398390D02*
X124927255Y-70350771D01*
X124927255Y-70350771D02*
X125165350Y-70350771D01*
X125165350Y-70350771D02*
X125260588Y-70398390D01*
X125260588Y-70398390D02*
X125308207Y-70446009D01*
X125308207Y-70446009D02*
X125355826Y-70541247D01*
X125355826Y-70541247D02*
X125355826Y-70779342D01*
X125355826Y-70779342D02*
X125308207Y-70874580D01*
X125308207Y-70874580D02*
X125260588Y-70922200D01*
X125260588Y-70922200D02*
X125165350Y-70969819D01*
X125165350Y-70969819D02*
X124927255Y-70969819D01*
X124927255Y-70969819D02*
X124832017Y-70922200D01*
X124832017Y-70922200D02*
X124784398Y-70874580D01*
X125927255Y-70398390D02*
X125832017Y-70350771D01*
X125832017Y-70350771D02*
X125784398Y-70303152D01*
X125784398Y-70303152D02*
X125736779Y-70207914D01*
X125736779Y-70207914D02*
X125736779Y-70160295D01*
X125736779Y-70160295D02*
X125784398Y-70065057D01*
X125784398Y-70065057D02*
X125832017Y-70017438D01*
X125832017Y-70017438D02*
X125927255Y-69969819D01*
X125927255Y-69969819D02*
X126117731Y-69969819D01*
X126117731Y-69969819D02*
X126212969Y-70017438D01*
X126212969Y-70017438D02*
X126260588Y-70065057D01*
X126260588Y-70065057D02*
X126308207Y-70160295D01*
X126308207Y-70160295D02*
X126308207Y-70207914D01*
X126308207Y-70207914D02*
X126260588Y-70303152D01*
X126260588Y-70303152D02*
X126212969Y-70350771D01*
X126212969Y-70350771D02*
X126117731Y-70398390D01*
X126117731Y-70398390D02*
X125927255Y-70398390D01*
X125927255Y-70398390D02*
X125832017Y-70446009D01*
X125832017Y-70446009D02*
X125784398Y-70493628D01*
X125784398Y-70493628D02*
X125736779Y-70588866D01*
X125736779Y-70588866D02*
X125736779Y-70779342D01*
X125736779Y-70779342D02*
X125784398Y-70874580D01*
X125784398Y-70874580D02*
X125832017Y-70922200D01*
X125832017Y-70922200D02*
X125927255Y-70969819D01*
X125927255Y-70969819D02*
X126117731Y-70969819D01*
X126117731Y-70969819D02*
X126212969Y-70922200D01*
X126212969Y-70922200D02*
X126260588Y-70874580D01*
X126260588Y-70874580D02*
X126308207Y-70779342D01*
X126308207Y-70779342D02*
X126308207Y-70588866D01*
X126308207Y-70588866D02*
X126260588Y-70493628D01*
X126260588Y-70493628D02*
X126212969Y-70446009D01*
X126212969Y-70446009D02*
X126117731Y-70398390D01*
X127260588Y-70969819D02*
X126689160Y-70969819D01*
X126974874Y-70969819D02*
X126974874Y-69969819D01*
X126974874Y-69969819D02*
X126879636Y-70112676D01*
X126879636Y-70112676D02*
X126784398Y-70207914D01*
X126784398Y-70207914D02*
X126689160Y-70255533D01*
X128403446Y-70922200D02*
X128546303Y-70969819D01*
X128546303Y-70969819D02*
X128784398Y-70969819D01*
X128784398Y-70969819D02*
X128879636Y-70922200D01*
X128879636Y-70922200D02*
X128927255Y-70874580D01*
X128927255Y-70874580D02*
X128974874Y-70779342D01*
X128974874Y-70779342D02*
X128974874Y-70684104D01*
X128974874Y-70684104D02*
X128927255Y-70588866D01*
X128927255Y-70588866D02*
X128879636Y-70541247D01*
X128879636Y-70541247D02*
X128784398Y-70493628D01*
X128784398Y-70493628D02*
X128593922Y-70446009D01*
X128593922Y-70446009D02*
X128498684Y-70398390D01*
X128498684Y-70398390D02*
X128451065Y-70350771D01*
X128451065Y-70350771D02*
X128403446Y-70255533D01*
X128403446Y-70255533D02*
X128403446Y-70160295D01*
X128403446Y-70160295D02*
X128451065Y-70065057D01*
X128451065Y-70065057D02*
X128498684Y-70017438D01*
X128498684Y-70017438D02*
X128593922Y-69969819D01*
X128593922Y-69969819D02*
X128832017Y-69969819D01*
X128832017Y-69969819D02*
X128974874Y-70017438D01*
X129403446Y-70969819D02*
X129403446Y-69969819D01*
X129879636Y-70969819D02*
X129879636Y-69969819D01*
X129879636Y-69969819D02*
X130117731Y-69969819D01*
X130117731Y-69969819D02*
X130260588Y-70017438D01*
X130260588Y-70017438D02*
X130355826Y-70112676D01*
X130355826Y-70112676D02*
X130403445Y-70207914D01*
X130403445Y-70207914D02*
X130451064Y-70398390D01*
X130451064Y-70398390D02*
X130451064Y-70541247D01*
X130451064Y-70541247D02*
X130403445Y-70731723D01*
X130403445Y-70731723D02*
X130355826Y-70826961D01*
X130355826Y-70826961D02*
X130260588Y-70922200D01*
X130260588Y-70922200D02*
X130117731Y-70969819D01*
X130117731Y-70969819D02*
X129879636Y-70969819D01*
D10*
G36*
X110891448Y-77671971D02*
G01*
X110923856Y-77688176D01*
X110953873Y-77718192D01*
X110969809Y-77766000D01*
X110969809Y-77812406D01*
X110594809Y-77812406D01*
X110594809Y-77766002D01*
X110610746Y-77718190D01*
X110640761Y-77688175D01*
X110673169Y-77671971D01*
X110754289Y-77651692D01*
X110810329Y-77651692D01*
X110891448Y-77671971D01*
G37*
G36*
X111166238Y-79056454D02*
G01*
X110398380Y-79056454D01*
X110398380Y-78755859D01*
X110469809Y-78755859D01*
X110473745Y-78765361D01*
X110473016Y-78775624D01*
X110496826Y-78847052D01*
X110506358Y-78858042D01*
X110511925Y-78871481D01*
X110559544Y-78919100D01*
X110569047Y-78923036D01*
X110575787Y-78930807D01*
X110623406Y-78954618D01*
X110630492Y-78955121D01*
X110636199Y-78959350D01*
X110731437Y-78983159D01*
X110739274Y-78981992D01*
X110746595Y-78985025D01*
X110818023Y-78985025D01*
X110825343Y-78981992D01*
X110833181Y-78983159D01*
X110928419Y-78959350D01*
X110934127Y-78955120D01*
X110941212Y-78954617D01*
X110988831Y-78930807D01*
X110995569Y-78923037D01*
X111005074Y-78919101D01*
X111052694Y-78871482D01*
X111058261Y-78858040D01*
X111067793Y-78847051D01*
X111091602Y-78775623D01*
X111090872Y-78765362D01*
X111094809Y-78755859D01*
X111094809Y-78708240D01*
X111090872Y-78698736D01*
X111091602Y-78688477D01*
X111067793Y-78617047D01*
X111058260Y-78606056D01*
X111052693Y-78592616D01*
X111028883Y-78568807D01*
X111002995Y-78558084D01*
X110984690Y-78550502D01*
X110818023Y-78550502D01*
X110773829Y-78568808D01*
X110755523Y-78613002D01*
X110755523Y-78708240D01*
X110773829Y-78752434D01*
X110818023Y-78770740D01*
X110862217Y-78752434D01*
X110880523Y-78708240D01*
X110880523Y-78675502D01*
X110955516Y-78675502D01*
X110969809Y-78718382D01*
X110969809Y-78745716D01*
X110953873Y-78793524D01*
X110923856Y-78823540D01*
X110891448Y-78839745D01*
X110810329Y-78860025D01*
X110754289Y-78860025D01*
X110673169Y-78839745D01*
X110640761Y-78823541D01*
X110610746Y-78793526D01*
X110594809Y-78745714D01*
X110594809Y-78699183D01*
X110612021Y-78664762D01*
X110615412Y-78617047D01*
X110584070Y-78580909D01*
X110536355Y-78577518D01*
X110500218Y-78608860D01*
X110476408Y-78656479D01*
X110475376Y-78670989D01*
X110469809Y-78684430D01*
X110469809Y-78755859D01*
X110398380Y-78755859D01*
X110398380Y-78398716D01*
X110469809Y-78398716D01*
X110476003Y-78413669D01*
X110478044Y-78429725D01*
X110484830Y-78434980D01*
X110488115Y-78442910D01*
X110503068Y-78449103D01*
X110515864Y-78459013D01*
X110524377Y-78457930D01*
X110532309Y-78461216D01*
X111032309Y-78461216D01*
X111076503Y-78442910D01*
X111094809Y-78398716D01*
X111076503Y-78354522D01*
X111032309Y-78336216D01*
X110767657Y-78336216D01*
X111063317Y-78167267D01*
X111068572Y-78160481D01*
X111076503Y-78157196D01*
X111082697Y-78142241D01*
X111092606Y-78129447D01*
X111091523Y-78120933D01*
X111094809Y-78113002D01*
X111088614Y-78098047D01*
X111086574Y-78081994D01*
X111079788Y-78076738D01*
X111076503Y-78068808D01*
X111061547Y-78062613D01*
X111048753Y-78052705D01*
X111040239Y-78053787D01*
X111032309Y-78050502D01*
X110532309Y-78050502D01*
X110488115Y-78068808D01*
X110469809Y-78113002D01*
X110488115Y-78157196D01*
X110532309Y-78175502D01*
X110796961Y-78175502D01*
X110501300Y-78344451D01*
X110496044Y-78351237D01*
X110488115Y-78354522D01*
X110481921Y-78369475D01*
X110472012Y-78382271D01*
X110473094Y-78390784D01*
X110469809Y-78398716D01*
X110398380Y-78398716D01*
X110398380Y-77874906D01*
X110469809Y-77874906D01*
X110488115Y-77919100D01*
X110532309Y-77937406D01*
X111032309Y-77937406D01*
X111076503Y-77919100D01*
X111094809Y-77874906D01*
X111094809Y-77755858D01*
X111090872Y-77746354D01*
X111091602Y-77736094D01*
X111067793Y-77664666D01*
X111058261Y-77653676D01*
X111052694Y-77640235D01*
X111005074Y-77592616D01*
X110995569Y-77588679D01*
X110988831Y-77580910D01*
X110941212Y-77557100D01*
X110934127Y-77556596D01*
X110928419Y-77552367D01*
X110833181Y-77528558D01*
X110825343Y-77529724D01*
X110818023Y-77526692D01*
X110746595Y-77526692D01*
X110739274Y-77529724D01*
X110731437Y-77528558D01*
X110636199Y-77552367D01*
X110630492Y-77556595D01*
X110623406Y-77557099D01*
X110575787Y-77580910D01*
X110569047Y-77588680D01*
X110559544Y-77592617D01*
X110511925Y-77640236D01*
X110506358Y-77653674D01*
X110496826Y-77664665D01*
X110473016Y-77736093D01*
X110473745Y-77746355D01*
X110469809Y-77755858D01*
X110469809Y-77874905D01*
X110469809Y-77874906D01*
X110398380Y-77874906D01*
X110398380Y-77455263D01*
X111166238Y-77455263D01*
X111166238Y-79056454D01*
G37*
D11*
X93689160Y-100122200D02*
X93832017Y-100169819D01*
X93832017Y-100169819D02*
X94070112Y-100169819D01*
X94070112Y-100169819D02*
X94165350Y-100122200D01*
X94165350Y-100122200D02*
X94212969Y-100074580D01*
X94212969Y-100074580D02*
X94260588Y-99979342D01*
X94260588Y-99979342D02*
X94260588Y-99884104D01*
X94260588Y-99884104D02*
X94212969Y-99788866D01*
X94212969Y-99788866D02*
X94165350Y-99741247D01*
X94165350Y-99741247D02*
X94070112Y-99693628D01*
X94070112Y-99693628D02*
X93879636Y-99646009D01*
X93879636Y-99646009D02*
X93784398Y-99598390D01*
X93784398Y-99598390D02*
X93736779Y-99550771D01*
X93736779Y-99550771D02*
X93689160Y-99455533D01*
X93689160Y-99455533D02*
X93689160Y-99360295D01*
X93689160Y-99360295D02*
X93736779Y-99265057D01*
X93736779Y-99265057D02*
X93784398Y-99217438D01*
X93784398Y-99217438D02*
X93879636Y-99169819D01*
X93879636Y-99169819D02*
X94117731Y-99169819D01*
X94117731Y-99169819D02*
X94260588Y-99217438D01*
X89108207Y-92069819D02*
X88774874Y-91593628D01*
X88536779Y-92069819D02*
X88536779Y-91069819D01*
X88536779Y-91069819D02*
X88917731Y-91069819D01*
X88917731Y-91069819D02*
X89012969Y-91117438D01*
X89012969Y-91117438D02*
X89060588Y-91165057D01*
X89060588Y-91165057D02*
X89108207Y-91260295D01*
X89108207Y-91260295D02*
X89108207Y-91403152D01*
X89108207Y-91403152D02*
X89060588Y-91498390D01*
X89060588Y-91498390D02*
X89012969Y-91546009D01*
X89012969Y-91546009D02*
X88917731Y-91593628D01*
X88917731Y-91593628D02*
X88536779Y-91593628D01*
D10*
X152832309Y-77920144D02*
X153332309Y-77753478D01*
X153332309Y-77753478D02*
X152832309Y-77586811D01*
X153284690Y-77134431D02*
X153308500Y-77158240D01*
X153308500Y-77158240D02*
X153332309Y-77229669D01*
X153332309Y-77229669D02*
X153332309Y-77277288D01*
X153332309Y-77277288D02*
X153308500Y-77348716D01*
X153308500Y-77348716D02*
X153260880Y-77396335D01*
X153260880Y-77396335D02*
X153213261Y-77420145D01*
X153213261Y-77420145D02*
X153118023Y-77443954D01*
X153118023Y-77443954D02*
X153046595Y-77443954D01*
X153046595Y-77443954D02*
X152951357Y-77420145D01*
X152951357Y-77420145D02*
X152903738Y-77396335D01*
X152903738Y-77396335D02*
X152856119Y-77348716D01*
X152856119Y-77348716D02*
X152832309Y-77277288D01*
X152832309Y-77277288D02*
X152832309Y-77229669D01*
X152832309Y-77229669D02*
X152856119Y-77158240D01*
X152856119Y-77158240D02*
X152879928Y-77134431D01*
X153284690Y-76634431D02*
X153308500Y-76658240D01*
X153308500Y-76658240D02*
X153332309Y-76729669D01*
X153332309Y-76729669D02*
X153332309Y-76777288D01*
X153332309Y-76777288D02*
X153308500Y-76848716D01*
X153308500Y-76848716D02*
X153260880Y-76896335D01*
X153260880Y-76896335D02*
X153213261Y-76920145D01*
X153213261Y-76920145D02*
X153118023Y-76943954D01*
X153118023Y-76943954D02*
X153046595Y-76943954D01*
X153046595Y-76943954D02*
X152951357Y-76920145D01*
X152951357Y-76920145D02*
X152903738Y-76896335D01*
X152903738Y-76896335D02*
X152856119Y-76848716D01*
X152856119Y-76848716D02*
X152832309Y-76777288D01*
X152832309Y-76777288D02*
X152832309Y-76729669D01*
X152832309Y-76729669D02*
X152856119Y-76658240D01*
X152856119Y-76658240D02*
X152879928Y-76634431D01*
X165458500Y-86572525D02*
X165482309Y-86501097D01*
X165482309Y-86501097D02*
X165482309Y-86382049D01*
X165482309Y-86382049D02*
X165458500Y-86334430D01*
X165458500Y-86334430D02*
X165434690Y-86310621D01*
X165434690Y-86310621D02*
X165387071Y-86286811D01*
X165387071Y-86286811D02*
X165339452Y-86286811D01*
X165339452Y-86286811D02*
X165291833Y-86310621D01*
X165291833Y-86310621D02*
X165268023Y-86334430D01*
X165268023Y-86334430D02*
X165244214Y-86382049D01*
X165244214Y-86382049D02*
X165220404Y-86477287D01*
X165220404Y-86477287D02*
X165196595Y-86524906D01*
X165196595Y-86524906D02*
X165172785Y-86548716D01*
X165172785Y-86548716D02*
X165125166Y-86572525D01*
X165125166Y-86572525D02*
X165077547Y-86572525D01*
X165077547Y-86572525D02*
X165029928Y-86548716D01*
X165029928Y-86548716D02*
X165006119Y-86524906D01*
X165006119Y-86524906D02*
X164982309Y-86477287D01*
X164982309Y-86477287D02*
X164982309Y-86358240D01*
X164982309Y-86358240D02*
X165006119Y-86286811D01*
X165482309Y-86072526D02*
X164982309Y-86072526D01*
X164982309Y-86072526D02*
X164982309Y-85953478D01*
X164982309Y-85953478D02*
X165006119Y-85882050D01*
X165006119Y-85882050D02*
X165053738Y-85834431D01*
X165053738Y-85834431D02*
X165101357Y-85810621D01*
X165101357Y-85810621D02*
X165196595Y-85786812D01*
X165196595Y-85786812D02*
X165268023Y-85786812D01*
X165268023Y-85786812D02*
X165363261Y-85810621D01*
X165363261Y-85810621D02*
X165410880Y-85834431D01*
X165410880Y-85834431D02*
X165458500Y-85882050D01*
X165458500Y-85882050D02*
X165482309Y-85953478D01*
X165482309Y-85953478D02*
X165482309Y-86072526D01*
X165339452Y-85596335D02*
X165339452Y-85358240D01*
X165482309Y-85643954D02*
X164982309Y-85477288D01*
X164982309Y-85477288D02*
X165482309Y-85310621D01*
X153282309Y-58320144D02*
X153782309Y-58153478D01*
X153782309Y-58153478D02*
X153282309Y-57986811D01*
X153734690Y-57534431D02*
X153758500Y-57558240D01*
X153758500Y-57558240D02*
X153782309Y-57629669D01*
X153782309Y-57629669D02*
X153782309Y-57677288D01*
X153782309Y-57677288D02*
X153758500Y-57748716D01*
X153758500Y-57748716D02*
X153710880Y-57796335D01*
X153710880Y-57796335D02*
X153663261Y-57820145D01*
X153663261Y-57820145D02*
X153568023Y-57843954D01*
X153568023Y-57843954D02*
X153496595Y-57843954D01*
X153496595Y-57843954D02*
X153401357Y-57820145D01*
X153401357Y-57820145D02*
X153353738Y-57796335D01*
X153353738Y-57796335D02*
X153306119Y-57748716D01*
X153306119Y-57748716D02*
X153282309Y-57677288D01*
X153282309Y-57677288D02*
X153282309Y-57629669D01*
X153282309Y-57629669D02*
X153306119Y-57558240D01*
X153306119Y-57558240D02*
X153329928Y-57534431D01*
X153734690Y-57034431D02*
X153758500Y-57058240D01*
X153758500Y-57058240D02*
X153782309Y-57129669D01*
X153782309Y-57129669D02*
X153782309Y-57177288D01*
X153782309Y-57177288D02*
X153758500Y-57248716D01*
X153758500Y-57248716D02*
X153710880Y-57296335D01*
X153710880Y-57296335D02*
X153663261Y-57320145D01*
X153663261Y-57320145D02*
X153568023Y-57343954D01*
X153568023Y-57343954D02*
X153496595Y-57343954D01*
X153496595Y-57343954D02*
X153401357Y-57320145D01*
X153401357Y-57320145D02*
X153353738Y-57296335D01*
X153353738Y-57296335D02*
X153306119Y-57248716D01*
X153306119Y-57248716D02*
X153282309Y-57177288D01*
X153282309Y-57177288D02*
X153282309Y-57129669D01*
X153282309Y-57129669D02*
X153306119Y-57058240D01*
X153306119Y-57058240D02*
X153329928Y-57034431D01*
X144477474Y-100089452D02*
X144715569Y-100089452D01*
X144429855Y-100232309D02*
X144596521Y-99732309D01*
X144596521Y-99732309D02*
X144763188Y-100232309D01*
X145144140Y-99898976D02*
X145144140Y-100232309D01*
X144929854Y-99898976D02*
X144929854Y-100160880D01*
X144929854Y-100160880D02*
X144953664Y-100208500D01*
X144953664Y-100208500D02*
X145001283Y-100232309D01*
X145001283Y-100232309D02*
X145072711Y-100232309D01*
X145072711Y-100232309D02*
X145120330Y-100208500D01*
X145120330Y-100208500D02*
X145144140Y-100184690D01*
X145596521Y-100232309D02*
X145596521Y-99732309D01*
X145596521Y-100208500D02*
X145548902Y-100232309D01*
X145548902Y-100232309D02*
X145453664Y-100232309D01*
X145453664Y-100232309D02*
X145406045Y-100208500D01*
X145406045Y-100208500D02*
X145382235Y-100184690D01*
X145382235Y-100184690D02*
X145358426Y-100137071D01*
X145358426Y-100137071D02*
X145358426Y-99994214D01*
X145358426Y-99994214D02*
X145382235Y-99946595D01*
X145382235Y-99946595D02*
X145406045Y-99922785D01*
X145406045Y-99922785D02*
X145453664Y-99898976D01*
X145453664Y-99898976D02*
X145548902Y-99898976D01*
X145548902Y-99898976D02*
X145596521Y-99922785D01*
X145834616Y-100232309D02*
X145834616Y-99898976D01*
X145834616Y-99732309D02*
X145810807Y-99756119D01*
X145810807Y-99756119D02*
X145834616Y-99779928D01*
X145834616Y-99779928D02*
X145858426Y-99756119D01*
X145858426Y-99756119D02*
X145834616Y-99732309D01*
X145834616Y-99732309D02*
X145834616Y-99779928D01*
X146144140Y-100232309D02*
X146096521Y-100208500D01*
X146096521Y-100208500D02*
X146072711Y-100184690D01*
X146072711Y-100184690D02*
X146048902Y-100137071D01*
X146048902Y-100137071D02*
X146048902Y-99994214D01*
X146048902Y-99994214D02*
X146072711Y-99946595D01*
X146072711Y-99946595D02*
X146096521Y-99922785D01*
X146096521Y-99922785D02*
X146144140Y-99898976D01*
X146144140Y-99898976D02*
X146215568Y-99898976D01*
X146215568Y-99898976D02*
X146263187Y-99922785D01*
X146263187Y-99922785D02*
X146286997Y-99946595D01*
X146286997Y-99946595D02*
X146310806Y-99994214D01*
X146310806Y-99994214D02*
X146310806Y-100137071D01*
X146310806Y-100137071D02*
X146286997Y-100184690D01*
X146286997Y-100184690D02*
X146263187Y-100208500D01*
X146263187Y-100208500D02*
X146215568Y-100232309D01*
X146215568Y-100232309D02*
X146144140Y-100232309D01*
X147144139Y-100232309D02*
X146906044Y-100232309D01*
X146906044Y-100232309D02*
X146906044Y-99732309D01*
X147310806Y-100041833D02*
X147691759Y-100041833D01*
X148215568Y-100232309D02*
X148048902Y-99994214D01*
X147929854Y-100232309D02*
X147929854Y-99732309D01*
X147929854Y-99732309D02*
X148120330Y-99732309D01*
X148120330Y-99732309D02*
X148167949Y-99756119D01*
X148167949Y-99756119D02*
X148191759Y-99779928D01*
X148191759Y-99779928D02*
X148215568Y-99827547D01*
X148215568Y-99827547D02*
X148215568Y-99898976D01*
X148215568Y-99898976D02*
X148191759Y-99946595D01*
X148191759Y-99946595D02*
X148167949Y-99970404D01*
X148167949Y-99970404D02*
X148120330Y-99994214D01*
X148120330Y-99994214D02*
X147929854Y-99994214D01*
G36*
X152041448Y-87971971D02*
G01*
X152073856Y-87988176D01*
X152103873Y-88018192D01*
X152119809Y-88066000D01*
X152119809Y-88112406D01*
X151744809Y-88112406D01*
X151744809Y-88066002D01*
X151760746Y-88018190D01*
X151790761Y-87988175D01*
X151823169Y-87971971D01*
X151904289Y-87951692D01*
X151960329Y-87951692D01*
X152041448Y-87971971D01*
G37*
G36*
X152316238Y-89356454D02*
G01*
X151548380Y-89356454D01*
X151548380Y-89055859D01*
X151619809Y-89055859D01*
X151623745Y-89065361D01*
X151623016Y-89075624D01*
X151646826Y-89147052D01*
X151656358Y-89158042D01*
X151661925Y-89171481D01*
X151709544Y-89219100D01*
X151719047Y-89223036D01*
X151725787Y-89230807D01*
X151773406Y-89254618D01*
X151780492Y-89255121D01*
X151786199Y-89259350D01*
X151881437Y-89283159D01*
X151889274Y-89281992D01*
X151896595Y-89285025D01*
X151968023Y-89285025D01*
X151975343Y-89281992D01*
X151983181Y-89283159D01*
X152078419Y-89259350D01*
X152084127Y-89255120D01*
X152091212Y-89254617D01*
X152138831Y-89230807D01*
X152145569Y-89223037D01*
X152155074Y-89219101D01*
X152202694Y-89171482D01*
X152208261Y-89158040D01*
X152217793Y-89147051D01*
X152241602Y-89075623D01*
X152240872Y-89065362D01*
X152244809Y-89055859D01*
X152244809Y-89008240D01*
X152240872Y-88998736D01*
X152241602Y-88988477D01*
X152217793Y-88917047D01*
X152208260Y-88906056D01*
X152202693Y-88892616D01*
X152178883Y-88868807D01*
X152152995Y-88858084D01*
X152134690Y-88850502D01*
X151968023Y-88850502D01*
X151923829Y-88868808D01*
X151905523Y-88913002D01*
X151905523Y-89008240D01*
X151923829Y-89052434D01*
X151968023Y-89070740D01*
X152012217Y-89052434D01*
X152030523Y-89008240D01*
X152030523Y-88975502D01*
X152105516Y-88975502D01*
X152119809Y-89018382D01*
X152119809Y-89045716D01*
X152103873Y-89093524D01*
X152073856Y-89123540D01*
X152041448Y-89139745D01*
X151960329Y-89160025D01*
X151904289Y-89160025D01*
X151823169Y-89139745D01*
X151790761Y-89123541D01*
X151760746Y-89093526D01*
X151744809Y-89045714D01*
X151744809Y-88999183D01*
X151762021Y-88964762D01*
X151765412Y-88917047D01*
X151734070Y-88880909D01*
X151686355Y-88877518D01*
X151650218Y-88908860D01*
X151626408Y-88956479D01*
X151625376Y-88970989D01*
X151619809Y-88984430D01*
X151619809Y-89055859D01*
X151548380Y-89055859D01*
X151548380Y-88698716D01*
X151619809Y-88698716D01*
X151626003Y-88713669D01*
X151628044Y-88729725D01*
X151634830Y-88734980D01*
X151638115Y-88742910D01*
X151653068Y-88749103D01*
X151665864Y-88759013D01*
X151674377Y-88757930D01*
X151682309Y-88761216D01*
X152182309Y-88761216D01*
X152226503Y-88742910D01*
X152244809Y-88698716D01*
X152226503Y-88654522D01*
X152182309Y-88636216D01*
X151917657Y-88636216D01*
X152213317Y-88467267D01*
X152218572Y-88460481D01*
X152226503Y-88457196D01*
X152232697Y-88442241D01*
X152242606Y-88429447D01*
X152241523Y-88420933D01*
X152244809Y-88413002D01*
X152238614Y-88398047D01*
X152236574Y-88381994D01*
X152229788Y-88376738D01*
X152226503Y-88368808D01*
X152211547Y-88362613D01*
X152198753Y-88352705D01*
X152190239Y-88353787D01*
X152182309Y-88350502D01*
X151682309Y-88350502D01*
X151638115Y-88368808D01*
X151619809Y-88413002D01*
X151638115Y-88457196D01*
X151682309Y-88475502D01*
X151946961Y-88475502D01*
X151651300Y-88644451D01*
X151646044Y-88651237D01*
X151638115Y-88654522D01*
X151631921Y-88669475D01*
X151622012Y-88682271D01*
X151623094Y-88690784D01*
X151619809Y-88698716D01*
X151548380Y-88698716D01*
X151548380Y-88174906D01*
X151619809Y-88174906D01*
X151638115Y-88219100D01*
X151682309Y-88237406D01*
X152182309Y-88237406D01*
X152226503Y-88219100D01*
X152244809Y-88174906D01*
X152244809Y-88055858D01*
X152240872Y-88046354D01*
X152241602Y-88036094D01*
X152217793Y-87964666D01*
X152208261Y-87953676D01*
X152202694Y-87940235D01*
X152155074Y-87892616D01*
X152145569Y-87888679D01*
X152138831Y-87880910D01*
X152091212Y-87857100D01*
X152084127Y-87856596D01*
X152078419Y-87852367D01*
X151983181Y-87828558D01*
X151975343Y-87829724D01*
X151968023Y-87826692D01*
X151896595Y-87826692D01*
X151889274Y-87829724D01*
X151881437Y-87828558D01*
X151786199Y-87852367D01*
X151780492Y-87856595D01*
X151773406Y-87857099D01*
X151725787Y-87880910D01*
X151719047Y-87888680D01*
X151709544Y-87892617D01*
X151661925Y-87940236D01*
X151656358Y-87953674D01*
X151646826Y-87964665D01*
X151623016Y-88036093D01*
X151623745Y-88046355D01*
X151619809Y-88055858D01*
X151619809Y-88174905D01*
X151619809Y-88174906D01*
X151548380Y-88174906D01*
X151548380Y-87755263D01*
X152316238Y-87755263D01*
X152316238Y-89356454D01*
G37*
G36*
X143496448Y-67371971D02*
G01*
X143528856Y-67388176D01*
X143558873Y-67418192D01*
X143574809Y-67466000D01*
X143574809Y-67512406D01*
X143199809Y-67512406D01*
X143199809Y-67466002D01*
X143215746Y-67418190D01*
X143245761Y-67388175D01*
X143278169Y-67371971D01*
X143359289Y-67351692D01*
X143415329Y-67351692D01*
X143496448Y-67371971D01*
G37*
G36*
X143771238Y-68756454D02*
G01*
X143003380Y-68756454D01*
X143003380Y-68455859D01*
X143074809Y-68455859D01*
X143078745Y-68465361D01*
X143078016Y-68475624D01*
X143101826Y-68547052D01*
X143111358Y-68558042D01*
X143116925Y-68571481D01*
X143164544Y-68619100D01*
X143174047Y-68623036D01*
X143180787Y-68630807D01*
X143228406Y-68654618D01*
X143235492Y-68655121D01*
X143241199Y-68659350D01*
X143336437Y-68683159D01*
X143344274Y-68681992D01*
X143351595Y-68685025D01*
X143423023Y-68685025D01*
X143430343Y-68681992D01*
X143438181Y-68683159D01*
X143533419Y-68659350D01*
X143539127Y-68655120D01*
X143546212Y-68654617D01*
X143593831Y-68630807D01*
X143600569Y-68623037D01*
X143610074Y-68619101D01*
X143657694Y-68571482D01*
X143663261Y-68558040D01*
X143672793Y-68547051D01*
X143696602Y-68475623D01*
X143695872Y-68465362D01*
X143699809Y-68455859D01*
X143699809Y-68408240D01*
X143695872Y-68398736D01*
X143696602Y-68388477D01*
X143672793Y-68317047D01*
X143663260Y-68306056D01*
X143657693Y-68292616D01*
X143633883Y-68268807D01*
X143607995Y-68258084D01*
X143589690Y-68250502D01*
X143423023Y-68250502D01*
X143378829Y-68268808D01*
X143360523Y-68313002D01*
X143360523Y-68408240D01*
X143378829Y-68452434D01*
X143423023Y-68470740D01*
X143467217Y-68452434D01*
X143485523Y-68408240D01*
X143485523Y-68375502D01*
X143560516Y-68375502D01*
X143574809Y-68418382D01*
X143574809Y-68445716D01*
X143558873Y-68493524D01*
X143528856Y-68523540D01*
X143496448Y-68539745D01*
X143415329Y-68560025D01*
X143359289Y-68560025D01*
X143278169Y-68539745D01*
X143245761Y-68523541D01*
X143215746Y-68493526D01*
X143199809Y-68445714D01*
X143199809Y-68399183D01*
X143217021Y-68364762D01*
X143220412Y-68317047D01*
X143189070Y-68280909D01*
X143141355Y-68277518D01*
X143105218Y-68308860D01*
X143081408Y-68356479D01*
X143080376Y-68370989D01*
X143074809Y-68384430D01*
X143074809Y-68455859D01*
X143003380Y-68455859D01*
X143003380Y-68098716D01*
X143074809Y-68098716D01*
X143081003Y-68113669D01*
X143083044Y-68129725D01*
X143089830Y-68134980D01*
X143093115Y-68142910D01*
X143108068Y-68149103D01*
X143120864Y-68159013D01*
X143129377Y-68157930D01*
X143137309Y-68161216D01*
X143637309Y-68161216D01*
X143681503Y-68142910D01*
X143699809Y-68098716D01*
X143681503Y-68054522D01*
X143637309Y-68036216D01*
X143372657Y-68036216D01*
X143668317Y-67867267D01*
X143673572Y-67860481D01*
X143681503Y-67857196D01*
X143687697Y-67842241D01*
X143697606Y-67829447D01*
X143696523Y-67820933D01*
X143699809Y-67813002D01*
X143693614Y-67798047D01*
X143691574Y-67781994D01*
X143684788Y-67776738D01*
X143681503Y-67768808D01*
X143666547Y-67762613D01*
X143653753Y-67752705D01*
X143645239Y-67753787D01*
X143637309Y-67750502D01*
X143137309Y-67750502D01*
X143093115Y-67768808D01*
X143074809Y-67813002D01*
X143093115Y-67857196D01*
X143137309Y-67875502D01*
X143401961Y-67875502D01*
X143106300Y-68044451D01*
X143101044Y-68051237D01*
X143093115Y-68054522D01*
X143086921Y-68069475D01*
X143077012Y-68082271D01*
X143078094Y-68090784D01*
X143074809Y-68098716D01*
X143003380Y-68098716D01*
X143003380Y-67574906D01*
X143074809Y-67574906D01*
X143093115Y-67619100D01*
X143137309Y-67637406D01*
X143637309Y-67637406D01*
X143681503Y-67619100D01*
X143699809Y-67574906D01*
X143699809Y-67455858D01*
X143695872Y-67446354D01*
X143696602Y-67436094D01*
X143672793Y-67364666D01*
X143663261Y-67353676D01*
X143657694Y-67340235D01*
X143610074Y-67292616D01*
X143600569Y-67288679D01*
X143593831Y-67280910D01*
X143546212Y-67257100D01*
X143539127Y-67256596D01*
X143533419Y-67252367D01*
X143438181Y-67228558D01*
X143430343Y-67229724D01*
X143423023Y-67226692D01*
X143351595Y-67226692D01*
X143344274Y-67229724D01*
X143336437Y-67228558D01*
X143241199Y-67252367D01*
X143235492Y-67256595D01*
X143228406Y-67257099D01*
X143180787Y-67280910D01*
X143174047Y-67288680D01*
X143164544Y-67292617D01*
X143116925Y-67340236D01*
X143111358Y-67353674D01*
X143101826Y-67364665D01*
X143078016Y-67436093D01*
X143078745Y-67446355D01*
X143074809Y-67455858D01*
X143074809Y-67574905D01*
X143074809Y-67574906D01*
X143003380Y-67574906D01*
X143003380Y-67155263D01*
X143771238Y-67155263D01*
X143771238Y-68756454D01*
G37*
G36*
X114741448Y-100471971D02*
G01*
X114773856Y-100488176D01*
X114803873Y-100518192D01*
X114819809Y-100566000D01*
X114819809Y-100612406D01*
X114444809Y-100612406D01*
X114444809Y-100566002D01*
X114460746Y-100518190D01*
X114490761Y-100488175D01*
X114523169Y-100471971D01*
X114604289Y-100451692D01*
X114660329Y-100451692D01*
X114741448Y-100471971D01*
G37*
G36*
X115016238Y-101856454D02*
G01*
X114248380Y-101856454D01*
X114248380Y-101555859D01*
X114319809Y-101555859D01*
X114323745Y-101565361D01*
X114323016Y-101575624D01*
X114346826Y-101647052D01*
X114356358Y-101658042D01*
X114361925Y-101671481D01*
X114409544Y-101719100D01*
X114419047Y-101723036D01*
X114425787Y-101730807D01*
X114473406Y-101754618D01*
X114480492Y-101755121D01*
X114486199Y-101759350D01*
X114581437Y-101783159D01*
X114589274Y-101781992D01*
X114596595Y-101785025D01*
X114668023Y-101785025D01*
X114675343Y-101781992D01*
X114683181Y-101783159D01*
X114778419Y-101759350D01*
X114784127Y-101755120D01*
X114791212Y-101754617D01*
X114838831Y-101730807D01*
X114845569Y-101723037D01*
X114855074Y-101719101D01*
X114902694Y-101671482D01*
X114908261Y-101658040D01*
X114917793Y-101647051D01*
X114941602Y-101575623D01*
X114940872Y-101565362D01*
X114944809Y-101555859D01*
X114944809Y-101508240D01*
X114940872Y-101498736D01*
X114941602Y-101488477D01*
X114917793Y-101417047D01*
X114908260Y-101406056D01*
X114902693Y-101392616D01*
X114878883Y-101368807D01*
X114852994Y-101358084D01*
X114834690Y-101350502D01*
X114668023Y-101350502D01*
X114623829Y-101368808D01*
X114605523Y-101413002D01*
X114605523Y-101508240D01*
X114623829Y-101552434D01*
X114668023Y-101570740D01*
X114712217Y-101552434D01*
X114730523Y-101508240D01*
X114730523Y-101475502D01*
X114805516Y-101475502D01*
X114819809Y-101518382D01*
X114819809Y-101545716D01*
X114803873Y-101593524D01*
X114773856Y-101623540D01*
X114741448Y-101639745D01*
X114660329Y-101660025D01*
X114604289Y-101660025D01*
X114523169Y-101639745D01*
X114490761Y-101623541D01*
X114460746Y-101593526D01*
X114444809Y-101545714D01*
X114444809Y-101499183D01*
X114462021Y-101464762D01*
X114465412Y-101417047D01*
X114434070Y-101380909D01*
X114386355Y-101377518D01*
X114350218Y-101408860D01*
X114326408Y-101456479D01*
X114325376Y-101470989D01*
X114319809Y-101484430D01*
X114319809Y-101555859D01*
X114248380Y-101555859D01*
X114248380Y-101198716D01*
X114319809Y-101198716D01*
X114326003Y-101213669D01*
X114328044Y-101229725D01*
X114334830Y-101234980D01*
X114338115Y-101242910D01*
X114353068Y-101249103D01*
X114365864Y-101259013D01*
X114374377Y-101257930D01*
X114382309Y-101261216D01*
X114882309Y-101261216D01*
X114926503Y-101242910D01*
X114944809Y-101198716D01*
X114926503Y-101154522D01*
X114882309Y-101136216D01*
X114617657Y-101136216D01*
X114913317Y-100967267D01*
X114918572Y-100960481D01*
X114926503Y-100957196D01*
X114932697Y-100942241D01*
X114942606Y-100929447D01*
X114941523Y-100920933D01*
X114944809Y-100913002D01*
X114938614Y-100898047D01*
X114936574Y-100881994D01*
X114929788Y-100876738D01*
X114926503Y-100868808D01*
X114911547Y-100862613D01*
X114898753Y-100852705D01*
X114890239Y-100853787D01*
X114882309Y-100850502D01*
X114382309Y-100850502D01*
X114338115Y-100868808D01*
X114319809Y-100913002D01*
X114338115Y-100957196D01*
X114382309Y-100975502D01*
X114646961Y-100975502D01*
X114351300Y-101144451D01*
X114346044Y-101151237D01*
X114338115Y-101154522D01*
X114331921Y-101169475D01*
X114322012Y-101182271D01*
X114323094Y-101190784D01*
X114319809Y-101198716D01*
X114248380Y-101198716D01*
X114248380Y-100674906D01*
X114319809Y-100674906D01*
X114338115Y-100719100D01*
X114382309Y-100737406D01*
X114882309Y-100737406D01*
X114926503Y-100719100D01*
X114944809Y-100674906D01*
X114944809Y-100555858D01*
X114940872Y-100546354D01*
X114941602Y-100536094D01*
X114917793Y-100464666D01*
X114908261Y-100453676D01*
X114902694Y-100440235D01*
X114855074Y-100392616D01*
X114845569Y-100388679D01*
X114838831Y-100380910D01*
X114791212Y-100357100D01*
X114784127Y-100356596D01*
X114778419Y-100352367D01*
X114683181Y-100328558D01*
X114675343Y-100329724D01*
X114668023Y-100326692D01*
X114596595Y-100326692D01*
X114589274Y-100329724D01*
X114581437Y-100328558D01*
X114486199Y-100352367D01*
X114480492Y-100356595D01*
X114473406Y-100357099D01*
X114425787Y-100380910D01*
X114419047Y-100388680D01*
X114409544Y-100392617D01*
X114361925Y-100440236D01*
X114356358Y-100453674D01*
X114346826Y-100464665D01*
X114323016Y-100536093D01*
X114323745Y-100546355D01*
X114319809Y-100555858D01*
X114319809Y-100674905D01*
X114319809Y-100674906D01*
X114248380Y-100674906D01*
X114248380Y-100255263D01*
X115016238Y-100255263D01*
X115016238Y-101856454D01*
G37*
G36*
X114891448Y-95321971D02*
G01*
X114923856Y-95338176D01*
X114953873Y-95368192D01*
X114969809Y-95416000D01*
X114969809Y-95462406D01*
X114594809Y-95462406D01*
X114594809Y-95416002D01*
X114610746Y-95368190D01*
X114640761Y-95338175D01*
X114673169Y-95321971D01*
X114754289Y-95301692D01*
X114810329Y-95301692D01*
X114891448Y-95321971D01*
G37*
G36*
X115166238Y-96706454D02*
G01*
X114398380Y-96706454D01*
X114398380Y-96405859D01*
X114469809Y-96405859D01*
X114473745Y-96415361D01*
X114473016Y-96425624D01*
X114496826Y-96497052D01*
X114506358Y-96508042D01*
X114511925Y-96521481D01*
X114559544Y-96569100D01*
X114569047Y-96573036D01*
X114575787Y-96580807D01*
X114623406Y-96604618D01*
X114630492Y-96605121D01*
X114636199Y-96609350D01*
X114731437Y-96633159D01*
X114739274Y-96631992D01*
X114746595Y-96635025D01*
X114818023Y-96635025D01*
X114825343Y-96631992D01*
X114833181Y-96633159D01*
X114928419Y-96609350D01*
X114934127Y-96605120D01*
X114941212Y-96604617D01*
X114988831Y-96580807D01*
X114995569Y-96573037D01*
X115005074Y-96569101D01*
X115052694Y-96521482D01*
X115058261Y-96508040D01*
X115067793Y-96497051D01*
X115091602Y-96425623D01*
X115090872Y-96415362D01*
X115094809Y-96405859D01*
X115094809Y-96358240D01*
X115090872Y-96348736D01*
X115091602Y-96338477D01*
X115067793Y-96267047D01*
X115058260Y-96256056D01*
X115052693Y-96242616D01*
X115028883Y-96218807D01*
X115002994Y-96208084D01*
X114984690Y-96200502D01*
X114818023Y-96200502D01*
X114773829Y-96218808D01*
X114755523Y-96263002D01*
X114755523Y-96358240D01*
X114773829Y-96402434D01*
X114818023Y-96420740D01*
X114862217Y-96402434D01*
X114880523Y-96358240D01*
X114880523Y-96325502D01*
X114955516Y-96325502D01*
X114969809Y-96368382D01*
X114969809Y-96395716D01*
X114953873Y-96443524D01*
X114923856Y-96473540D01*
X114891448Y-96489745D01*
X114810329Y-96510025D01*
X114754289Y-96510025D01*
X114673169Y-96489745D01*
X114640761Y-96473541D01*
X114610746Y-96443526D01*
X114594809Y-96395714D01*
X114594809Y-96349183D01*
X114612021Y-96314762D01*
X114615412Y-96267047D01*
X114584070Y-96230909D01*
X114536355Y-96227518D01*
X114500218Y-96258860D01*
X114476408Y-96306479D01*
X114475376Y-96320989D01*
X114469809Y-96334430D01*
X114469809Y-96405859D01*
X114398380Y-96405859D01*
X114398380Y-96048716D01*
X114469809Y-96048716D01*
X114476003Y-96063669D01*
X114478044Y-96079725D01*
X114484830Y-96084980D01*
X114488115Y-96092910D01*
X114503068Y-96099103D01*
X114515864Y-96109013D01*
X114524377Y-96107930D01*
X114532309Y-96111216D01*
X115032309Y-96111216D01*
X115076503Y-96092910D01*
X115094809Y-96048716D01*
X115076503Y-96004522D01*
X115032309Y-95986216D01*
X114767657Y-95986216D01*
X115063317Y-95817267D01*
X115068572Y-95810481D01*
X115076503Y-95807196D01*
X115082697Y-95792241D01*
X115092606Y-95779447D01*
X115091523Y-95770933D01*
X115094809Y-95763002D01*
X115088614Y-95748047D01*
X115086574Y-95731994D01*
X115079788Y-95726738D01*
X115076503Y-95718808D01*
X115061547Y-95712613D01*
X115048753Y-95702705D01*
X115040239Y-95703787D01*
X115032309Y-95700502D01*
X114532309Y-95700502D01*
X114488115Y-95718808D01*
X114469809Y-95763002D01*
X114488115Y-95807196D01*
X114532309Y-95825502D01*
X114796961Y-95825502D01*
X114501300Y-95994451D01*
X114496044Y-96001237D01*
X114488115Y-96004522D01*
X114481921Y-96019475D01*
X114472012Y-96032271D01*
X114473094Y-96040784D01*
X114469809Y-96048716D01*
X114398380Y-96048716D01*
X114398380Y-95524906D01*
X114469809Y-95524906D01*
X114488115Y-95569100D01*
X114532309Y-95587406D01*
X115032309Y-95587406D01*
X115076503Y-95569100D01*
X115094809Y-95524906D01*
X115094809Y-95405858D01*
X115090872Y-95396354D01*
X115091602Y-95386094D01*
X115067793Y-95314666D01*
X115058261Y-95303676D01*
X115052694Y-95290235D01*
X115005074Y-95242616D01*
X114995569Y-95238679D01*
X114988831Y-95230910D01*
X114941212Y-95207100D01*
X114934127Y-95206596D01*
X114928419Y-95202367D01*
X114833181Y-95178558D01*
X114825343Y-95179724D01*
X114818023Y-95176692D01*
X114746595Y-95176692D01*
X114739274Y-95179724D01*
X114731437Y-95178558D01*
X114636199Y-95202367D01*
X114630492Y-95206595D01*
X114623406Y-95207099D01*
X114575787Y-95230910D01*
X114569047Y-95238680D01*
X114559544Y-95242617D01*
X114511925Y-95290236D01*
X114506358Y-95303674D01*
X114496826Y-95314665D01*
X114473016Y-95386093D01*
X114473745Y-95396355D01*
X114469809Y-95405858D01*
X114469809Y-95524905D01*
X114469809Y-95524906D01*
X114398380Y-95524906D01*
X114398380Y-95105263D01*
X115166238Y-95105263D01*
X115166238Y-96706454D01*
G37*
X153858500Y-63422525D02*
X153882309Y-63351097D01*
X153882309Y-63351097D02*
X153882309Y-63232049D01*
X153882309Y-63232049D02*
X153858500Y-63184430D01*
X153858500Y-63184430D02*
X153834690Y-63160621D01*
X153834690Y-63160621D02*
X153787071Y-63136811D01*
X153787071Y-63136811D02*
X153739452Y-63136811D01*
X153739452Y-63136811D02*
X153691833Y-63160621D01*
X153691833Y-63160621D02*
X153668023Y-63184430D01*
X153668023Y-63184430D02*
X153644214Y-63232049D01*
X153644214Y-63232049D02*
X153620404Y-63327287D01*
X153620404Y-63327287D02*
X153596595Y-63374906D01*
X153596595Y-63374906D02*
X153572785Y-63398716D01*
X153572785Y-63398716D02*
X153525166Y-63422525D01*
X153525166Y-63422525D02*
X153477547Y-63422525D01*
X153477547Y-63422525D02*
X153429928Y-63398716D01*
X153429928Y-63398716D02*
X153406119Y-63374906D01*
X153406119Y-63374906D02*
X153382309Y-63327287D01*
X153382309Y-63327287D02*
X153382309Y-63208240D01*
X153382309Y-63208240D02*
X153406119Y-63136811D01*
X153882309Y-62922526D02*
X153382309Y-62922526D01*
X153382309Y-62922526D02*
X153382309Y-62803478D01*
X153382309Y-62803478D02*
X153406119Y-62732050D01*
X153406119Y-62732050D02*
X153453738Y-62684431D01*
X153453738Y-62684431D02*
X153501357Y-62660621D01*
X153501357Y-62660621D02*
X153596595Y-62636812D01*
X153596595Y-62636812D02*
X153668023Y-62636812D01*
X153668023Y-62636812D02*
X153763261Y-62660621D01*
X153763261Y-62660621D02*
X153810880Y-62684431D01*
X153810880Y-62684431D02*
X153858500Y-62732050D01*
X153858500Y-62732050D02*
X153882309Y-62803478D01*
X153882309Y-62803478D02*
X153882309Y-62922526D01*
X153739452Y-62446335D02*
X153739452Y-62208240D01*
X153882309Y-62493954D02*
X153382309Y-62327288D01*
X153382309Y-62327288D02*
X153882309Y-62160621D01*
D11*
X159069819Y-92163220D02*
X158069819Y-92163220D01*
X158069819Y-92163220D02*
X158069819Y-91782268D01*
X158069819Y-91782268D02*
X158117438Y-91687030D01*
X158117438Y-91687030D02*
X158165057Y-91639411D01*
X158165057Y-91639411D02*
X158260295Y-91591792D01*
X158260295Y-91591792D02*
X158403152Y-91591792D01*
X158403152Y-91591792D02*
X158498390Y-91639411D01*
X158498390Y-91639411D02*
X158546009Y-91687030D01*
X158546009Y-91687030D02*
X158593628Y-91782268D01*
X158593628Y-91782268D02*
X158593628Y-92163220D01*
X158974580Y-90591792D02*
X159022200Y-90639411D01*
X159022200Y-90639411D02*
X159069819Y-90782268D01*
X159069819Y-90782268D02*
X159069819Y-90877506D01*
X159069819Y-90877506D02*
X159022200Y-91020363D01*
X159022200Y-91020363D02*
X158926961Y-91115601D01*
X158926961Y-91115601D02*
X158831723Y-91163220D01*
X158831723Y-91163220D02*
X158641247Y-91210839D01*
X158641247Y-91210839D02*
X158498390Y-91210839D01*
X158498390Y-91210839D02*
X158307914Y-91163220D01*
X158307914Y-91163220D02*
X158212676Y-91115601D01*
X158212676Y-91115601D02*
X158117438Y-91020363D01*
X158117438Y-91020363D02*
X158069819Y-90877506D01*
X158069819Y-90877506D02*
X158069819Y-90782268D01*
X158069819Y-90782268D02*
X158117438Y-90639411D01*
X158117438Y-90639411D02*
X158165057Y-90591792D01*
X158546009Y-89829887D02*
X158546009Y-90163220D01*
X159069819Y-90163220D02*
X158069819Y-90163220D01*
X158069819Y-90163220D02*
X158069819Y-89687030D01*
X158498390Y-89163220D02*
X158450771Y-89258458D01*
X158450771Y-89258458D02*
X158403152Y-89306077D01*
X158403152Y-89306077D02*
X158307914Y-89353696D01*
X158307914Y-89353696D02*
X158260295Y-89353696D01*
X158260295Y-89353696D02*
X158165057Y-89306077D01*
X158165057Y-89306077D02*
X158117438Y-89258458D01*
X158117438Y-89258458D02*
X158069819Y-89163220D01*
X158069819Y-89163220D02*
X158069819Y-88972744D01*
X158069819Y-88972744D02*
X158117438Y-88877506D01*
X158117438Y-88877506D02*
X158165057Y-88829887D01*
X158165057Y-88829887D02*
X158260295Y-88782268D01*
X158260295Y-88782268D02*
X158307914Y-88782268D01*
X158307914Y-88782268D02*
X158403152Y-88829887D01*
X158403152Y-88829887D02*
X158450771Y-88877506D01*
X158450771Y-88877506D02*
X158498390Y-88972744D01*
X158498390Y-88972744D02*
X158498390Y-89163220D01*
X158498390Y-89163220D02*
X158546009Y-89258458D01*
X158546009Y-89258458D02*
X158593628Y-89306077D01*
X158593628Y-89306077D02*
X158688866Y-89353696D01*
X158688866Y-89353696D02*
X158879342Y-89353696D01*
X158879342Y-89353696D02*
X158974580Y-89306077D01*
X158974580Y-89306077D02*
X159022200Y-89258458D01*
X159022200Y-89258458D02*
X159069819Y-89163220D01*
X159069819Y-89163220D02*
X159069819Y-88972744D01*
X159069819Y-88972744D02*
X159022200Y-88877506D01*
X159022200Y-88877506D02*
X158974580Y-88829887D01*
X158974580Y-88829887D02*
X158879342Y-88782268D01*
X158879342Y-88782268D02*
X158688866Y-88782268D01*
X158688866Y-88782268D02*
X158593628Y-88829887D01*
X158593628Y-88829887D02*
X158546009Y-88877506D01*
X158546009Y-88877506D02*
X158498390Y-88972744D01*
X158069819Y-87877506D02*
X158069819Y-88353696D01*
X158069819Y-88353696D02*
X158546009Y-88401315D01*
X158546009Y-88401315D02*
X158498390Y-88353696D01*
X158498390Y-88353696D02*
X158450771Y-88258458D01*
X158450771Y-88258458D02*
X158450771Y-88020363D01*
X158450771Y-88020363D02*
X158498390Y-87925125D01*
X158498390Y-87925125D02*
X158546009Y-87877506D01*
X158546009Y-87877506D02*
X158641247Y-87829887D01*
X158641247Y-87829887D02*
X158879342Y-87829887D01*
X158879342Y-87829887D02*
X158974580Y-87877506D01*
X158974580Y-87877506D02*
X159022200Y-87925125D01*
X159022200Y-87925125D02*
X159069819Y-88020363D01*
X159069819Y-88020363D02*
X159069819Y-88258458D01*
X159069819Y-88258458D02*
X159022200Y-88353696D01*
X159022200Y-88353696D02*
X158974580Y-88401315D01*
X158069819Y-87496553D02*
X158069819Y-86829887D01*
X158069819Y-86829887D02*
X159069819Y-87258458D01*
X158403152Y-86020363D02*
X159069819Y-86020363D01*
X158022200Y-86258458D02*
X158736485Y-86496553D01*
X158736485Y-86496553D02*
X158736485Y-85877506D01*
D10*
X153432309Y-70048716D02*
X152932309Y-70048716D01*
X153098976Y-69810621D02*
X153432309Y-69810621D01*
X153146595Y-69810621D02*
X153122785Y-69786811D01*
X153122785Y-69786811D02*
X153098976Y-69739192D01*
X153098976Y-69739192D02*
X153098976Y-69667764D01*
X153098976Y-69667764D02*
X153122785Y-69620145D01*
X153122785Y-69620145D02*
X153170404Y-69596335D01*
X153170404Y-69596335D02*
X153432309Y-69596335D01*
X111258500Y-71272525D02*
X111282309Y-71201097D01*
X111282309Y-71201097D02*
X111282309Y-71082049D01*
X111282309Y-71082049D02*
X111258500Y-71034430D01*
X111258500Y-71034430D02*
X111234690Y-71010621D01*
X111234690Y-71010621D02*
X111187071Y-70986811D01*
X111187071Y-70986811D02*
X111139452Y-70986811D01*
X111139452Y-70986811D02*
X111091833Y-71010621D01*
X111091833Y-71010621D02*
X111068023Y-71034430D01*
X111068023Y-71034430D02*
X111044214Y-71082049D01*
X111044214Y-71082049D02*
X111020404Y-71177287D01*
X111020404Y-71177287D02*
X110996595Y-71224906D01*
X110996595Y-71224906D02*
X110972785Y-71248716D01*
X110972785Y-71248716D02*
X110925166Y-71272525D01*
X110925166Y-71272525D02*
X110877547Y-71272525D01*
X110877547Y-71272525D02*
X110829928Y-71248716D01*
X110829928Y-71248716D02*
X110806119Y-71224906D01*
X110806119Y-71224906D02*
X110782309Y-71177287D01*
X110782309Y-71177287D02*
X110782309Y-71058240D01*
X110782309Y-71058240D02*
X110806119Y-70986811D01*
X111282309Y-70772526D02*
X110782309Y-70772526D01*
X110782309Y-70772526D02*
X110782309Y-70653478D01*
X110782309Y-70653478D02*
X110806119Y-70582050D01*
X110806119Y-70582050D02*
X110853738Y-70534431D01*
X110853738Y-70534431D02*
X110901357Y-70510621D01*
X110901357Y-70510621D02*
X110996595Y-70486812D01*
X110996595Y-70486812D02*
X111068023Y-70486812D01*
X111068023Y-70486812D02*
X111163261Y-70510621D01*
X111163261Y-70510621D02*
X111210880Y-70534431D01*
X111210880Y-70534431D02*
X111258500Y-70582050D01*
X111258500Y-70582050D02*
X111282309Y-70653478D01*
X111282309Y-70653478D02*
X111282309Y-70772526D01*
X111139452Y-70296335D02*
X111139452Y-70058240D01*
X111282309Y-70343954D02*
X110782309Y-70177288D01*
X110782309Y-70177288D02*
X111282309Y-70010621D01*
G36*
X152041448Y-85421971D02*
G01*
X152073856Y-85438176D01*
X152103873Y-85468192D01*
X152119809Y-85516000D01*
X152119809Y-85562406D01*
X151744809Y-85562406D01*
X151744809Y-85516002D01*
X151760746Y-85468190D01*
X151790761Y-85438175D01*
X151823169Y-85421971D01*
X151904289Y-85401692D01*
X151960329Y-85401692D01*
X152041448Y-85421971D01*
G37*
G36*
X152316238Y-86806454D02*
G01*
X151548380Y-86806454D01*
X151548380Y-86505859D01*
X151619809Y-86505859D01*
X151623745Y-86515361D01*
X151623016Y-86525624D01*
X151646826Y-86597052D01*
X151656358Y-86608042D01*
X151661925Y-86621481D01*
X151709544Y-86669100D01*
X151719047Y-86673036D01*
X151725787Y-86680807D01*
X151773406Y-86704618D01*
X151780492Y-86705121D01*
X151786199Y-86709350D01*
X151881437Y-86733159D01*
X151889274Y-86731992D01*
X151896595Y-86735025D01*
X151968023Y-86735025D01*
X151975343Y-86731992D01*
X151983181Y-86733159D01*
X152078419Y-86709350D01*
X152084127Y-86705120D01*
X152091212Y-86704617D01*
X152138831Y-86680807D01*
X152145569Y-86673037D01*
X152155074Y-86669101D01*
X152202694Y-86621482D01*
X152208261Y-86608040D01*
X152217793Y-86597051D01*
X152241602Y-86525623D01*
X152240872Y-86515362D01*
X152244809Y-86505859D01*
X152244809Y-86458240D01*
X152240872Y-86448736D01*
X152241602Y-86438477D01*
X152217793Y-86367047D01*
X152208260Y-86356056D01*
X152202693Y-86342616D01*
X152178883Y-86318807D01*
X152152995Y-86308084D01*
X152134690Y-86300502D01*
X151968023Y-86300502D01*
X151923829Y-86318808D01*
X151905523Y-86363002D01*
X151905523Y-86458240D01*
X151923829Y-86502434D01*
X151968023Y-86520740D01*
X152012217Y-86502434D01*
X152030523Y-86458240D01*
X152030523Y-86425502D01*
X152105516Y-86425502D01*
X152119809Y-86468382D01*
X152119809Y-86495716D01*
X152103873Y-86543524D01*
X152073856Y-86573540D01*
X152041448Y-86589745D01*
X151960329Y-86610025D01*
X151904289Y-86610025D01*
X151823169Y-86589745D01*
X151790761Y-86573541D01*
X151760746Y-86543526D01*
X151744809Y-86495714D01*
X151744809Y-86449183D01*
X151762021Y-86414762D01*
X151765412Y-86367047D01*
X151734070Y-86330909D01*
X151686355Y-86327518D01*
X151650218Y-86358860D01*
X151626408Y-86406479D01*
X151625376Y-86420989D01*
X151619809Y-86434430D01*
X151619809Y-86505859D01*
X151548380Y-86505859D01*
X151548380Y-86148716D01*
X151619809Y-86148716D01*
X151626003Y-86163669D01*
X151628044Y-86179725D01*
X151634830Y-86184980D01*
X151638115Y-86192910D01*
X151653068Y-86199103D01*
X151665864Y-86209013D01*
X151674377Y-86207930D01*
X151682309Y-86211216D01*
X152182309Y-86211216D01*
X152226503Y-86192910D01*
X152244809Y-86148716D01*
X152226503Y-86104522D01*
X152182309Y-86086216D01*
X151917657Y-86086216D01*
X152213317Y-85917267D01*
X152218572Y-85910481D01*
X152226503Y-85907196D01*
X152232697Y-85892241D01*
X152242606Y-85879447D01*
X152241523Y-85870933D01*
X152244809Y-85863002D01*
X152238614Y-85848047D01*
X152236574Y-85831994D01*
X152229788Y-85826738D01*
X152226503Y-85818808D01*
X152211547Y-85812613D01*
X152198753Y-85802705D01*
X152190239Y-85803787D01*
X152182309Y-85800502D01*
X151682309Y-85800502D01*
X151638115Y-85818808D01*
X151619809Y-85863002D01*
X151638115Y-85907196D01*
X151682309Y-85925502D01*
X151946961Y-85925502D01*
X151651300Y-86094451D01*
X151646044Y-86101237D01*
X151638115Y-86104522D01*
X151631921Y-86119475D01*
X151622012Y-86132271D01*
X151623094Y-86140784D01*
X151619809Y-86148716D01*
X151548380Y-86148716D01*
X151548380Y-85624906D01*
X151619809Y-85624906D01*
X151638115Y-85669100D01*
X151682309Y-85687406D01*
X152182309Y-85687406D01*
X152226503Y-85669100D01*
X152244809Y-85624906D01*
X152244809Y-85505858D01*
X152240872Y-85496354D01*
X152241602Y-85486094D01*
X152217793Y-85414666D01*
X152208261Y-85403676D01*
X152202694Y-85390235D01*
X152155074Y-85342616D01*
X152145569Y-85338679D01*
X152138831Y-85330910D01*
X152091212Y-85307100D01*
X152084127Y-85306596D01*
X152078419Y-85302367D01*
X151983181Y-85278558D01*
X151975343Y-85279724D01*
X151968023Y-85276692D01*
X151896595Y-85276692D01*
X151889274Y-85279724D01*
X151881437Y-85278558D01*
X151786199Y-85302367D01*
X151780492Y-85306595D01*
X151773406Y-85307099D01*
X151725787Y-85330910D01*
X151719047Y-85338680D01*
X151709544Y-85342617D01*
X151661925Y-85390236D01*
X151656358Y-85403674D01*
X151646826Y-85414665D01*
X151623016Y-85486093D01*
X151623745Y-85496355D01*
X151619809Y-85505858D01*
X151619809Y-85624905D01*
X151619809Y-85624906D01*
X151548380Y-85624906D01*
X151548380Y-85205263D01*
X152316238Y-85205263D01*
X152316238Y-86806454D01*
G37*
D11*
X123828095Y-53374819D02*
X123828095Y-54184342D01*
X123828095Y-54184342D02*
X123875714Y-54279580D01*
X123875714Y-54279580D02*
X123923333Y-54327200D01*
X123923333Y-54327200D02*
X124018571Y-54374819D01*
X124018571Y-54374819D02*
X124209047Y-54374819D01*
X124209047Y-54374819D02*
X124304285Y-54327200D01*
X124304285Y-54327200D02*
X124351904Y-54279580D01*
X124351904Y-54279580D02*
X124399523Y-54184342D01*
X124399523Y-54184342D02*
X124399523Y-53374819D01*
X124780476Y-53374819D02*
X125399523Y-53374819D01*
X125399523Y-53374819D02*
X125066190Y-53755771D01*
X125066190Y-53755771D02*
X125209047Y-53755771D01*
X125209047Y-53755771D02*
X125304285Y-53803390D01*
X125304285Y-53803390D02*
X125351904Y-53851009D01*
X125351904Y-53851009D02*
X125399523Y-53946247D01*
X125399523Y-53946247D02*
X125399523Y-54184342D01*
X125399523Y-54184342D02*
X125351904Y-54279580D01*
X125351904Y-54279580D02*
X125304285Y-54327200D01*
X125304285Y-54327200D02*
X125209047Y-54374819D01*
X125209047Y-54374819D02*
X124923333Y-54374819D01*
X124923333Y-54374819D02*
X124828095Y-54327200D01*
X124828095Y-54327200D02*
X124780476Y-54279580D01*
X140105633Y-66179580D02*
X140058014Y-66227200D01*
X140058014Y-66227200D02*
X139915157Y-66274819D01*
X139915157Y-66274819D02*
X139819919Y-66274819D01*
X139819919Y-66274819D02*
X139677062Y-66227200D01*
X139677062Y-66227200D02*
X139581824Y-66131961D01*
X139581824Y-66131961D02*
X139534205Y-66036723D01*
X139534205Y-66036723D02*
X139486586Y-65846247D01*
X139486586Y-65846247D02*
X139486586Y-65703390D01*
X139486586Y-65703390D02*
X139534205Y-65512914D01*
X139534205Y-65512914D02*
X139581824Y-65417676D01*
X139581824Y-65417676D02*
X139677062Y-65322438D01*
X139677062Y-65322438D02*
X139819919Y-65274819D01*
X139819919Y-65274819D02*
X139915157Y-65274819D01*
X139915157Y-65274819D02*
X140058014Y-65322438D01*
X140058014Y-65322438D02*
X140105633Y-65370057D01*
X140962776Y-65274819D02*
X140772300Y-65274819D01*
X140772300Y-65274819D02*
X140677062Y-65322438D01*
X140677062Y-65322438D02*
X140629443Y-65370057D01*
X140629443Y-65370057D02*
X140534205Y-65512914D01*
X140534205Y-65512914D02*
X140486586Y-65703390D01*
X140486586Y-65703390D02*
X140486586Y-66084342D01*
X140486586Y-66084342D02*
X140534205Y-66179580D01*
X140534205Y-66179580D02*
X140581824Y-66227200D01*
X140581824Y-66227200D02*
X140677062Y-66274819D01*
X140677062Y-66274819D02*
X140867538Y-66274819D01*
X140867538Y-66274819D02*
X140962776Y-66227200D01*
X140962776Y-66227200D02*
X141010395Y-66179580D01*
X141010395Y-66179580D02*
X141058014Y-66084342D01*
X141058014Y-66084342D02*
X141058014Y-65846247D01*
X141058014Y-65846247D02*
X141010395Y-65751009D01*
X141010395Y-65751009D02*
X140962776Y-65703390D01*
X140962776Y-65703390D02*
X140867538Y-65655771D01*
X140867538Y-65655771D02*
X140677062Y-65655771D01*
X140677062Y-65655771D02*
X140581824Y-65703390D01*
X140581824Y-65703390D02*
X140534205Y-65751009D01*
X140534205Y-65751009D02*
X140486586Y-65846247D01*
X139624819Y-102633333D02*
X140339104Y-102633333D01*
X140339104Y-102633333D02*
X140481961Y-102680952D01*
X140481961Y-102680952D02*
X140577200Y-102776190D01*
X140577200Y-102776190D02*
X140624819Y-102919047D01*
X140624819Y-102919047D02*
X140624819Y-103014285D01*
X140624819Y-101633333D02*
X140624819Y-102204761D01*
X140624819Y-101919047D02*
X139624819Y-101919047D01*
X139624819Y-101919047D02*
X139767676Y-102014285D01*
X139767676Y-102014285D02*
X139862914Y-102109523D01*
X139862914Y-102109523D02*
X139910533Y-102204761D01*
X138167142Y-94634819D02*
X137833809Y-94158628D01*
X137595714Y-94634819D02*
X137595714Y-93634819D01*
X137595714Y-93634819D02*
X137976666Y-93634819D01*
X137976666Y-93634819D02*
X138071904Y-93682438D01*
X138071904Y-93682438D02*
X138119523Y-93730057D01*
X138119523Y-93730057D02*
X138167142Y-93825295D01*
X138167142Y-93825295D02*
X138167142Y-93968152D01*
X138167142Y-93968152D02*
X138119523Y-94063390D01*
X138119523Y-94063390D02*
X138071904Y-94111009D01*
X138071904Y-94111009D02*
X137976666Y-94158628D01*
X137976666Y-94158628D02*
X137595714Y-94158628D01*
X139119523Y-94634819D02*
X138548095Y-94634819D01*
X138833809Y-94634819D02*
X138833809Y-93634819D01*
X138833809Y-93634819D02*
X138738571Y-93777676D01*
X138738571Y-93777676D02*
X138643333Y-93872914D01*
X138643333Y-93872914D02*
X138548095Y-93920533D01*
X139452857Y-93634819D02*
X140119523Y-93634819D01*
X140119523Y-93634819D02*
X139690952Y-94634819D01*
X129107142Y-101884819D02*
X128773809Y-101408628D01*
X128535714Y-101884819D02*
X128535714Y-100884819D01*
X128535714Y-100884819D02*
X128916666Y-100884819D01*
X128916666Y-100884819D02*
X129011904Y-100932438D01*
X129011904Y-100932438D02*
X129059523Y-100980057D01*
X129059523Y-100980057D02*
X129107142Y-101075295D01*
X129107142Y-101075295D02*
X129107142Y-101218152D01*
X129107142Y-101218152D02*
X129059523Y-101313390D01*
X129059523Y-101313390D02*
X129011904Y-101361009D01*
X129011904Y-101361009D02*
X128916666Y-101408628D01*
X128916666Y-101408628D02*
X128535714Y-101408628D01*
X130059523Y-101884819D02*
X129488095Y-101884819D01*
X129773809Y-101884819D02*
X129773809Y-100884819D01*
X129773809Y-100884819D02*
X129678571Y-101027676D01*
X129678571Y-101027676D02*
X129583333Y-101122914D01*
X129583333Y-101122914D02*
X129488095Y-101170533D01*
X130630952Y-101313390D02*
X130535714Y-101265771D01*
X130535714Y-101265771D02*
X130488095Y-101218152D01*
X130488095Y-101218152D02*
X130440476Y-101122914D01*
X130440476Y-101122914D02*
X130440476Y-101075295D01*
X130440476Y-101075295D02*
X130488095Y-100980057D01*
X130488095Y-100980057D02*
X130535714Y-100932438D01*
X130535714Y-100932438D02*
X130630952Y-100884819D01*
X130630952Y-100884819D02*
X130821428Y-100884819D01*
X130821428Y-100884819D02*
X130916666Y-100932438D01*
X130916666Y-100932438D02*
X130964285Y-100980057D01*
X130964285Y-100980057D02*
X131011904Y-101075295D01*
X131011904Y-101075295D02*
X131011904Y-101122914D01*
X131011904Y-101122914D02*
X130964285Y-101218152D01*
X130964285Y-101218152D02*
X130916666Y-101265771D01*
X130916666Y-101265771D02*
X130821428Y-101313390D01*
X130821428Y-101313390D02*
X130630952Y-101313390D01*
X130630952Y-101313390D02*
X130535714Y-101361009D01*
X130535714Y-101361009D02*
X130488095Y-101408628D01*
X130488095Y-101408628D02*
X130440476Y-101503866D01*
X130440476Y-101503866D02*
X130440476Y-101694342D01*
X130440476Y-101694342D02*
X130488095Y-101789580D01*
X130488095Y-101789580D02*
X130535714Y-101837200D01*
X130535714Y-101837200D02*
X130630952Y-101884819D01*
X130630952Y-101884819D02*
X130821428Y-101884819D01*
X130821428Y-101884819D02*
X130916666Y-101837200D01*
X130916666Y-101837200D02*
X130964285Y-101789580D01*
X130964285Y-101789580D02*
X131011904Y-101694342D01*
X131011904Y-101694342D02*
X131011904Y-101503866D01*
X131011904Y-101503866D02*
X130964285Y-101408628D01*
X130964285Y-101408628D02*
X130916666Y-101361009D01*
X130916666Y-101361009D02*
X130821428Y-101313390D01*
X139833333Y-70809580D02*
X139785714Y-70857200D01*
X139785714Y-70857200D02*
X139642857Y-70904819D01*
X139642857Y-70904819D02*
X139547619Y-70904819D01*
X139547619Y-70904819D02*
X139404762Y-70857200D01*
X139404762Y-70857200D02*
X139309524Y-70761961D01*
X139309524Y-70761961D02*
X139261905Y-70666723D01*
X139261905Y-70666723D02*
X139214286Y-70476247D01*
X139214286Y-70476247D02*
X139214286Y-70333390D01*
X139214286Y-70333390D02*
X139261905Y-70142914D01*
X139261905Y-70142914D02*
X139309524Y-70047676D01*
X139309524Y-70047676D02*
X139404762Y-69952438D01*
X139404762Y-69952438D02*
X139547619Y-69904819D01*
X139547619Y-69904819D02*
X139642857Y-69904819D01*
X139642857Y-69904819D02*
X139785714Y-69952438D01*
X139785714Y-69952438D02*
X139833333Y-70000057D01*
X140785714Y-70904819D02*
X140214286Y-70904819D01*
X140500000Y-70904819D02*
X140500000Y-69904819D01*
X140500000Y-69904819D02*
X140404762Y-70047676D01*
X140404762Y-70047676D02*
X140309524Y-70142914D01*
X140309524Y-70142914D02*
X140214286Y-70190533D01*
X119568095Y-90624819D02*
X119568095Y-91434342D01*
X119568095Y-91434342D02*
X119615714Y-91529580D01*
X119615714Y-91529580D02*
X119663333Y-91577200D01*
X119663333Y-91577200D02*
X119758571Y-91624819D01*
X119758571Y-91624819D02*
X119949047Y-91624819D01*
X119949047Y-91624819D02*
X120044285Y-91577200D01*
X120044285Y-91577200D02*
X120091904Y-91529580D01*
X120091904Y-91529580D02*
X120139523Y-91434342D01*
X120139523Y-91434342D02*
X120139523Y-90624819D01*
X121091904Y-90624819D02*
X120615714Y-90624819D01*
X120615714Y-90624819D02*
X120568095Y-91101009D01*
X120568095Y-91101009D02*
X120615714Y-91053390D01*
X120615714Y-91053390D02*
X120710952Y-91005771D01*
X120710952Y-91005771D02*
X120949047Y-91005771D01*
X120949047Y-91005771D02*
X121044285Y-91053390D01*
X121044285Y-91053390D02*
X121091904Y-91101009D01*
X121091904Y-91101009D02*
X121139523Y-91196247D01*
X121139523Y-91196247D02*
X121139523Y-91434342D01*
X121139523Y-91434342D02*
X121091904Y-91529580D01*
X121091904Y-91529580D02*
X121044285Y-91577200D01*
X121044285Y-91577200D02*
X120949047Y-91624819D01*
X120949047Y-91624819D02*
X120710952Y-91624819D01*
X120710952Y-91624819D02*
X120615714Y-91577200D01*
X120615714Y-91577200D02*
X120568095Y-91529580D01*
X160076666Y-52434819D02*
X160076666Y-53149104D01*
X160076666Y-53149104D02*
X160029047Y-53291961D01*
X160029047Y-53291961D02*
X159933809Y-53387200D01*
X159933809Y-53387200D02*
X159790952Y-53434819D01*
X159790952Y-53434819D02*
X159695714Y-53434819D01*
X160457619Y-52434819D02*
X161076666Y-52434819D01*
X161076666Y-52434819D02*
X160743333Y-52815771D01*
X160743333Y-52815771D02*
X160886190Y-52815771D01*
X160886190Y-52815771D02*
X160981428Y-52863390D01*
X160981428Y-52863390D02*
X161029047Y-52911009D01*
X161029047Y-52911009D02*
X161076666Y-53006247D01*
X161076666Y-53006247D02*
X161076666Y-53244342D01*
X161076666Y-53244342D02*
X161029047Y-53339580D01*
X161029047Y-53339580D02*
X160981428Y-53387200D01*
X160981428Y-53387200D02*
X160886190Y-53434819D01*
X160886190Y-53434819D02*
X160600476Y-53434819D01*
X160600476Y-53434819D02*
X160505238Y-53387200D01*
X160505238Y-53387200D02*
X160457619Y-53339580D01*
X157818095Y-80634819D02*
X157818095Y-81444342D01*
X157818095Y-81444342D02*
X157865714Y-81539580D01*
X157865714Y-81539580D02*
X157913333Y-81587200D01*
X157913333Y-81587200D02*
X158008571Y-81634819D01*
X158008571Y-81634819D02*
X158199047Y-81634819D01*
X158199047Y-81634819D02*
X158294285Y-81587200D01*
X158294285Y-81587200D02*
X158341904Y-81539580D01*
X158341904Y-81539580D02*
X158389523Y-81444342D01*
X158389523Y-81444342D02*
X158389523Y-80634819D01*
X159389523Y-81634819D02*
X158818095Y-81634819D01*
X159103809Y-81634819D02*
X159103809Y-80634819D01*
X159103809Y-80634819D02*
X159008571Y-80777676D01*
X159008571Y-80777676D02*
X158913333Y-80872914D01*
X158913333Y-80872914D02*
X158818095Y-80920533D01*
X93461905Y-92454819D02*
X93461905Y-91454819D01*
X93461905Y-91454819D02*
X93842857Y-91454819D01*
X93842857Y-91454819D02*
X93938095Y-91502438D01*
X93938095Y-91502438D02*
X93985714Y-91550057D01*
X93985714Y-91550057D02*
X94033333Y-91645295D01*
X94033333Y-91645295D02*
X94033333Y-91788152D01*
X94033333Y-91788152D02*
X93985714Y-91883390D01*
X93985714Y-91883390D02*
X93938095Y-91931009D01*
X93938095Y-91931009D02*
X93842857Y-91978628D01*
X93842857Y-91978628D02*
X93461905Y-91978628D01*
X94985714Y-92454819D02*
X94414286Y-92454819D01*
X94700000Y-92454819D02*
X94700000Y-91454819D01*
X94700000Y-91454819D02*
X94604762Y-91597676D01*
X94604762Y-91597676D02*
X94509524Y-91692914D01*
X94509524Y-91692914D02*
X94414286Y-91740533D01*
X138859580Y-87116666D02*
X138907200Y-87164285D01*
X138907200Y-87164285D02*
X138954819Y-87307142D01*
X138954819Y-87307142D02*
X138954819Y-87402380D01*
X138954819Y-87402380D02*
X138907200Y-87545237D01*
X138907200Y-87545237D02*
X138811961Y-87640475D01*
X138811961Y-87640475D02*
X138716723Y-87688094D01*
X138716723Y-87688094D02*
X138526247Y-87735713D01*
X138526247Y-87735713D02*
X138383390Y-87735713D01*
X138383390Y-87735713D02*
X138192914Y-87688094D01*
X138192914Y-87688094D02*
X138097676Y-87640475D01*
X138097676Y-87640475D02*
X138002438Y-87545237D01*
X138002438Y-87545237D02*
X137954819Y-87402380D01*
X137954819Y-87402380D02*
X137954819Y-87307142D01*
X137954819Y-87307142D02*
X138002438Y-87164285D01*
X138002438Y-87164285D02*
X138050057Y-87116666D01*
X137954819Y-86783332D02*
X137954819Y-86164285D01*
X137954819Y-86164285D02*
X138335771Y-86497618D01*
X138335771Y-86497618D02*
X138335771Y-86354761D01*
X138335771Y-86354761D02*
X138383390Y-86259523D01*
X138383390Y-86259523D02*
X138431009Y-86211904D01*
X138431009Y-86211904D02*
X138526247Y-86164285D01*
X138526247Y-86164285D02*
X138764342Y-86164285D01*
X138764342Y-86164285D02*
X138859580Y-86211904D01*
X138859580Y-86211904D02*
X138907200Y-86259523D01*
X138907200Y-86259523D02*
X138954819Y-86354761D01*
X138954819Y-86354761D02*
X138954819Y-86640475D01*
X138954819Y-86640475D02*
X138907200Y-86735713D01*
X138907200Y-86735713D02*
X138859580Y-86783332D01*
X139833333Y-73959580D02*
X139785714Y-74007200D01*
X139785714Y-74007200D02*
X139642857Y-74054819D01*
X139642857Y-74054819D02*
X139547619Y-74054819D01*
X139547619Y-74054819D02*
X139404762Y-74007200D01*
X139404762Y-74007200D02*
X139309524Y-73911961D01*
X139309524Y-73911961D02*
X139261905Y-73816723D01*
X139261905Y-73816723D02*
X139214286Y-73626247D01*
X139214286Y-73626247D02*
X139214286Y-73483390D01*
X139214286Y-73483390D02*
X139261905Y-73292914D01*
X139261905Y-73292914D02*
X139309524Y-73197676D01*
X139309524Y-73197676D02*
X139404762Y-73102438D01*
X139404762Y-73102438D02*
X139547619Y-73054819D01*
X139547619Y-73054819D02*
X139642857Y-73054819D01*
X139642857Y-73054819D02*
X139785714Y-73102438D01*
X139785714Y-73102438D02*
X139833333Y-73150057D01*
X140214286Y-73150057D02*
X140261905Y-73102438D01*
X140261905Y-73102438D02*
X140357143Y-73054819D01*
X140357143Y-73054819D02*
X140595238Y-73054819D01*
X140595238Y-73054819D02*
X140690476Y-73102438D01*
X140690476Y-73102438D02*
X140738095Y-73150057D01*
X140738095Y-73150057D02*
X140785714Y-73245295D01*
X140785714Y-73245295D02*
X140785714Y-73340533D01*
X140785714Y-73340533D02*
X140738095Y-73483390D01*
X140738095Y-73483390D02*
X140166667Y-74054819D01*
X140166667Y-74054819D02*
X140785714Y-74054819D01*
X129774761Y-91404819D02*
X129441428Y-90928628D01*
X129203333Y-91404819D02*
X129203333Y-90404819D01*
X129203333Y-90404819D02*
X129584285Y-90404819D01*
X129584285Y-90404819D02*
X129679523Y-90452438D01*
X129679523Y-90452438D02*
X129727142Y-90500057D01*
X129727142Y-90500057D02*
X129774761Y-90595295D01*
X129774761Y-90595295D02*
X129774761Y-90738152D01*
X129774761Y-90738152D02*
X129727142Y-90833390D01*
X129727142Y-90833390D02*
X129679523Y-90881009D01*
X129679523Y-90881009D02*
X129584285Y-90928628D01*
X129584285Y-90928628D02*
X129203333Y-90928628D01*
X130060476Y-90404819D02*
X130393809Y-91404819D01*
X130393809Y-91404819D02*
X130727142Y-90404819D01*
X131584285Y-91404819D02*
X131012857Y-91404819D01*
X131298571Y-91404819D02*
X131298571Y-90404819D01*
X131298571Y-90404819D02*
X131203333Y-90547676D01*
X131203333Y-90547676D02*
X131108095Y-90642914D01*
X131108095Y-90642914D02*
X131012857Y-90690533D01*
X159726666Y-66884819D02*
X159726666Y-67599104D01*
X159726666Y-67599104D02*
X159679047Y-67741961D01*
X159679047Y-67741961D02*
X159583809Y-67837200D01*
X159583809Y-67837200D02*
X159440952Y-67884819D01*
X159440952Y-67884819D02*
X159345714Y-67884819D01*
X160155238Y-66980057D02*
X160202857Y-66932438D01*
X160202857Y-66932438D02*
X160298095Y-66884819D01*
X160298095Y-66884819D02*
X160536190Y-66884819D01*
X160536190Y-66884819D02*
X160631428Y-66932438D01*
X160631428Y-66932438D02*
X160679047Y-66980057D01*
X160679047Y-66980057D02*
X160726666Y-67075295D01*
X160726666Y-67075295D02*
X160726666Y-67170533D01*
X160726666Y-67170533D02*
X160679047Y-67313390D01*
X160679047Y-67313390D02*
X160107619Y-67884819D01*
X160107619Y-67884819D02*
X160726666Y-67884819D01*
X111128095Y-89564819D02*
X111128095Y-90374342D01*
X111128095Y-90374342D02*
X111175714Y-90469580D01*
X111175714Y-90469580D02*
X111223333Y-90517200D01*
X111223333Y-90517200D02*
X111318571Y-90564819D01*
X111318571Y-90564819D02*
X111509047Y-90564819D01*
X111509047Y-90564819D02*
X111604285Y-90517200D01*
X111604285Y-90517200D02*
X111651904Y-90469580D01*
X111651904Y-90469580D02*
X111699523Y-90374342D01*
X111699523Y-90374342D02*
X111699523Y-89564819D01*
X112128095Y-89660057D02*
X112175714Y-89612438D01*
X112175714Y-89612438D02*
X112270952Y-89564819D01*
X112270952Y-89564819D02*
X112509047Y-89564819D01*
X112509047Y-89564819D02*
X112604285Y-89612438D01*
X112604285Y-89612438D02*
X112651904Y-89660057D01*
X112651904Y-89660057D02*
X112699523Y-89755295D01*
X112699523Y-89755295D02*
X112699523Y-89850533D01*
X112699523Y-89850533D02*
X112651904Y-89993390D01*
X112651904Y-89993390D02*
X112080476Y-90564819D01*
X112080476Y-90564819D02*
X112699523Y-90564819D01*
X140105633Y-60069580D02*
X140058014Y-60117200D01*
X140058014Y-60117200D02*
X139915157Y-60164819D01*
X139915157Y-60164819D02*
X139819919Y-60164819D01*
X139819919Y-60164819D02*
X139677062Y-60117200D01*
X139677062Y-60117200D02*
X139581824Y-60021961D01*
X139581824Y-60021961D02*
X139534205Y-59926723D01*
X139534205Y-59926723D02*
X139486586Y-59736247D01*
X139486586Y-59736247D02*
X139486586Y-59593390D01*
X139486586Y-59593390D02*
X139534205Y-59402914D01*
X139534205Y-59402914D02*
X139581824Y-59307676D01*
X139581824Y-59307676D02*
X139677062Y-59212438D01*
X139677062Y-59212438D02*
X139819919Y-59164819D01*
X139819919Y-59164819D02*
X139915157Y-59164819D01*
X139915157Y-59164819D02*
X140058014Y-59212438D01*
X140058014Y-59212438D02*
X140105633Y-59260057D01*
X141010395Y-59164819D02*
X140534205Y-59164819D01*
X140534205Y-59164819D02*
X140486586Y-59641009D01*
X140486586Y-59641009D02*
X140534205Y-59593390D01*
X140534205Y-59593390D02*
X140629443Y-59545771D01*
X140629443Y-59545771D02*
X140867538Y-59545771D01*
X140867538Y-59545771D02*
X140962776Y-59593390D01*
X140962776Y-59593390D02*
X141010395Y-59641009D01*
X141010395Y-59641009D02*
X141058014Y-59736247D01*
X141058014Y-59736247D02*
X141058014Y-59974342D01*
X141058014Y-59974342D02*
X141010395Y-60069580D01*
X141010395Y-60069580D02*
X140962776Y-60117200D01*
X140962776Y-60117200D02*
X140867538Y-60164819D01*
X140867538Y-60164819D02*
X140629443Y-60164819D01*
X140629443Y-60164819D02*
X140534205Y-60117200D01*
X140534205Y-60117200D02*
X140486586Y-60069580D01*
D12*
%TO.C,U3*%
X118130000Y-54920000D02*
X118130000Y-90600000D01*
X118130000Y-90600000D02*
X131050000Y-90600000D01*
X123590000Y-54920000D02*
X118130000Y-54920000D01*
X131050000Y-54920000D02*
X125590000Y-54920000D01*
X131050000Y-90600000D02*
X131050000Y-54920000D01*
X123590000Y-54920000D02*
G75*
G03*
X125590000Y-54920000I1000000J0D01*
G01*
%TO.C,C6*%
X139643300Y-66950000D02*
X140901300Y-66950000D01*
X139643300Y-68790000D02*
X140901300Y-68790000D01*
%TO.C,J1*%
X141170000Y-103630000D02*
X141170000Y-102300000D01*
X142500000Y-103630000D02*
X141170000Y-103630000D01*
X143770000Y-103630000D02*
X148910000Y-103630000D01*
X143770000Y-103630000D02*
X143770000Y-100970000D01*
X148910000Y-103630000D02*
X148910000Y-100970000D01*
X143770000Y-100970000D02*
X148910000Y-100970000D01*
%TO.C,R17*%
X138277133Y-95400001D02*
G75*
G03*
X138180095Y-96849358I-417133J-699999D01*
G01*
%TO.C,R18*%
X127830000Y-102430000D02*
X131670000Y-102430000D01*
X127830000Y-104270000D02*
X131670000Y-104270000D01*
%TO.C,C1*%
X139371000Y-71580000D02*
X140629000Y-71580000D01*
X139371000Y-73420000D02*
X140629000Y-73420000D01*
%TO.C,U5*%
X117680000Y-92170000D02*
X117680000Y-102450000D01*
X117680000Y-102450000D02*
X122980000Y-102450000D01*
X119330000Y-92170000D02*
X117680000Y-92170000D01*
X122980000Y-92170000D02*
X121330000Y-92170000D01*
X122980000Y-102450000D02*
X122980000Y-92170000D01*
X119330000Y-92170000D02*
G75*
G03*
X121330000Y-92170000I1000000J0D01*
G01*
%TO.C,J3*%
X154755000Y-53980000D02*
X156025000Y-53980000D01*
X154755000Y-55250000D02*
X154755000Y-53980000D01*
X157067929Y-57410000D02*
X157465000Y-57410000D01*
X157067929Y-58170000D02*
X157465000Y-58170000D01*
X157067929Y-59950000D02*
X157465000Y-59950000D01*
X157067929Y-60710000D02*
X157465000Y-60710000D01*
X157067929Y-62490000D02*
X157465000Y-62490000D01*
X157067929Y-63250000D02*
X157465000Y-63250000D01*
X157135000Y-54870000D02*
X157465000Y-54870000D01*
X157135000Y-55630000D02*
X157465000Y-55630000D01*
X157465000Y-53920000D02*
X157465000Y-64200000D01*
X157465000Y-56520000D02*
X160125000Y-56520000D01*
X157465000Y-59060000D02*
X160125000Y-59060000D01*
X157465000Y-61600000D02*
X160125000Y-61600000D01*
X157465000Y-64200000D02*
X160125000Y-64200000D01*
X160125000Y-53920000D02*
X157465000Y-53920000D01*
X160125000Y-54870000D02*
X166125000Y-54870000D01*
X160125000Y-54930000D02*
X166125000Y-54930000D01*
X160125000Y-55050000D02*
X166125000Y-55050000D01*
X160125000Y-55170000D02*
X166125000Y-55170000D01*
X160125000Y-55290000D02*
X166125000Y-55290000D01*
X160125000Y-55410000D02*
X166125000Y-55410000D01*
X160125000Y-55530000D02*
X166125000Y-55530000D01*
X160125000Y-57410000D02*
X166125000Y-57410000D01*
X160125000Y-59950000D02*
X166125000Y-59950000D01*
X160125000Y-62490000D02*
X166125000Y-62490000D01*
X160125000Y-64200000D02*
X160125000Y-53920000D01*
X166125000Y-54870000D02*
X166125000Y-55630000D01*
X166125000Y-55630000D02*
X160125000Y-55630000D01*
X166125000Y-57410000D02*
X166125000Y-58170000D01*
X166125000Y-58170000D02*
X160125000Y-58170000D01*
X166125000Y-59950000D02*
X166125000Y-60710000D01*
X166125000Y-60710000D02*
X160125000Y-60710000D01*
X166125000Y-62490000D02*
X166125000Y-63250000D01*
X166125000Y-63250000D02*
X160125000Y-63250000D01*
%TO.C,U1*%
X155345000Y-82180000D02*
X155345000Y-102620000D01*
X155345000Y-102620000D02*
X161815000Y-102620000D01*
X157580000Y-82180000D02*
X155345000Y-82180000D01*
X161815000Y-82180000D02*
X159580000Y-82180000D01*
X161815000Y-102620000D02*
X161815000Y-82180000D01*
X157580000Y-82180000D02*
G75*
G03*
X159580000Y-82180000I1000000J0D01*
G01*
%TO.C,P1*%
X88200000Y-93100000D02*
X100200000Y-93100000D01*
X88200000Y-104100000D02*
X88200000Y-93100000D01*
X89700000Y-104100000D02*
X88200000Y-104100000D01*
X89700000Y-105300000D02*
X89700000Y-104100000D01*
X91200000Y-105300000D02*
X89700000Y-105300000D01*
X91200000Y-107100000D02*
X91200000Y-105300000D01*
X92200000Y-104100000D02*
X92200000Y-107100000D01*
X96200000Y-104100000D02*
X92200000Y-104100000D01*
X96200000Y-107100000D02*
X96200000Y-104100000D01*
X97200000Y-105300000D02*
X97200000Y-107100000D01*
X97200000Y-107100000D02*
X91200000Y-107100000D01*
X98700000Y-104100000D02*
X98700000Y-105300000D01*
X98700000Y-105300000D02*
X97200000Y-105300000D01*
X100200000Y-93100000D02*
X100200000Y-104100000D01*
X100200000Y-104100000D02*
X98700000Y-104100000D01*
%TO.C,C3*%
X140555000Y-89219801D02*
X140555000Y-88819801D01*
X140355000Y-89019801D02*
X140755000Y-89019801D01*
X139670000Y-86950000D02*
X143830000Y-86950000D01*
X139670000Y-86910000D02*
X143830000Y-86910000D01*
X139671000Y-86870000D02*
X143829000Y-86870000D01*
X139673000Y-86830000D02*
X143827000Y-86830000D01*
X139676000Y-86790000D02*
X143824000Y-86790000D01*
X139679000Y-86750000D02*
X140910000Y-86750000D01*
X142590000Y-86750000D02*
X143821000Y-86750000D01*
X139683000Y-86710000D02*
X140910000Y-86710000D01*
X142590000Y-86710000D02*
X143817000Y-86710000D01*
X139688000Y-86670000D02*
X140910000Y-86670000D01*
X142590000Y-86670000D02*
X143812000Y-86670000D01*
X139694000Y-86630000D02*
X140910000Y-86630000D01*
X142590000Y-86630000D02*
X143806000Y-86630000D01*
X139700000Y-86590000D02*
X140910000Y-86590000D01*
X142590000Y-86590000D02*
X143800000Y-86590000D01*
X139708000Y-86550000D02*
X140910000Y-86550000D01*
X142590000Y-86550000D02*
X143792000Y-86550000D01*
X139716000Y-86510000D02*
X140910000Y-86510000D01*
X142590000Y-86510000D02*
X143784000Y-86510000D01*
X139725000Y-86470000D02*
X140910000Y-86470000D01*
X142590000Y-86470000D02*
X143775000Y-86470000D01*
X139734000Y-86430000D02*
X140910000Y-86430000D01*
X142590000Y-86430000D02*
X143766000Y-86430000D01*
X139745000Y-86390000D02*
X140910000Y-86390000D01*
X142590000Y-86390000D02*
X143755000Y-86390000D01*
X139756000Y-86350000D02*
X140910000Y-86350000D01*
X142590000Y-86350000D02*
X143744000Y-86350000D01*
X139768000Y-86310000D02*
X140910000Y-86310000D01*
X142590000Y-86310000D02*
X143732000Y-86310000D01*
X139782000Y-86270000D02*
X140910000Y-86270000D01*
X142590000Y-86270000D02*
X143718000Y-86270000D01*
X139796000Y-86229000D02*
X140910000Y-86229000D01*
X142590000Y-86229000D02*
X143704000Y-86229000D01*
X139810000Y-86189000D02*
X140910000Y-86189000D01*
X142590000Y-86189000D02*
X143690000Y-86189000D01*
X139826000Y-86149000D02*
X140910000Y-86149000D01*
X142590000Y-86149000D02*
X143674000Y-86149000D01*
X139843000Y-86109000D02*
X140910000Y-86109000D01*
X142590000Y-86109000D02*
X143657000Y-86109000D01*
X139861000Y-86069000D02*
X140910000Y-86069000D01*
X142590000Y-86069000D02*
X143639000Y-86069000D01*
X139880000Y-86029000D02*
X140910000Y-86029000D01*
X142590000Y-86029000D02*
X143620000Y-86029000D01*
X139899000Y-85989000D02*
X140910000Y-85989000D01*
X142590000Y-85989000D02*
X143601000Y-85989000D01*
X139920000Y-85949000D02*
X140910000Y-85949000D01*
X142590000Y-85949000D02*
X143580000Y-85949000D01*
X139942000Y-85909000D02*
X140910000Y-85909000D01*
X142590000Y-85909000D02*
X143558000Y-85909000D01*
X139965000Y-85869000D02*
X140910000Y-85869000D01*
X142590000Y-85869000D02*
X143535000Y-85869000D01*
X139990000Y-85829000D02*
X140910000Y-85829000D01*
X142590000Y-85829000D02*
X143510000Y-85829000D01*
X140015000Y-85789000D02*
X140910000Y-85789000D01*
X142590000Y-85789000D02*
X143485000Y-85789000D01*
X140042000Y-85749000D02*
X140910000Y-85749000D01*
X142590000Y-85749000D02*
X143458000Y-85749000D01*
X140070000Y-85709000D02*
X140910000Y-85709000D01*
X142590000Y-85709000D02*
X143430000Y-85709000D01*
X140100000Y-85669000D02*
X140910000Y-85669000D01*
X142590000Y-85669000D02*
X143400000Y-85669000D01*
X140131000Y-85629000D02*
X140910000Y-85629000D01*
X142590000Y-85629000D02*
X143369000Y-85629000D01*
X140163000Y-85589000D02*
X140910000Y-85589000D01*
X142590000Y-85589000D02*
X143337000Y-85589000D01*
X140198000Y-85549000D02*
X140910000Y-85549000D01*
X142590000Y-85549000D02*
X143302000Y-85549000D01*
X140234000Y-85509000D02*
X140910000Y-85509000D01*
X142590000Y-85509000D02*
X143266000Y-85509000D01*
X140272000Y-85469000D02*
X140910000Y-85469000D01*
X142590000Y-85469000D02*
X143228000Y-85469000D01*
X140312000Y-85429000D02*
X140910000Y-85429000D01*
X142590000Y-85429000D02*
X143188000Y-85429000D01*
X140354000Y-85389000D02*
X140910000Y-85389000D01*
X142590000Y-85389000D02*
X143146000Y-85389000D01*
X140399000Y-85349000D02*
X140910000Y-85349000D01*
X142590000Y-85349000D02*
X143101000Y-85349000D01*
X140446000Y-85309000D02*
X140910000Y-85309000D01*
X142590000Y-85309000D02*
X143054000Y-85309000D01*
X140496000Y-85269000D02*
X140910000Y-85269000D01*
X142590000Y-85269000D02*
X143004000Y-85269000D01*
X140550000Y-85229000D02*
X140910000Y-85229000D01*
X142590000Y-85229000D02*
X142950000Y-85229000D01*
X140608000Y-85189000D02*
X140910000Y-85189000D01*
X142590000Y-85189000D02*
X142892000Y-85189000D01*
X140670000Y-85149000D02*
X140910000Y-85149000D01*
X142590000Y-85149000D02*
X142830000Y-85149000D01*
X140737000Y-85109000D02*
X142763000Y-85109000D01*
X140810000Y-85069000D02*
X142690000Y-85069000D01*
X140891000Y-85029000D02*
X142609000Y-85029000D01*
X140982000Y-84989000D02*
X142518000Y-84989000D01*
X141086000Y-84949000D02*
X142414000Y-84949000D01*
X141213000Y-84909000D02*
X142287000Y-84909000D01*
X141380000Y-84869000D02*
X142120000Y-84869000D01*
X143870000Y-86950000D02*
G75*
G03*
X143870000Y-86950000I-2120000J0D01*
G01*
%TO.C,C2*%
X139371000Y-74730000D02*
X140629000Y-74730000D01*
X139371000Y-76570000D02*
X140629000Y-76570000D01*
%TO.C,RV1*%
X134300000Y-96010000D02*
G75*
G03*
X134300000Y-96010000I-3930000J0D01*
G01*
%TO.C,J2*%
X154405000Y-68430000D02*
X155675000Y-68430000D01*
X154405000Y-69700000D02*
X154405000Y-68430000D01*
X156717929Y-71860000D02*
X157115000Y-71860000D01*
X156717929Y-72620000D02*
X157115000Y-72620000D01*
X156717929Y-74400000D02*
X157115000Y-74400000D01*
X156717929Y-75160000D02*
X157115000Y-75160000D01*
X156717929Y-76940000D02*
X157115000Y-76940000D01*
X156717929Y-77700000D02*
X157115000Y-77700000D01*
X156785000Y-69320000D02*
X157115000Y-69320000D01*
X156785000Y-70080000D02*
X157115000Y-70080000D01*
X157115000Y-68370000D02*
X157115000Y-78650000D01*
X157115000Y-70970000D02*
X159775000Y-70970000D01*
X157115000Y-73510000D02*
X159775000Y-73510000D01*
X157115000Y-76050000D02*
X159775000Y-76050000D01*
X157115000Y-78650000D02*
X159775000Y-78650000D01*
X159775000Y-68370000D02*
X157115000Y-68370000D01*
X159775000Y-69320000D02*
X165775000Y-69320000D01*
X159775000Y-69380000D02*
X165775000Y-69380000D01*
X159775000Y-69500000D02*
X165775000Y-69500000D01*
X159775000Y-69620000D02*
X165775000Y-69620000D01*
X159775000Y-69740000D02*
X165775000Y-69740000D01*
X159775000Y-69860000D02*
X165775000Y-69860000D01*
X159775000Y-69980000D02*
X165775000Y-69980000D01*
X159775000Y-71860000D02*
X165775000Y-71860000D01*
X159775000Y-74400000D02*
X165775000Y-74400000D01*
X159775000Y-76940000D02*
X165775000Y-76940000D01*
X159775000Y-78650000D02*
X159775000Y-68370000D01*
X165775000Y-69320000D02*
X165775000Y-70080000D01*
X165775000Y-70080000D02*
X159775000Y-70080000D01*
X165775000Y-71860000D02*
X165775000Y-72620000D01*
X165775000Y-72620000D02*
X159775000Y-72620000D01*
X165775000Y-74400000D02*
X165775000Y-75160000D01*
X165775000Y-75160000D02*
X159775000Y-75160000D01*
X165775000Y-76940000D02*
X165775000Y-77700000D01*
X165775000Y-77700000D02*
X159775000Y-77700000D01*
%TO.C,U2*%
X88390000Y-82330000D02*
X88390000Y-56900000D01*
X88390000Y-82330000D02*
X90930000Y-82330000D01*
X90930000Y-82330000D02*
X90930000Y-89230000D01*
X90930000Y-89230000D02*
X114250000Y-89230000D01*
X112130000Y-54770000D02*
X90520000Y-54770000D01*
X114250000Y-89230000D02*
X114250000Y-56900000D01*
X90520000Y-54770000D02*
G75*
G03*
X88390000Y-56900000I2J-2130002D01*
G01*
X114250000Y-56900000D02*
G75*
G03*
X112120000Y-54770000I-2130000J0D01*
G01*
D11*
X87985000Y-63110000D02*
X87350000Y-63745000D01*
X87350000Y-62475000D01*
X87985000Y-63110000D01*
G36*
X87985000Y-63110000D02*
G01*
X87350000Y-63745000D01*
X87350000Y-62475000D01*
X87985000Y-63110000D01*
G37*
D12*
%TO.C,C5*%
X139643300Y-60840000D02*
X140901300Y-60840000D01*
X139643300Y-62680000D02*
X140901300Y-62680000D01*
%TD*%
M02*
