%TF.GenerationSoftware,KiCad,Pcbnew,7.0.6*%
%TF.CreationDate,2024-01-05T10:51:49+01:00*%
%TF.ProjectId,c64sid,63363473-6964-42e6-9b69-6361645f7063,rev?*%
%TF.SameCoordinates,Original*%
%TF.FileFunction,Copper,L1,Top*%
%TF.FilePolarity,Positive*%
%FSLAX46Y46*%
G04 Gerber Fmt 4.6, Leading zero omitted, Abs format (unit mm)*
G04 Created by KiCad (PCBNEW 7.0.6) date 2024-01-05 10:51:49*
%MOMM*%
%LPD*%
G01*
G04 APERTURE LIST*
%TA.AperFunction,ComponentPad*%
%ADD10R,1.600000X1.600000*%
%TD*%
%TA.AperFunction,ComponentPad*%
%ADD11O,1.600000X1.600000*%
%TD*%
%TA.AperFunction,ComponentPad*%
%ADD12C,1.600000*%
%TD*%
%TA.AperFunction,ComponentPad*%
%ADD13R,1.700000X1.700000*%
%TD*%
%TA.AperFunction,ComponentPad*%
%ADD14O,1.700000X1.700000*%
%TD*%
%TA.AperFunction,ComponentPad*%
%ADD15C,1.400000*%
%TD*%
%TA.AperFunction,ComponentPad*%
%ADD16O,1.400000X1.400000*%
%TD*%
%TA.AperFunction,ComponentPad*%
%ADD17O,1.200000X2.200000*%
%TD*%
%TA.AperFunction,ComponentPad*%
%ADD18O,2.200000X1.200000*%
%TD*%
%TA.AperFunction,ComponentPad*%
%ADD19R,1.200000X1.200000*%
%TD*%
%TA.AperFunction,ComponentPad*%
%ADD20C,1.200000*%
%TD*%
%TA.AperFunction,ComponentPad*%
%ADD21C,1.260000*%
%TD*%
%TA.AperFunction,ComponentPad*%
%ADD22R,2.000000X2.000000*%
%TD*%
%TA.AperFunction,ComponentPad*%
%ADD23O,2.000000X1.600000*%
%TD*%
%TA.AperFunction,ViaPad*%
%ADD24C,0.800000*%
%TD*%
%TA.AperFunction,Conductor*%
%ADD25C,0.250000*%
%TD*%
G04 APERTURE END LIST*
D10*
%TO.P,U3,1,CAP1A*%
%TO.N,Net-(U3-CAP1A)*%
X116970000Y-56250000D03*
D11*
%TO.P,U3,2,CAP2A*%
%TO.N,Net-(U3-CAP2A)*%
X116970000Y-58790000D03*
%TO.P,U3,3,CAP1B*%
%TO.N,Net-(U3-CAP1B)*%
X116970000Y-61330000D03*
%TO.P,U3,4,CAP2B*%
%TO.N,Net-(U3-CAP2B)*%
X116970000Y-63870000D03*
%TO.P,U3,5,~{RES}*%
%TO.N,/~{res}*%
X116970000Y-66410000D03*
%TO.P,U3,6,S2*%
%TO.N,/clk*%
X116970000Y-68950000D03*
%TO.P,U3,7,R~{W}*%
%TO.N,/r~{w}*%
X116970000Y-71490000D03*
%TO.P,U3,8,~{CS}*%
%TO.N,/~{cs}*%
X116970000Y-74030000D03*
%TO.P,U3,9,A0*%
%TO.N,/A_{0}*%
X116970000Y-76570000D03*
%TO.P,U3,10,A1*%
%TO.N,/A_{1}*%
X116970000Y-79110000D03*
%TO.P,U3,11,A2*%
%TO.N,/A_{2}*%
X116970000Y-81650000D03*
%TO.P,U3,12,A3*%
%TO.N,/A_{3}*%
X116970000Y-84190000D03*
%TO.P,U3,13,A4*%
%TO.N,/A_{4}*%
X116970000Y-86730000D03*
%TO.P,U3,14,GND*%
%TO.N,unconnected-(U3-GND-Pad14)*%
X116970000Y-89270000D03*
%TO.P,U3,15,D0*%
%TO.N,/D0*%
X132210000Y-89270000D03*
%TO.P,U3,16,D1*%
%TO.N,/D1*%
X132210000Y-86730000D03*
%TO.P,U3,17,D2*%
%TO.N,/D2*%
X132210000Y-84190000D03*
%TO.P,U3,18,D3*%
%TO.N,/D3*%
X132210000Y-81650000D03*
%TO.P,U3,19,D4*%
%TO.N,/D4*%
X132210000Y-79110000D03*
%TO.P,U3,20,D5*%
%TO.N,/D5*%
X132210000Y-76570000D03*
%TO.P,U3,21,D6*%
%TO.N,/D6*%
X132210000Y-74030000D03*
%TO.P,U3,22,D7*%
%TO.N,/D7*%
X132210000Y-71490000D03*
%TO.P,U3,23,POTY*%
%TO.N,unconnected-(U3-POTY-Pad23)*%
X132210000Y-68950000D03*
%TO.P,U3,24,POTX*%
%TO.N,unconnected-(U3-POTX-Pad24)*%
X132210000Y-66410000D03*
%TO.P,U3,25,Vcc*%
%TO.N,VCC*%
X132210000Y-63870000D03*
%TO.P,U3,26,EXT*%
%TO.N,unconnected-(U3-EXT-Pad26)*%
X132210000Y-61330000D03*
%TO.P,U3,27,OUT*%
%TO.N,Net-(U3-OUT)*%
X132210000Y-58790000D03*
%TO.P,U3,28,Vdd*%
%TO.N,+12V*%
X132210000Y-56250000D03*
%TD*%
D12*
%TO.P,C6,1*%
%TO.N,Net-(U3-OUT)*%
X139022300Y-67870000D03*
%TO.P,C6,2*%
%TO.N,GND*%
X141522300Y-67870000D03*
%TD*%
D13*
%TO.P,J1,1,Pin_1*%
%TO.N,GND*%
X142500000Y-102300000D03*
D14*
%TO.P,J1,2,Pin_2*%
%TO.N,Audio*%
X145040000Y-102300000D03*
%TO.P,J1,3,Pin_3*%
X147580000Y-102300000D03*
%TD*%
D15*
%TO.P,R17,1*%
%TO.N,Net-(C5-Pad1)*%
X137860000Y-96100000D03*
D16*
%TO.P,R17,2*%
%TO.N,GND*%
X139760000Y-96100000D03*
%TD*%
D15*
%TO.P,R18,1*%
%TO.N,Net-(U3-OUT)*%
X127210000Y-103350000D03*
D16*
%TO.P,R18,2*%
%TO.N,Net-(C5-Pad1)*%
X132290000Y-103350000D03*
%TD*%
D12*
%TO.P,C1,1*%
%TO.N,Net-(U3-CAP2A)*%
X138750000Y-72500000D03*
%TO.P,C1,2*%
%TO.N,Net-(U3-CAP1A)*%
X141250000Y-72500000D03*
%TD*%
D10*
%TO.P,U5,1,GAIN*%
%TO.N,unconnected-(U5-GAIN-Pad1)*%
X116520000Y-93500000D03*
D11*
%TO.P,U5,2,-*%
%TO.N,GND*%
X116520000Y-96040000D03*
%TO.P,U5,3,+*%
%TO.N,Net-(U5-+)*%
X116520000Y-98580000D03*
%TO.P,U5,4,GND*%
%TO.N,GND*%
X116520000Y-101120000D03*
%TO.P,U5,5*%
%TO.N,Net-(C3-Pad1)*%
X124140000Y-101120000D03*
%TO.P,U5,6,V+*%
%TO.N,VCC*%
X124140000Y-98580000D03*
%TO.P,U5,7,BYPASS*%
%TO.N,unconnected-(U5-BYPASS-Pad7)*%
X124140000Y-96040000D03*
%TO.P,U5,8,GAIN*%
%TO.N,unconnected-(U5-GAIN-Pad8)*%
X124140000Y-93500000D03*
%TD*%
D13*
%TO.P,J3,1,Pin_1*%
%TO.N,GND*%
X156025000Y-55250000D03*
D14*
%TO.P,J3,2,Pin_2*%
%TO.N,VCC*%
X156025000Y-57790000D03*
%TO.P,J3,3,Pin_3*%
%TO.N,/SCL*%
X156025000Y-60330000D03*
%TO.P,J3,4,Pin_4*%
%TO.N,/SDA*%
X156025000Y-62870000D03*
%TD*%
D10*
%TO.P,U1,1,A0*%
%TO.N,unconnected-(U1-A0-Pad1)*%
X153500000Y-83510000D03*
D11*
%TO.P,U1,2,A1*%
%TO.N,GND*%
X153500000Y-86050000D03*
%TO.P,U1,3,A2*%
X153500000Y-88590000D03*
%TO.P,U1,4,P0*%
%TO.N,/D0*%
X153500000Y-91130000D03*
%TO.P,U1,5,P1*%
%TO.N,/D1*%
X153500000Y-93670000D03*
%TO.P,U1,6,P2*%
%TO.N,/D2*%
X153500000Y-96210000D03*
%TO.P,U1,7,P3*%
%TO.N,/D3*%
X153500000Y-98750000D03*
%TO.P,U1,8,VSS*%
%TO.N,GND*%
X153500000Y-101290000D03*
%TO.P,U1,9,P4*%
%TO.N,/D4*%
X163660000Y-101290000D03*
%TO.P,U1,10,P5*%
%TO.N,/D5*%
X163660000Y-98750000D03*
%TO.P,U1,11,P6*%
%TO.N,/D6*%
X163660000Y-96210000D03*
%TO.P,U1,12,P7*%
%TO.N,/D7*%
X163660000Y-93670000D03*
%TO.P,U1,13,~{INT}*%
%TO.N,unconnected-(U1-~{INT}-Pad13)*%
X163660000Y-91130000D03*
%TO.P,U1,14,SCL*%
%TO.N,/SCL*%
X163660000Y-88590000D03*
%TO.P,U1,15,SDA*%
%TO.N,/SDA*%
X163660000Y-86050000D03*
%TO.P,U1,16,VDD*%
%TO.N,VCC*%
X163660000Y-83510000D03*
%TD*%
D17*
%TO.P,P1,R*%
%TO.N,N/C*%
X89200000Y-95800000D03*
D18*
%TO.P,P1,S*%
X94200000Y-100800000D03*
D17*
%TO.P,P1,T*%
X99200000Y-95800000D03*
%TD*%
D19*
%TO.P,C3,1*%
%TO.N,Net-(C3-Pad1)*%
X141750000Y-87950000D03*
D20*
%TO.P,C3,2*%
%TO.N,Net-(P1-R)*%
X141750000Y-85950000D03*
%TD*%
D12*
%TO.P,C2,1*%
%TO.N,Net-(U3-CAP1B)*%
X138750000Y-75650000D03*
%TO.P,C2,2*%
%TO.N,Net-(U3-CAP2B)*%
X141250000Y-75650000D03*
%TD*%
D21*
%TO.P,RV1,1,1*%
%TO.N,Audio*%
X130370000Y-98550000D03*
%TO.P,RV1,2,2*%
%TO.N,Net-(U5-+)*%
X127830000Y-96010000D03*
%TO.P,RV1,3,3*%
%TO.N,GND*%
X130370000Y-93470000D03*
%TD*%
D13*
%TO.P,J2,1,Pin_1*%
%TO.N,/In*%
X155675000Y-69700000D03*
D14*
%TO.P,J2,2,Pin_2*%
%TO.N,/D3*%
X155675000Y-72240000D03*
%TO.P,J2,3,Pin_3*%
%TO.N,GND*%
X155675000Y-74780000D03*
%TO.P,J2,4,Pin_4*%
%TO.N,VCC*%
X155675000Y-77320000D03*
%TD*%
D22*
%TO.P,U2,1,~{RST}*%
%TO.N,/RST*%
X89890000Y-63110000D03*
D23*
%TO.P,U2,2,A0*%
%TO.N,/In*%
X89890000Y-65650000D03*
%TO.P,U2,3,D0*%
%TO.N,/RST*%
X89890000Y-68190000D03*
%TO.P,U2,4,SCK/D5*%
%TO.N,/A_{1}*%
X89890000Y-70730000D03*
%TO.P,U2,5,MISO/D6*%
%TO.N,/A_{2}*%
X89890000Y-73270000D03*
%TO.P,U2,6,MOSI/D7*%
%TO.N,/A_{3}*%
X89890000Y-75810000D03*
%TO.P,U2,7,CS/D8*%
%TO.N,/A_{4}*%
X89890000Y-78350000D03*
%TO.P,U2,8,3V3*%
%TO.N,unconnected-(U2-3V3-Pad8)*%
X89890000Y-80890000D03*
%TO.P,U2,9,5V*%
%TO.N,VCC*%
X112750000Y-80890000D03*
%TO.P,U2,10,GND*%
%TO.N,GND*%
X112750000Y-78350000D03*
%TO.P,U2,11,D4*%
%TO.N,/A_{0}*%
X112750000Y-75810000D03*
%TO.P,U2,12,D3*%
%TO.N,/D3*%
X112750000Y-73270000D03*
%TO.P,U2,13,SDA/D2*%
%TO.N,/SDA*%
X112750000Y-70730000D03*
%TO.P,U2,14,SCL/D1*%
%TO.N,/SCL*%
X112750000Y-68190000D03*
%TO.P,U2,15,RX*%
%TO.N,unconnected-(U2-RX-Pad15)*%
X112750000Y-65650000D03*
%TO.P,U2,16,TX*%
%TO.N,unconnected-(U2-TX-Pad16)*%
X112750000Y-63110000D03*
%TD*%
D12*
%TO.P,C5,1*%
%TO.N,Net-(C5-Pad1)*%
X139022300Y-61760000D03*
%TO.P,C5,2*%
%TO.N,Audio*%
X141522300Y-61760000D03*
%TD*%
D24*
%TO.N,Net-(U3-CAP2A)*%
X129125900Y-72380600D03*
%TO.N,Net-(U3-CAP1B)*%
X135759900Y-67367500D03*
%TD*%
D25*
%TO.N,GND*%
X155141100Y-87691100D02*
X153500000Y-86050000D01*
X118989300Y-94697600D02*
X117646900Y-96040000D01*
X153500000Y-100163100D02*
X153781700Y-100163100D01*
X137130000Y-93470000D02*
X139760000Y-96100000D01*
X129142400Y-94697600D02*
X118989300Y-94697600D01*
X153500000Y-101290000D02*
X153500000Y-100163100D01*
X130370000Y-93470000D02*
X129142400Y-94697600D01*
X155141100Y-98803700D02*
X155141100Y-87691100D01*
X153781700Y-100163100D02*
X155141100Y-98803700D01*
X130370000Y-93470000D02*
X137130000Y-93470000D01*
X116520000Y-96040000D02*
X117646900Y-96040000D01*
%TO.N,Audio*%
X100275000Y-96725000D02*
X90666852Y-96725000D01*
X101000000Y-96000000D02*
X100275000Y-96725000D01*
X147580000Y-102300000D02*
X146400000Y-102300000D01*
X88675000Y-96725000D02*
X88450000Y-96500000D01*
X89583148Y-96725000D02*
X88675000Y-96725000D01*
X145040000Y-102300000D02*
X143863100Y-102300000D01*
X90666852Y-96725000D02*
X90125000Y-96183148D01*
X146400000Y-102300000D02*
X145040000Y-102300000D01*
X146400000Y-105300000D02*
X146150000Y-105550000D01*
X140945400Y-98550000D02*
X143863100Y-101467700D01*
X143863100Y-101467700D02*
X143863100Y-102300000D01*
X90125000Y-96183148D02*
X89583148Y-96725000D01*
X101250000Y-96250000D02*
X101000000Y-96000000D01*
X101250000Y-100571142D02*
X101250000Y-96250000D01*
X146150000Y-105550000D02*
X106228858Y-105550000D01*
X130370000Y-98550000D02*
X140945400Y-98550000D01*
X106228858Y-105550000D02*
X101250000Y-100571142D01*
X146400000Y-102300000D02*
X146400000Y-105300000D01*
%TO.N,Net-(U5-+)*%
X127830000Y-96010000D02*
X126530000Y-97310000D01*
X118916900Y-97310000D02*
X117646900Y-98580000D01*
X126530000Y-97310000D02*
X118916900Y-97310000D01*
X116520000Y-98580000D02*
X117646900Y-98580000D01*
%TO.N,Net-(C3-Pad1)*%
X116029800Y-102262000D02*
X121871100Y-102262000D01*
X116219200Y-94697800D02*
X114875700Y-96041300D01*
X138410900Y-85537800D02*
X126580100Y-85537800D01*
X124140000Y-101120000D02*
X123013100Y-101120000D01*
X140823100Y-87950000D02*
X138410900Y-85537800D01*
X117420100Y-94697800D02*
X116219200Y-94697800D01*
X121871100Y-102262000D02*
X123013100Y-101120000D01*
X126580100Y-85537800D02*
X117420100Y-94697800D01*
X114875700Y-101107900D02*
X116029800Y-102262000D01*
X141750000Y-87950000D02*
X140823100Y-87950000D01*
X114875700Y-96041300D02*
X114875700Y-101107900D01*
%TO.N,VCC*%
X149028700Y-82789400D02*
X154498100Y-77320000D01*
X148768100Y-63870000D02*
X132210000Y-63870000D01*
X156025000Y-57790000D02*
X154848100Y-57790000D01*
X112750000Y-80890000D02*
X112750000Y-82016900D01*
X154848100Y-57790000D02*
X148768100Y-63870000D01*
X155675000Y-77320000D02*
X154498100Y-77320000D01*
X112750000Y-82016900D02*
X113522500Y-82789400D01*
X113522500Y-82789400D02*
X149028700Y-82789400D01*
%TO.N,/D0*%
X150513100Y-89270000D02*
X132210000Y-89270000D01*
X152373100Y-91130000D02*
X150513100Y-89270000D01*
X153500000Y-91130000D02*
X152373100Y-91130000D01*
%TO.N,Net-(U3-CAP2A)*%
X138620000Y-72630000D02*
X129375300Y-72630000D01*
X129375300Y-72630000D02*
X129125900Y-72380600D01*
X138750000Y-72500000D02*
X138620000Y-72630000D01*
%TO.N,Net-(U3-CAP1B)*%
X133532400Y-65140000D02*
X135759900Y-67367500D01*
X116970000Y-61330000D02*
X118096900Y-61330000D01*
X118096900Y-61330000D02*
X121906900Y-65140000D01*
X121906900Y-65140000D02*
X133532400Y-65140000D01*
%TO.N,Net-(U3-CAP2B)*%
X144961000Y-75650000D02*
X141250000Y-75650000D01*
X116608300Y-60060000D02*
X134841000Y-60060000D01*
X115818600Y-60849700D02*
X116608300Y-60060000D01*
X138295900Y-56605100D02*
X156533800Y-56605100D01*
X134841000Y-60060000D02*
X138295900Y-56605100D01*
X116970000Y-63870000D02*
X116970000Y-62743100D01*
X115818600Y-61825200D02*
X115818600Y-60849700D01*
X157230900Y-63380100D02*
X144961000Y-75650000D01*
X156533800Y-56605100D02*
X157230900Y-57302200D01*
X116970000Y-62743100D02*
X116736500Y-62743100D01*
X116736500Y-62743100D02*
X115818600Y-61825200D01*
X157230900Y-57302200D02*
X157230900Y-63380100D01*
%TO.N,/A_{0}*%
X112750000Y-75810000D02*
X115083100Y-75810000D01*
X115083100Y-75810000D02*
X115843100Y-76570000D01*
X116970000Y-76570000D02*
X115843100Y-76570000D01*
%TO.N,/A_{1}*%
X116970000Y-79110000D02*
X115843100Y-79110000D01*
X95804300Y-77018900D02*
X90642300Y-71856900D01*
X115843100Y-79110000D02*
X113752000Y-77018900D01*
X89890000Y-70730000D02*
X89890000Y-71856900D01*
X113752000Y-77018900D02*
X95804300Y-77018900D01*
X90642300Y-71856900D02*
X89890000Y-71856900D01*
%TO.N,/A_{2}*%
X91016900Y-74396900D02*
X96180400Y-79560400D01*
X116970000Y-81650000D02*
X115843100Y-81650000D01*
X96180400Y-79560400D02*
X113753500Y-79560400D01*
X89890000Y-74396900D02*
X91016900Y-74396900D01*
X89890000Y-73270000D02*
X89890000Y-74396900D01*
X113753500Y-79560400D02*
X115843100Y-81650000D01*
%TO.N,/A_{3}*%
X116970000Y-84190000D02*
X98534600Y-84190000D01*
X89890000Y-75810000D02*
X89890000Y-76936900D01*
X98534600Y-84190000D02*
X91281500Y-76936900D01*
X91281500Y-76936900D02*
X89890000Y-76936900D01*
%TO.N,/A_{4}*%
X89890000Y-79476900D02*
X91016900Y-79476900D01*
X91016900Y-79476900D02*
X98270000Y-86730000D01*
X89890000Y-78350000D02*
X89890000Y-79476900D01*
X98270000Y-86730000D02*
X116970000Y-86730000D01*
%TO.N,/D1*%
X131060600Y-88772800D02*
X131976500Y-87856900D01*
X133849400Y-92543100D02*
X131060600Y-89754300D01*
X153500000Y-93670000D02*
X152373100Y-93670000D01*
X151246200Y-92543100D02*
X133849400Y-92543100D01*
X131976500Y-87856900D02*
X132210000Y-87856900D01*
X131060600Y-89754300D02*
X131060600Y-88772800D01*
X152373100Y-93670000D02*
X151246200Y-92543100D01*
X132210000Y-86730000D02*
X132210000Y-87856900D01*
%TO.N,/D2*%
X132210000Y-84190000D02*
X149839800Y-84190000D01*
X154656200Y-88122400D02*
X154656200Y-94160400D01*
X149839800Y-84190000D02*
X152969800Y-87320000D01*
X153500000Y-96210000D02*
X153500000Y-95083100D01*
X154656200Y-94160400D02*
X153733500Y-95083100D01*
X153853800Y-87320000D02*
X154656200Y-88122400D01*
X153733500Y-95083100D02*
X153500000Y-95083100D01*
X152969800Y-87320000D02*
X153853800Y-87320000D01*
%TO.N,/D3*%
X155675000Y-72240000D02*
X154498100Y-72240000D01*
X112750000Y-74396900D02*
X113876900Y-74396900D01*
X112750000Y-73270000D02*
X112750000Y-74396900D01*
X113876900Y-74396900D02*
X114781500Y-75301500D01*
X145088100Y-81650000D02*
X132210000Y-81650000D01*
X114781500Y-75301500D02*
X124734600Y-75301500D01*
X124734600Y-75301500D02*
X131083100Y-81650000D01*
X154498100Y-72240000D02*
X145088100Y-81650000D01*
X132210000Y-81650000D02*
X131083100Y-81650000D01*
%TO.N,/In*%
X155675000Y-69700000D02*
X154498100Y-69700000D01*
X96240000Y-72000000D02*
X91016900Y-66776900D01*
X135756100Y-76787000D02*
X134410700Y-75441600D01*
X91016900Y-66776900D02*
X89890000Y-66776900D01*
X134410700Y-75441600D02*
X125588100Y-75441600D01*
X113480200Y-72000000D02*
X96240000Y-72000000D01*
X154498100Y-69700000D02*
X147411100Y-76787000D01*
X114240200Y-72760000D02*
X113480200Y-72000000D01*
X122906500Y-72760000D02*
X114240200Y-72760000D01*
X125588100Y-75441600D02*
X122906500Y-72760000D01*
X89890000Y-65650000D02*
X89890000Y-66776900D01*
X147411100Y-76787000D02*
X135756100Y-76787000D01*
%TO.N,/SDA*%
X112750000Y-70730000D02*
X114076900Y-70730000D01*
X147455000Y-70263100D02*
X114543800Y-70263100D01*
X114543800Y-70263100D02*
X114076900Y-70730000D01*
X156025000Y-62870000D02*
X154848100Y-62870000D01*
X154848100Y-62870000D02*
X147455000Y-70263100D01*
%TO.N,/SCL*%
X136106100Y-68094500D02*
X138468000Y-65732600D01*
X112750000Y-68190000D02*
X114076900Y-68190000D01*
X135167500Y-68094500D02*
X136106100Y-68094500D01*
X114459400Y-67807500D02*
X134880500Y-67807500D01*
X114076900Y-68190000D02*
X114459400Y-67807500D01*
X138468000Y-65732600D02*
X149445500Y-65732600D01*
X149445500Y-65732600D02*
X154848100Y-60330000D01*
X134880500Y-67807500D02*
X135167500Y-68094500D01*
X156025000Y-60330000D02*
X154848100Y-60330000D01*
%TD*%
M02*
